<?xml version="1.0" encoding="UTF-8" standalone="no"?>
<svg
   xmlns:dc="http://purl.org/dc/elements/1.1/"
   xmlns:cc="http://creativecommons.org/ns#"
   xmlns:rdf="http://www.w3.org/1999/02/22-rdf-syntax-ns#"
   xmlns:svg="http://www.w3.org/2000/svg"
   xmlns="http://www.w3.org/2000/svg"
   xmlns:sodipodi="http://sodipodi.sourceforge.net/DTD/sodipodi-0.dtd"
   xmlns:inkscape="http://www.inkscape.org/namespaces/inkscape"
   inkscape:version="1.0.2 (e86c870879, 2021-01-15)"
   sodipodi:docname="corro_white_eyes.svg"
   xml:space="preserve"
   enable-background="new 0 0 2148.918 806.663"
   viewBox="0 0 1055.3783 862.30857"
   height="862.30859"
   width="1055.3783"
   y="0px"
   x="0px"
   id="Layer_1"
   version="1.1"><metadata
   id="metadata1018"><rdf:RDF><cc:Work
       rdf:about=""><dc:format>image/svg+xml</dc:format><dc:type
         rdf:resource="http://purl.org/dc/dcmitype/StillImage" /><dc:title></dc:title></cc:Work></rdf:RDF></metadata><defs
   id="defs1016" /><sodipodi:namedview
   fit-margin-right="50"
   fit-margin-left="50"
   fit-margin-bottom="50"
   fit-margin-top="50"
   inkscape:current-layer="g1011"
   inkscape:window-maximized="0"
   inkscape:window-y="300"
   inkscape:window-x="3"
   inkscape:cy="546.09603"
   inkscape:cx="527.06858"
   inkscape:zoom="1.8742829"
   showgrid="false"
   id="namedview1014"
   inkscape:window-height="1413"
   inkscape:window-width="2552"
   inkscape:pageshadow="2"
   inkscape:pageopacity="0"
   guidetolerance="10"
   gridtolerance="10"
   objecttolerance="10"
   borderopacity="1"
   bordercolor="#666666"
   pagecolor="#ffffff"
   inkscape:document-rotation="0" />
<g
   transform="translate(-17.999618,15)"
   id="g1011">
	<g
   id="g841">
		<path
   inkscape:connector-curvature="0"
   id="path833"
   d="m 146.014,554.568 c 1.591,3.545 5.165,6.132 9.438,6.83 l 42.059,6.831 c 1.581,2.84 3.243,5.638 4.911,8.414 l -18.34,33.827 c -1.888,3.447 -1.577,7.5 0.781,10.702 2.349,3.221 6.4,5.152 10.76,5.091 l 42.82,-0.495 c 2.171,2.474 4.378,4.926 6.632,7.333 l -10.506,36.433 c -1.063,3.699 0.122,7.617 3.146,10.377 3.008,2.749 7.431,3.947 11.671,3.155 l 41.844,-7.838 c 2.662,2.061 5.372,4.098 8.109,6.094 l -2.189,37.566 c -0.23,3.802 1.81,7.46 5.388,9.639 3.576,2.194 8.159,2.604 12.14,1.1 l 39.174,-14.833 c 3.104,1.573 6.225,3.132 9.381,4.642 l 6.194,37.179 c 0.626,3.767 3.436,7.009 7.425,8.542 3.976,1.538 8.571,1.153 12.125,-1.009 l 35.074,-21.251 c 3.396,1.021 6.807,2.001 10.265,2.942 l 14.3,35.416 c 1.455,3.609 4.91,6.306 9.169,7.127 4.244,0.814 8.649,-0.345 11.652,-3.066 l 29.687,-26.946 c 3.522,0.409 7.048,0.789 10.584,1.114 l 21.947,32.409 c 2.226,3.281 6.218,5.33 10.565,5.413 4.334,0.083 8.41,-1.812 10.733,-5.008 l 23.126,-31.552 c 3.547,-0.188 7.099,-0.435 10.628,-0.709 l 28.682,28.058 c 2.905,2.835 7.279,4.161 11.538,3.509 4.282,-0.666 7.842,-3.222 9.418,-6.773 l 15.601,-34.846 c 3.479,-0.81 6.926,-1.668 10.365,-2.55 l 34.257,22.572 c 3.483,2.302 8.062,2.861 12.1,1.468 4.025,-1.379 6.964,-4.513 7.725,-8.252 l 7.556,-36.917 c 3.208,-1.389 6.385,-2.818 9.552,-4.281 l 38.6,16.313 c 3.92,1.661 8.535,1.422 12.17,-0.636 3.65,-2.042 5.828,-5.619 5.732,-9.426 l -0.802,-37.625 c 2.803,-1.892 5.578,-3.823 8.327,-5.78 l 41.521,9.426 c 4.218,0.946 8.677,-0.075 11.79,-2.709 3.135,-2.644 4.454,-6.513 3.53,-10.249 l -9.146,-36.808 c 2.32,-2.329 4.618,-4.687 6.875,-7.074 l 42.77,2.125 c 4.316,0.19 8.473,-1.549 10.943,-4.679 2.478,-3.11 2.918,-7.147 1.181,-10.665 l -17.104,-34.501 c 1.774,-2.712 3.535,-5.445 5.231,-8.222 l 42.278,-5.226 c 4.297,-0.526 7.954,-2.975 9.684,-6.465 1.72,-3.5 1.257,-7.533 -1.215,-10.677 L 921.479,528.24 c 0.203,-0.531 -1.999,-32.28 -21.526,-58.158 0,0 -0.169,-0.069 -0.475,-0.191 C 855.033,407.22 716.712,359.6 552.124,356.465 378.036,353.149 231.49,400.686 193.714,467.318 176.853,484.381 172.602,512.466 173.11,513.99 l -25.495,29.958 c -2.602,3.046 -3.19,7.059 -1.601,10.62 z"
   fill="#8f1f1d" />
		<path
   inkscape:connector-curvature="0"
   id="path835"
   d="m 1006.008,420.45 c -1.728,-4.947 -19.723,-3.687 -24.194,-4.556 l -65.68,0.586 c -1.701,-3.954 -3.489,-7.85 -5.283,-11.713 l 42.551,-65.735 c 1.905,-4.904 12.443,-11.779 9.923,-16.227 -2.512,-4.469 -18.607,1.506 -23.153,1.708 l -67.827,12.061 c -2.313,-3.422 -4.662,-6.814 -7.059,-10.144 l 38.03,-84.758 c 1.039,-5.237 12.658,-26.514 9.45,-30.318 -3.189,-3.792 -18.273,9.018 -22.681,10.249 l -73.744,46.76 c -2.816,-2.829 -5.681,-5.624 -8.575,-8.362 l 20.894,-73.414 c 0.168,-5.358 11.334,-30.76 7.561,-33.733 -3.771,-2.993 -16.667,8.452 -20.79,10.675 l -65.16,50.814 c -3.268,-2.13 -6.552,-4.242 -9.872,-6.284 l 15.496,-86.805 c -0.726,-5.287 5.608,-32.964 1.417,-35.016 -4.174,-2.061 -26.104,22.056 -29.768,25.194 l -51.029,65.23 c -3.562,-1.346 -7.138,-2.635 -10.763,-3.867 L 660.92,74.281 c -1.585,-5.042 -1.212,-22.872 -5.67,-23.913 -4.442,-1.033 -10.15,14.875 -13.23,18.788 l -44.103,87.736 c -3.682,-0.482 -7.366,-0.922 -11.061,-1.283 L 564.527,54.643 C 562.143,50.081 559.614,35 555.078,35 c -4.522,0 -8.035,18.07 -10.396,22.631 l -27.077,97.982 c -3.695,0.361 -7.396,0.801 -11.07,1.283 L 468.137,67.88 c -3.084,-3.914 -8.33,-23.237 -12.758,-22.205 -4.455,1.053 -3.621,15.455 -5.197,20.497 l -11.499,106.627 c -3.614,1.232 -7.193,2.532 -10.764,3.867 l -34.912,-44.734 c -3.677,-3.148 -24.165,-34.096 -28.351,-32.026 -4.172,2.051 -1.167,34.426 -1.89,39.712 l 1.271,68.443 c -3.32,2.042 -6.606,4.14 -9.883,6.284 l -63.681,-59.354 c -4.12,-2.232 -12.786,-11.533 -16.538,-8.541 -3.769,2.974 -0.643,16.419 -0.472,21.778 l 23.196,91.775 c -2.887,2.738 -5.745,5.533 -8.575,8.362 l -69.905,-43.344 c -4.418,-1.22 -18.065,-11.905 -21.263,-8.113 -3.218,3.804 4.164,7.809 5.197,13.047 l 36.995,96.478 c -2.376,3.342 -4.729,6.721 -7.034,10.144 L 118.07,298.04 c -4.506,-0.151 -16.917,-6.178 -19.435,-1.708 -2.522,4.447 8.045,10.896 9.923,15.8 l 85.012,92.637 c -1.798,3.863 -3.583,7.759 -5.3,11.713 l -82.547,-9.979 c -4.47,0.857 -16.217,-1.544 -17.956,3.415 -1.728,4.972 9.648,11.415 12.286,15.774 l 61.741,66.493 c -0.201,0.755 2.702,45.391 23.563,81.296 0,0 0.177,0.092 0.499,0.258 47.554,87.035 192.733,150.364 364.46,150.364 181.639,0 333.578,-70.85 371.705,-165.663 17.261,-24.474 21.158,-64.123 20.598,-66.255 l 50.158,-54.084 c 2.656,-4.362 14.956,-12.68 13.231,-17.651 z"
   fill="#8f1f1d" />
		<path
   inkscape:connector-curvature="0"
   id="path837"
   d="m 195.34,493.008 c 0,0 -94.761,13.599 -116.083,18.311 -21.321,4.711 -7.095,8.297 0,9.421 24.757,3.927 146.88,7.067 149.25,7.853 2.369,0.785 -33.167,-35.585 -33.167,-35.585 z"
   fill="#8f1f1d" />
		<path
   inkscape:connector-curvature="0"
   id="path839"
   d="m 896.038,499.622 c 0,0 94.762,13.6 116.083,18.311 21.32,4.712 7.095,8.298 0,9.422 -24.758,3.927 -146.88,7.067 -149.249,7.853 -2.37,0.784 33.166,-35.586 33.166,-35.586 z"
   fill="#8f1f1d" />
	</g>
	<g
   transform="translate(-48,14)"
   id="g847">
		<path
   inkscape:connector-curvature="0"
   id="path843"
   d="m 467.982,486.018 c 0,0 -41.096,-44.997 -82.191,0 0,0 -32.292,60.001 0,89.998 0,0 52.837,41.999 82.191,0 0,0 35.226,-33.002 0,-89.998 z" />
		<path
   inkscape:connector-curvature="0"
   id="path845"
   d="m 420.404,502.71 c 0,17.521 10.329,31.727 23.066,31.727 12.735,0 23.064,-14.205 23.064,-31.727 0,-17.522 -10.329,-31.728 -23.064,-31.728 -12.738,0 -23.066,14.206 -23.066,31.728 z"
   fill="#ffffff" />
	</g>
	<g
   transform="translate(-48,14)"
   id="g853">
		<path
   inkscape:connector-curvature="0"
   id="path849"
   d="m 698.226,469.498 c 0,0 -70.494,-31.212 -89.735,38.454 0,0 -20.153,81.201 57.891,85.784 -10e-4,0 99.518,-19.168 31.844,-124.238 z" />
		<path
   inkscape:connector-curvature="0"
   id="path851"
   d="m 662.819,499.628 c 0,18.068 10.65,32.723 23.79,32.723 13.133,0 23.786,-14.654 23.786,-32.723 0,-18.072 -10.653,-32.723 -23.786,-32.723 -13.139,0 -23.79,14.651 -23.79,32.723 z"
   fill="#ffffff" />
	</g>
	
	
	
	
	
	
	
	
	
	
	
<path
   style="fill:#ffffff;stroke-width:0.106707;stroke-linejoin:round"
   d="m 358.47077,622.5945 c -10.36978,-1.91748 -22.56002,-7.15802 -33.41483,-14.36493 -9.75884,-6.47925 -14.85831,-13.95367 -17.92343,-26.27081 -1.65116,-6.63514 -1.64795,-20.16405 0.007,-28.98845 2.13261,-11.37224 6.89515,-25.80227 11.62663,-35.22749 2.88132,-5.73967 12.02491,-13.39104 21.29772,-17.82196 6.39097,-3.05386 10.04095,-3.98067 17.11656,-4.34628 6.65941,-0.3441 10.89157,0.22733 17.47878,2.35998 l 4.35289,1.40929 -3.20123,0.42918 c -9.22923,1.23737 -16.78143,8.92498 -20.10469,20.46517 -1.59182,5.52769 -1.73805,16.72212 -0.28899,22.12307 2.36291,8.80705 7.76624,16.1826 14.16212,19.33129 3.11206,1.53205 4.06031,1.7428 7.82096,1.73819 5.77165,-0.007 9.65809,-1.76127 14.06129,-6.34675 10.04227,-10.45799 12.21748,-30.01173 4.89343,-43.98889 -1.15887,-2.21158 -2.03782,-4.09026 -1.95323,-4.17485 0.39487,-0.39487 7.06122,5.80245 8.21112,7.6334 2.82066,4.49122 8.63762,17.00724 10.43601,22.45453 2.8558,8.65019 3.62409,12.93851 3.9463,22.02689 0.43714,12.33059 -1.23204,20.52941 -6.25369,30.71718 -3.19492,6.48172 -12.27558,18.10367 -17.56447,22.47998 -3.9717,3.28639 -10.51455,6.68679 -15.23201,7.91627 -4.75527,1.23933 -14.03446,1.45184 -19.47411,0.44599 z"
   id="path899"
   transform="translate(17.999618,-15)" /><path
   style="fill:#ffffff;stroke-width:0.106707;stroke-linejoin:round"
   d="m 591.35984,621.57833 c -27.7786,-4.46921 -44.11552,-19.74438 -49.45808,-46.24372 -1.03171,-5.11737 -1.21169,-7.64426 -1.18945,-16.70045 0.0302,-12.29737 0.85769,-18.30405 3.68599,-26.75632 3.32935,-9.94962 7.7848,-17.6544 14.04887,-24.29465 11.06078,-11.72501 27.52193,-17.26787 45.93187,-15.46635 8.0836,0.79103 17.74454,2.77767 16.28611,3.34902 -0.56531,0.22146 -1.68551,0.41953 -2.48933,0.44016 -4.6723,0.11988 -11.42412,4.67826 -15.08424,10.18385 -11.6697,17.55373 -6.82698,45.55529 9.2471,53.46854 3.20966,1.5801 3.99235,1.74301 8.35449,1.73888 4.21463,-0.004 5.20364,-0.19556 7.95443,-1.54076 4.78389,-2.33943 8.88795,-6.78291 11.73328,-12.70364 3.27833,-6.82177 4.22257,-11.55016 3.98726,-19.96672 l -0.1881,-6.72807 1.97514,4.19898 c 2.6656,5.66682 6.50671,17.35907 7.95232,24.20664 1.78947,8.47639 1.68708,20.67826 -0.23505,28.01071 -2.73942,10.45023 -9.19879,20.83291 -17.25613,27.73723 -7.55813,6.47654 -18.1911,12.3728 -28.45006,15.77631 -6.06622,2.01253 -10.29818,2.33746 -16.80642,1.29036 z"
   id="path901"
   transform="translate(17.999618,-15)" /><path
   style="fill:#ffffff;stroke-width:0.106707;stroke-linejoin:round"
   d="m 588.75972,620.81873 c -26.34506,-5.73495 -40.50172,-19.28341 -46.30023,-44.31107 -1.35473,-5.84732 -1.88519,-20.34459 -1.05421,-28.81102 1.72562,-17.58149 9.7802,-33.89084 21.691,-43.92114 4.53985,-3.82308 13.62545,-8.35521 19.99373,-9.97338 8.76003,-2.2259 22.38004,-1.96405 34.41316,0.66161 l 2.66769,0.5821 -3.50902,0.86749 c -8.80283,2.17622 -15.8745,10.32154 -19.01787,21.90523 -1.45353,5.35645 -1.29997,17.05571 0.29733,22.65129 2.4959,8.74351 7.60563,15.78511 13.95973,19.23758 2.75281,1.49573 3.29774,1.59443 8.80336,1.59443 5.49961,0 6.0475,-0.0989 8.70695,-1.57215 3.57174,-1.97857 8.38859,-7.09514 10.58819,-11.24702 3.32559,-6.27722 4.06703,-9.37335 4.40456,-18.39277 l 0.30949,-8.26983 2.73808,6.93599 c 2.685,6.80148 4.59677,12.83252 6.42679,20.27442 1.42243,5.78445 1.2678,22.00496 -0.26339,27.62858 -2.41421,8.8667 -8.00562,18.41067 -14.7704,25.21156 -6.60508,6.64035 -19.90773,14.44885 -30.94516,18.16444 -5.74654,1.93449 -12.56976,2.21386 -19.13978,0.78366 z"
   id="path903"
   transform="translate(17.999618,-15)" /><path
   style="fill:#ffffff;stroke-width:0.106707;stroke-linejoin:round"
   d="m 588.75972,620.81873 c -26.34506,-5.73495 -40.50172,-19.28341 -46.30023,-44.31107 -1.35473,-5.84732 -1.88519,-20.34459 -1.05421,-28.81102 1.79226,-18.2605 10.77216,-35.74283 23.19561,-45.15792 4.29381,-3.25405 12.79919,-7.26853 18.48912,-8.72672 8.73145,-2.23766 22.35371,-1.97968 34.41316,0.65173 l 2.66769,0.5821 -3.59309,0.88799 c -6.66995,1.6484 -12.19874,6.55682 -15.90434,14.11975 -3.21496,6.56156 -3.94609,10.02459 -3.94856,18.7025 -0.002,6.17899 0.20781,8.20281 1.21293,11.71377 2.48709,8.68753 7.6186,15.74868 13.97594,19.2314 2.74607,1.50437 3.27461,1.60061 8.79065,1.60061 5.51034,0 6.04376,-0.0968 8.7307,-1.58507 3.49435,-1.93543 8.41604,-7.19488 10.61524,-11.34374 3.17454,-5.98887 3.95657,-9.29505 4.32461,-18.28313 l 0.33864,-8.26983 2.73124,6.93599 c 2.74418,6.96886 5.38249,15.38781 6.68794,21.34149 0.44868,2.04627 0.68441,6.66611 0.65337,12.8049 -0.0556,10.99853 -0.77461,14.65056 -4.41295,22.41457 -6.2416,13.31922 -16.21059,22.75072 -32.07608,30.34665 -12.63561,6.04955 -19.73576,7.28872 -29.53738,5.15505 z"
   id="path905"
   transform="translate(17.999618,-15)" /><path
   style="fill:#ffffff;stroke-width:0.106707;stroke-linejoin:round"
   d="m 588.75972,620.81873 c -13.43168,-2.92389 -22.49369,-7.2275 -30.36299,-14.4196 -8.47562,-7.74624 -15.02429,-21.46668 -16.8956,-35.39883 -0.70108,-5.21961 -0.71002,-17.70785 -0.0174,-24.28347 1.78438,-16.94006 10.11934,-33.42676 21.80361,-43.12791 4.3673,-3.62607 13.69037,-8.23368 19.80265,-9.7868 8.68222,-2.20613 22.72577,-1.95567 34.14639,0.609 l 2.93446,0.65897 -2.66769,0.62122 c -9.13218,2.12662 -16.29412,9.94104 -19.56821,21.35098 -1.01603,3.54079 -1.2139,5.48229 -1.19383,11.71378 0.0339,10.51805 1.96181,16.90144 7.25131,24.00918 2.50608,3.36753 6.38718,6.47945 7.34372,5.88827 0.31068,-0.19201 0.56487,0.0185 0.56487,0.46779 0,1.36848 5.38917,2.61218 10.12991,2.33774 4.85136,-0.28084 7.86607,-1.57276 11.68752,-5.00857 3.55659,-3.19768 6.33671,-7.52779 8.53207,-13.2889 1.71211,-4.49294 1.85018,-5.33383 2.14643,-13.07167 l 0.31662,-8.26983 2.73124,6.93599 c 2.74418,6.96886 5.38249,15.38781 6.68794,21.34149 0.44868,2.04627 0.68441,6.66611 0.65337,12.8049 -0.0556,11.001 -0.77443,14.65016 -4.41681,22.42281 -6.27216,13.38444 -16.12224,22.70203 -32.07222,30.33841 -12.63561,6.04955 -19.73576,7.28872 -29.53738,5.15505 z"
   id="path907"
   transform="translate(17.999618,-15)" /><path
   style="fill:#ffffff;stroke-width:0.106707;stroke-linejoin:round"
   d="m 588.75972,620.81873 c -16.88489,-3.6756 -28.19682,-10.19978 -36.04841,-20.79099 -3.26906,-4.40973 -7.56691,-13.25967 -9.09025,-18.71824 -2.55895,-9.16952 -3.38816,-22.64877 -2.1334,-34.67993 1.81142,-17.36866 11.20856,-35.2844 23.17149,-44.17668 4.47105,-3.32341 12.98225,-7.30282 18.70132,-8.74379 4.08946,-1.03038 6.21659,-1.21072 14.40182,-1.22105 8.99341,-0.0113 11.85309,0.27362 19.74088,1.96722 l 2.66769,0.57278 -3.2555,0.89421 c -11.40045,3.13144 -19.11977,14.32418 -20.27772,29.40197 -0.649,8.45069 1.339,17.84563 5.08755,24.04289 2.25098,3.7214 7.22182,8.90808 8.95407,9.34285 0.67197,0.16865 1.22177,0.51399 1.22177,0.76743 0,1.07632 6.07293,2.22971 10.23716,1.94428 6.87533,-0.47124 11.78094,-3.70602 16.43726,-10.8388 4.00228,-6.13088 5.42818,-11.22208 5.81421,-20.75974 l 0.32392,-8.00306 2.74661,6.93599 c 2.7208,6.87082 5.31291,15.16351 6.67085,21.34149 0.45089,2.05129 0.6862,6.65105 0.65509,12.8049 -0.0584,11.55818 -0.83381,15.10279 -5.25193,24.00918 -6.38688,12.87518 -15.67406,21.33494 -31.91498,29.0716 -3.58518,1.70787 -8.19914,3.6341 -10.25326,4.28053 -5.29678,1.66687 -12.51002,1.88201 -18.60624,0.55496 z"
   id="path909"
   transform="translate(17.999618,-15)" /></g>
</svg>
