  0
SECTION
  2
HEADER
  9
$ACADVER
  1
AC1014
  9
$HANDSEED
  5
FFFF
  9
$MEASUREMENT
 70
     1
  0
ENDSEC
  0
SECTION
  2
TABLES
  0
TABLE
  2
VPORT
  5
8
330
0
100
AcDbSymbolTable
 70
     4
  0
VPORT
  5
2E
330
8
100
AcDbSymbolTableRecord
100
AcDbViewportTableRecord
  2
*ACTIVE
 70
     0
 10
0.0
 20
0.0
 11
1.0
 21
1.0
 12
210.0
 22
148.5
 13
0.0
 23
0.0
 14
10.0
 24
10.0
 15
10.0
 25
10.0
 16
0.0
 26
0.0
 36
1.0
 17
0.0
 27
0.0
 37
0.0
 40
341.0
 41
1.24
 42
50.0
 43
0.0
 44
0.0
 50
0.0
 51
0.0
 71
     0
 72
   100
 73
     1
 74
     3
 75
     0
 76
     0
 77
     0
 78
     0
  0
ENDTAB
  0
TABLE
  2
LTYPE
  5
5
330
0
100
AcDbSymbolTable
 70
     1
  0
LTYPE
  5
14
330
5
100
AcDbSymbolTableRecord
100
AcDbLinetypeTableRecord
  2
BYBLOCK
 70
     0
  3

 72
    65
 73
     0
 40
0.0
  0
LTYPE
  5
15
330
5
100
AcDbSymbolTableRecord
100
AcDbLinetypeTableRecord
  2
BYLAYER
 70
     0
  3

 72
    65
 73
     0
 40
0.0
  0
LTYPE
  5
16
330
5
100
AcDbSymbolTableRecord
100
AcDbLinetypeTableRecord
  2
CONTINUOUS
 70
     0
  3
Solid line
 72
    65
 73
     0
 40
0.0
  0
ENDTAB
  0
TABLE
  2
LAYER
  5
2
100
AcDbSymbolTable
 70
2
  0
LAYER
  5
50
100
AcDbSymbolTableRecord
100
AcDbLayerTableRecord
  2
0
 70
0
  6
CONTINUOUS
  0
LAYER
  5
51
100
AcDbSymbolTableRecord
100
AcDbLayerTableRecord
  2
outlines
 70
0
  6
CONTINUOUS
  0
ENDTAB
  0
TABLE
  2
STYLE
  5
3
330
0
100
AcDbSymbolTable
 70
     1
  0
STYLE
  5
11
330
3
100
AcDbSymbolTableRecord
100
AcDbTextStyleTableRecord
  2
STANDARD
 70
     0
 40
0.0
 41
1.0
 50
0.0
 71
     0
 42
2.5
  3
txt
  4

  0
ENDTAB
  0
TABLE
  2
VIEW
  5
6
330
0
100
AcDbSymbolTable
 70
     0
  0
ENDTAB
  0
TABLE
  2
UCS
  5
7
330
0
100
AcDbSymbolTable
 70
     0
  0
ENDTAB
  0
TABLE
  2
APPID
  5
9
330
0
100
AcDbSymbolTable
 70
     2
  0
APPID
  5
12
330
9
100
AcDbSymbolTableRecord
100
AcDbRegAppTableRecord
  2
ACAD
 70
     0
  0
ENDTAB
  0
TABLE
  2
DIMSTYLE
  5
A
330
0
100
AcDbSymbolTable
 70
     1
  0
DIMSTYLE
105
27
330
A
100
AcDbSymbolTableRecord
100
AcDbDimStyleTableRecord
  2
ISO-25
 70
     0
  3

  4

  5

  6

  7

 40
1.0
 41
2.5
 42
0.625
 43
3.75
 44
1.25
 45
0.0
 46
0.0
 47
0.0
 48
0.0
140
2.5
141
2.5
142
0.0
143
0.03937007874016
144
1.0
145
0.0
146
1.0
147
0.625
 71
     0
 72
     0
 73
     0
 74
     0
 75
     0
 76
     0
 77
     1
 78
     8
170
     0
171
     3
172
     1
173
     0
174
     0
175
     0
176
     0
177
     0
178
     0
270
     2
271
     2
272
     2
273
     2
274
     3
340
11
275
     0
280
     0
281
     0
282
     0
283
     0
284
     8
285
     0
286
     0
287
     3
288
     0
  0
ENDTAB
  0
TABLE
  2
BLOCK_RECORD
  5
1
330
0
100
AcDbSymbolTable
 70
     1
  0
BLOCK_RECORD
  5
1F
330
1
100
AcDbSymbolTableRecord
100
AcDbBlockTableRecord
  2
*MODEL_SPACE
  0
BLOCK_RECORD
  5
1B
330
1
100
AcDbSymbolTableRecord
100
AcDbBlockTableRecord
  2
*PAPER_SPACE
  0
ENDTAB
  0
ENDSEC
  0
SECTION
  2
BLOCKS
  0
BLOCK
  5
20
330
1F
100
AcDbEntity
  8
0
100
AcDbBlockBegin
  2
*MODEL_SPACE
 70
     0
 10
0.0
 20
0.0
 30
0.0
  3
*MODEL_SPACE
  1

  0
ENDBLK
  5
21
330
1F
100
AcDbEntity
  8
0
100
AcDbBlockEnd
  0
BLOCK
  5
1C
330
1B
100
AcDbEntity
 67
     1
  8
0
100
AcDbBlockBegin
  2
*PAPER_SPACE
  1

  0
ENDBLK
  5
1D
330
1B
100
AcDbEntity
 67
     1
  8
0
100
AcDbBlockEnd
  0
ENDSEC
  0
SECTION
  2
ENTITIES
  0
LWPOLYLINE
  5
100
100
AcDbEntity
  8
outlines
 62
7
100
AcDbPolyline
 90
2
 70
0
 10
86.398100
 20
-108.082768
 30
0.0
 10
86.398100
 20
-57.082111
 30
0.0
  0
LWPOLYLINE
  5
101
100
AcDbEntity
  8
outlines
 62
7
100
AcDbPolyline
 90
2
 70
0
 10
176.397917
 20
-46.482691
 30
0.0
 10
176.397917
 20
-75.220987
 30
0.0
  0
LWPOLYLINE
  5
102
100
AcDbEntity
  8
outlines
 62
7
100
AcDbPolyline
 90
2
 70
0
 10
177.382282
 20
-76.654716
 30
0.0
 10
195.276617
 20
-76.654716
 30
0.0
  0
SPLINE
  5
103
100
AcDbEntity
  8
outlines
 62
7
100
AcDbSpline
 70
8
 71
3
 72
8
 73
4
 74
0
 40
0
 40
0
 40
0
 40
0
 40
1
 40
1
 40
1
 40
1
 10
195.276617
 20
-76.654716
 30
0.0
 10
195.739515
 20
-76.654716
 30
0.0
 10
196.202153
 20
-76.654716
 30
0.0
 10
196.430697
 20
-76.919780
 30
0.0
  0
SPLINE
  5
104
100
AcDbEntity
  8
outlines
 62
7
100
AcDbSpline
 70
8
 71
3
 72
8
 73
4
 74
0
 40
0
 40
0
 40
0
 40
0
 40
1
 40
1
 40
1
 40
1
 10
196.430697
 20
-76.919780
 30
0.0
 10
196.659241
 20
-77.184844
 30
0.0
 10
196.653958
 20
-77.714693
 30
0.0
 10
196.648677
 20
-78.244289
 30
0.0
  0
SPLINE
  5
105
100
AcDbEntity
  8
outlines
 62
7
100
AcDbSpline
 70
8
 71
3
 72
8
 73
4
 74
0
 40
0
 40
0
 40
0
 40
0
 40
1
 40
1
 40
1
 40
1
 10
176.397915
 20
-75.220987
 30
0.0
 10
176.397915
 20
-75.685815
 30
0.0
 10
176.397915
 20
-76.150376
 30
0.0
 10
176.562116
 20
-76.389205
 30
0.0
  0
SPLINE
  5
106
100
AcDbEntity
  8
outlines
 62
7
100
AcDbSpline
 70
8
 71
3
 72
8
 73
4
 74
0
 40
0
 40
0
 40
0
 40
0
 40
1
 40
1
 40
1
 40
1
 10
176.562116
 20
-76.389205
 30
0.0
 10
176.726319
 20
-76.628033
 30
0.0
 10
177.054434
 20
-76.641378
 30
0.0
 10
177.382279
 20
-76.654716
 30
0.0
  0
SPLINE
  5
107
100
AcDbEntity
  8
outlines
 62
7
100
AcDbSpline
 70
8
 71
3
 72
8
 73
4
 74
0
 40
0
 40
0
 40
0
 40
0
 40
1
 40
1
 40
1
 40
1
 10
196.648677
 20
-105.277135
 30
0.0
 10
195.953494
 20
-107.871595
 30
0.0
 10
195.258360
 20
-110.465875
 30
0.0
 10
192.740885
 20
-114.027158
 30
0.0
  0
SPLINE
  5
108
100
AcDbEntity
  8
outlines
 62
7
100
AcDbSpline
 70
8
 71
3
 72
8
 73
4
 74
0
 40
0
 40
0
 40
0
 40
0
 40
1
 40
1
 40
1
 40
1
 10
192.740885
 20
-114.027158
 30
0.0
 10
190.223409
 20
-117.588441
 30
0.0
 10
185.883725
 20
-122.116723
 30
0.0
 10
181.543957
 20
-126.645091
 30
0.0
  0
SPLINE
  5
109
100
AcDbEntity
  8
outlines
 62
7
100
AcDbSpline
 70
8
 71
3
 72
8
 73
4
 74
0
 40
0
 40
0
 40
0
 40
0
 40
1
 40
1
 40
1
 40
1
 10
181.543957
 20
-126.645091
 30
0.0
 10
176.327110
 20
-123.604045
 30
0.0
 10
171.109950
 20
-120.562817
 30
0.0
 10
165.603598
 20
-118.265748
 30
0.0
  0
SPLINE
  5
10a
100
AcDbEntity
  8
outlines
 62
7
100
AcDbSpline
 70
8
 71
3
 72
8
 73
4
 74
0
 40
0
 40
0
 40
0
 40
0
 40
1
 40
1
 40
1
 40
1
 10
165.603598
 20
-118.265748
 30
0.0
 10
160.097244
 20
-115.968676
 30
0.0
 10
154.301927
 20
-114.415921
 30
0.0
 10
148.506180
 20
-112.863048
 30
0.0
  0
SPLINE
  5
10b
100
AcDbEntity
  8
outlines
 62
7
100
AcDbSpline
 70
8
 71
3
 72
8
 73
4
 74
0
 40
0
 40
0
 40
0
 40
0
 40
1
 40
1
 40
1
 40
1
 10
148.506180
 20
-112.863048
 30
0.0
 10
145.803765
 20
-106.869814
 30
0.0
 10
143.101205
 20
-100.876260
 30
0.0
 10
138.749753
 20
-98.046113
 30
0.0
  0
SPLINE
  5
10c
100
AcDbEntity
  8
outlines
 62
7
100
AcDbSpline
 70
8
 71
3
 72
8
 73
4
 74
0
 40
0
 40
0
 40
0
 40
0
 40
1
 40
1
 40
1
 40
1
 10
138.749753
 20
-98.046113
 30
0.0
 10
134.398304
 20
-95.215967
 30
0.0
 10
128.398095
 20
-95.549547
 30
0.0
 10
122.398036
 20
-97.749639
 30
0.0
  0
SPLINE
  5
10d
100
AcDbEntity
  8
outlines
 62
7
100
AcDbSpline
 70
8
 71
3
 72
8
 73
4
 74
0
 40
0
 40
0
 40
0
 40
0
 40
1
 40
1
 40
1
 40
1
 10
122.398036
 20
-97.749639
 30
0.0
 10
116.397976
 20
-99.949729
 30
0.0
 10
110.398616
 20
-104.016188
 30
0.0
 10
105.826009
 20
-106.283130
 30
0.0
  0
SPLINE
  5
10e
100
AcDbEntity
  8
outlines
 62
7
100
AcDbSpline
 70
8
 71
3
 72
8
 73
4
 74
0
 40
0
 40
0
 40
0
 40
0
 40
1
 40
1
 40
1
 40
1
 10
105.826009
 20
-106.283130
 30
0.0
 10
101.253404
 20
-108.550072
 30
0.0
 10
98.107632
 20
-109.017389
 30
0.0
 10
95.107481
 20
-109.017425
 30
0.0
  0
SPLINE
  5
10f
100
AcDbEntity
  8
outlines
 62
7
100
AcDbSpline
 70
8
 71
3
 72
8
 73
4
 74
0
 40
0
 40
0
 40
0
 40
0
 40
1
 40
1
 40
1
 40
1
 10
95.107481
 20
-109.017425
 30
0.0
 10
92.107329
 20
-109.017450
 30
0.0
 10
89.252892
 20
-108.550144
 30
0.0
 10
86.398100
 20
-108.082768
 30
0.0
  0
SPLINE
  5
110
100
AcDbEntity
  8
outlines
 62
7
100
AcDbSpline
 70
8
 71
3
 72
8
 73
4
 74
0
 40
0
 40
0
 40
0
 40
0
 40
1
 40
1
 40
1
 40
1
 10
86.398100
 20
-57.082111
 30
0.0
 10
92.398487
 20
-53.015530
 30
0.0
 10
98.398810
 20
-48.948990
 30
0.0
 10
104.398816
 20
-45.782428
 30
0.0
  0
SPLINE
  5
111
100
AcDbEntity
  8
outlines
 62
7
100
AcDbSpline
 70
8
 71
3
 72
8
 73
4
 74
0
 40
0
 40
0
 40
0
 40
0
 40
1
 40
1
 40
1
 40
1
 10
104.398816
 20
-45.782428
 30
0.0
 10
110.398822
 20
-42.615863
 30
0.0
 10
116.398182
 20
-40.349381
 30
0.0
 10
122.398206
 20
-39.216145
 30
0.0
  0
SPLINE
  5
112
100
AcDbEntity
  8
outlines
 62
7
100
AcDbSpline
 70
8
 71
3
 72
8
 73
4
 74
0
 40
0
 40
0
 40
0
 40
0
 40
1
 40
1
 40
1
 40
1
 10
122.398206
 20
-39.216145
 30
0.0
 10
128.398229
 20
-38.082908
 30
0.0
 10
134.398436
 20
-38.082908
 30
0.0
 10
140.398848
 20
-39.049449
 30
0.0
  0
SPLINE
  5
113
100
AcDbEntity
  8
outlines
 62
7
100
AcDbSpline
 70
8
 71
3
 72
8
 73
4
 74
0
 40
0
 40
0
 40
0
 40
0
 40
1
 40
1
 40
1
 40
1
 10
140.398848
 20
-39.049449
 30
0.0
 10
146.399263
 20
-40.015991
 30
0.0
 10
152.399472
 20
-41.948892
 30
0.0
 10
158.399422
 20
-43.348834
 30
0.0
  0
SPLINE
  5
114
100
AcDbEntity
  8
outlines
 62
7
100
AcDbSpline
 70
8
 71
3
 72
8
 73
4
 74
0
 40
0
 40
0
 40
0
 40
0
 40
1
 40
1
 40
1
 40
1
 10
158.399422
 20
-43.348834
 30
0.0
 10
164.399374
 20
-44.748778
 30
0.0
 10
170.398732
 20
-45.615748
 30
0.0
 10
176.397915
 20
-46.482691
 30
0.0
  0
LWPOLYLINE
  5
115
100
AcDbEntity
  8
outlines
 62
7
100
AcDbPolyline
 90
2
 70
0
 10
196.648680
 20
-78.244289
 30
0.0
 10
196.648680
 20
-105.277135
 30
0.0
  0
ENDSEC
  0
SECTION
  2
OBJECTS
  0
DICTIONARY
  5
C
330
0
100
AcDbDictionary
  3
ACAD_GROUP
350
D
  3
ACAD_MLINESTYLE
350
17
  0
DICTIONARY
  5
D
330
C
100
AcDbDictionary
  0
DICTIONARY
  5
1A
330
C
100
AcDbDictionary
  0
DICTIONARY
  5
17
330
C
100
AcDbDictionary
  3
STANDARD
350
18
  0
DICTIONARY
  5
19
330
C
100
AcDbDictionary
  0
ENDSEC
  0
EOF
