%TF.GenerationSoftware,KiCad,Pcbnew,5.1.9*%
%TF.CreationDate,2021-04-16T22:17:29+02:00*%
%TF.ProjectId,handbrush,68616e64-6272-4757-9368-2e6b69636164,rev?*%
%TF.SameCoordinates,Original*%
%TF.FileFunction,Profile,NP*%
%FSLAX46Y46*%
G04 Gerber Fmt 4.6, Leading zero omitted, Abs format (unit mm)*
G04 Created by KiCad (PCBNEW 5.1.9) date 2021-04-16 22:17:29*
%MOMM*%
%LPD*%
G01*
G04 APERTURE LIST*
%TA.AperFunction,Profile*%
%ADD10C,0.200000*%
%TD*%
G04 APERTURE END LIST*
D10*
X142026427Y-118633065D02*
X142439155Y-118376967D01*
X142439155Y-118376967D02*
X142861242Y-118139170D01*
X142861242Y-118139170D02*
X143292386Y-117919436D01*
X143292386Y-117919436D02*
X143732285Y-117717526D01*
X143732285Y-117717526D02*
X144180637Y-117533203D01*
X144180637Y-117533203D02*
X144637140Y-117366231D01*
X144637140Y-117366231D02*
X145101492Y-117216370D01*
X145101492Y-117216370D02*
X145573392Y-117083385D01*
X145573392Y-117083385D02*
X146052536Y-116967036D01*
X146052536Y-116967036D02*
X146538624Y-116867088D01*
X146538624Y-116867088D02*
X147031354Y-116783301D01*
X147031354Y-116783301D02*
X147530423Y-116715439D01*
X147530423Y-116715439D02*
X148035530Y-116663265D01*
X148035530Y-116663265D02*
X148546372Y-116626540D01*
X148546372Y-116626540D02*
X149062648Y-116605027D01*
X149062648Y-116605027D02*
X149584056Y-116598488D01*
X149584056Y-116598488D02*
X150110294Y-116606687D01*
X150110294Y-116606687D02*
X150641060Y-116629385D01*
X150641060Y-116629385D02*
X151176052Y-116666345D01*
X151176052Y-116666345D02*
X151714968Y-116717330D01*
X151714968Y-116717330D02*
X152257506Y-116782101D01*
X152257506Y-116782101D02*
X152803365Y-116860422D01*
X152803365Y-116860422D02*
X153352242Y-116952054D01*
X153352242Y-116952054D02*
X153903835Y-117056761D01*
X153903835Y-117056761D02*
X154457843Y-117174305D01*
X154457843Y-117174305D02*
X155013964Y-117304448D01*
X155013964Y-117304448D02*
X155571895Y-117446953D01*
X155571895Y-117446953D02*
X156131335Y-117601582D01*
X156131335Y-117601582D02*
X156691982Y-117768098D01*
X156691982Y-117768098D02*
X157253533Y-117946263D01*
X157253533Y-117946263D02*
X157815688Y-118135840D01*
X157815688Y-118135840D02*
X158378144Y-118336591D01*
X104214064Y-96976157D02*
X104062743Y-97116523D01*
X104062743Y-97116523D02*
X103865348Y-97193471D01*
X103865348Y-97193471D02*
X103666931Y-97225396D01*
X103666931Y-97225396D02*
X103455335Y-97239111D01*
X103455335Y-97239111D02*
X103393901Y-97241668D01*
X185668699Y-129604377D02*
X185949540Y-129603024D01*
X185949540Y-129603024D02*
X186229555Y-129599019D01*
X186229555Y-129599019D02*
X186508770Y-129592446D01*
X186508770Y-129592446D02*
X186787210Y-129583392D01*
X186787210Y-129583392D02*
X187064904Y-129571942D01*
X187064904Y-129571942D02*
X187341878Y-129558182D01*
X187341878Y-129558182D02*
X187618159Y-129542196D01*
X187618159Y-129542196D02*
X187893773Y-129524072D01*
X187893773Y-129524072D02*
X188168748Y-129503893D01*
X188168748Y-129503893D02*
X188443109Y-129481746D01*
X188443109Y-129481746D02*
X188716884Y-129457717D01*
X188716884Y-129457717D02*
X188990099Y-129431890D01*
X188990099Y-129431890D02*
X189262781Y-129404352D01*
X189262781Y-129404352D02*
X189534958Y-129375188D01*
X189534958Y-129375188D02*
X189806655Y-129344483D01*
X189806655Y-129344483D02*
X190077899Y-129312323D01*
X190077899Y-129312323D02*
X190348718Y-129278794D01*
X190348718Y-129278794D02*
X190619137Y-129243982D01*
X190619137Y-129243982D02*
X190889184Y-129207971D01*
X190889184Y-129207971D02*
X191158885Y-129170847D01*
X191158885Y-129170847D02*
X191428268Y-129132697D01*
X191428268Y-129132697D02*
X191697358Y-129093604D01*
X191697358Y-129093604D02*
X191966183Y-129053656D01*
X191966183Y-129053656D02*
X192234770Y-129012937D01*
X192234770Y-129012937D02*
X192503144Y-128971534D01*
X192503144Y-128971534D02*
X192771334Y-128929531D01*
X192771334Y-128929531D02*
X193039365Y-128887014D01*
X193039365Y-128887014D02*
X193307264Y-128844070D01*
X193307264Y-128844070D02*
X193575058Y-128800782D01*
X193575058Y-128800782D02*
X193842774Y-128757238D01*
X193842774Y-128757238D02*
X194110439Y-128713522D01*
X194110439Y-128713522D02*
X194378080Y-128669720D01*
X158377974Y-59803097D02*
X157815471Y-59700170D01*
X157815471Y-59700170D02*
X157252967Y-59603854D01*
X157252967Y-59603854D02*
X156690462Y-59514117D01*
X156690462Y-59514117D02*
X156127956Y-59430928D01*
X156127956Y-59430928D02*
X155565449Y-59354257D01*
X155565449Y-59354257D02*
X155002941Y-59284073D01*
X155002941Y-59284073D02*
X154440432Y-59220346D01*
X154440432Y-59220346D02*
X153877922Y-59163046D01*
X153877922Y-59163046D02*
X153315410Y-59112142D01*
X153315410Y-59112142D02*
X152752898Y-59067603D01*
X152752898Y-59067603D02*
X152190384Y-59029398D01*
X152190384Y-59029398D02*
X151627869Y-58997499D01*
X151627869Y-58997499D02*
X151065353Y-58971873D01*
X151065353Y-58971873D02*
X150502836Y-58952490D01*
X150502836Y-58952490D02*
X149940318Y-58939320D01*
X149940318Y-58939320D02*
X149377799Y-58932332D01*
X149377799Y-58932332D02*
X148815278Y-58931496D01*
X148815278Y-58931496D02*
X148252757Y-58936781D01*
X148252757Y-58936781D02*
X147690234Y-58948156D01*
X147690234Y-58948156D02*
X147127710Y-58965592D01*
X147127710Y-58965592D02*
X146565185Y-58989057D01*
X146565185Y-58989057D02*
X146002659Y-59018522D01*
X146002659Y-59018522D02*
X145440131Y-59053955D01*
X145440131Y-59053955D02*
X144877603Y-59095326D01*
X144877603Y-59095326D02*
X144315073Y-59142604D01*
X144315073Y-59142604D02*
X143752542Y-59195760D01*
X143752542Y-59195760D02*
X143190010Y-59254762D01*
X143190010Y-59254762D02*
X142627476Y-59319580D01*
X142627476Y-59319580D02*
X142064942Y-59390183D01*
X142064942Y-59390183D02*
X141502406Y-59466541D01*
X141502406Y-59466541D02*
X140939870Y-59548624D01*
X140939870Y-59548624D02*
X140377332Y-59636401D01*
X104378265Y-95807939D02*
X104377638Y-96024947D01*
X104377638Y-96024947D02*
X104373253Y-96236756D01*
X104373253Y-96236756D02*
X104361352Y-96438205D01*
X104361352Y-96438205D02*
X104331857Y-96659002D01*
X104331857Y-96659002D02*
X104268263Y-96876455D01*
X104268263Y-96876455D02*
X104214064Y-96976157D01*
X103393898Y-97241668D02*
X85499563Y-97241668D01*
X174950171Y-126870082D02*
X175374711Y-127077376D01*
X175374711Y-127077376D02*
X175791126Y-127274369D01*
X175791126Y-127274369D02*
X176199650Y-127461306D01*
X176199650Y-127461306D02*
X176600517Y-127638430D01*
X176600517Y-127638430D02*
X176993962Y-127805985D01*
X176993962Y-127805985D02*
X177380220Y-127964215D01*
X177380220Y-127964215D02*
X177759525Y-128113364D01*
X177759525Y-128113364D02*
X178132112Y-128253676D01*
X178132112Y-128253676D02*
X178498215Y-128385395D01*
X178498215Y-128385395D02*
X178858070Y-128508766D01*
X178858070Y-128508766D02*
X179211910Y-128624031D01*
X179211910Y-128624031D02*
X179559970Y-128731435D01*
X179559970Y-128731435D02*
X179902485Y-128831222D01*
X179902485Y-128831222D02*
X180239689Y-128923635D01*
X180239689Y-128923635D02*
X180571818Y-129008920D01*
X180571818Y-129008920D02*
X180899105Y-129087319D01*
X180899105Y-129087319D02*
X181221785Y-129159077D01*
X181221785Y-129159077D02*
X181540093Y-129224437D01*
X181540093Y-129224437D02*
X181854263Y-129283644D01*
X181854263Y-129283644D02*
X182164531Y-129336942D01*
X182164531Y-129336942D02*
X182471130Y-129384574D01*
X182471130Y-129384574D02*
X182774295Y-129426784D01*
X182774295Y-129426784D02*
X183074261Y-129463817D01*
X183074261Y-129463817D02*
X183371262Y-129495916D01*
X183371262Y-129495916D02*
X183665534Y-129523326D01*
X183665534Y-129523326D02*
X183957310Y-129546290D01*
X183957310Y-129546290D02*
X184246825Y-129565052D01*
X184246825Y-129565052D02*
X184534314Y-129579857D01*
X184534314Y-129579857D02*
X184820011Y-129590948D01*
X184820011Y-129590948D02*
X185104151Y-129598569D01*
X185104151Y-129598569D02*
X185386969Y-129602963D01*
X185386969Y-129602963D02*
X185668699Y-129604377D01*
X85499563Y-97241668D02*
X85283490Y-97242679D01*
X85283490Y-97242679D02*
X85072808Y-97249757D01*
X85072808Y-97249757D02*
X84872868Y-97268968D01*
X84872868Y-97268968D02*
X84654655Y-97316581D01*
X84654655Y-97316581D02*
X84468866Y-97400885D01*
X84468866Y-97400885D02*
X84345483Y-97506732D01*
X88035295Y-134614110D02*
X88276591Y-134950783D01*
X88276591Y-134950783D02*
X88528230Y-135292946D01*
X88528230Y-135292946D02*
X88789880Y-135640421D01*
X88789880Y-135640421D02*
X89061205Y-135993030D01*
X89061205Y-135993030D02*
X89341873Y-136350598D01*
X89341873Y-136350598D02*
X89631550Y-136712946D01*
X89631550Y-136712946D02*
X89929901Y-137079898D01*
X89929901Y-137079898D02*
X90236595Y-137451276D01*
X90236595Y-137451276D02*
X90551296Y-137826904D01*
X90551296Y-137826904D02*
X90873671Y-138206605D01*
X90873671Y-138206605D02*
X91203387Y-138590201D01*
X91203387Y-138590201D02*
X91540110Y-138977516D01*
X91540110Y-138977516D02*
X91883507Y-139368372D01*
X91883507Y-139368372D02*
X92233243Y-139762593D01*
X92233243Y-139762593D02*
X92588985Y-140160001D01*
X92588985Y-140160001D02*
X92950399Y-140560419D01*
X92950399Y-140560419D02*
X93317152Y-140963671D01*
X93317152Y-140963671D02*
X93688910Y-141369578D01*
X93688910Y-141369578D02*
X94065340Y-141777965D01*
X94065340Y-141777965D02*
X94446108Y-142188654D01*
X94446108Y-142188654D02*
X94830879Y-142601468D01*
X94830879Y-142601468D02*
X95219321Y-143016231D01*
X95219321Y-143016231D02*
X95611101Y-143432764D01*
X95611101Y-143432764D02*
X96005883Y-143850891D01*
X96005883Y-143850891D02*
X96403335Y-144270435D01*
X96403335Y-144270435D02*
X96803123Y-144691218D01*
X96803123Y-144691218D02*
X97204913Y-145113065D01*
X97204913Y-145113065D02*
X97608372Y-145535797D01*
X97608372Y-145535797D02*
X98013166Y-145959238D01*
X98013166Y-145959238D02*
X98418962Y-146383211D01*
X98418962Y-146383211D02*
X98825425Y-146807538D01*
X98825425Y-146807538D02*
X99232223Y-147232043D01*
X194378080Y-77669063D02*
X193815543Y-77287848D01*
X193815543Y-77287848D02*
X193253008Y-76906799D01*
X193253008Y-76906799D02*
X192690473Y-76526079D01*
X192690473Y-76526079D02*
X192127938Y-76145854D01*
X192127938Y-76145854D02*
X191565404Y-75766289D01*
X191565404Y-75766289D02*
X191002870Y-75387547D01*
X191002870Y-75387547D02*
X190440337Y-75009795D01*
X190440337Y-75009795D02*
X189877805Y-74633196D01*
X189877805Y-74633196D02*
X189315274Y-74257916D01*
X189315274Y-74257916D02*
X188752743Y-73884119D01*
X188752743Y-73884119D02*
X188190213Y-73511970D01*
X188190213Y-73511970D02*
X187627684Y-73141634D01*
X187627684Y-73141634D02*
X187065156Y-72773275D01*
X187065156Y-72773275D02*
X186502629Y-72407059D01*
X186502629Y-72407059D02*
X185940104Y-72043151D01*
X185940104Y-72043151D02*
X185377579Y-71681714D01*
X185377579Y-71681714D02*
X184815055Y-71322914D01*
X184815055Y-71322914D02*
X184252532Y-70966915D01*
X184252532Y-70966915D02*
X183690011Y-70613883D01*
X183690011Y-70613883D02*
X183127491Y-70263982D01*
X183127491Y-70263982D02*
X182564972Y-69917377D01*
X182564972Y-69917377D02*
X182002454Y-69574233D01*
X182002454Y-69574233D02*
X181439938Y-69234714D01*
X181439938Y-69234714D02*
X180877423Y-68898985D01*
X180877423Y-68898985D02*
X180314910Y-68567212D01*
X180314910Y-68567212D02*
X179752399Y-68239558D01*
X179752399Y-68239558D02*
X179189889Y-67916189D01*
X179189889Y-67916189D02*
X178627380Y-67597269D01*
X178627380Y-67597269D02*
X178064873Y-67282963D01*
X178064873Y-67282963D02*
X177502368Y-66973437D01*
X177502368Y-66973437D02*
X176939865Y-66668854D01*
X176939865Y-66668854D02*
X176377364Y-66369380D01*
X104378263Y-67069643D02*
X104378263Y-95807939D01*
X84345483Y-97506732D02*
X84240047Y-97682009D01*
X84240047Y-97682009D02*
X84174685Y-97902658D01*
X84174685Y-97902658D02*
X84144158Y-98113627D01*
X84144158Y-98113627D02*
X84129687Y-98342758D01*
X84129687Y-98342758D02*
X84125919Y-98583985D01*
X84125919Y-98583985D02*
X84127503Y-98831241D01*
X84127503Y-125864087D02*
X84192731Y-126107346D01*
X84192731Y-126107346D02*
X84258294Y-126350782D01*
X84258294Y-126350782D02*
X84324523Y-126594571D01*
X84324523Y-126594571D02*
X84391753Y-126838890D01*
X84391753Y-126838890D02*
X84460318Y-127083916D01*
X84460318Y-127083916D02*
X84530551Y-127329827D01*
X84530551Y-127329827D02*
X84602785Y-127576799D01*
X84602785Y-127576799D02*
X84677355Y-127825010D01*
X84677355Y-127825010D02*
X84754595Y-128074637D01*
X84754595Y-128074637D02*
X84834837Y-128325856D01*
X84834837Y-128325856D02*
X84918416Y-128578845D01*
X84918416Y-128578845D02*
X85005665Y-128833782D01*
X85005665Y-128833782D02*
X85096919Y-129090842D01*
X85096919Y-129090842D02*
X85192509Y-129350204D01*
X85192509Y-129350204D02*
X85292772Y-129612044D01*
X85292772Y-129612044D02*
X85398039Y-129876539D01*
X85398039Y-129876539D02*
X85508645Y-130143867D01*
X85508645Y-130143867D02*
X85624924Y-130414205D01*
X85624924Y-130414205D02*
X85747208Y-130687729D01*
X85747208Y-130687729D02*
X85875833Y-130964617D01*
X85875833Y-130964617D02*
X86011131Y-131245046D01*
X86011131Y-131245046D02*
X86153436Y-131529192D01*
X86153436Y-131529192D02*
X86303082Y-131817234D01*
X86303082Y-131817234D02*
X86460402Y-132109348D01*
X86460402Y-132109348D02*
X86625731Y-132405711D01*
X86625731Y-132405711D02*
X86799402Y-132706501D01*
X86799402Y-132706501D02*
X86981748Y-133011894D01*
X86981748Y-133011894D02*
X87173104Y-133322068D01*
X87173104Y-133322068D02*
X87373803Y-133637199D01*
X87373803Y-133637199D02*
X87584179Y-133957465D01*
X87584179Y-133957465D02*
X87804564Y-134283043D01*
X87804564Y-134283043D02*
X88035295Y-134614110D01*
X176377364Y-66369380D02*
X175814865Y-66075158D01*
X175814865Y-66075158D02*
X175252370Y-65786253D01*
X175252370Y-65786253D02*
X174689878Y-65502708D01*
X174689878Y-65502708D02*
X174127389Y-65224564D01*
X174127389Y-65224564D02*
X173564903Y-64951866D01*
X173564903Y-64951866D02*
X173002420Y-64684654D01*
X173002420Y-64684654D02*
X172439939Y-64422973D01*
X172439939Y-64422973D02*
X171877460Y-64166864D01*
X171877460Y-64166864D02*
X171314983Y-63916371D01*
X171314983Y-63916371D02*
X170752507Y-63671537D01*
X170752507Y-63671537D02*
X170190033Y-63432403D01*
X170190033Y-63432403D02*
X169627560Y-63199012D01*
X169627560Y-63199012D02*
X169065088Y-62971408D01*
X169065088Y-62971408D02*
X168502617Y-62749633D01*
X168502617Y-62749633D02*
X167940146Y-62533729D01*
X167940146Y-62533729D02*
X167377675Y-62323740D01*
X167377675Y-62323740D02*
X166815204Y-62119707D01*
X166815204Y-62119707D02*
X166252733Y-61921675D01*
X166252733Y-61921675D02*
X165690262Y-61729685D01*
X165690262Y-61729685D02*
X165127789Y-61543779D01*
X165127789Y-61543779D02*
X164565316Y-61364002D01*
X164565316Y-61364002D02*
X164002841Y-61190395D01*
X164002841Y-61190395D02*
X163440365Y-61023002D01*
X163440365Y-61023002D02*
X162877887Y-60861864D01*
X162877887Y-60861864D02*
X162315408Y-60707025D01*
X162315408Y-60707025D02*
X161752926Y-60558527D01*
X161752926Y-60558527D02*
X161190441Y-60416413D01*
X161190441Y-60416413D02*
X160627954Y-60280726D01*
X160627954Y-60280726D02*
X160065464Y-60151508D01*
X160065464Y-60151508D02*
X159502971Y-60028802D01*
X159502971Y-60028802D02*
X158940474Y-59912650D01*
X158940474Y-59912650D02*
X158377974Y-59803097D01*
X122376758Y-63935786D02*
X121814264Y-64065485D01*
X121814264Y-64065485D02*
X121251773Y-64192159D01*
X121251773Y-64192159D02*
X120689286Y-64315906D01*
X120689286Y-64315906D02*
X120126803Y-64436822D01*
X120126803Y-64436822D02*
X119564322Y-64555006D01*
X119564322Y-64555006D02*
X119001844Y-64670555D01*
X119001844Y-64670555D02*
X118439370Y-64783566D01*
X118439370Y-64783566D02*
X117876898Y-64894138D01*
X117876898Y-64894138D02*
X117314430Y-65002368D01*
X117314430Y-65002368D02*
X116751964Y-65108353D01*
X116751964Y-65108353D02*
X116189501Y-65212190D01*
X116189501Y-65212190D02*
X115627040Y-65313979D01*
X115627040Y-65313979D02*
X115064582Y-65413815D01*
X115064582Y-65413815D02*
X114502126Y-65511797D01*
X114502126Y-65511797D02*
X113939673Y-65608023D01*
X113939673Y-65608023D02*
X113377223Y-65702589D01*
X113377223Y-65702589D02*
X112814774Y-65795594D01*
X112814774Y-65795594D02*
X112252328Y-65887135D01*
X112252328Y-65887135D02*
X111689884Y-65977310D01*
X111689884Y-65977310D02*
X111127441Y-66066216D01*
X111127441Y-66066216D02*
X110565001Y-66153950D01*
X110565001Y-66153950D02*
X110002563Y-66240611D01*
X110002563Y-66240611D02*
X109440126Y-66326296D01*
X109440126Y-66326296D02*
X108877691Y-66411103D01*
X108877691Y-66411103D02*
X108315258Y-66495129D01*
X108315258Y-66495129D02*
X107752826Y-66578471D01*
X107752826Y-66578471D02*
X107190396Y-66661228D01*
X107190396Y-66661228D02*
X106627967Y-66743497D01*
X106627967Y-66743497D02*
X106065540Y-66825375D01*
X106065540Y-66825375D02*
X105503113Y-66906960D01*
X105503113Y-66906960D02*
X104940688Y-66988350D01*
X104940688Y-66988350D02*
X104378265Y-67069643D01*
X140377332Y-59636401D02*
X139814793Y-59729799D01*
X139814793Y-59729799D02*
X139252256Y-59828586D01*
X139252256Y-59828586D02*
X138689720Y-59932485D01*
X138689720Y-59932485D02*
X138127186Y-60041223D01*
X138127186Y-60041223D02*
X137564652Y-60154526D01*
X137564652Y-60154526D02*
X137002120Y-60272118D01*
X137002120Y-60272118D02*
X136439589Y-60393725D01*
X136439589Y-60393725D02*
X135877060Y-60519072D01*
X135877060Y-60519072D02*
X135314531Y-60647886D01*
X135314531Y-60647886D02*
X134752004Y-60779891D01*
X134752004Y-60779891D02*
X134189479Y-60914813D01*
X134189479Y-60914813D02*
X133626954Y-61052377D01*
X133626954Y-61052377D02*
X133064431Y-61192310D01*
X133064431Y-61192310D02*
X132501910Y-61334335D01*
X132501910Y-61334335D02*
X131939389Y-61478179D01*
X131939389Y-61478179D02*
X131376870Y-61623568D01*
X131376870Y-61623568D02*
X130814352Y-61770226D01*
X130814352Y-61770226D02*
X130251836Y-61917880D01*
X130251836Y-61917880D02*
X129689321Y-62066254D01*
X129689321Y-62066254D02*
X129126808Y-62215074D01*
X129126808Y-62215074D02*
X128564296Y-62364066D01*
X128564296Y-62364066D02*
X128001785Y-62512955D01*
X128001785Y-62512955D02*
X127439276Y-62661467D01*
X127439276Y-62661467D02*
X126876768Y-62809326D01*
X126876768Y-62809326D02*
X126314261Y-62956259D01*
X126314261Y-62956259D02*
X125751756Y-63101991D01*
X125751756Y-63101991D02*
X125189253Y-63246247D01*
X125189253Y-63246247D02*
X124626751Y-63388753D01*
X124626751Y-63388753D02*
X124064250Y-63529235D01*
X124064250Y-63529235D02*
X123501751Y-63667417D01*
X123501751Y-63667417D02*
X122939254Y-63803025D01*
X122939254Y-63803025D02*
X122376758Y-63935786D01*
X194378080Y-128669720D02*
X194378080Y-77669063D01*
X99232223Y-147232043D02*
X99721312Y-146946967D01*
X99721312Y-146946967D02*
X100210456Y-146662026D01*
X100210456Y-146662026D02*
X100699707Y-146377357D01*
X100699707Y-146377357D02*
X101189119Y-146093096D01*
X101189119Y-146093096D02*
X101678744Y-145809378D01*
X101678744Y-145809378D02*
X102168636Y-145526341D01*
X102168636Y-145526341D02*
X102658847Y-145244121D01*
X102658847Y-145244121D02*
X103149430Y-144962854D01*
X103149430Y-144962854D02*
X103640438Y-144682676D01*
X103640438Y-144682676D02*
X104131924Y-144403724D01*
X104131924Y-144403724D02*
X104623941Y-144126134D01*
X104623941Y-144126134D02*
X105116541Y-143850041D01*
X105116541Y-143850041D02*
X105609778Y-143575583D01*
X105609778Y-143575583D02*
X106103705Y-143302896D01*
X106103705Y-143302896D02*
X106598374Y-143032116D01*
X106598374Y-143032116D02*
X107093838Y-142763380D01*
X107093838Y-142763380D02*
X107590150Y-142496823D01*
X107590150Y-142496823D02*
X108087363Y-142232581D01*
X108087363Y-142232581D02*
X108585530Y-141970792D01*
X108585530Y-141970792D02*
X109084705Y-141711592D01*
X109084705Y-141711592D02*
X109584938Y-141455116D01*
X109584938Y-141455116D02*
X110086285Y-141201502D01*
X110086285Y-141201502D02*
X110588797Y-140950884D01*
X110588797Y-140950884D02*
X111092527Y-140703401D01*
X111092527Y-140703401D02*
X111597529Y-140459187D01*
X111597529Y-140459187D02*
X112103855Y-140218380D01*
X112103855Y-140218380D02*
X112611558Y-139981115D01*
X112611558Y-139981115D02*
X113120691Y-139747529D01*
X113120691Y-139747529D02*
X113631307Y-139517758D01*
X113631307Y-139517758D02*
X114143459Y-139291939D01*
X114143459Y-139291939D02*
X114657199Y-139070207D01*
X114657199Y-139070207D02*
X115172582Y-138852700D01*
X84127500Y-98831241D02*
X84127500Y-125864087D01*
X158378144Y-118336591D02*
X158940604Y-118548205D01*
X158940604Y-118548205D02*
X159502798Y-118770084D01*
X159502798Y-118770084D02*
X160064467Y-119001556D01*
X160064467Y-119001556D02*
X160625348Y-119241950D01*
X160625348Y-119241950D02*
X161185180Y-119490595D01*
X161185180Y-119490595D02*
X161743703Y-119746820D01*
X161743703Y-119746820D02*
X162300655Y-120009953D01*
X162300655Y-120009953D02*
X162855775Y-120279323D01*
X162855775Y-120279323D02*
X163408802Y-120554258D01*
X163408802Y-120554258D02*
X163959475Y-120834089D01*
X163959475Y-120834089D02*
X164507533Y-121118142D01*
X164507533Y-121118142D02*
X165052714Y-121405748D01*
X165052714Y-121405748D02*
X165594757Y-121696234D01*
X165594757Y-121696234D02*
X166133402Y-121988931D01*
X166133402Y-121988931D02*
X166668388Y-122283165D01*
X166668388Y-122283165D02*
X167199452Y-122578267D01*
X167199452Y-122578267D02*
X167726334Y-122873564D01*
X167726334Y-122873564D02*
X168248774Y-123168386D01*
X168248774Y-123168386D02*
X168766509Y-123462061D01*
X168766509Y-123462061D02*
X169279278Y-123753919D01*
X169279278Y-123753919D02*
X169786821Y-124043287D01*
X169786821Y-124043287D02*
X170288877Y-124329495D01*
X170288877Y-124329495D02*
X170785184Y-124611871D01*
X170785184Y-124611871D02*
X171275481Y-124889745D01*
X171275481Y-124889745D02*
X171759507Y-125162444D01*
X171759507Y-125162444D02*
X172237001Y-125429299D01*
X172237001Y-125429299D02*
X172707702Y-125689636D01*
X172707702Y-125689636D02*
X173171349Y-125942786D01*
X173171349Y-125942786D02*
X173627680Y-126188076D01*
X173627680Y-126188076D02*
X174076435Y-126424837D01*
X174076435Y-126424837D02*
X174517352Y-126652396D01*
X174517352Y-126652396D02*
X174950171Y-126870082D01*
X115172582Y-138852700D02*
X115689640Y-138639507D01*
X115689640Y-138639507D02*
X116208339Y-138430539D01*
X116208339Y-138430539D02*
X116728625Y-138225660D01*
X116728625Y-138225660D02*
X117250446Y-138024733D01*
X117250446Y-138024733D02*
X117773749Y-137827623D01*
X117773749Y-137827623D02*
X118298480Y-137634192D01*
X118298480Y-137634192D02*
X118824588Y-137444304D01*
X118824588Y-137444304D02*
X119352019Y-137257823D01*
X119352019Y-137257823D02*
X119880721Y-137074613D01*
X119880721Y-137074613D02*
X120410640Y-136894538D01*
X120410640Y-136894538D02*
X120941724Y-136717460D01*
X120941724Y-136717460D02*
X121473920Y-136543245D01*
X121473920Y-136543245D02*
X122007176Y-136371755D01*
X122007176Y-136371755D02*
X122541437Y-136202854D01*
X122541437Y-136202854D02*
X123076652Y-136036406D01*
X123076652Y-136036406D02*
X123612768Y-135872275D01*
X123612768Y-135872275D02*
X124149732Y-135710324D01*
X124149732Y-135710324D02*
X124687490Y-135550417D01*
X124687490Y-135550417D02*
X125225991Y-135392417D01*
X125225991Y-135392417D02*
X125765181Y-135236189D01*
X125765181Y-135236189D02*
X126305008Y-135081596D01*
X126305008Y-135081596D02*
X126845418Y-134928502D01*
X126845418Y-134928502D02*
X127386359Y-134776770D01*
X127386359Y-134776770D02*
X127927778Y-134626264D01*
X127927778Y-134626264D02*
X128469622Y-134476848D01*
X128469622Y-134476848D02*
X129011839Y-134328385D01*
X129011839Y-134328385D02*
X129554375Y-134180740D01*
X129554375Y-134180740D02*
X130097178Y-134033775D01*
X130097178Y-134033775D02*
X130640195Y-133887355D01*
X130640195Y-133887355D02*
X131183372Y-133741344D01*
X131183372Y-133741344D02*
X131726658Y-133595604D01*
X131726658Y-133595604D02*
X132270000Y-133450000D01*
X132270000Y-133450000D02*
X132523402Y-132888229D01*
X132523402Y-132888229D02*
X132777107Y-132327037D01*
X132777107Y-132327037D02*
X133031416Y-131767001D01*
X133031416Y-131767001D02*
X133286632Y-131208701D01*
X133286632Y-131208701D02*
X133543057Y-130652716D01*
X133543057Y-130652716D02*
X133800991Y-130099626D01*
X133800991Y-130099626D02*
X134060738Y-129550010D01*
X134060738Y-129550010D02*
X134322600Y-129004447D01*
X134322600Y-129004447D02*
X134586877Y-128463517D01*
X134586877Y-128463517D02*
X134853872Y-127927798D01*
X134853872Y-127927798D02*
X135123887Y-127397871D01*
X135123887Y-127397871D02*
X135397223Y-126874313D01*
X135397223Y-126874313D02*
X135674183Y-126357706D01*
X135674183Y-126357706D02*
X135955069Y-125848627D01*
X135955069Y-125848627D02*
X136240182Y-125347657D01*
X136240182Y-125347657D02*
X136529824Y-124855374D01*
X136529824Y-124855374D02*
X136824298Y-124372359D01*
X136824298Y-124372359D02*
X137123904Y-123899189D01*
X137123904Y-123899189D02*
X137428945Y-123436445D01*
X137428945Y-123436445D02*
X137739724Y-122984705D01*
X137739724Y-122984705D02*
X138056541Y-122544550D01*
X138056541Y-122544550D02*
X138379698Y-122116557D01*
X138379698Y-122116557D02*
X138709498Y-121701308D01*
X138709498Y-121701308D02*
X139046243Y-121299380D01*
X139046243Y-121299380D02*
X139390234Y-120911354D01*
X139390234Y-120911354D02*
X139741773Y-120537808D01*
X139741773Y-120537808D02*
X140101162Y-120179322D01*
X140101162Y-120179322D02*
X140468704Y-119836475D01*
X140468704Y-119836475D02*
X140844699Y-119509847D01*
X140844699Y-119509847D02*
X141229450Y-119200016D01*
X141229450Y-119200016D02*
X141623258Y-118907562D01*
X141623258Y-118907562D02*
X142026427Y-118633065D01*
M02*
