M48
; DRILL file {KiCad 5.1.9} date Fri Apr 16 22:17:28 2021
; FORMAT={-:-/ absolute / inch / decimal}
; #@! TF.CreationDate,2021-04-16T22:17:28+02:00
; #@! TF.GenerationSoftware,Kicad,Pcbnew,5.1.9
; #@! TF.FileFunction,Plated,1,2,PTH
FMAT,2
INCH
T1C0.0157
T2C0.0354
T3C0.0472
%
G90
G05
T1
X3.4882Y-4.6457
X3.6457Y-5.1024
X3.8976Y-4.4882
X3.937Y-4.5039
X3.9449Y-4.1024
X4.2677Y-2.7244
X4.2835Y-3.3071
X4.7953Y-2.7087
X4.811Y-4.0551
X4.8268Y-3.4409
X5.2598Y-2.4961
X5.8976Y-2.3701
T3
X3.9512Y-5.5567
X4.163Y-5.5299
X4.2673Y-3.124
X4.2673Y-3.7933
X4.2673Y-4.4626
X4.4642Y-3.2067
X4.4642Y-3.876
X4.4642Y-4.5453
X4.6277Y-5.2171
X4.8393Y-5.246
X4.976Y-3.0217
X4.976Y-3.6909
X4.976Y-4.3602
X5.1728Y-3.1043
X5.1728Y-3.7736
X5.1728Y-4.4429
X5.6846Y-2.7933
X5.6846Y-3.4626
X5.6846Y-4.1319
X5.8815Y-2.876
X5.8815Y-3.5453
X5.8815Y-4.2146
X6.3933Y-3.061
X6.3933Y-3.7303
X6.3933Y-4.3996
X6.5902Y-3.1437
X6.5902Y-3.813
X6.5902Y-4.4823
X7.102Y-3.5413
X7.102Y-4.2106
X7.102Y-4.8799
X7.2988Y-3.624
X7.2988Y-4.2933
X7.2988Y-4.9626
T2
G00X3.5508Y-4.7421
M15
G01X3.5665Y-4.7421
M16
G05
G00X3.6689Y-4.7421
M15
G01X3.6846Y-4.7421
M16
G05
G00X3.8264Y-4.7421
M15
G01X3.8421Y-4.7421
M16
G05
G00X3.8697Y-4.9232
M15
G01X3.8854Y-4.9232
M16
G05
T0
M30
