%TF.GenerationSoftware,KiCad,Pcbnew,5.1.9*%
%TF.CreationDate,2021-04-16T22:17:29+02:00*%
%TF.ProjectId,handbrush,68616e64-6272-4757-9368-2e6b69636164,rev?*%
%TF.SameCoordinates,Original*%
%TF.FileFunction,Paste,Top*%
%TF.FilePolarity,Positive*%
%FSLAX46Y46*%
G04 Gerber Fmt 4.6, Leading zero omitted, Abs format (unit mm)*
G04 Created by KiCad (PCBNEW 5.1.9) date 2021-04-16 22:17:29*
%MOMM*%
%LPD*%
G01*
G04 APERTURE LIST*
%ADD10C,1.143000*%
%ADD11O,1.016000X2.032000*%
%ADD12O,2.748280X1.998980*%
%ADD13C,0.100000*%
%ADD14R,1.000000X1.000000*%
G04 APERTURE END LIST*
D10*
%TO.C,U1*%
X95838803Y-102135813D03*
X93298803Y-102135813D03*
X95838803Y-99595813D03*
X93298803Y-99595813D03*
D11*
X95850000Y-116600000D03*
X93300000Y-116600000D03*
D12*
X86433120Y-100282180D03*
X86433120Y-102822180D03*
X86433120Y-105362180D03*
X86433120Y-107902180D03*
X86433120Y-110442180D03*
X86433120Y-112982180D03*
X86433120Y-115522180D03*
X102597680Y-115522180D03*
X102597680Y-112982180D03*
X102597680Y-110442180D03*
X102597680Y-107902180D03*
X102597680Y-105362180D03*
X102597680Y-102822180D03*
X102597680Y-100282180D03*
%TD*%
%TO.C,R2*%
G36*
G01*
X87907500Y-128325000D02*
X87432500Y-128325000D01*
G75*
G02*
X87195000Y-128087500I0J237500D01*
G01*
X87195000Y-127587500D01*
G75*
G02*
X87432500Y-127350000I237500J0D01*
G01*
X87907500Y-127350000D01*
G75*
G02*
X88145000Y-127587500I0J-237500D01*
G01*
X88145000Y-128087500D01*
G75*
G02*
X87907500Y-128325000I-237500J0D01*
G01*
G37*
G36*
G01*
X87907500Y-130150000D02*
X87432500Y-130150000D01*
G75*
G02*
X87195000Y-129912500I0J237500D01*
G01*
X87195000Y-129412500D01*
G75*
G02*
X87432500Y-129175000I237500J0D01*
G01*
X87907500Y-129175000D01*
G75*
G02*
X88145000Y-129412500I0J-237500D01*
G01*
X88145000Y-129912500D01*
G75*
G02*
X87907500Y-130150000I-237500J0D01*
G01*
G37*
%TD*%
%TO.C,R1*%
G36*
G01*
X91027500Y-128325000D02*
X90552500Y-128325000D01*
G75*
G02*
X90315000Y-128087500I0J237500D01*
G01*
X90315000Y-127587500D01*
G75*
G02*
X90552500Y-127350000I237500J0D01*
G01*
X91027500Y-127350000D01*
G75*
G02*
X91265000Y-127587500I0J-237500D01*
G01*
X91265000Y-128087500D01*
G75*
G02*
X91027500Y-128325000I-237500J0D01*
G01*
G37*
G36*
G01*
X91027500Y-130150000D02*
X90552500Y-130150000D01*
G75*
G02*
X90315000Y-129912500I0J237500D01*
G01*
X90315000Y-129412500D01*
G75*
G02*
X90552500Y-129175000I237500J0D01*
G01*
X91027500Y-129175000D01*
G75*
G02*
X91265000Y-129412500I0J-237500D01*
G01*
X91265000Y-129912500D01*
G75*
G02*
X91027500Y-130150000I-237500J0D01*
G01*
G37*
%TD*%
D13*
%TO.C,D17*%
G36*
X99490481Y-131091987D02*
G01*
X99990481Y-131958013D01*
X99124455Y-132458013D01*
X98624455Y-131591987D01*
X99490481Y-131091987D01*
G37*
G36*
X101655545Y-129841987D02*
G01*
X102155545Y-130708013D01*
X101289519Y-131208013D01*
X100789519Y-130341987D01*
X101655545Y-129841987D01*
G37*
%TD*%
D14*
%TO.C,D16*%
X112140000Y-104750000D03*
X114640000Y-104750000D03*
%TD*%
%TO.C,D15*%
X112140000Y-87950000D03*
X114640000Y-87950000D03*
%TD*%
%TO.C,D14*%
X112140000Y-70750000D03*
X114640000Y-70750000D03*
%TD*%
D13*
%TO.C,D13*%
G36*
X119336146Y-122861152D02*
G01*
X119594965Y-123827077D01*
X118629040Y-124085896D01*
X118370221Y-123119971D01*
X119336146Y-122861152D01*
G37*
G36*
X121750960Y-122214104D02*
G01*
X122009779Y-123180029D01*
X121043854Y-123438848D01*
X120785035Y-122472923D01*
X121750960Y-122214104D01*
G37*
%TD*%
D14*
%TO.C,D12*%
X130140000Y-102150000D03*
X132640000Y-102150000D03*
%TD*%
%TO.C,D11*%
X130140000Y-85150000D03*
X132640000Y-85150000D03*
%TD*%
%TO.C,D10*%
X130090000Y-68150000D03*
X132590000Y-68150000D03*
%TD*%
%TO.C,D9*%
X148140000Y-96550000D03*
X150640000Y-96550000D03*
%TD*%
%TO.C,D8*%
X148140000Y-79550000D03*
X150640000Y-79550000D03*
%TD*%
%TO.C,D7*%
X148090000Y-62550000D03*
X150590000Y-62550000D03*
%TD*%
%TO.C,D6*%
X166140000Y-103150000D03*
X168640000Y-103150000D03*
%TD*%
%TO.C,D5*%
X166140000Y-86350000D03*
X168640000Y-86350000D03*
%TD*%
%TO.C,D4*%
X166140000Y-69350000D03*
X168640000Y-69350000D03*
%TD*%
%TO.C,D3*%
X184140000Y-115550000D03*
X186640000Y-115550000D03*
%TD*%
%TO.C,D2*%
X184140000Y-98550000D03*
X186640000Y-98550000D03*
%TD*%
%TO.C,D1*%
X184140000Y-81350000D03*
X186640000Y-81350000D03*
%TD*%
M02*
