M48
; DRILL file {KiCad 5.1.9} date Fri Apr 16 22:17:28 2021
; FORMAT={-:-/ absolute / inch / decimal}
; #@! TF.CreationDate,2021-04-16T22:17:28+02:00
; #@! TF.GenerationSoftware,Kicad,Pcbnew,5.1.9
; #@! TF.FileFunction,NonPlated,1,2,NPTH
FMAT,2
INCH
T1C0.0315
T2C0.0669
T3C0.1339
%
G90
G05
T1
X3.4957Y-4.8327
X3.7713Y-4.8327
T2
X3.8593Y-5.437
X4.2344Y-5.2205
X4.2476Y-2.9744
X4.2476Y-3.6437
X4.2476Y-4.313
X4.57Y-5.0777
X4.6807Y-2.9744
X4.6807Y-3.6437
X4.6807Y-4.313
X4.9563Y-2.872
X4.9563Y-3.5413
X4.9563Y-4.2106
X4.9883Y-4.9656
X5.3894Y-2.872
X5.3894Y-3.5413
X5.3894Y-4.2106
X5.665Y-2.6437
X5.665Y-3.313
X5.665Y-3.9823
X6.098Y-2.6437
X6.098Y-3.313
X6.098Y-3.9823
X6.3736Y-2.9114
X6.3736Y-3.5807
X6.3736Y-4.25
X6.8067Y-2.9114
X6.8067Y-3.5807
X6.8067Y-4.25
X7.0823Y-3.3917
X7.0823Y-4.061
X7.0823Y-4.7303
X7.5154Y-3.3917
X7.5154Y-4.061
X7.5154Y-4.7303
T3
X4.0469Y-5.3287
X4.4642Y-2.9744
X4.4642Y-3.6437
X4.4642Y-4.313
X4.7791Y-5.0217
X5.1728Y-2.872
X5.1728Y-3.5413
X5.1728Y-4.2106
X5.8815Y-2.6437
X5.8815Y-3.313
X5.8815Y-3.9823
X6.5902Y-2.9114
X6.5902Y-3.5807
X6.5902Y-4.25
X7.2988Y-3.3917
X7.2988Y-4.061
X7.2988Y-4.7303
T0
M30
