%TF.GenerationSoftware,KiCad,Pcbnew,5.1.9*%
%TF.CreationDate,2021-04-16T22:17:29+02:00*%
%TF.ProjectId,handbrush,68616e64-6272-4757-9368-2e6b69636164,rev?*%
%TF.SameCoordinates,Original*%
%TF.FileFunction,Soldermask,Bot*%
%TF.FilePolarity,Negative*%
%FSLAX46Y46*%
G04 Gerber Fmt 4.6, Leading zero omitted, Abs format (unit mm)*
G04 Created by KiCad (PCBNEW 5.1.9) date 2021-04-16 22:17:29*
%MOMM*%
%LPD*%
G01*
G04 APERTURE LIST*
%ADD10C,0.010000*%
%ADD11C,2.000000*%
%ADD12C,1.700000*%
%ADD13C,3.400000*%
%ADD14O,2.000000X1.600000*%
%ADD15C,0.800000*%
G04 APERTURE END LIST*
D10*
%TO.C,G\u002A\u002A\u002A*%
G36*
X97746647Y-108457029D02*
G01*
X97671350Y-108471719D01*
X97605269Y-108490793D01*
X97462385Y-108535678D01*
X97563600Y-108549386D01*
X97673500Y-108578958D01*
X97766476Y-108637456D01*
X97846351Y-108728157D01*
X97915420Y-108851058D01*
X97941449Y-108911239D01*
X97957702Y-108964756D01*
X97966404Y-109024312D01*
X97969780Y-109102609D01*
X97970176Y-109163616D01*
X97968913Y-109259253D01*
X97963643Y-109328570D01*
X97952142Y-109384281D01*
X97932189Y-109439104D01*
X97915528Y-109476231D01*
X97853414Y-109584945D01*
X97779490Y-109674836D01*
X97700694Y-109738400D01*
X97651810Y-109761506D01*
X97536252Y-109782103D01*
X97428679Y-109768216D01*
X97331207Y-109723992D01*
X97245951Y-109653580D01*
X97175029Y-109561130D01*
X97120554Y-109450789D01*
X97084642Y-109326706D01*
X97069409Y-109193030D01*
X97076972Y-109053909D01*
X97109444Y-108913493D01*
X97158887Y-108794899D01*
X97217769Y-108680182D01*
X97134923Y-108747539D01*
X97082830Y-108803219D01*
X97023789Y-108888016D01*
X96962128Y-108993631D01*
X96902174Y-109111766D01*
X96848256Y-109234124D01*
X96804702Y-109352404D01*
X96785436Y-109417616D01*
X96746908Y-109632739D01*
X96742003Y-109849020D01*
X96769984Y-110059673D01*
X96830114Y-110257909D01*
X96890446Y-110384770D01*
X96951082Y-110479570D01*
X97030148Y-110583917D01*
X97117317Y-110685458D01*
X97202262Y-110771841D01*
X97245324Y-110809240D01*
X97362709Y-110880998D01*
X97503610Y-110931873D01*
X97657099Y-110959438D01*
X97812248Y-110961266D01*
X97887085Y-110951760D01*
X98031774Y-110915185D01*
X98191772Y-110856860D01*
X98354501Y-110782407D01*
X98507379Y-110697448D01*
X98610128Y-110628656D01*
X98725197Y-110520227D01*
X98816287Y-110384146D01*
X98882184Y-110224523D01*
X98921674Y-110045467D01*
X98933544Y-109851088D01*
X98916581Y-109645494D01*
X98910852Y-109610349D01*
X98861856Y-109388426D01*
X98794197Y-109167773D01*
X98714139Y-108968231D01*
X98628870Y-108827996D01*
X98510097Y-108701127D01*
X98362319Y-108591900D01*
X98257910Y-108534820D01*
X98177329Y-108498098D01*
X98111170Y-108475285D01*
X98043100Y-108462383D01*
X97956788Y-108455394D01*
X97927654Y-108453976D01*
X97826372Y-108451767D01*
X97746647Y-108457029D01*
G37*
X97746647Y-108457029D02*
X97671350Y-108471719D01*
X97605269Y-108490793D01*
X97462385Y-108535678D01*
X97563600Y-108549386D01*
X97673500Y-108578958D01*
X97766476Y-108637456D01*
X97846351Y-108728157D01*
X97915420Y-108851058D01*
X97941449Y-108911239D01*
X97957702Y-108964756D01*
X97966404Y-109024312D01*
X97969780Y-109102609D01*
X97970176Y-109163616D01*
X97968913Y-109259253D01*
X97963643Y-109328570D01*
X97952142Y-109384281D01*
X97932189Y-109439104D01*
X97915528Y-109476231D01*
X97853414Y-109584945D01*
X97779490Y-109674836D01*
X97700694Y-109738400D01*
X97651810Y-109761506D01*
X97536252Y-109782103D01*
X97428679Y-109768216D01*
X97331207Y-109723992D01*
X97245951Y-109653580D01*
X97175029Y-109561130D01*
X97120554Y-109450789D01*
X97084642Y-109326706D01*
X97069409Y-109193030D01*
X97076972Y-109053909D01*
X97109444Y-108913493D01*
X97158887Y-108794899D01*
X97217769Y-108680182D01*
X97134923Y-108747539D01*
X97082830Y-108803219D01*
X97023789Y-108888016D01*
X96962128Y-108993631D01*
X96902174Y-109111766D01*
X96848256Y-109234124D01*
X96804702Y-109352404D01*
X96785436Y-109417616D01*
X96746908Y-109632739D01*
X96742003Y-109849020D01*
X96769984Y-110059673D01*
X96830114Y-110257909D01*
X96890446Y-110384770D01*
X96951082Y-110479570D01*
X97030148Y-110583917D01*
X97117317Y-110685458D01*
X97202262Y-110771841D01*
X97245324Y-110809240D01*
X97362709Y-110880998D01*
X97503610Y-110931873D01*
X97657099Y-110959438D01*
X97812248Y-110961266D01*
X97887085Y-110951760D01*
X98031774Y-110915185D01*
X98191772Y-110856860D01*
X98354501Y-110782407D01*
X98507379Y-110697448D01*
X98610128Y-110628656D01*
X98725197Y-110520227D01*
X98816287Y-110384146D01*
X98882184Y-110224523D01*
X98921674Y-110045467D01*
X98933544Y-109851088D01*
X98916581Y-109645494D01*
X98910852Y-109610349D01*
X98861856Y-109388426D01*
X98794197Y-109167773D01*
X98714139Y-108968231D01*
X98628870Y-108827996D01*
X98510097Y-108701127D01*
X98362319Y-108591900D01*
X98257910Y-108534820D01*
X98177329Y-108498098D01*
X98111170Y-108475285D01*
X98043100Y-108462383D01*
X97956788Y-108455394D01*
X97927654Y-108453976D01*
X97826372Y-108451767D01*
X97746647Y-108457029D01*
G36*
X93006037Y-108391886D02*
G01*
X92861077Y-108418198D01*
X92802046Y-108433238D01*
X92777060Y-108442822D01*
X92782090Y-108450298D01*
X92812231Y-108458797D01*
X92944061Y-108510328D01*
X93055076Y-108594382D01*
X93143632Y-108709431D01*
X93193461Y-108812912D01*
X93227066Y-108939129D01*
X93240581Y-109082306D01*
X93233948Y-109227120D01*
X93207108Y-109358250D01*
X93195671Y-109391182D01*
X93145584Y-109490639D01*
X93078006Y-109584335D01*
X93002074Y-109661285D01*
X92931907Y-109708223D01*
X92826524Y-109737737D01*
X92714944Y-109733717D01*
X92606882Y-109698318D01*
X92512056Y-109633694D01*
X92488521Y-109609905D01*
X92422167Y-109526822D01*
X92374976Y-109441639D01*
X92343434Y-109344484D01*
X92324029Y-109225487D01*
X92315824Y-109124539D01*
X92304231Y-108929154D01*
X92241360Y-109085462D01*
X92155754Y-109331029D01*
X92104003Y-109558940D01*
X92086041Y-109770937D01*
X92101800Y-109968760D01*
X92151213Y-110154149D01*
X92195811Y-110257770D01*
X92294866Y-110416084D01*
X92427506Y-110561852D01*
X92589326Y-110691686D01*
X92775921Y-110802199D01*
X92982888Y-110890004D01*
X93043866Y-110910051D01*
X93109182Y-110930175D01*
X93155594Y-110942209D01*
X93195051Y-110946548D01*
X93239499Y-110943590D01*
X93300888Y-110933732D01*
X93371400Y-110920931D01*
X93592662Y-110865988D01*
X93784149Y-110786170D01*
X93946964Y-110680554D01*
X94082209Y-110548216D01*
X94190986Y-110388231D01*
X94274397Y-110199676D01*
X94290690Y-110150308D01*
X94307909Y-110090783D01*
X94320176Y-110035010D01*
X94328287Y-109974525D01*
X94333035Y-109900866D01*
X94335215Y-109805568D01*
X94335620Y-109680169D01*
X94335605Y-109671616D01*
X94335072Y-109548793D01*
X94333315Y-109456533D01*
X94329297Y-109386323D01*
X94321982Y-109329649D01*
X94310335Y-109277997D01*
X94293319Y-109222854D01*
X94274357Y-109168281D01*
X94184447Y-108958033D01*
X94075073Y-108781290D01*
X93945276Y-108637140D01*
X93794098Y-108524668D01*
X93620579Y-108442963D01*
X93466769Y-108399506D01*
X93327745Y-108381275D01*
X93168931Y-108378897D01*
X93006037Y-108391886D01*
G37*
X93006037Y-108391886D02*
X92861077Y-108418198D01*
X92802046Y-108433238D01*
X92777060Y-108442822D01*
X92782090Y-108450298D01*
X92812231Y-108458797D01*
X92944061Y-108510328D01*
X93055076Y-108594382D01*
X93143632Y-108709431D01*
X93193461Y-108812912D01*
X93227066Y-108939129D01*
X93240581Y-109082306D01*
X93233948Y-109227120D01*
X93207108Y-109358250D01*
X93195671Y-109391182D01*
X93145584Y-109490639D01*
X93078006Y-109584335D01*
X93002074Y-109661285D01*
X92931907Y-109708223D01*
X92826524Y-109737737D01*
X92714944Y-109733717D01*
X92606882Y-109698318D01*
X92512056Y-109633694D01*
X92488521Y-109609905D01*
X92422167Y-109526822D01*
X92374976Y-109441639D01*
X92343434Y-109344484D01*
X92324029Y-109225487D01*
X92315824Y-109124539D01*
X92304231Y-108929154D01*
X92241360Y-109085462D01*
X92155754Y-109331029D01*
X92104003Y-109558940D01*
X92086041Y-109770937D01*
X92101800Y-109968760D01*
X92151213Y-110154149D01*
X92195811Y-110257770D01*
X92294866Y-110416084D01*
X92427506Y-110561852D01*
X92589326Y-110691686D01*
X92775921Y-110802199D01*
X92982888Y-110890004D01*
X93043866Y-110910051D01*
X93109182Y-110930175D01*
X93155594Y-110942209D01*
X93195051Y-110946548D01*
X93239499Y-110943590D01*
X93300888Y-110933732D01*
X93371400Y-110920931D01*
X93592662Y-110865988D01*
X93784149Y-110786170D01*
X93946964Y-110680554D01*
X94082209Y-110548216D01*
X94190986Y-110388231D01*
X94274397Y-110199676D01*
X94290690Y-110150308D01*
X94307909Y-110090783D01*
X94320176Y-110035010D01*
X94328287Y-109974525D01*
X94333035Y-109900866D01*
X94335215Y-109805568D01*
X94335620Y-109680169D01*
X94335605Y-109671616D01*
X94335072Y-109548793D01*
X94333315Y-109456533D01*
X94329297Y-109386323D01*
X94321982Y-109329649D01*
X94310335Y-109277997D01*
X94293319Y-109222854D01*
X94274357Y-109168281D01*
X94184447Y-108958033D01*
X94075073Y-108781290D01*
X93945276Y-108637140D01*
X93794098Y-108524668D01*
X93620579Y-108442963D01*
X93466769Y-108399506D01*
X93327745Y-108381275D01*
X93168931Y-108378897D01*
X93006037Y-108391886D01*
G36*
X92314000Y-108909616D02*
G01*
X92323769Y-108919385D01*
X92333539Y-108909616D01*
X92323769Y-108899847D01*
X92314000Y-108909616D01*
G37*
X92314000Y-108909616D02*
X92323769Y-108919385D01*
X92333539Y-108909616D01*
X92323769Y-108899847D01*
X92314000Y-108909616D01*
G36*
X92565036Y-108503174D02*
G01*
X92548462Y-108518847D01*
X92531770Y-108543902D01*
X92543148Y-108543624D01*
X92578920Y-108519468D01*
X92599712Y-108498082D01*
X92594816Y-108490160D01*
X92565036Y-108503174D01*
G37*
X92565036Y-108503174D02*
X92548462Y-108518847D01*
X92531770Y-108543902D01*
X92543148Y-108543624D01*
X92578920Y-108519468D01*
X92599712Y-108498082D01*
X92594816Y-108490160D01*
X92565036Y-108503174D01*
G36*
X92626616Y-108479770D02*
G01*
X92636385Y-108489539D01*
X92646154Y-108479770D01*
X92636385Y-108470000D01*
X92626616Y-108479770D01*
G37*
X92626616Y-108479770D02*
X92636385Y-108489539D01*
X92646154Y-108479770D01*
X92636385Y-108470000D01*
X92626616Y-108479770D01*
G36*
X92690523Y-108458196D02*
G01*
X92696350Y-108467076D01*
X92716167Y-108468458D01*
X92737015Y-108463686D01*
X92727971Y-108456653D01*
X92697435Y-108454324D01*
X92690523Y-108458196D01*
G37*
X92690523Y-108458196D02*
X92696350Y-108467076D01*
X92716167Y-108468458D01*
X92737015Y-108463686D01*
X92727971Y-108456653D01*
X92697435Y-108454324D01*
X92690523Y-108458196D01*
%TD*%
D11*
%TO.C,MX4*%
X167390000Y-79850000D03*
X162390000Y-77750000D03*
D12*
X161890000Y-73950000D03*
X172890000Y-73950000D03*
D13*
X167390000Y-73950000D03*
%TD*%
D11*
%TO.C,MX17*%
X105740000Y-140459550D03*
X100359873Y-141140897D03*
D12*
X98026860Y-138100000D03*
X107553140Y-132600000D03*
D13*
X102790000Y-135350000D03*
%TD*%
D11*
%TO.C,MX16*%
X113390000Y-115450000D03*
X108390000Y-113350000D03*
D12*
X107890000Y-109550000D03*
X118890000Y-109550000D03*
D13*
X113390000Y-109550000D03*
%TD*%
D11*
%TO.C,MX15*%
X113390000Y-98450000D03*
X108390000Y-96350000D03*
D12*
X107890000Y-92550000D03*
X118890000Y-92550000D03*
D13*
X113390000Y-92550000D03*
%TD*%
D11*
%TO.C,MX14*%
X113390000Y-81450000D03*
X108390000Y-79350000D03*
D12*
X107890000Y-75550000D03*
X118890000Y-75550000D03*
D13*
X113390000Y-75550000D03*
%TD*%
D11*
%TO.C,MX13*%
X122917032Y-133248962D03*
X117543883Y-132514613D03*
D12*
X116077408Y-128973505D03*
X126702592Y-126126495D03*
D13*
X121390000Y-127550000D03*
%TD*%
D11*
%TO.C,MX12*%
X131390000Y-112850000D03*
X126390000Y-110750000D03*
D12*
X125890000Y-106950000D03*
X136890000Y-106950000D03*
D13*
X131390000Y-106950000D03*
%TD*%
D11*
%TO.C,MX11*%
X131390000Y-95850000D03*
X126390000Y-93750000D03*
D12*
X125890000Y-89950000D03*
X136890000Y-89950000D03*
D13*
X131390000Y-89950000D03*
%TD*%
D11*
%TO.C,MX10*%
X131390000Y-78850000D03*
X126390000Y-76750000D03*
D12*
X125890000Y-72950000D03*
X136890000Y-72950000D03*
D13*
X131390000Y-72950000D03*
%TD*%
D11*
%TO.C,MX9*%
X149390000Y-107050000D03*
X144390000Y-104950000D03*
D12*
X143890000Y-101150000D03*
X154890000Y-101150000D03*
D13*
X149390000Y-101150000D03*
%TD*%
D11*
%TO.C,MX8*%
X149390000Y-90050000D03*
X144390000Y-87950000D03*
D12*
X143890000Y-84150000D03*
X154890000Y-84150000D03*
D13*
X149390000Y-84150000D03*
%TD*%
D11*
%TO.C,MX7*%
X149390000Y-73050000D03*
X144390000Y-70950000D03*
D12*
X143890000Y-67150000D03*
X154890000Y-67150000D03*
D13*
X149390000Y-67150000D03*
%TD*%
D11*
%TO.C,MX6*%
X167390000Y-113850000D03*
X162390000Y-111750000D03*
D12*
X161890000Y-107950000D03*
X172890000Y-107950000D03*
D13*
X167390000Y-107950000D03*
%TD*%
D11*
%TO.C,MX5*%
X167390000Y-96850000D03*
X162390000Y-94750000D03*
D12*
X161890000Y-90950000D03*
X172890000Y-90950000D03*
D13*
X167390000Y-90950000D03*
%TD*%
D11*
%TO.C,MX3*%
X185390000Y-126050000D03*
X180390000Y-123950000D03*
D12*
X179890000Y-120150000D03*
X190890000Y-120150000D03*
D13*
X185390000Y-120150000D03*
%TD*%
D11*
%TO.C,MX2*%
X185390000Y-109050000D03*
X180390000Y-106950000D03*
D12*
X179890000Y-103150000D03*
X190890000Y-103150000D03*
D13*
X185390000Y-103150000D03*
%TD*%
D11*
%TO.C,MX1*%
X185390000Y-92050000D03*
X180390000Y-89950000D03*
D12*
X179890000Y-86150000D03*
X190890000Y-86150000D03*
D13*
X185390000Y-86150000D03*
%TD*%
D14*
%TO.C,J1*%
X93390000Y-120450000D03*
D15*
X88790000Y-122750000D03*
X95790000Y-122750000D03*
D14*
X90390000Y-120450000D03*
X97390000Y-120450000D03*
X98490000Y-125050000D03*
%TD*%
M02*
