%TF.GenerationSoftware,KiCad,Pcbnew,5.1.9*%
%TF.CreationDate,2021-04-16T22:17:29+02:00*%
%TF.ProjectId,handbrush,68616e64-6272-4757-9368-2e6b69636164,rev?*%
%TF.SameCoordinates,Original*%
%TF.FileFunction,Legend,Bot*%
%TF.FilePolarity,Positive*%
%FSLAX46Y46*%
G04 Gerber Fmt 4.6, Leading zero omitted, Abs format (unit mm)*
G04 Created by KiCad (PCBNEW 5.1.9) date 2021-04-16 22:17:29*
%MOMM*%
%LPD*%
G01*
G04 APERTURE LIST*
%ADD10C,0.010000*%
G04 APERTURE END LIST*
D10*
%TO.C,G\u002A\u002A\u002A*%
G36*
X94384885Y-99763383D02*
G01*
X94362701Y-99787429D01*
X94338833Y-99830141D01*
X94312654Y-99893675D01*
X94283538Y-99980186D01*
X94250861Y-100091830D01*
X94213995Y-100230763D01*
X94172314Y-100399141D01*
X94125194Y-100599120D01*
X94072007Y-100832855D01*
X94012128Y-101102502D01*
X94003211Y-101143077D01*
X93962035Y-101329765D01*
X93923060Y-101504759D01*
X93887134Y-101664368D01*
X93855107Y-101804896D01*
X93827829Y-101922652D01*
X93806149Y-102013940D01*
X93790915Y-102075069D01*
X93782978Y-102102344D01*
X93782407Y-102103357D01*
X93757136Y-102112935D01*
X93706422Y-102123626D01*
X93668565Y-102129404D01*
X93567514Y-102142786D01*
X93088096Y-101188662D01*
X92996329Y-101006473D01*
X92908348Y-100832648D01*
X92825976Y-100670733D01*
X92751036Y-100524273D01*
X92685353Y-100396814D01*
X92630749Y-100291900D01*
X92589047Y-100213076D01*
X92562072Y-100163889D01*
X92554666Y-100151500D01*
X92507532Y-100091076D01*
X92467666Y-100067029D01*
X92434327Y-100079907D01*
X92406775Y-100130259D01*
X92384270Y-100218634D01*
X92373473Y-100285827D01*
X92368901Y-100330878D01*
X92362657Y-100410064D01*
X92355022Y-100518489D01*
X92346273Y-100651262D01*
X92336690Y-100803487D01*
X92326553Y-100970272D01*
X92316139Y-101146721D01*
X92305728Y-101327942D01*
X92295599Y-101509039D01*
X92286032Y-101685121D01*
X92277304Y-101851292D01*
X92269696Y-102002659D01*
X92263487Y-102134327D01*
X92258955Y-102241404D01*
X92256379Y-102318995D01*
X92255895Y-102347741D01*
X92255385Y-102448481D01*
X92163981Y-102479625D01*
X92105550Y-102497912D01*
X92060574Y-102509113D01*
X92047737Y-102510770D01*
X92030820Y-102495848D01*
X91992565Y-102453189D01*
X91935561Y-102385950D01*
X91862399Y-102297286D01*
X91775668Y-102190355D01*
X91677958Y-102068314D01*
X91571857Y-101934321D01*
X91503946Y-101847838D01*
X91358632Y-101663123D01*
X91233917Y-101506719D01*
X91127169Y-101375514D01*
X91035758Y-101266396D01*
X90957052Y-101176254D01*
X90888422Y-101101974D01*
X90827235Y-101040446D01*
X90798447Y-101013340D01*
X90688682Y-100914094D01*
X90603315Y-100841005D01*
X90539650Y-100792071D01*
X90494994Y-100765288D01*
X90466653Y-100758653D01*
X90459326Y-100761163D01*
X90444660Y-100790139D01*
X90438628Y-100853887D01*
X90441278Y-100952805D01*
X90452658Y-101087292D01*
X90472816Y-101257745D01*
X90501800Y-101464562D01*
X90539657Y-101708141D01*
X90586436Y-101988880D01*
X90642184Y-102307178D01*
X90652061Y-102362295D01*
X90681838Y-102529759D01*
X90708874Y-102685262D01*
X90732481Y-102824595D01*
X90751976Y-102943550D01*
X90766671Y-103037917D01*
X90775882Y-103103487D01*
X90778922Y-103136050D01*
X90778552Y-103138717D01*
X90757017Y-103157300D01*
X90713085Y-103186822D01*
X90681186Y-103206211D01*
X90593930Y-103257346D01*
X90521004Y-103202190D01*
X90488922Y-103177598D01*
X90430018Y-103132115D01*
X90348308Y-103068853D01*
X90247804Y-102990925D01*
X90132520Y-102901443D01*
X90006472Y-102803520D01*
X89881462Y-102706325D01*
X89708426Y-102571904D01*
X89563128Y-102459457D01*
X89442605Y-102366785D01*
X89343893Y-102291688D01*
X89264029Y-102231967D01*
X89200049Y-102185421D01*
X89148989Y-102149850D01*
X89107887Y-102123056D01*
X89073778Y-102102838D01*
X89054379Y-102092400D01*
X88987754Y-102066742D01*
X88936845Y-102064421D01*
X88909151Y-102085743D01*
X88908876Y-102086436D01*
X88908230Y-102111861D01*
X88916739Y-102163314D01*
X88934941Y-102242981D01*
X88963380Y-102353049D01*
X89002594Y-102495702D01*
X89053126Y-102673126D01*
X89059839Y-102696385D01*
X89084226Y-102781043D01*
X89117206Y-102895932D01*
X89156673Y-103033696D01*
X89200523Y-103186981D01*
X89246651Y-103348433D01*
X89292952Y-103510698D01*
X89304156Y-103549997D01*
X89475070Y-104149609D01*
X89389680Y-104233413D01*
X89339181Y-104279854D01*
X89305560Y-104300935D01*
X89280398Y-104301081D01*
X89270491Y-104296066D01*
X89247137Y-104281346D01*
X89194392Y-104248040D01*
X89115893Y-104198445D01*
X89015275Y-104134859D01*
X88896176Y-104059581D01*
X88762232Y-103974908D01*
X88617080Y-103883140D01*
X88543077Y-103836350D01*
X88336515Y-103705818D01*
X88160292Y-103594688D01*
X88011771Y-103501401D01*
X87888312Y-103424396D01*
X87787277Y-103362112D01*
X87706028Y-103312991D01*
X87641927Y-103275470D01*
X87592334Y-103247990D01*
X87554612Y-103228991D01*
X87526122Y-103216911D01*
X87504226Y-103210191D01*
X87486286Y-103207269D01*
X87478535Y-103206768D01*
X87437757Y-103209098D01*
X87422960Y-103228639D01*
X87422237Y-103265502D01*
X87427251Y-103298526D01*
X87440664Y-103347368D01*
X87463354Y-103414159D01*
X87496201Y-103501029D01*
X87540084Y-103610109D01*
X87595883Y-103743531D01*
X87664476Y-103903425D01*
X87746743Y-104091922D01*
X87843563Y-104311153D01*
X87955816Y-104563248D01*
X87980519Y-104618523D01*
X88350767Y-105446506D01*
X88280276Y-105548855D01*
X88209786Y-105651204D01*
X88117547Y-105633909D01*
X88073081Y-105625780D01*
X87996521Y-105612013D01*
X87894257Y-105593745D01*
X87772680Y-105572117D01*
X87638179Y-105548269D01*
X87527077Y-105528623D01*
X87374896Y-105501514D01*
X87219598Y-105473432D01*
X87070289Y-105446054D01*
X86936076Y-105421057D01*
X86826065Y-105400119D01*
X86777668Y-105390640D01*
X86679436Y-105372652D01*
X86591541Y-105359431D01*
X86522887Y-105352119D01*
X86482378Y-105351860D01*
X86479706Y-105352388D01*
X86441262Y-105376112D01*
X86436265Y-105419082D01*
X86464578Y-105480568D01*
X86516872Y-105549336D01*
X86543818Y-105584510D01*
X86587799Y-105646600D01*
X86646031Y-105731351D01*
X86715731Y-105834506D01*
X86794118Y-105951812D01*
X86878410Y-106079012D01*
X86965822Y-106211852D01*
X87053575Y-106346077D01*
X87138884Y-106477430D01*
X87218968Y-106601658D01*
X87291043Y-106714504D01*
X87352329Y-106811714D01*
X87400042Y-106889032D01*
X87431400Y-106942203D01*
X87443506Y-106966472D01*
X87440418Y-107000232D01*
X87424054Y-107055160D01*
X87406247Y-107099965D01*
X87361000Y-107202916D01*
X86657616Y-107201059D01*
X86418673Y-107201102D01*
X86216220Y-107202811D01*
X86047695Y-107206509D01*
X85910533Y-107212521D01*
X85802171Y-107221169D01*
X85720046Y-107232780D01*
X85661594Y-107247676D01*
X85624252Y-107266181D01*
X85605456Y-107288620D01*
X85602642Y-107315317D01*
X85607662Y-107333784D01*
X85623176Y-107354531D01*
X85662577Y-107400733D01*
X85723072Y-107469292D01*
X85801872Y-107557109D01*
X85896185Y-107661086D01*
X86003220Y-107778124D01*
X86120186Y-107905124D01*
X86197358Y-107988468D01*
X86319887Y-108120697D01*
X86435001Y-108245259D01*
X86539795Y-108358984D01*
X86631360Y-108458701D01*
X86706791Y-108541242D01*
X86763180Y-108603436D01*
X86797620Y-108642114D01*
X86806586Y-108652775D01*
X86826166Y-108694008D01*
X86841844Y-108754447D01*
X86852435Y-108822946D01*
X86856752Y-108888356D01*
X86853612Y-108939533D01*
X86841829Y-108965330D01*
X86839903Y-108966154D01*
X86814370Y-108971055D01*
X86755485Y-108981004D01*
X86668527Y-108995154D01*
X86558774Y-109012654D01*
X86431503Y-109032657D01*
X86291993Y-109054313D01*
X86286385Y-109055178D01*
X86049343Y-109092330D01*
X85848766Y-109125181D01*
X85682349Y-109154289D01*
X85547784Y-109180215D01*
X85442764Y-109203519D01*
X85364981Y-109224759D01*
X85312128Y-109244495D01*
X85281898Y-109263287D01*
X85271985Y-109281695D01*
X85279362Y-109299431D01*
X85308597Y-109320837D01*
X85360400Y-109340086D01*
X85437159Y-109357488D01*
X85541261Y-109373354D01*
X85675094Y-109387993D01*
X85841045Y-109401717D01*
X86041501Y-109414836D01*
X86257077Y-109426568D01*
X86393270Y-109433580D01*
X86527253Y-109440730D01*
X86650174Y-109447526D01*
X86753179Y-109453477D01*
X86827417Y-109458093D01*
X86835995Y-109458673D01*
X86994835Y-109469578D01*
X87025982Y-109548869D01*
X87039623Y-109583432D01*
X87046629Y-109610291D01*
X87044042Y-109636197D01*
X87028907Y-109667904D01*
X86998267Y-109712166D01*
X86949165Y-109775733D01*
X86898487Y-109840089D01*
X86842296Y-109913733D01*
X86794285Y-109980702D01*
X86760446Y-110032403D01*
X86747966Y-110056001D01*
X86737710Y-110134180D01*
X86765028Y-110210136D01*
X86804534Y-110258133D01*
X86830550Y-110279983D01*
X86861206Y-110296774D01*
X86903859Y-110310524D01*
X86965865Y-110323249D01*
X87054581Y-110336968D01*
X87129870Y-110347348D01*
X87229410Y-110360592D01*
X87315642Y-110371758D01*
X87380870Y-110379872D01*
X87417402Y-110383961D01*
X87421634Y-110384258D01*
X87441844Y-110399706D01*
X87476461Y-110440301D01*
X87518966Y-110498187D01*
X87531547Y-110516654D01*
X87584684Y-110593733D01*
X87640540Y-110671231D01*
X87687398Y-110732909D01*
X87689121Y-110735069D01*
X87758339Y-110821600D01*
X87641332Y-111055015D01*
X87597341Y-111146697D01*
X87560643Y-111230642D01*
X87534711Y-111298347D01*
X87523023Y-111341310D01*
X87522711Y-111345182D01*
X87538226Y-111429526D01*
X87588539Y-111497584D01*
X87634086Y-111528892D01*
X87658441Y-111540344D01*
X87686300Y-111548379D01*
X87723494Y-111553169D01*
X87775853Y-111554890D01*
X87849209Y-111553715D01*
X87949391Y-111549818D01*
X88082230Y-111543375D01*
X88095799Y-111542686D01*
X88494231Y-111522400D01*
X88599627Y-111593469D01*
X88656334Y-111631666D01*
X88700298Y-111661202D01*
X88720625Y-111674771D01*
X88721061Y-111696056D01*
X88712741Y-111748930D01*
X88696910Y-111827205D01*
X88674811Y-111924695D01*
X88649907Y-112026463D01*
X88614602Y-112168342D01*
X88589259Y-112278009D01*
X88573539Y-112360944D01*
X88567098Y-112422629D01*
X88569597Y-112468545D01*
X88580692Y-112504174D01*
X88600044Y-112534996D01*
X88616980Y-112555152D01*
X88650660Y-112587384D01*
X88688674Y-112609786D01*
X88735986Y-112622278D01*
X88797560Y-112624778D01*
X88878362Y-112617208D01*
X88983354Y-112599486D01*
X89117502Y-112571533D01*
X89234289Y-112545173D01*
X89353734Y-112518050D01*
X89461491Y-112494240D01*
X89551288Y-112475078D01*
X89616850Y-112461895D01*
X89651903Y-112456026D01*
X89654715Y-112455847D01*
X89689650Y-112466323D01*
X89739816Y-112492690D01*
X89760872Y-112506197D01*
X89834970Y-112556547D01*
X89826158Y-113376715D01*
X89884942Y-113435499D01*
X89923164Y-113470109D01*
X89961312Y-113493672D01*
X90004307Y-113505485D01*
X90057069Y-113504846D01*
X90124520Y-113491051D01*
X90211580Y-113463398D01*
X90323171Y-113421185D01*
X90464212Y-113363709D01*
X90504175Y-113347071D01*
X90621711Y-113298351D01*
X90727454Y-113255166D01*
X90815987Y-113219674D01*
X90881894Y-113194036D01*
X90919758Y-113180410D01*
X90926327Y-113178770D01*
X90953951Y-113186739D01*
X91002311Y-113206935D01*
X91029054Y-113219479D01*
X91112845Y-113260188D01*
X91187110Y-113623358D01*
X91212044Y-113741123D01*
X91236414Y-113848728D01*
X91258490Y-113939076D01*
X91276540Y-114005070D01*
X91288596Y-114039169D01*
X91336385Y-114094079D01*
X91407500Y-114133634D01*
X91487134Y-114151008D01*
X91526908Y-114149024D01*
X91566551Y-114134234D01*
X91633864Y-114099423D01*
X91724557Y-114047064D01*
X91834346Y-113979628D01*
X91954615Y-113902420D01*
X92314872Y-113666761D01*
X92415452Y-113692244D01*
X92516032Y-113717726D01*
X92682163Y-114085589D01*
X92741289Y-114214963D01*
X92788020Y-114313034D01*
X92825014Y-114384558D01*
X92854934Y-114434292D01*
X92880438Y-114466992D01*
X92904188Y-114487415D01*
X92908416Y-114490115D01*
X92982491Y-114518212D01*
X93067491Y-114525780D01*
X93144519Y-114511724D01*
X93160323Y-114504699D01*
X93186887Y-114484642D01*
X93236262Y-114441566D01*
X93303533Y-114379985D01*
X93383782Y-114304415D01*
X93472096Y-114219372D01*
X93491062Y-114200873D01*
X93779123Y-113919273D01*
X93889704Y-113925137D01*
X94000286Y-113931000D01*
X94237065Y-114253385D01*
X94337289Y-114386899D01*
X94420638Y-114489809D01*
X94490909Y-114564676D01*
X94551895Y-114614059D01*
X94607392Y-114640519D01*
X94661194Y-114646614D01*
X94717097Y-114634906D01*
X94769611Y-114612616D01*
X94801205Y-114589184D01*
X94843819Y-114543465D01*
X94899682Y-114472632D01*
X94971021Y-114373859D01*
X95060067Y-114244319D01*
X95060451Y-114243750D01*
X95289143Y-113905534D01*
X95394915Y-113892318D01*
X95500688Y-113879103D01*
X95680459Y-114043900D01*
X95808069Y-114160783D01*
X95910487Y-114253956D01*
X95991337Y-114326108D01*
X96054240Y-114379925D01*
X96102819Y-114418095D01*
X96140696Y-114443306D01*
X96171492Y-114458246D01*
X96198832Y-114465601D01*
X96226335Y-114468060D01*
X96252458Y-114468308D01*
X96308286Y-114465439D01*
X96354975Y-114454044D01*
X96395811Y-114429943D01*
X96434077Y-114388954D01*
X96473056Y-114326895D01*
X96516032Y-114239586D01*
X96566290Y-114122845D01*
X96611844Y-114010697D01*
X96662134Y-113885789D01*
X96700810Y-113792260D01*
X96730596Y-113725142D01*
X96754218Y-113679461D01*
X96774398Y-113650247D01*
X96793863Y-113632530D01*
X96815336Y-113621339D01*
X96827863Y-113616569D01*
X96885783Y-113599433D01*
X96935349Y-113590729D01*
X96938528Y-113590564D01*
X96967691Y-113599876D01*
X97024359Y-113626729D01*
X97102815Y-113668084D01*
X97197344Y-113720905D01*
X97302230Y-113782156D01*
X97326556Y-113796718D01*
X97458964Y-113875825D01*
X97563102Y-113936236D01*
X97643865Y-113979919D01*
X97706150Y-114008842D01*
X97754852Y-114024972D01*
X97794867Y-114030278D01*
X97831092Y-114026728D01*
X97868422Y-114016289D01*
X97870826Y-114015478D01*
X97915739Y-113997532D01*
X97951590Y-113974324D01*
X97980522Y-113940791D01*
X98004677Y-113891870D01*
X98026199Y-113822498D01*
X98047229Y-113727611D01*
X98069911Y-113602147D01*
X98085536Y-113508043D01*
X98147204Y-113129924D01*
X98335042Y-113028104D01*
X98738580Y-113181591D01*
X98859563Y-113226665D01*
X98971240Y-113266506D01*
X99067442Y-113299053D01*
X99142000Y-113322246D01*
X99188744Y-113334023D01*
X99198068Y-113335077D01*
X99276632Y-113320956D01*
X99351212Y-113284097D01*
X99406664Y-113232759D01*
X99417477Y-113215438D01*
X99428655Y-113187512D01*
X99435326Y-113151299D01*
X99437674Y-113099857D01*
X99435886Y-113026246D01*
X99430147Y-112923525D01*
X99426688Y-112871265D01*
X99419542Y-112758677D01*
X99413578Y-112650296D01*
X99409317Y-112556716D01*
X99407281Y-112488531D01*
X99407181Y-112475385D01*
X99409101Y-112412053D01*
X99419486Y-112372767D01*
X99445530Y-112342518D01*
X99485055Y-112312909D01*
X99562815Y-112257895D01*
X99995448Y-112338268D01*
X100140995Y-112364267D01*
X100267203Y-112384738D01*
X100369414Y-112399033D01*
X100442972Y-112406505D01*
X100483221Y-112406505D01*
X100484355Y-112406281D01*
X100552606Y-112377583D01*
X100614307Y-112328673D01*
X100656517Y-112271038D01*
X100665713Y-112245280D01*
X100664542Y-112201074D01*
X100649740Y-112121529D01*
X100621574Y-112007830D01*
X100580305Y-111861163D01*
X100580148Y-111860630D01*
X100549020Y-111753626D01*
X100522470Y-111660658D01*
X100502181Y-111587758D01*
X100489836Y-111540963D01*
X100486884Y-111526165D01*
X100502913Y-111513455D01*
X100541777Y-111482529D01*
X100595755Y-111439529D01*
X100608077Y-111429709D01*
X100667945Y-111382048D01*
X100717944Y-111342345D01*
X100748418Y-111318266D01*
X100750591Y-111316568D01*
X100779602Y-111309511D01*
X100843263Y-111304393D01*
X100937183Y-111301395D01*
X101056976Y-111300694D01*
X101125903Y-111301269D01*
X101275135Y-111301841D01*
X101390622Y-111298542D01*
X101477605Y-111290190D01*
X101541324Y-111275601D01*
X101587019Y-111253593D01*
X101619930Y-111222983D01*
X101644476Y-111184182D01*
X101662172Y-111143499D01*
X101669063Y-111103921D01*
X101663405Y-111058530D01*
X101643451Y-111000406D01*
X101607457Y-110922631D01*
X101553678Y-110818285D01*
X101550808Y-110812848D01*
X101501773Y-110719521D01*
X101468916Y-110654011D01*
X101450167Y-110609581D01*
X101443457Y-110579493D01*
X101446715Y-110557010D01*
X101457872Y-110535396D01*
X101463034Y-110527147D01*
X101487555Y-110487568D01*
X101526179Y-110424449D01*
X101572843Y-110347721D01*
X101605474Y-110293831D01*
X101713572Y-110114969D01*
X101834902Y-110094169D01*
X101919618Y-110080061D01*
X102019685Y-110063988D01*
X102102769Y-110051068D01*
X102182685Y-110036255D01*
X102254320Y-110018385D01*
X102302832Y-110001190D01*
X102304578Y-110000316D01*
X102354274Y-109957038D01*
X102391479Y-109893258D01*
X98915110Y-109893258D01*
X98913365Y-109942402D01*
X98894814Y-110127325D01*
X98854414Y-110283704D01*
X98789014Y-110417302D01*
X98695465Y-110533887D01*
X98570620Y-110639225D01*
X98510584Y-110679906D01*
X98298540Y-110800644D01*
X98095263Y-110884695D01*
X97898390Y-110932829D01*
X97705560Y-110945817D01*
X97696846Y-110945584D01*
X97601617Y-110940576D01*
X97529369Y-110930099D01*
X97464057Y-110910635D01*
X97389634Y-110878665D01*
X97387841Y-110877826D01*
X97266023Y-110803608D01*
X97144814Y-110698514D01*
X97030587Y-110570314D01*
X96929712Y-110426783D01*
X96848562Y-110275693D01*
X96806667Y-110168864D01*
X96786001Y-110100265D01*
X96772321Y-110037221D01*
X96764335Y-109968602D01*
X96760751Y-109883278D01*
X96760276Y-109770118D01*
X96760280Y-109769308D01*
X96761637Y-109659497D01*
X96761854Y-109654931D01*
X94333967Y-109654931D01*
X94332287Y-109798795D01*
X94323882Y-109932971D01*
X94308751Y-110045894D01*
X94298863Y-110090027D01*
X94226722Y-110293695D01*
X94127340Y-110469445D01*
X94000353Y-110617637D01*
X93845393Y-110738628D01*
X93662097Y-110832779D01*
X93481941Y-110892445D01*
X93325371Y-110923244D01*
X93186265Y-110927103D01*
X93053754Y-110903992D01*
X93011884Y-110891203D01*
X92813679Y-110808823D01*
X92624310Y-110699540D01*
X92457376Y-110571356D01*
X92437917Y-110553614D01*
X92361466Y-110478433D01*
X92303822Y-110409832D01*
X92254284Y-110333335D01*
X92202485Y-110235143D01*
X92163416Y-110155237D01*
X92137135Y-110094564D01*
X92120754Y-110041133D01*
X92111385Y-109982954D01*
X92106139Y-109908037D01*
X92102719Y-109820923D01*
X92100266Y-109705872D01*
X92103092Y-109616126D01*
X92112329Y-109538132D01*
X92129108Y-109458339D01*
X92134950Y-109435227D01*
X92159684Y-109347538D01*
X92189372Y-109254006D01*
X92221233Y-109162070D01*
X92252484Y-109079171D01*
X92280343Y-109012750D01*
X92302028Y-108970248D01*
X92313213Y-108958462D01*
X92325802Y-108941278D01*
X92337860Y-108898646D01*
X92340275Y-108885193D01*
X92368228Y-108793853D01*
X92419201Y-108701558D01*
X92486329Y-108615688D01*
X92562746Y-108543622D01*
X92641587Y-108492742D01*
X92715986Y-108470428D01*
X92726516Y-108470000D01*
X92766716Y-108464737D01*
X92782923Y-108452468D01*
X92801251Y-108435714D01*
X92851499Y-108421327D01*
X92926563Y-108409637D01*
X93019338Y-108400975D01*
X93122722Y-108395671D01*
X93229609Y-108394056D01*
X93332896Y-108396461D01*
X93425478Y-108403216D01*
X93500253Y-108414653D01*
X93515616Y-108418358D01*
X93698935Y-108486890D01*
X93864082Y-108588632D01*
X94008810Y-108721113D01*
X94130874Y-108881858D01*
X94228030Y-109068396D01*
X94298033Y-109278253D01*
X94298685Y-109280847D01*
X94317163Y-109384392D01*
X94328925Y-109512941D01*
X94333967Y-109654931D01*
X96761854Y-109654931D01*
X96765564Y-109576945D01*
X96773770Y-109509843D01*
X96787966Y-109446384D01*
X96809862Y-109374759D01*
X96823100Y-109335498D01*
X96879207Y-109186222D01*
X96940631Y-109048316D01*
X97003709Y-108928853D01*
X97064780Y-108834903D01*
X97108890Y-108783668D01*
X97148541Y-108748897D01*
X97174032Y-108732815D01*
X97179171Y-108734821D01*
X97190809Y-108732485D01*
X97220635Y-108706760D01*
X97247421Y-108679098D01*
X97320933Y-108614843D01*
X97402192Y-108569022D01*
X97478326Y-108548600D01*
X97489437Y-108548154D01*
X97523969Y-108539357D01*
X97534120Y-108528333D01*
X97555101Y-108515373D01*
X97604840Y-108498739D01*
X97673612Y-108481551D01*
X97692150Y-108477632D01*
X97875327Y-108458458D01*
X98053767Y-108477047D01*
X98228839Y-108533771D01*
X98401912Y-108629003D01*
X98493457Y-108695339D01*
X98565366Y-108759189D01*
X98626158Y-108831654D01*
X98679862Y-108919666D01*
X98730505Y-109030158D01*
X98782114Y-109170065D01*
X98799507Y-109222231D01*
X98848900Y-109382102D01*
X98883379Y-109517891D01*
X98904721Y-109640846D01*
X98914705Y-109762219D01*
X98915110Y-109893258D01*
X102391479Y-109893258D01*
X102391721Y-109892844D01*
X102409210Y-109823959D01*
X102406559Y-109785649D01*
X102389795Y-109753073D01*
X102352748Y-109698653D01*
X102300876Y-109629945D01*
X102239639Y-109554505D01*
X102239060Y-109553816D01*
X102179475Y-109481696D01*
X102130407Y-109419924D01*
X102096723Y-109374799D01*
X102083288Y-109352617D01*
X102083231Y-109352107D01*
X102101728Y-109346140D01*
X102153081Y-109339624D01*
X102231086Y-109333088D01*
X102329538Y-109327061D01*
X102430039Y-109322528D01*
X102737942Y-109309640D01*
X103007714Y-109295841D01*
X103240289Y-109281024D01*
X103436605Y-109265081D01*
X103597596Y-109247906D01*
X103724201Y-109229392D01*
X103817354Y-109209433D01*
X103877993Y-109187921D01*
X103907053Y-109164751D01*
X103910077Y-109153847D01*
X103903623Y-109137760D01*
X103882586Y-109121593D01*
X103844452Y-109104803D01*
X103786709Y-109086850D01*
X103706843Y-109067191D01*
X103602343Y-109045286D01*
X103470694Y-109020593D01*
X103309385Y-108992571D01*
X103115901Y-108960679D01*
X102887731Y-108924375D01*
X102731947Y-108900066D01*
X102579757Y-108876493D01*
X102440237Y-108854961D01*
X102317995Y-108836173D01*
X102217634Y-108820835D01*
X102143761Y-108809651D01*
X102100981Y-108803327D01*
X102092062Y-108802154D01*
X102085853Y-108785143D01*
X102083231Y-108744176D01*
X102083231Y-108743611D01*
X102086601Y-108724994D01*
X102098253Y-108700159D01*
X102120500Y-108666358D01*
X102155654Y-108620841D01*
X102206028Y-108560858D01*
X102273934Y-108483659D01*
X102361686Y-108386495D01*
X102471595Y-108266616D01*
X102605974Y-108121272D01*
X102613183Y-108113496D01*
X102738656Y-107978423D01*
X102863878Y-107844090D01*
X102984502Y-107715126D01*
X103096184Y-107596159D01*
X103194579Y-107491817D01*
X103275342Y-107406728D01*
X103334127Y-107345519D01*
X103336106Y-107343483D01*
X103423156Y-107251289D01*
X103482657Y-107180888D01*
X103516586Y-107128470D01*
X103526918Y-107090228D01*
X103515629Y-107062354D01*
X103491285Y-107044380D01*
X103450668Y-107032286D01*
X103383673Y-107026069D01*
X103288521Y-107025836D01*
X103163430Y-107031696D01*
X103006623Y-107043758D01*
X102816319Y-107062129D01*
X102590740Y-107086917D01*
X102378453Y-107112077D01*
X102212915Y-107132058D01*
X102058164Y-107150445D01*
X101918832Y-107166712D01*
X101799554Y-107180329D01*
X101704962Y-107190768D01*
X101639690Y-107197500D01*
X101608371Y-107199996D01*
X101607864Y-107200000D01*
X101577643Y-107193641D01*
X101553106Y-107169046D01*
X101527201Y-107117943D01*
X101516968Y-107093406D01*
X101494761Y-107033223D01*
X101481842Y-106987229D01*
X101480506Y-106968996D01*
X101494586Y-106951807D01*
X101532837Y-106908375D01*
X101592976Y-106841219D01*
X101672720Y-106752856D01*
X101769785Y-106645804D01*
X101881888Y-106522581D01*
X102006746Y-106385704D01*
X102142074Y-106237693D01*
X102285590Y-106081064D01*
X102300807Y-106064475D01*
X102491918Y-105856052D01*
X102658186Y-105674378D01*
X102801275Y-105517491D01*
X102922851Y-105383427D01*
X103024577Y-105270224D01*
X103108117Y-105175919D01*
X103175137Y-105098549D01*
X103227300Y-105036152D01*
X103266271Y-104986764D01*
X103293715Y-104948424D01*
X103311295Y-104919167D01*
X103320676Y-104897032D01*
X103323522Y-104880055D01*
X103321497Y-104866274D01*
X103320146Y-104862355D01*
X103311113Y-104848084D01*
X103294990Y-104838438D01*
X103269397Y-104834072D01*
X103231954Y-104835640D01*
X103180283Y-104843798D01*
X103112005Y-104859199D01*
X103024739Y-104882498D01*
X102916107Y-104914350D01*
X102783729Y-104955410D01*
X102625227Y-105006333D01*
X102438222Y-105067772D01*
X102220333Y-105140384D01*
X101969182Y-105224821D01*
X101820794Y-105274923D01*
X101624645Y-105341080D01*
X101439254Y-105403335D01*
X101267977Y-105460579D01*
X101114173Y-105511703D01*
X100981196Y-105555599D01*
X100872404Y-105591156D01*
X100791154Y-105617267D01*
X100740803Y-105632822D01*
X100724936Y-105636924D01*
X100701742Y-105621628D01*
X100667305Y-105582028D01*
X100638030Y-105540236D01*
X100575986Y-105443549D01*
X100941086Y-104490044D01*
X101012964Y-104303463D01*
X101082401Y-104125384D01*
X101147842Y-103959649D01*
X101207730Y-103810102D01*
X101260510Y-103680587D01*
X101304625Y-103574948D01*
X101338520Y-103497027D01*
X101360639Y-103450669D01*
X101364747Y-103443490D01*
X101397714Y-103386643D01*
X101409522Y-103350875D01*
X101402941Y-103326368D01*
X101399184Y-103321374D01*
X101366928Y-103296730D01*
X101350022Y-103292308D01*
X101312721Y-103303238D01*
X101243092Y-103336008D01*
X101141190Y-103390586D01*
X101007069Y-103466941D01*
X100840786Y-103565041D01*
X100642393Y-103684854D01*
X100411948Y-103826350D01*
X100340741Y-103870437D01*
X100196727Y-103959655D01*
X100061858Y-104043032D01*
X99940042Y-104118165D01*
X99835186Y-104182651D01*
X99751198Y-104234088D01*
X99691984Y-104270074D01*
X99661452Y-104288206D01*
X99659550Y-104289257D01*
X99632371Y-104298982D01*
X99605608Y-104292220D01*
X99569369Y-104264336D01*
X99533479Y-104230171D01*
X99450031Y-104148273D01*
X99679673Y-103244749D01*
X99746746Y-102978113D01*
X99802969Y-102748663D01*
X99848418Y-102556066D01*
X99883169Y-102399992D01*
X99907297Y-102280106D01*
X99920877Y-102196077D01*
X99923268Y-102173722D01*
X99928280Y-102064137D01*
X99921418Y-101988552D01*
X99901756Y-101943457D01*
X99868371Y-101925341D01*
X99857694Y-101924616D01*
X99829252Y-101931684D01*
X99787646Y-101953903D01*
X99731063Y-101992789D01*
X99657686Y-102049861D01*
X99565701Y-102126639D01*
X99453293Y-102224639D01*
X99318647Y-102345380D01*
X99159948Y-102490382D01*
X98975380Y-102661161D01*
X98958515Y-102676847D01*
X98828932Y-102797165D01*
X98707934Y-102909058D01*
X98598564Y-103009745D01*
X98503864Y-103096445D01*
X98426877Y-103166377D01*
X98370645Y-103216763D01*
X98338212Y-103244821D01*
X98331563Y-103249750D01*
X98306883Y-103242935D01*
X98261931Y-103218766D01*
X98222577Y-103193372D01*
X98131496Y-103130707D01*
X98144354Y-102542315D01*
X98150384Y-102247999D01*
X98154977Y-101983413D01*
X98158130Y-101749776D01*
X98159838Y-101548309D01*
X98160097Y-101380232D01*
X98158906Y-101246766D01*
X98156258Y-101149129D01*
X98152152Y-101088544D01*
X98148767Y-101069808D01*
X98130392Y-101035793D01*
X98115320Y-101025847D01*
X98082376Y-101042095D01*
X98029314Y-101090105D01*
X97957155Y-101168769D01*
X97866918Y-101276983D01*
X97770054Y-101400073D01*
X97636386Y-101572918D01*
X97486964Y-101764963D01*
X97330562Y-101964989D01*
X97175952Y-102161776D01*
X97031909Y-102344102D01*
X97029145Y-102347589D01*
X96887433Y-102526332D01*
X96782490Y-102487674D01*
X96677546Y-102449015D01*
X96633937Y-102045162D01*
X96594841Y-101684389D01*
X96559563Y-101361599D01*
X96527999Y-101075893D01*
X96500043Y-100826373D01*
X96475590Y-100612143D01*
X96454537Y-100432303D01*
X96436778Y-100285958D01*
X96422208Y-100172209D01*
X96410723Y-100090159D01*
X96402217Y-100038910D01*
X96397504Y-100019523D01*
X96370450Y-99979967D01*
X96343751Y-99974233D01*
X96331522Y-99978918D01*
X96317818Y-99990168D01*
X96301527Y-100010349D01*
X96281534Y-100041827D01*
X96256727Y-100086969D01*
X96225991Y-100148142D01*
X96188214Y-100227711D01*
X96142282Y-100328043D01*
X96087082Y-100451504D01*
X96021500Y-100600461D01*
X95944423Y-100777280D01*
X95854737Y-100984328D01*
X95751329Y-101223970D01*
X95703505Y-101334986D01*
X95355826Y-102142357D01*
X95256336Y-102129189D01*
X95196954Y-102119359D01*
X95154707Y-102108732D01*
X95143356Y-102103357D01*
X95135618Y-102082547D01*
X95118606Y-102027731D01*
X95093378Y-101942590D01*
X95060990Y-101830803D01*
X95022501Y-101696052D01*
X94978967Y-101542017D01*
X94931446Y-101372379D01*
X94880995Y-101190817D01*
X94875896Y-101172385D01*
X94823180Y-100982416D01*
X94771639Y-100797894D01*
X94722596Y-100623472D01*
X94677374Y-100463804D01*
X94637297Y-100323544D01*
X94603687Y-100207345D01*
X94577868Y-100119862D01*
X94562042Y-100068462D01*
X94520647Y-99950214D01*
X94481160Y-99856549D01*
X94445563Y-99791445D01*
X94415843Y-99758874D01*
X94406011Y-99755847D01*
X94384885Y-99763383D01*
G37*
X94384885Y-99763383D02*
X94362701Y-99787429D01*
X94338833Y-99830141D01*
X94312654Y-99893675D01*
X94283538Y-99980186D01*
X94250861Y-100091830D01*
X94213995Y-100230763D01*
X94172314Y-100399141D01*
X94125194Y-100599120D01*
X94072007Y-100832855D01*
X94012128Y-101102502D01*
X94003211Y-101143077D01*
X93962035Y-101329765D01*
X93923060Y-101504759D01*
X93887134Y-101664368D01*
X93855107Y-101804896D01*
X93827829Y-101922652D01*
X93806149Y-102013940D01*
X93790915Y-102075069D01*
X93782978Y-102102344D01*
X93782407Y-102103357D01*
X93757136Y-102112935D01*
X93706422Y-102123626D01*
X93668565Y-102129404D01*
X93567514Y-102142786D01*
X93088096Y-101188662D01*
X92996329Y-101006473D01*
X92908348Y-100832648D01*
X92825976Y-100670733D01*
X92751036Y-100524273D01*
X92685353Y-100396814D01*
X92630749Y-100291900D01*
X92589047Y-100213076D01*
X92562072Y-100163889D01*
X92554666Y-100151500D01*
X92507532Y-100091076D01*
X92467666Y-100067029D01*
X92434327Y-100079907D01*
X92406775Y-100130259D01*
X92384270Y-100218634D01*
X92373473Y-100285827D01*
X92368901Y-100330878D01*
X92362657Y-100410064D01*
X92355022Y-100518489D01*
X92346273Y-100651262D01*
X92336690Y-100803487D01*
X92326553Y-100970272D01*
X92316139Y-101146721D01*
X92305728Y-101327942D01*
X92295599Y-101509039D01*
X92286032Y-101685121D01*
X92277304Y-101851292D01*
X92269696Y-102002659D01*
X92263487Y-102134327D01*
X92258955Y-102241404D01*
X92256379Y-102318995D01*
X92255895Y-102347741D01*
X92255385Y-102448481D01*
X92163981Y-102479625D01*
X92105550Y-102497912D01*
X92060574Y-102509113D01*
X92047737Y-102510770D01*
X92030820Y-102495848D01*
X91992565Y-102453189D01*
X91935561Y-102385950D01*
X91862399Y-102297286D01*
X91775668Y-102190355D01*
X91677958Y-102068314D01*
X91571857Y-101934321D01*
X91503946Y-101847838D01*
X91358632Y-101663123D01*
X91233917Y-101506719D01*
X91127169Y-101375514D01*
X91035758Y-101266396D01*
X90957052Y-101176254D01*
X90888422Y-101101974D01*
X90827235Y-101040446D01*
X90798447Y-101013340D01*
X90688682Y-100914094D01*
X90603315Y-100841005D01*
X90539650Y-100792071D01*
X90494994Y-100765288D01*
X90466653Y-100758653D01*
X90459326Y-100761163D01*
X90444660Y-100790139D01*
X90438628Y-100853887D01*
X90441278Y-100952805D01*
X90452658Y-101087292D01*
X90472816Y-101257745D01*
X90501800Y-101464562D01*
X90539657Y-101708141D01*
X90586436Y-101988880D01*
X90642184Y-102307178D01*
X90652061Y-102362295D01*
X90681838Y-102529759D01*
X90708874Y-102685262D01*
X90732481Y-102824595D01*
X90751976Y-102943550D01*
X90766671Y-103037917D01*
X90775882Y-103103487D01*
X90778922Y-103136050D01*
X90778552Y-103138717D01*
X90757017Y-103157300D01*
X90713085Y-103186822D01*
X90681186Y-103206211D01*
X90593930Y-103257346D01*
X90521004Y-103202190D01*
X90488922Y-103177598D01*
X90430018Y-103132115D01*
X90348308Y-103068853D01*
X90247804Y-102990925D01*
X90132520Y-102901443D01*
X90006472Y-102803520D01*
X89881462Y-102706325D01*
X89708426Y-102571904D01*
X89563128Y-102459457D01*
X89442605Y-102366785D01*
X89343893Y-102291688D01*
X89264029Y-102231967D01*
X89200049Y-102185421D01*
X89148989Y-102149850D01*
X89107887Y-102123056D01*
X89073778Y-102102838D01*
X89054379Y-102092400D01*
X88987754Y-102066742D01*
X88936845Y-102064421D01*
X88909151Y-102085743D01*
X88908876Y-102086436D01*
X88908230Y-102111861D01*
X88916739Y-102163314D01*
X88934941Y-102242981D01*
X88963380Y-102353049D01*
X89002594Y-102495702D01*
X89053126Y-102673126D01*
X89059839Y-102696385D01*
X89084226Y-102781043D01*
X89117206Y-102895932D01*
X89156673Y-103033696D01*
X89200523Y-103186981D01*
X89246651Y-103348433D01*
X89292952Y-103510698D01*
X89304156Y-103549997D01*
X89475070Y-104149609D01*
X89389680Y-104233413D01*
X89339181Y-104279854D01*
X89305560Y-104300935D01*
X89280398Y-104301081D01*
X89270491Y-104296066D01*
X89247137Y-104281346D01*
X89194392Y-104248040D01*
X89115893Y-104198445D01*
X89015275Y-104134859D01*
X88896176Y-104059581D01*
X88762232Y-103974908D01*
X88617080Y-103883140D01*
X88543077Y-103836350D01*
X88336515Y-103705818D01*
X88160292Y-103594688D01*
X88011771Y-103501401D01*
X87888312Y-103424396D01*
X87787277Y-103362112D01*
X87706028Y-103312991D01*
X87641927Y-103275470D01*
X87592334Y-103247990D01*
X87554612Y-103228991D01*
X87526122Y-103216911D01*
X87504226Y-103210191D01*
X87486286Y-103207269D01*
X87478535Y-103206768D01*
X87437757Y-103209098D01*
X87422960Y-103228639D01*
X87422237Y-103265502D01*
X87427251Y-103298526D01*
X87440664Y-103347368D01*
X87463354Y-103414159D01*
X87496201Y-103501029D01*
X87540084Y-103610109D01*
X87595883Y-103743531D01*
X87664476Y-103903425D01*
X87746743Y-104091922D01*
X87843563Y-104311153D01*
X87955816Y-104563248D01*
X87980519Y-104618523D01*
X88350767Y-105446506D01*
X88280276Y-105548855D01*
X88209786Y-105651204D01*
X88117547Y-105633909D01*
X88073081Y-105625780D01*
X87996521Y-105612013D01*
X87894257Y-105593745D01*
X87772680Y-105572117D01*
X87638179Y-105548269D01*
X87527077Y-105528623D01*
X87374896Y-105501514D01*
X87219598Y-105473432D01*
X87070289Y-105446054D01*
X86936076Y-105421057D01*
X86826065Y-105400119D01*
X86777668Y-105390640D01*
X86679436Y-105372652D01*
X86591541Y-105359431D01*
X86522887Y-105352119D01*
X86482378Y-105351860D01*
X86479706Y-105352388D01*
X86441262Y-105376112D01*
X86436265Y-105419082D01*
X86464578Y-105480568D01*
X86516872Y-105549336D01*
X86543818Y-105584510D01*
X86587799Y-105646600D01*
X86646031Y-105731351D01*
X86715731Y-105834506D01*
X86794118Y-105951812D01*
X86878410Y-106079012D01*
X86965822Y-106211852D01*
X87053575Y-106346077D01*
X87138884Y-106477430D01*
X87218968Y-106601658D01*
X87291043Y-106714504D01*
X87352329Y-106811714D01*
X87400042Y-106889032D01*
X87431400Y-106942203D01*
X87443506Y-106966472D01*
X87440418Y-107000232D01*
X87424054Y-107055160D01*
X87406247Y-107099965D01*
X87361000Y-107202916D01*
X86657616Y-107201059D01*
X86418673Y-107201102D01*
X86216220Y-107202811D01*
X86047695Y-107206509D01*
X85910533Y-107212521D01*
X85802171Y-107221169D01*
X85720046Y-107232780D01*
X85661594Y-107247676D01*
X85624252Y-107266181D01*
X85605456Y-107288620D01*
X85602642Y-107315317D01*
X85607662Y-107333784D01*
X85623176Y-107354531D01*
X85662577Y-107400733D01*
X85723072Y-107469292D01*
X85801872Y-107557109D01*
X85896185Y-107661086D01*
X86003220Y-107778124D01*
X86120186Y-107905124D01*
X86197358Y-107988468D01*
X86319887Y-108120697D01*
X86435001Y-108245259D01*
X86539795Y-108358984D01*
X86631360Y-108458701D01*
X86706791Y-108541242D01*
X86763180Y-108603436D01*
X86797620Y-108642114D01*
X86806586Y-108652775D01*
X86826166Y-108694008D01*
X86841844Y-108754447D01*
X86852435Y-108822946D01*
X86856752Y-108888356D01*
X86853612Y-108939533D01*
X86841829Y-108965330D01*
X86839903Y-108966154D01*
X86814370Y-108971055D01*
X86755485Y-108981004D01*
X86668527Y-108995154D01*
X86558774Y-109012654D01*
X86431503Y-109032657D01*
X86291993Y-109054313D01*
X86286385Y-109055178D01*
X86049343Y-109092330D01*
X85848766Y-109125181D01*
X85682349Y-109154289D01*
X85547784Y-109180215D01*
X85442764Y-109203519D01*
X85364981Y-109224759D01*
X85312128Y-109244495D01*
X85281898Y-109263287D01*
X85271985Y-109281695D01*
X85279362Y-109299431D01*
X85308597Y-109320837D01*
X85360400Y-109340086D01*
X85437159Y-109357488D01*
X85541261Y-109373354D01*
X85675094Y-109387993D01*
X85841045Y-109401717D01*
X86041501Y-109414836D01*
X86257077Y-109426568D01*
X86393270Y-109433580D01*
X86527253Y-109440730D01*
X86650174Y-109447526D01*
X86753179Y-109453477D01*
X86827417Y-109458093D01*
X86835995Y-109458673D01*
X86994835Y-109469578D01*
X87025982Y-109548869D01*
X87039623Y-109583432D01*
X87046629Y-109610291D01*
X87044042Y-109636197D01*
X87028907Y-109667904D01*
X86998267Y-109712166D01*
X86949165Y-109775733D01*
X86898487Y-109840089D01*
X86842296Y-109913733D01*
X86794285Y-109980702D01*
X86760446Y-110032403D01*
X86747966Y-110056001D01*
X86737710Y-110134180D01*
X86765028Y-110210136D01*
X86804534Y-110258133D01*
X86830550Y-110279983D01*
X86861206Y-110296774D01*
X86903859Y-110310524D01*
X86965865Y-110323249D01*
X87054581Y-110336968D01*
X87129870Y-110347348D01*
X87229410Y-110360592D01*
X87315642Y-110371758D01*
X87380870Y-110379872D01*
X87417402Y-110383961D01*
X87421634Y-110384258D01*
X87441844Y-110399706D01*
X87476461Y-110440301D01*
X87518966Y-110498187D01*
X87531547Y-110516654D01*
X87584684Y-110593733D01*
X87640540Y-110671231D01*
X87687398Y-110732909D01*
X87689121Y-110735069D01*
X87758339Y-110821600D01*
X87641332Y-111055015D01*
X87597341Y-111146697D01*
X87560643Y-111230642D01*
X87534711Y-111298347D01*
X87523023Y-111341310D01*
X87522711Y-111345182D01*
X87538226Y-111429526D01*
X87588539Y-111497584D01*
X87634086Y-111528892D01*
X87658441Y-111540344D01*
X87686300Y-111548379D01*
X87723494Y-111553169D01*
X87775853Y-111554890D01*
X87849209Y-111553715D01*
X87949391Y-111549818D01*
X88082230Y-111543375D01*
X88095799Y-111542686D01*
X88494231Y-111522400D01*
X88599627Y-111593469D01*
X88656334Y-111631666D01*
X88700298Y-111661202D01*
X88720625Y-111674771D01*
X88721061Y-111696056D01*
X88712741Y-111748930D01*
X88696910Y-111827205D01*
X88674811Y-111924695D01*
X88649907Y-112026463D01*
X88614602Y-112168342D01*
X88589259Y-112278009D01*
X88573539Y-112360944D01*
X88567098Y-112422629D01*
X88569597Y-112468545D01*
X88580692Y-112504174D01*
X88600044Y-112534996D01*
X88616980Y-112555152D01*
X88650660Y-112587384D01*
X88688674Y-112609786D01*
X88735986Y-112622278D01*
X88797560Y-112624778D01*
X88878362Y-112617208D01*
X88983354Y-112599486D01*
X89117502Y-112571533D01*
X89234289Y-112545173D01*
X89353734Y-112518050D01*
X89461491Y-112494240D01*
X89551288Y-112475078D01*
X89616850Y-112461895D01*
X89651903Y-112456026D01*
X89654715Y-112455847D01*
X89689650Y-112466323D01*
X89739816Y-112492690D01*
X89760872Y-112506197D01*
X89834970Y-112556547D01*
X89826158Y-113376715D01*
X89884942Y-113435499D01*
X89923164Y-113470109D01*
X89961312Y-113493672D01*
X90004307Y-113505485D01*
X90057069Y-113504846D01*
X90124520Y-113491051D01*
X90211580Y-113463398D01*
X90323171Y-113421185D01*
X90464212Y-113363709D01*
X90504175Y-113347071D01*
X90621711Y-113298351D01*
X90727454Y-113255166D01*
X90815987Y-113219674D01*
X90881894Y-113194036D01*
X90919758Y-113180410D01*
X90926327Y-113178770D01*
X90953951Y-113186739D01*
X91002311Y-113206935D01*
X91029054Y-113219479D01*
X91112845Y-113260188D01*
X91187110Y-113623358D01*
X91212044Y-113741123D01*
X91236414Y-113848728D01*
X91258490Y-113939076D01*
X91276540Y-114005070D01*
X91288596Y-114039169D01*
X91336385Y-114094079D01*
X91407500Y-114133634D01*
X91487134Y-114151008D01*
X91526908Y-114149024D01*
X91566551Y-114134234D01*
X91633864Y-114099423D01*
X91724557Y-114047064D01*
X91834346Y-113979628D01*
X91954615Y-113902420D01*
X92314872Y-113666761D01*
X92415452Y-113692244D01*
X92516032Y-113717726D01*
X92682163Y-114085589D01*
X92741289Y-114214963D01*
X92788020Y-114313034D01*
X92825014Y-114384558D01*
X92854934Y-114434292D01*
X92880438Y-114466992D01*
X92904188Y-114487415D01*
X92908416Y-114490115D01*
X92982491Y-114518212D01*
X93067491Y-114525780D01*
X93144519Y-114511724D01*
X93160323Y-114504699D01*
X93186887Y-114484642D01*
X93236262Y-114441566D01*
X93303533Y-114379985D01*
X93383782Y-114304415D01*
X93472096Y-114219372D01*
X93491062Y-114200873D01*
X93779123Y-113919273D01*
X93889704Y-113925137D01*
X94000286Y-113931000D01*
X94237065Y-114253385D01*
X94337289Y-114386899D01*
X94420638Y-114489809D01*
X94490909Y-114564676D01*
X94551895Y-114614059D01*
X94607392Y-114640519D01*
X94661194Y-114646614D01*
X94717097Y-114634906D01*
X94769611Y-114612616D01*
X94801205Y-114589184D01*
X94843819Y-114543465D01*
X94899682Y-114472632D01*
X94971021Y-114373859D01*
X95060067Y-114244319D01*
X95060451Y-114243750D01*
X95289143Y-113905534D01*
X95394915Y-113892318D01*
X95500688Y-113879103D01*
X95680459Y-114043900D01*
X95808069Y-114160783D01*
X95910487Y-114253956D01*
X95991337Y-114326108D01*
X96054240Y-114379925D01*
X96102819Y-114418095D01*
X96140696Y-114443306D01*
X96171492Y-114458246D01*
X96198832Y-114465601D01*
X96226335Y-114468060D01*
X96252458Y-114468308D01*
X96308286Y-114465439D01*
X96354975Y-114454044D01*
X96395811Y-114429943D01*
X96434077Y-114388954D01*
X96473056Y-114326895D01*
X96516032Y-114239586D01*
X96566290Y-114122845D01*
X96611844Y-114010697D01*
X96662134Y-113885789D01*
X96700810Y-113792260D01*
X96730596Y-113725142D01*
X96754218Y-113679461D01*
X96774398Y-113650247D01*
X96793863Y-113632530D01*
X96815336Y-113621339D01*
X96827863Y-113616569D01*
X96885783Y-113599433D01*
X96935349Y-113590729D01*
X96938528Y-113590564D01*
X96967691Y-113599876D01*
X97024359Y-113626729D01*
X97102815Y-113668084D01*
X97197344Y-113720905D01*
X97302230Y-113782156D01*
X97326556Y-113796718D01*
X97458964Y-113875825D01*
X97563102Y-113936236D01*
X97643865Y-113979919D01*
X97706150Y-114008842D01*
X97754852Y-114024972D01*
X97794867Y-114030278D01*
X97831092Y-114026728D01*
X97868422Y-114016289D01*
X97870826Y-114015478D01*
X97915739Y-113997532D01*
X97951590Y-113974324D01*
X97980522Y-113940791D01*
X98004677Y-113891870D01*
X98026199Y-113822498D01*
X98047229Y-113727611D01*
X98069911Y-113602147D01*
X98085536Y-113508043D01*
X98147204Y-113129924D01*
X98335042Y-113028104D01*
X98738580Y-113181591D01*
X98859563Y-113226665D01*
X98971240Y-113266506D01*
X99067442Y-113299053D01*
X99142000Y-113322246D01*
X99188744Y-113334023D01*
X99198068Y-113335077D01*
X99276632Y-113320956D01*
X99351212Y-113284097D01*
X99406664Y-113232759D01*
X99417477Y-113215438D01*
X99428655Y-113187512D01*
X99435326Y-113151299D01*
X99437674Y-113099857D01*
X99435886Y-113026246D01*
X99430147Y-112923525D01*
X99426688Y-112871265D01*
X99419542Y-112758677D01*
X99413578Y-112650296D01*
X99409317Y-112556716D01*
X99407281Y-112488531D01*
X99407181Y-112475385D01*
X99409101Y-112412053D01*
X99419486Y-112372767D01*
X99445530Y-112342518D01*
X99485055Y-112312909D01*
X99562815Y-112257895D01*
X99995448Y-112338268D01*
X100140995Y-112364267D01*
X100267203Y-112384738D01*
X100369414Y-112399033D01*
X100442972Y-112406505D01*
X100483221Y-112406505D01*
X100484355Y-112406281D01*
X100552606Y-112377583D01*
X100614307Y-112328673D01*
X100656517Y-112271038D01*
X100665713Y-112245280D01*
X100664542Y-112201074D01*
X100649740Y-112121529D01*
X100621574Y-112007830D01*
X100580305Y-111861163D01*
X100580148Y-111860630D01*
X100549020Y-111753626D01*
X100522470Y-111660658D01*
X100502181Y-111587758D01*
X100489836Y-111540963D01*
X100486884Y-111526165D01*
X100502913Y-111513455D01*
X100541777Y-111482529D01*
X100595755Y-111439529D01*
X100608077Y-111429709D01*
X100667945Y-111382048D01*
X100717944Y-111342345D01*
X100748418Y-111318266D01*
X100750591Y-111316568D01*
X100779602Y-111309511D01*
X100843263Y-111304393D01*
X100937183Y-111301395D01*
X101056976Y-111300694D01*
X101125903Y-111301269D01*
X101275135Y-111301841D01*
X101390622Y-111298542D01*
X101477605Y-111290190D01*
X101541324Y-111275601D01*
X101587019Y-111253593D01*
X101619930Y-111222983D01*
X101644476Y-111184182D01*
X101662172Y-111143499D01*
X101669063Y-111103921D01*
X101663405Y-111058530D01*
X101643451Y-111000406D01*
X101607457Y-110922631D01*
X101553678Y-110818285D01*
X101550808Y-110812848D01*
X101501773Y-110719521D01*
X101468916Y-110654011D01*
X101450167Y-110609581D01*
X101443457Y-110579493D01*
X101446715Y-110557010D01*
X101457872Y-110535396D01*
X101463034Y-110527147D01*
X101487555Y-110487568D01*
X101526179Y-110424449D01*
X101572843Y-110347721D01*
X101605474Y-110293831D01*
X101713572Y-110114969D01*
X101834902Y-110094169D01*
X101919618Y-110080061D01*
X102019685Y-110063988D01*
X102102769Y-110051068D01*
X102182685Y-110036255D01*
X102254320Y-110018385D01*
X102302832Y-110001190D01*
X102304578Y-110000316D01*
X102354274Y-109957038D01*
X102391479Y-109893258D01*
X98915110Y-109893258D01*
X98913365Y-109942402D01*
X98894814Y-110127325D01*
X98854414Y-110283704D01*
X98789014Y-110417302D01*
X98695465Y-110533887D01*
X98570620Y-110639225D01*
X98510584Y-110679906D01*
X98298540Y-110800644D01*
X98095263Y-110884695D01*
X97898390Y-110932829D01*
X97705560Y-110945817D01*
X97696846Y-110945584D01*
X97601617Y-110940576D01*
X97529369Y-110930099D01*
X97464057Y-110910635D01*
X97389634Y-110878665D01*
X97387841Y-110877826D01*
X97266023Y-110803608D01*
X97144814Y-110698514D01*
X97030587Y-110570314D01*
X96929712Y-110426783D01*
X96848562Y-110275693D01*
X96806667Y-110168864D01*
X96786001Y-110100265D01*
X96772321Y-110037221D01*
X96764335Y-109968602D01*
X96760751Y-109883278D01*
X96760276Y-109770118D01*
X96760280Y-109769308D01*
X96761637Y-109659497D01*
X96761854Y-109654931D01*
X94333967Y-109654931D01*
X94332287Y-109798795D01*
X94323882Y-109932971D01*
X94308751Y-110045894D01*
X94298863Y-110090027D01*
X94226722Y-110293695D01*
X94127340Y-110469445D01*
X94000353Y-110617637D01*
X93845393Y-110738628D01*
X93662097Y-110832779D01*
X93481941Y-110892445D01*
X93325371Y-110923244D01*
X93186265Y-110927103D01*
X93053754Y-110903992D01*
X93011884Y-110891203D01*
X92813679Y-110808823D01*
X92624310Y-110699540D01*
X92457376Y-110571356D01*
X92437917Y-110553614D01*
X92361466Y-110478433D01*
X92303822Y-110409832D01*
X92254284Y-110333335D01*
X92202485Y-110235143D01*
X92163416Y-110155237D01*
X92137135Y-110094564D01*
X92120754Y-110041133D01*
X92111385Y-109982954D01*
X92106139Y-109908037D01*
X92102719Y-109820923D01*
X92100266Y-109705872D01*
X92103092Y-109616126D01*
X92112329Y-109538132D01*
X92129108Y-109458339D01*
X92134950Y-109435227D01*
X92159684Y-109347538D01*
X92189372Y-109254006D01*
X92221233Y-109162070D01*
X92252484Y-109079171D01*
X92280343Y-109012750D01*
X92302028Y-108970248D01*
X92313213Y-108958462D01*
X92325802Y-108941278D01*
X92337860Y-108898646D01*
X92340275Y-108885193D01*
X92368228Y-108793853D01*
X92419201Y-108701558D01*
X92486329Y-108615688D01*
X92562746Y-108543622D01*
X92641587Y-108492742D01*
X92715986Y-108470428D01*
X92726516Y-108470000D01*
X92766716Y-108464737D01*
X92782923Y-108452468D01*
X92801251Y-108435714D01*
X92851499Y-108421327D01*
X92926563Y-108409637D01*
X93019338Y-108400975D01*
X93122722Y-108395671D01*
X93229609Y-108394056D01*
X93332896Y-108396461D01*
X93425478Y-108403216D01*
X93500253Y-108414653D01*
X93515616Y-108418358D01*
X93698935Y-108486890D01*
X93864082Y-108588632D01*
X94008810Y-108721113D01*
X94130874Y-108881858D01*
X94228030Y-109068396D01*
X94298033Y-109278253D01*
X94298685Y-109280847D01*
X94317163Y-109384392D01*
X94328925Y-109512941D01*
X94333967Y-109654931D01*
X96761854Y-109654931D01*
X96765564Y-109576945D01*
X96773770Y-109509843D01*
X96787966Y-109446384D01*
X96809862Y-109374759D01*
X96823100Y-109335498D01*
X96879207Y-109186222D01*
X96940631Y-109048316D01*
X97003709Y-108928853D01*
X97064780Y-108834903D01*
X97108890Y-108783668D01*
X97148541Y-108748897D01*
X97174032Y-108732815D01*
X97179171Y-108734821D01*
X97190809Y-108732485D01*
X97220635Y-108706760D01*
X97247421Y-108679098D01*
X97320933Y-108614843D01*
X97402192Y-108569022D01*
X97478326Y-108548600D01*
X97489437Y-108548154D01*
X97523969Y-108539357D01*
X97534120Y-108528333D01*
X97555101Y-108515373D01*
X97604840Y-108498739D01*
X97673612Y-108481551D01*
X97692150Y-108477632D01*
X97875327Y-108458458D01*
X98053767Y-108477047D01*
X98228839Y-108533771D01*
X98401912Y-108629003D01*
X98493457Y-108695339D01*
X98565366Y-108759189D01*
X98626158Y-108831654D01*
X98679862Y-108919666D01*
X98730505Y-109030158D01*
X98782114Y-109170065D01*
X98799507Y-109222231D01*
X98848900Y-109382102D01*
X98883379Y-109517891D01*
X98904721Y-109640846D01*
X98914705Y-109762219D01*
X98915110Y-109893258D01*
X102391479Y-109893258D01*
X102391721Y-109892844D01*
X102409210Y-109823959D01*
X102406559Y-109785649D01*
X102389795Y-109753073D01*
X102352748Y-109698653D01*
X102300876Y-109629945D01*
X102239639Y-109554505D01*
X102239060Y-109553816D01*
X102179475Y-109481696D01*
X102130407Y-109419924D01*
X102096723Y-109374799D01*
X102083288Y-109352617D01*
X102083231Y-109352107D01*
X102101728Y-109346140D01*
X102153081Y-109339624D01*
X102231086Y-109333088D01*
X102329538Y-109327061D01*
X102430039Y-109322528D01*
X102737942Y-109309640D01*
X103007714Y-109295841D01*
X103240289Y-109281024D01*
X103436605Y-109265081D01*
X103597596Y-109247906D01*
X103724201Y-109229392D01*
X103817354Y-109209433D01*
X103877993Y-109187921D01*
X103907053Y-109164751D01*
X103910077Y-109153847D01*
X103903623Y-109137760D01*
X103882586Y-109121593D01*
X103844452Y-109104803D01*
X103786709Y-109086850D01*
X103706843Y-109067191D01*
X103602343Y-109045286D01*
X103470694Y-109020593D01*
X103309385Y-108992571D01*
X103115901Y-108960679D01*
X102887731Y-108924375D01*
X102731947Y-108900066D01*
X102579757Y-108876493D01*
X102440237Y-108854961D01*
X102317995Y-108836173D01*
X102217634Y-108820835D01*
X102143761Y-108809651D01*
X102100981Y-108803327D01*
X102092062Y-108802154D01*
X102085853Y-108785143D01*
X102083231Y-108744176D01*
X102083231Y-108743611D01*
X102086601Y-108724994D01*
X102098253Y-108700159D01*
X102120500Y-108666358D01*
X102155654Y-108620841D01*
X102206028Y-108560858D01*
X102273934Y-108483659D01*
X102361686Y-108386495D01*
X102471595Y-108266616D01*
X102605974Y-108121272D01*
X102613183Y-108113496D01*
X102738656Y-107978423D01*
X102863878Y-107844090D01*
X102984502Y-107715126D01*
X103096184Y-107596159D01*
X103194579Y-107491817D01*
X103275342Y-107406728D01*
X103334127Y-107345519D01*
X103336106Y-107343483D01*
X103423156Y-107251289D01*
X103482657Y-107180888D01*
X103516586Y-107128470D01*
X103526918Y-107090228D01*
X103515629Y-107062354D01*
X103491285Y-107044380D01*
X103450668Y-107032286D01*
X103383673Y-107026069D01*
X103288521Y-107025836D01*
X103163430Y-107031696D01*
X103006623Y-107043758D01*
X102816319Y-107062129D01*
X102590740Y-107086917D01*
X102378453Y-107112077D01*
X102212915Y-107132058D01*
X102058164Y-107150445D01*
X101918832Y-107166712D01*
X101799554Y-107180329D01*
X101704962Y-107190768D01*
X101639690Y-107197500D01*
X101608371Y-107199996D01*
X101607864Y-107200000D01*
X101577643Y-107193641D01*
X101553106Y-107169046D01*
X101527201Y-107117943D01*
X101516968Y-107093406D01*
X101494761Y-107033223D01*
X101481842Y-106987229D01*
X101480506Y-106968996D01*
X101494586Y-106951807D01*
X101532837Y-106908375D01*
X101592976Y-106841219D01*
X101672720Y-106752856D01*
X101769785Y-106645804D01*
X101881888Y-106522581D01*
X102006746Y-106385704D01*
X102142074Y-106237693D01*
X102285590Y-106081064D01*
X102300807Y-106064475D01*
X102491918Y-105856052D01*
X102658186Y-105674378D01*
X102801275Y-105517491D01*
X102922851Y-105383427D01*
X103024577Y-105270224D01*
X103108117Y-105175919D01*
X103175137Y-105098549D01*
X103227300Y-105036152D01*
X103266271Y-104986764D01*
X103293715Y-104948424D01*
X103311295Y-104919167D01*
X103320676Y-104897032D01*
X103323522Y-104880055D01*
X103321497Y-104866274D01*
X103320146Y-104862355D01*
X103311113Y-104848084D01*
X103294990Y-104838438D01*
X103269397Y-104834072D01*
X103231954Y-104835640D01*
X103180283Y-104843798D01*
X103112005Y-104859199D01*
X103024739Y-104882498D01*
X102916107Y-104914350D01*
X102783729Y-104955410D01*
X102625227Y-105006333D01*
X102438222Y-105067772D01*
X102220333Y-105140384D01*
X101969182Y-105224821D01*
X101820794Y-105274923D01*
X101624645Y-105341080D01*
X101439254Y-105403335D01*
X101267977Y-105460579D01*
X101114173Y-105511703D01*
X100981196Y-105555599D01*
X100872404Y-105591156D01*
X100791154Y-105617267D01*
X100740803Y-105632822D01*
X100724936Y-105636924D01*
X100701742Y-105621628D01*
X100667305Y-105582028D01*
X100638030Y-105540236D01*
X100575986Y-105443549D01*
X100941086Y-104490044D01*
X101012964Y-104303463D01*
X101082401Y-104125384D01*
X101147842Y-103959649D01*
X101207730Y-103810102D01*
X101260510Y-103680587D01*
X101304625Y-103574948D01*
X101338520Y-103497027D01*
X101360639Y-103450669D01*
X101364747Y-103443490D01*
X101397714Y-103386643D01*
X101409522Y-103350875D01*
X101402941Y-103326368D01*
X101399184Y-103321374D01*
X101366928Y-103296730D01*
X101350022Y-103292308D01*
X101312721Y-103303238D01*
X101243092Y-103336008D01*
X101141190Y-103390586D01*
X101007069Y-103466941D01*
X100840786Y-103565041D01*
X100642393Y-103684854D01*
X100411948Y-103826350D01*
X100340741Y-103870437D01*
X100196727Y-103959655D01*
X100061858Y-104043032D01*
X99940042Y-104118165D01*
X99835186Y-104182651D01*
X99751198Y-104234088D01*
X99691984Y-104270074D01*
X99661452Y-104288206D01*
X99659550Y-104289257D01*
X99632371Y-104298982D01*
X99605608Y-104292220D01*
X99569369Y-104264336D01*
X99533479Y-104230171D01*
X99450031Y-104148273D01*
X99679673Y-103244749D01*
X99746746Y-102978113D01*
X99802969Y-102748663D01*
X99848418Y-102556066D01*
X99883169Y-102399992D01*
X99907297Y-102280106D01*
X99920877Y-102196077D01*
X99923268Y-102173722D01*
X99928280Y-102064137D01*
X99921418Y-101988552D01*
X99901756Y-101943457D01*
X99868371Y-101925341D01*
X99857694Y-101924616D01*
X99829252Y-101931684D01*
X99787646Y-101953903D01*
X99731063Y-101992789D01*
X99657686Y-102049861D01*
X99565701Y-102126639D01*
X99453293Y-102224639D01*
X99318647Y-102345380D01*
X99159948Y-102490382D01*
X98975380Y-102661161D01*
X98958515Y-102676847D01*
X98828932Y-102797165D01*
X98707934Y-102909058D01*
X98598564Y-103009745D01*
X98503864Y-103096445D01*
X98426877Y-103166377D01*
X98370645Y-103216763D01*
X98338212Y-103244821D01*
X98331563Y-103249750D01*
X98306883Y-103242935D01*
X98261931Y-103218766D01*
X98222577Y-103193372D01*
X98131496Y-103130707D01*
X98144354Y-102542315D01*
X98150384Y-102247999D01*
X98154977Y-101983413D01*
X98158130Y-101749776D01*
X98159838Y-101548309D01*
X98160097Y-101380232D01*
X98158906Y-101246766D01*
X98156258Y-101149129D01*
X98152152Y-101088544D01*
X98148767Y-101069808D01*
X98130392Y-101035793D01*
X98115320Y-101025847D01*
X98082376Y-101042095D01*
X98029314Y-101090105D01*
X97957155Y-101168769D01*
X97866918Y-101276983D01*
X97770054Y-101400073D01*
X97636386Y-101572918D01*
X97486964Y-101764963D01*
X97330562Y-101964989D01*
X97175952Y-102161776D01*
X97031909Y-102344102D01*
X97029145Y-102347589D01*
X96887433Y-102526332D01*
X96782490Y-102487674D01*
X96677546Y-102449015D01*
X96633937Y-102045162D01*
X96594841Y-101684389D01*
X96559563Y-101361599D01*
X96527999Y-101075893D01*
X96500043Y-100826373D01*
X96475590Y-100612143D01*
X96454537Y-100432303D01*
X96436778Y-100285958D01*
X96422208Y-100172209D01*
X96410723Y-100090159D01*
X96402217Y-100038910D01*
X96397504Y-100019523D01*
X96370450Y-99979967D01*
X96343751Y-99974233D01*
X96331522Y-99978918D01*
X96317818Y-99990168D01*
X96301527Y-100010349D01*
X96281534Y-100041827D01*
X96256727Y-100086969D01*
X96225991Y-100148142D01*
X96188214Y-100227711D01*
X96142282Y-100328043D01*
X96087082Y-100451504D01*
X96021500Y-100600461D01*
X95944423Y-100777280D01*
X95854737Y-100984328D01*
X95751329Y-101223970D01*
X95703505Y-101334986D01*
X95355826Y-102142357D01*
X95256336Y-102129189D01*
X95196954Y-102119359D01*
X95154707Y-102108732D01*
X95143356Y-102103357D01*
X95135618Y-102082547D01*
X95118606Y-102027731D01*
X95093378Y-101942590D01*
X95060990Y-101830803D01*
X95022501Y-101696052D01*
X94978967Y-101542017D01*
X94931446Y-101372379D01*
X94880995Y-101190817D01*
X94875896Y-101172385D01*
X94823180Y-100982416D01*
X94771639Y-100797894D01*
X94722596Y-100623472D01*
X94677374Y-100463804D01*
X94637297Y-100323544D01*
X94603687Y-100207345D01*
X94577868Y-100119862D01*
X94562042Y-100068462D01*
X94520647Y-99950214D01*
X94481160Y-99856549D01*
X94445563Y-99791445D01*
X94415843Y-99758874D01*
X94406011Y-99755847D01*
X94384885Y-99763383D01*
G36*
X175580460Y-68212909D02*
G01*
X175592391Y-68235650D01*
X175605309Y-68268887D01*
X175610097Y-68315046D01*
X175607348Y-68379874D01*
X175607327Y-68380124D01*
X175600303Y-68485516D01*
X175596716Y-68588093D01*
X175596532Y-68682847D01*
X175599721Y-68764766D01*
X175606247Y-68828842D01*
X175610414Y-68851177D01*
X175617945Y-68897001D01*
X175624032Y-68958621D01*
X175627863Y-69026438D01*
X175628744Y-69067066D01*
X175629162Y-69130239D01*
X175629612Y-69189516D01*
X175630033Y-69236913D01*
X175630273Y-69258589D01*
X175630471Y-69275947D01*
X175630580Y-69294428D01*
X175630580Y-69317224D01*
X175630450Y-69347526D01*
X175630169Y-69388523D01*
X175629718Y-69443408D01*
X175629075Y-69515368D01*
X175628221Y-69607596D01*
X175627588Y-69674983D01*
X175626299Y-69746346D01*
X175623754Y-69834926D01*
X175620240Y-69932584D01*
X175616046Y-70031182D01*
X175612347Y-70106124D01*
X175608203Y-70188518D01*
X175604723Y-70266144D01*
X175602098Y-70333960D01*
X175600524Y-70386929D01*
X175600193Y-70420009D01*
X175600228Y-70421751D01*
X175599681Y-70471149D01*
X175596498Y-70539502D01*
X175591186Y-70620556D01*
X175584251Y-70708063D01*
X175576195Y-70795767D01*
X175567527Y-70877421D01*
X175558749Y-70946771D01*
X175556639Y-70961176D01*
X175548390Y-71002319D01*
X175534163Y-71060033D01*
X175515931Y-71126761D01*
X175495668Y-71194949D01*
X175494990Y-71197129D01*
X175474721Y-71265174D01*
X175456449Y-71331948D01*
X175442138Y-71389921D01*
X175433751Y-71431561D01*
X175433591Y-71432612D01*
X175425016Y-71477051D01*
X175410945Y-71536317D01*
X175393683Y-71601064D01*
X175383011Y-71637796D01*
X175362024Y-71714654D01*
X175346071Y-71787494D01*
X175335886Y-71851517D01*
X175332202Y-71901923D01*
X175335756Y-71933913D01*
X175337207Y-71937320D01*
X175362828Y-71962908D01*
X175398597Y-71971713D01*
X175436676Y-71964890D01*
X175469228Y-71943592D01*
X175486574Y-71915335D01*
X175502303Y-71885932D01*
X175532694Y-71843228D01*
X175574164Y-71791594D01*
X175623134Y-71735401D01*
X175676021Y-71679023D01*
X175699664Y-71655229D01*
X175740327Y-71612876D01*
X175791246Y-71556585D01*
X175847145Y-71492516D01*
X175902754Y-71426830D01*
X175952794Y-71365686D01*
X175991994Y-71315248D01*
X175999581Y-71304896D01*
X176027698Y-71268940D01*
X176055970Y-71237360D01*
X176062336Y-71231143D01*
X176087014Y-71205035D01*
X176117466Y-71168663D01*
X176133713Y-71147702D01*
X176172319Y-71097635D01*
X176218928Y-71039430D01*
X176269948Y-70977338D01*
X176321785Y-70915610D01*
X176370844Y-70858500D01*
X176413529Y-70810260D01*
X176446248Y-70775141D01*
X176459670Y-70762074D01*
X176487226Y-70735786D01*
X176505293Y-70715594D01*
X176508798Y-70709783D01*
X176519100Y-70694601D01*
X176541047Y-70670122D01*
X176549313Y-70661746D01*
X176635248Y-70575710D01*
X176705515Y-70503108D01*
X176763409Y-70440482D01*
X176800502Y-70398201D01*
X176828883Y-70367647D01*
X176872558Y-70323851D01*
X176927740Y-70270333D01*
X176990637Y-70210609D01*
X177057460Y-70148198D01*
X177124418Y-70086619D01*
X177187722Y-70029389D01*
X177243581Y-69980026D01*
X177288204Y-69942050D01*
X177313209Y-69922274D01*
X177338192Y-69902325D01*
X177376520Y-69869915D01*
X177422768Y-69829695D01*
X177466863Y-69790500D01*
X177521472Y-69743222D01*
X177579231Y-69696170D01*
X177632284Y-69655600D01*
X177664299Y-69633168D01*
X177713499Y-69598782D01*
X177762195Y-69561322D01*
X177799064Y-69529602D01*
X177837457Y-69496357D01*
X177877063Y-69466815D01*
X177894711Y-69455694D01*
X177931452Y-69431769D01*
X177948078Y-69410130D01*
X177948397Y-69384523D01*
X177945167Y-69372864D01*
X177927313Y-69344842D01*
X177901482Y-69323373D01*
X177869845Y-69312852D01*
X177834638Y-69317986D01*
X177792558Y-69340204D01*
X177740304Y-69380936D01*
X177713642Y-69404722D01*
X177674753Y-69439533D01*
X177640467Y-69468701D01*
X177617042Y-69486939D01*
X177613936Y-69488978D01*
X177549447Y-69532599D01*
X177475830Y-69590863D01*
X177390739Y-69665715D01*
X177316113Y-69735693D01*
X177258787Y-69790147D01*
X177200880Y-69844343D01*
X177147958Y-69893122D01*
X177105585Y-69931332D01*
X177093400Y-69942014D01*
X177051354Y-69979471D01*
X177012154Y-70016199D01*
X176983780Y-70044707D01*
X176982182Y-70046447D01*
X176949445Y-70080025D01*
X176911345Y-70115935D01*
X176901601Y-70124573D01*
X176858860Y-70163792D01*
X176802342Y-70218664D01*
X176735188Y-70285895D01*
X176660535Y-70362190D01*
X176581522Y-70444250D01*
X176501288Y-70528782D01*
X176422969Y-70612490D01*
X176349706Y-70692077D01*
X176284636Y-70764248D01*
X176230898Y-70825707D01*
X176207781Y-70853178D01*
X176160718Y-70909140D01*
X176111631Y-70965750D01*
X176066822Y-71015829D01*
X176036892Y-71047809D01*
X176008143Y-71078565D01*
X175966478Y-71124671D01*
X175915440Y-71182130D01*
X175858572Y-71246945D01*
X175799414Y-71315116D01*
X175778983Y-71338846D01*
X175707522Y-71421133D01*
X175650762Y-71484351D01*
X175607705Y-71529393D01*
X175577344Y-71557151D01*
X175558681Y-71568518D01*
X175550713Y-71564388D01*
X175552437Y-71545653D01*
X175554137Y-71539243D01*
X175564540Y-71506471D01*
X175572631Y-71485307D01*
X175579636Y-71464153D01*
X175590084Y-71426191D01*
X175601789Y-71379382D01*
X175602527Y-71376283D01*
X175617165Y-71318408D01*
X175635722Y-71250202D01*
X175654414Y-71185534D01*
X175656109Y-71179916D01*
X175674933Y-71106307D01*
X175692687Y-71016083D01*
X175708000Y-70918027D01*
X175719498Y-70820920D01*
X175725793Y-70733930D01*
X175729350Y-70683139D01*
X175735094Y-70633047D01*
X175737770Y-70616194D01*
X175742253Y-70576323D01*
X175744729Y-70523422D01*
X175744761Y-70475867D01*
X175744861Y-70432863D01*
X175746560Y-70370950D01*
X175749606Y-70296548D01*
X175753748Y-70216079D01*
X175757113Y-70160376D01*
X175764747Y-70026556D01*
X175769200Y-69912045D01*
X175770459Y-69818257D01*
X175768508Y-69746606D01*
X175763331Y-69698507D01*
X175762205Y-69693099D01*
X175759555Y-69661368D01*
X175764116Y-69641006D01*
X175768448Y-69615383D01*
X175765383Y-69600417D01*
X175760933Y-69573679D01*
X175760081Y-69534436D01*
X175760840Y-69519009D01*
X175762620Y-69473567D01*
X175762880Y-69417428D01*
X175762055Y-69378668D01*
X175761007Y-69324331D01*
X175760955Y-69258123D01*
X175761901Y-69193554D01*
X175762042Y-69188019D01*
X175762883Y-69092868D01*
X175760531Y-69002184D01*
X175755312Y-68921844D01*
X175747549Y-68857727D01*
X175742340Y-68831615D01*
X175737109Y-68804605D01*
X175733331Y-68770126D01*
X175730921Y-68724900D01*
X175729791Y-68665653D01*
X175729856Y-68589106D01*
X175731025Y-68491981D01*
X175731925Y-68438761D01*
X175731250Y-68343963D01*
X175725804Y-68264929D01*
X175715957Y-68204157D01*
X175702081Y-68164142D01*
X175688910Y-68149062D01*
X175652083Y-68142004D01*
X175612885Y-68155172D01*
X175593081Y-68170964D01*
X175578540Y-68191448D01*
X175580460Y-68212909D01*
G37*
X175580460Y-68212909D02*
X175592391Y-68235650D01*
X175605309Y-68268887D01*
X175610097Y-68315046D01*
X175607348Y-68379874D01*
X175607327Y-68380124D01*
X175600303Y-68485516D01*
X175596716Y-68588093D01*
X175596532Y-68682847D01*
X175599721Y-68764766D01*
X175606247Y-68828842D01*
X175610414Y-68851177D01*
X175617945Y-68897001D01*
X175624032Y-68958621D01*
X175627863Y-69026438D01*
X175628744Y-69067066D01*
X175629162Y-69130239D01*
X175629612Y-69189516D01*
X175630033Y-69236913D01*
X175630273Y-69258589D01*
X175630471Y-69275947D01*
X175630580Y-69294428D01*
X175630580Y-69317224D01*
X175630450Y-69347526D01*
X175630169Y-69388523D01*
X175629718Y-69443408D01*
X175629075Y-69515368D01*
X175628221Y-69607596D01*
X175627588Y-69674983D01*
X175626299Y-69746346D01*
X175623754Y-69834926D01*
X175620240Y-69932584D01*
X175616046Y-70031182D01*
X175612347Y-70106124D01*
X175608203Y-70188518D01*
X175604723Y-70266144D01*
X175602098Y-70333960D01*
X175600524Y-70386929D01*
X175600193Y-70420009D01*
X175600228Y-70421751D01*
X175599681Y-70471149D01*
X175596498Y-70539502D01*
X175591186Y-70620556D01*
X175584251Y-70708063D01*
X175576195Y-70795767D01*
X175567527Y-70877421D01*
X175558749Y-70946771D01*
X175556639Y-70961176D01*
X175548390Y-71002319D01*
X175534163Y-71060033D01*
X175515931Y-71126761D01*
X175495668Y-71194949D01*
X175494990Y-71197129D01*
X175474721Y-71265174D01*
X175456449Y-71331948D01*
X175442138Y-71389921D01*
X175433751Y-71431561D01*
X175433591Y-71432612D01*
X175425016Y-71477051D01*
X175410945Y-71536317D01*
X175393683Y-71601064D01*
X175383011Y-71637796D01*
X175362024Y-71714654D01*
X175346071Y-71787494D01*
X175335886Y-71851517D01*
X175332202Y-71901923D01*
X175335756Y-71933913D01*
X175337207Y-71937320D01*
X175362828Y-71962908D01*
X175398597Y-71971713D01*
X175436676Y-71964890D01*
X175469228Y-71943592D01*
X175486574Y-71915335D01*
X175502303Y-71885932D01*
X175532694Y-71843228D01*
X175574164Y-71791594D01*
X175623134Y-71735401D01*
X175676021Y-71679023D01*
X175699664Y-71655229D01*
X175740327Y-71612876D01*
X175791246Y-71556585D01*
X175847145Y-71492516D01*
X175902754Y-71426830D01*
X175952794Y-71365686D01*
X175991994Y-71315248D01*
X175999581Y-71304896D01*
X176027698Y-71268940D01*
X176055970Y-71237360D01*
X176062336Y-71231143D01*
X176087014Y-71205035D01*
X176117466Y-71168663D01*
X176133713Y-71147702D01*
X176172319Y-71097635D01*
X176218928Y-71039430D01*
X176269948Y-70977338D01*
X176321785Y-70915610D01*
X176370844Y-70858500D01*
X176413529Y-70810260D01*
X176446248Y-70775141D01*
X176459670Y-70762074D01*
X176487226Y-70735786D01*
X176505293Y-70715594D01*
X176508798Y-70709783D01*
X176519100Y-70694601D01*
X176541047Y-70670122D01*
X176549313Y-70661746D01*
X176635248Y-70575710D01*
X176705515Y-70503108D01*
X176763409Y-70440482D01*
X176800502Y-70398201D01*
X176828883Y-70367647D01*
X176872558Y-70323851D01*
X176927740Y-70270333D01*
X176990637Y-70210609D01*
X177057460Y-70148198D01*
X177124418Y-70086619D01*
X177187722Y-70029389D01*
X177243581Y-69980026D01*
X177288204Y-69942050D01*
X177313209Y-69922274D01*
X177338192Y-69902325D01*
X177376520Y-69869915D01*
X177422768Y-69829695D01*
X177466863Y-69790500D01*
X177521472Y-69743222D01*
X177579231Y-69696170D01*
X177632284Y-69655600D01*
X177664299Y-69633168D01*
X177713499Y-69598782D01*
X177762195Y-69561322D01*
X177799064Y-69529602D01*
X177837457Y-69496357D01*
X177877063Y-69466815D01*
X177894711Y-69455694D01*
X177931452Y-69431769D01*
X177948078Y-69410130D01*
X177948397Y-69384523D01*
X177945167Y-69372864D01*
X177927313Y-69344842D01*
X177901482Y-69323373D01*
X177869845Y-69312852D01*
X177834638Y-69317986D01*
X177792558Y-69340204D01*
X177740304Y-69380936D01*
X177713642Y-69404722D01*
X177674753Y-69439533D01*
X177640467Y-69468701D01*
X177617042Y-69486939D01*
X177613936Y-69488978D01*
X177549447Y-69532599D01*
X177475830Y-69590863D01*
X177390739Y-69665715D01*
X177316113Y-69735693D01*
X177258787Y-69790147D01*
X177200880Y-69844343D01*
X177147958Y-69893122D01*
X177105585Y-69931332D01*
X177093400Y-69942014D01*
X177051354Y-69979471D01*
X177012154Y-70016199D01*
X176983780Y-70044707D01*
X176982182Y-70046447D01*
X176949445Y-70080025D01*
X176911345Y-70115935D01*
X176901601Y-70124573D01*
X176858860Y-70163792D01*
X176802342Y-70218664D01*
X176735188Y-70285895D01*
X176660535Y-70362190D01*
X176581522Y-70444250D01*
X176501288Y-70528782D01*
X176422969Y-70612490D01*
X176349706Y-70692077D01*
X176284636Y-70764248D01*
X176230898Y-70825707D01*
X176207781Y-70853178D01*
X176160718Y-70909140D01*
X176111631Y-70965750D01*
X176066822Y-71015829D01*
X176036892Y-71047809D01*
X176008143Y-71078565D01*
X175966478Y-71124671D01*
X175915440Y-71182130D01*
X175858572Y-71246945D01*
X175799414Y-71315116D01*
X175778983Y-71338846D01*
X175707522Y-71421133D01*
X175650762Y-71484351D01*
X175607705Y-71529393D01*
X175577344Y-71557151D01*
X175558681Y-71568518D01*
X175550713Y-71564388D01*
X175552437Y-71545653D01*
X175554137Y-71539243D01*
X175564540Y-71506471D01*
X175572631Y-71485307D01*
X175579636Y-71464153D01*
X175590084Y-71426191D01*
X175601789Y-71379382D01*
X175602527Y-71376283D01*
X175617165Y-71318408D01*
X175635722Y-71250202D01*
X175654414Y-71185534D01*
X175656109Y-71179916D01*
X175674933Y-71106307D01*
X175692687Y-71016083D01*
X175708000Y-70918027D01*
X175719498Y-70820920D01*
X175725793Y-70733930D01*
X175729350Y-70683139D01*
X175735094Y-70633047D01*
X175737770Y-70616194D01*
X175742253Y-70576323D01*
X175744729Y-70523422D01*
X175744761Y-70475867D01*
X175744861Y-70432863D01*
X175746560Y-70370950D01*
X175749606Y-70296548D01*
X175753748Y-70216079D01*
X175757113Y-70160376D01*
X175764747Y-70026556D01*
X175769200Y-69912045D01*
X175770459Y-69818257D01*
X175768508Y-69746606D01*
X175763331Y-69698507D01*
X175762205Y-69693099D01*
X175759555Y-69661368D01*
X175764116Y-69641006D01*
X175768448Y-69615383D01*
X175765383Y-69600417D01*
X175760933Y-69573679D01*
X175760081Y-69534436D01*
X175760840Y-69519009D01*
X175762620Y-69473567D01*
X175762880Y-69417428D01*
X175762055Y-69378668D01*
X175761007Y-69324331D01*
X175760955Y-69258123D01*
X175761901Y-69193554D01*
X175762042Y-69188019D01*
X175762883Y-69092868D01*
X175760531Y-69002184D01*
X175755312Y-68921844D01*
X175747549Y-68857727D01*
X175742340Y-68831615D01*
X175737109Y-68804605D01*
X175733331Y-68770126D01*
X175730921Y-68724900D01*
X175729791Y-68665653D01*
X175729856Y-68589106D01*
X175731025Y-68491981D01*
X175731925Y-68438761D01*
X175731250Y-68343963D01*
X175725804Y-68264929D01*
X175715957Y-68204157D01*
X175702081Y-68164142D01*
X175688910Y-68149062D01*
X175652083Y-68142004D01*
X175612885Y-68155172D01*
X175593081Y-68170964D01*
X175578540Y-68191448D01*
X175580460Y-68212909D01*
G36*
X176256486Y-72262175D02*
G01*
X176265786Y-72293413D01*
X176282115Y-72324805D01*
X176304524Y-72344056D01*
X176339497Y-72354585D01*
X176391444Y-72359694D01*
X176434729Y-72364101D01*
X176469685Y-72370982D01*
X176483013Y-72375899D01*
X176511076Y-72383660D01*
X176524087Y-72382602D01*
X176549965Y-72383904D01*
X176576038Y-72392951D01*
X176601142Y-72404060D01*
X176643309Y-72421392D01*
X176695831Y-72442225D01*
X176733079Y-72456636D01*
X176881527Y-72521585D01*
X177011106Y-72595166D01*
X177119232Y-72675847D01*
X177149668Y-72703675D01*
X177186202Y-72740193D01*
X177215092Y-72771382D01*
X177231743Y-72792189D01*
X177233898Y-72796299D01*
X177248192Y-72815869D01*
X177259229Y-72824048D01*
X177276265Y-72841871D01*
X177297109Y-72874305D01*
X177308663Y-72896524D01*
X177339036Y-72954030D01*
X177366579Y-72990844D01*
X177394761Y-73010882D01*
X177415284Y-73016800D01*
X177448227Y-73012522D01*
X177463651Y-72996526D01*
X177472703Y-72955915D01*
X177461245Y-72902694D01*
X177430034Y-72838133D01*
X177379828Y-72763506D01*
X177311385Y-72680089D01*
X177225463Y-72589154D01*
X177215175Y-72578942D01*
X177120669Y-72485688D01*
X177148069Y-72443713D01*
X177166503Y-72415854D01*
X177194925Y-72373343D01*
X177229067Y-72322549D01*
X177256288Y-72282216D01*
X177287948Y-72233854D01*
X177312767Y-72192965D01*
X177328081Y-72164150D01*
X177331536Y-72152336D01*
X177335526Y-72138245D01*
X177341693Y-72133744D01*
X177355182Y-72119638D01*
X177377371Y-72089266D01*
X177404194Y-72048317D01*
X177413501Y-72033236D01*
X177439497Y-71991378D01*
X177475856Y-71934088D01*
X177518903Y-71867093D01*
X177564959Y-71796127D01*
X177598102Y-71745511D01*
X177644670Y-71672803D01*
X177692491Y-71594778D01*
X177739735Y-71514775D01*
X177784571Y-71436129D01*
X177825169Y-71362178D01*
X177859700Y-71296260D01*
X177886332Y-71241709D01*
X177903235Y-71201866D01*
X177908579Y-71180065D01*
X177908518Y-71179556D01*
X177914305Y-71154903D01*
X177922650Y-71143721D01*
X177935051Y-71127690D01*
X177958122Y-71094172D01*
X177989140Y-71047261D01*
X178025378Y-70991049D01*
X178048117Y-70955159D01*
X178086998Y-70894099D01*
X178123089Y-70838701D01*
X178153409Y-70793450D01*
X178174974Y-70762831D01*
X178182029Y-70753843D01*
X178202636Y-70727426D01*
X178229940Y-70688789D01*
X178252300Y-70655100D01*
X178283044Y-70608312D01*
X178320361Y-70552969D01*
X178355486Y-70502036D01*
X178391137Y-70450814D01*
X178415540Y-70414402D01*
X178432137Y-70386889D01*
X178444374Y-70362364D01*
X178455693Y-70334920D01*
X178461138Y-70320746D01*
X178480873Y-70279745D01*
X178503274Y-70257450D01*
X178510319Y-70253820D01*
X178523684Y-70249748D01*
X178539325Y-70250681D01*
X178561381Y-70258328D01*
X178593988Y-70274393D01*
X178641282Y-70300587D01*
X178686464Y-70326509D01*
X178753953Y-70364198D01*
X178806764Y-70391016D01*
X178842526Y-70405822D01*
X178856683Y-70408365D01*
X178886319Y-70410768D01*
X178927462Y-70421757D01*
X178969275Y-70437832D01*
X178999554Y-70454489D01*
X179023253Y-70464372D01*
X179035793Y-70463068D01*
X179056508Y-70462993D01*
X179076564Y-70471077D01*
X179099142Y-70478982D01*
X179109761Y-70475579D01*
X179124347Y-70470385D01*
X179129918Y-70472552D01*
X179147576Y-70469532D01*
X179176616Y-70451315D01*
X179211636Y-70421763D01*
X179237685Y-70395457D01*
X179252022Y-70367486D01*
X179255288Y-70346961D01*
X179255082Y-70322365D01*
X179254748Y-70313396D01*
X179242783Y-70310018D01*
X179210742Y-70304087D01*
X179163718Y-70296484D01*
X179115000Y-70289252D01*
X179045748Y-70277352D01*
X178974169Y-70261754D01*
X178911032Y-70244938D01*
X178883321Y-70235893D01*
X178815889Y-70208038D01*
X178741003Y-70171289D01*
X178662377Y-70128080D01*
X178583726Y-70080847D01*
X178508761Y-70032028D01*
X178441199Y-69984057D01*
X178384753Y-69939368D01*
X178343137Y-69900399D01*
X178320065Y-69869585D01*
X178318249Y-69865319D01*
X178309592Y-69847238D01*
X178291957Y-69817160D01*
X178263909Y-69772810D01*
X178224016Y-69711918D01*
X178177814Y-69642607D01*
X178147506Y-69603324D01*
X178119942Y-69584085D01*
X178088623Y-69581275D01*
X178072744Y-69584133D01*
X178032137Y-69604714D01*
X178008951Y-69641678D01*
X178004717Y-69691598D01*
X178010867Y-69722792D01*
X178024488Y-69761039D01*
X178040780Y-69781545D01*
X178060939Y-69790644D01*
X178082212Y-69801617D01*
X178105099Y-69824950D01*
X178133236Y-69864810D01*
X178152075Y-69894969D01*
X178189345Y-69950771D01*
X178233468Y-70008928D01*
X178275402Y-70057582D01*
X178278625Y-70060949D01*
X178347506Y-70132145D01*
X178293713Y-70220198D01*
X178263201Y-70267823D01*
X178224088Y-70325482D01*
X178179724Y-70388596D01*
X178133458Y-70452581D01*
X178088638Y-70512854D01*
X178048615Y-70564836D01*
X178016737Y-70603942D01*
X177999459Y-70622773D01*
X177979769Y-70645772D01*
X177978368Y-70658239D01*
X177978682Y-70658438D01*
X177981279Y-70671847D01*
X177971959Y-70693093D01*
X177956667Y-70711952D01*
X177943806Y-70718461D01*
X177931258Y-70729035D01*
X177911113Y-70756566D01*
X177887410Y-70795436D01*
X177883914Y-70801687D01*
X177860721Y-70841945D01*
X177841584Y-70872098D01*
X177830173Y-70886413D01*
X177829364Y-70886838D01*
X177819393Y-70899032D01*
X177799899Y-70931173D01*
X177772458Y-70980359D01*
X177738647Y-71043691D01*
X177700043Y-71118269D01*
X177658224Y-71201192D01*
X177656112Y-71205437D01*
X177595766Y-71320887D01*
X177525760Y-71443604D01*
X177444277Y-71576555D01*
X177349498Y-71722709D01*
X177244954Y-71877266D01*
X177189463Y-71960172D01*
X177138310Y-72040820D01*
X177093610Y-72115548D01*
X177057479Y-72180697D01*
X177032030Y-72232607D01*
X177019381Y-72267618D01*
X177019379Y-72267627D01*
X177006322Y-72297168D01*
X176982853Y-72328993D01*
X176955371Y-72356317D01*
X176930281Y-72372358D01*
X176919187Y-72373781D01*
X176903950Y-72368329D01*
X176869762Y-72355198D01*
X176821241Y-72336187D01*
X176763001Y-72313095D01*
X176744211Y-72305595D01*
X176650711Y-72270371D01*
X176570663Y-72245447D01*
X176495557Y-72228354D01*
X176455360Y-72221700D01*
X176374589Y-72211959D01*
X176316201Y-72210423D01*
X176278312Y-72217805D01*
X176259036Y-72234818D01*
X176256486Y-72262175D01*
G37*
X176256486Y-72262175D02*
X176265786Y-72293413D01*
X176282115Y-72324805D01*
X176304524Y-72344056D01*
X176339497Y-72354585D01*
X176391444Y-72359694D01*
X176434729Y-72364101D01*
X176469685Y-72370982D01*
X176483013Y-72375899D01*
X176511076Y-72383660D01*
X176524087Y-72382602D01*
X176549965Y-72383904D01*
X176576038Y-72392951D01*
X176601142Y-72404060D01*
X176643309Y-72421392D01*
X176695831Y-72442225D01*
X176733079Y-72456636D01*
X176881527Y-72521585D01*
X177011106Y-72595166D01*
X177119232Y-72675847D01*
X177149668Y-72703675D01*
X177186202Y-72740193D01*
X177215092Y-72771382D01*
X177231743Y-72792189D01*
X177233898Y-72796299D01*
X177248192Y-72815869D01*
X177259229Y-72824048D01*
X177276265Y-72841871D01*
X177297109Y-72874305D01*
X177308663Y-72896524D01*
X177339036Y-72954030D01*
X177366579Y-72990844D01*
X177394761Y-73010882D01*
X177415284Y-73016800D01*
X177448227Y-73012522D01*
X177463651Y-72996526D01*
X177472703Y-72955915D01*
X177461245Y-72902694D01*
X177430034Y-72838133D01*
X177379828Y-72763506D01*
X177311385Y-72680089D01*
X177225463Y-72589154D01*
X177215175Y-72578942D01*
X177120669Y-72485688D01*
X177148069Y-72443713D01*
X177166503Y-72415854D01*
X177194925Y-72373343D01*
X177229067Y-72322549D01*
X177256288Y-72282216D01*
X177287948Y-72233854D01*
X177312767Y-72192965D01*
X177328081Y-72164150D01*
X177331536Y-72152336D01*
X177335526Y-72138245D01*
X177341693Y-72133744D01*
X177355182Y-72119638D01*
X177377371Y-72089266D01*
X177404194Y-72048317D01*
X177413501Y-72033236D01*
X177439497Y-71991378D01*
X177475856Y-71934088D01*
X177518903Y-71867093D01*
X177564959Y-71796127D01*
X177598102Y-71745511D01*
X177644670Y-71672803D01*
X177692491Y-71594778D01*
X177739735Y-71514775D01*
X177784571Y-71436129D01*
X177825169Y-71362178D01*
X177859700Y-71296260D01*
X177886332Y-71241709D01*
X177903235Y-71201866D01*
X177908579Y-71180065D01*
X177908518Y-71179556D01*
X177914305Y-71154903D01*
X177922650Y-71143721D01*
X177935051Y-71127690D01*
X177958122Y-71094172D01*
X177989140Y-71047261D01*
X178025378Y-70991049D01*
X178048117Y-70955159D01*
X178086998Y-70894099D01*
X178123089Y-70838701D01*
X178153409Y-70793450D01*
X178174974Y-70762831D01*
X178182029Y-70753843D01*
X178202636Y-70727426D01*
X178229940Y-70688789D01*
X178252300Y-70655100D01*
X178283044Y-70608312D01*
X178320361Y-70552969D01*
X178355486Y-70502036D01*
X178391137Y-70450814D01*
X178415540Y-70414402D01*
X178432137Y-70386889D01*
X178444374Y-70362364D01*
X178455693Y-70334920D01*
X178461138Y-70320746D01*
X178480873Y-70279745D01*
X178503274Y-70257450D01*
X178510319Y-70253820D01*
X178523684Y-70249748D01*
X178539325Y-70250681D01*
X178561381Y-70258328D01*
X178593988Y-70274393D01*
X178641282Y-70300587D01*
X178686464Y-70326509D01*
X178753953Y-70364198D01*
X178806764Y-70391016D01*
X178842526Y-70405822D01*
X178856683Y-70408365D01*
X178886319Y-70410768D01*
X178927462Y-70421757D01*
X178969275Y-70437832D01*
X178999554Y-70454489D01*
X179023253Y-70464372D01*
X179035793Y-70463068D01*
X179056508Y-70462993D01*
X179076564Y-70471077D01*
X179099142Y-70478982D01*
X179109761Y-70475579D01*
X179124347Y-70470385D01*
X179129918Y-70472552D01*
X179147576Y-70469532D01*
X179176616Y-70451315D01*
X179211636Y-70421763D01*
X179237685Y-70395457D01*
X179252022Y-70367486D01*
X179255288Y-70346961D01*
X179255082Y-70322365D01*
X179254748Y-70313396D01*
X179242783Y-70310018D01*
X179210742Y-70304087D01*
X179163718Y-70296484D01*
X179115000Y-70289252D01*
X179045748Y-70277352D01*
X178974169Y-70261754D01*
X178911032Y-70244938D01*
X178883321Y-70235893D01*
X178815889Y-70208038D01*
X178741003Y-70171289D01*
X178662377Y-70128080D01*
X178583726Y-70080847D01*
X178508761Y-70032028D01*
X178441199Y-69984057D01*
X178384753Y-69939368D01*
X178343137Y-69900399D01*
X178320065Y-69869585D01*
X178318249Y-69865319D01*
X178309592Y-69847238D01*
X178291957Y-69817160D01*
X178263909Y-69772810D01*
X178224016Y-69711918D01*
X178177814Y-69642607D01*
X178147506Y-69603324D01*
X178119942Y-69584085D01*
X178088623Y-69581275D01*
X178072744Y-69584133D01*
X178032137Y-69604714D01*
X178008951Y-69641678D01*
X178004717Y-69691598D01*
X178010867Y-69722792D01*
X178024488Y-69761039D01*
X178040780Y-69781545D01*
X178060939Y-69790644D01*
X178082212Y-69801617D01*
X178105099Y-69824950D01*
X178133236Y-69864810D01*
X178152075Y-69894969D01*
X178189345Y-69950771D01*
X178233468Y-70008928D01*
X178275402Y-70057582D01*
X178278625Y-70060949D01*
X178347506Y-70132145D01*
X178293713Y-70220198D01*
X178263201Y-70267823D01*
X178224088Y-70325482D01*
X178179724Y-70388596D01*
X178133458Y-70452581D01*
X178088638Y-70512854D01*
X178048615Y-70564836D01*
X178016737Y-70603942D01*
X177999459Y-70622773D01*
X177979769Y-70645772D01*
X177978368Y-70658239D01*
X177978682Y-70658438D01*
X177981279Y-70671847D01*
X177971959Y-70693093D01*
X177956667Y-70711952D01*
X177943806Y-70718461D01*
X177931258Y-70729035D01*
X177911113Y-70756566D01*
X177887410Y-70795436D01*
X177883914Y-70801687D01*
X177860721Y-70841945D01*
X177841584Y-70872098D01*
X177830173Y-70886413D01*
X177829364Y-70886838D01*
X177819393Y-70899032D01*
X177799899Y-70931173D01*
X177772458Y-70980359D01*
X177738647Y-71043691D01*
X177700043Y-71118269D01*
X177658224Y-71201192D01*
X177656112Y-71205437D01*
X177595766Y-71320887D01*
X177525760Y-71443604D01*
X177444277Y-71576555D01*
X177349498Y-71722709D01*
X177244954Y-71877266D01*
X177189463Y-71960172D01*
X177138310Y-72040820D01*
X177093610Y-72115548D01*
X177057479Y-72180697D01*
X177032030Y-72232607D01*
X177019381Y-72267618D01*
X177019379Y-72267627D01*
X177006322Y-72297168D01*
X176982853Y-72328993D01*
X176955371Y-72356317D01*
X176930281Y-72372358D01*
X176919187Y-72373781D01*
X176903950Y-72368329D01*
X176869762Y-72355198D01*
X176821241Y-72336187D01*
X176763001Y-72313095D01*
X176744211Y-72305595D01*
X176650711Y-72270371D01*
X176570663Y-72245447D01*
X176495557Y-72228354D01*
X176455360Y-72221700D01*
X176374589Y-72211959D01*
X176316201Y-72210423D01*
X176278312Y-72217805D01*
X176259036Y-72234818D01*
X176256486Y-72262175D01*
G36*
X178318417Y-72514675D02*
G01*
X178320564Y-72540079D01*
X178339054Y-72565738D01*
X178376251Y-72595034D01*
X178429785Y-72628557D01*
X178503553Y-72668327D01*
X178568016Y-72693823D01*
X178607634Y-72704190D01*
X178655644Y-72717188D01*
X178705017Y-72737090D01*
X178763036Y-72767109D01*
X178805065Y-72791338D01*
X178875271Y-72830720D01*
X178934531Y-72858449D01*
X178991906Y-72878521D01*
X179020734Y-72886430D01*
X179094146Y-72909220D01*
X179147410Y-72935524D01*
X179162544Y-72946189D01*
X179208545Y-72971768D01*
X179247068Y-72974184D01*
X179274985Y-72955299D01*
X179289167Y-72916974D01*
X179288217Y-72871392D01*
X179277006Y-72828355D01*
X179257699Y-72781105D01*
X179250005Y-72766409D01*
X179229335Y-72718946D01*
X179215326Y-72666786D01*
X179213244Y-72652108D01*
X179209297Y-72612762D01*
X179203628Y-72557391D01*
X179197188Y-72495232D01*
X179194033Y-72465046D01*
X179188466Y-72404912D01*
X179184578Y-72348908D01*
X179182889Y-72305356D01*
X179183070Y-72290073D01*
X179182976Y-72255420D01*
X179179669Y-72231591D01*
X179178769Y-72229333D01*
X179174440Y-72211197D01*
X179168970Y-72174838D01*
X179163392Y-72127342D01*
X179162197Y-72115531D01*
X179150898Y-72005789D01*
X179140477Y-71918547D01*
X179130258Y-71850954D01*
X179126464Y-71832926D01*
X179030335Y-71999427D01*
X179042788Y-72011782D01*
X179041340Y-72034528D01*
X179039633Y-72057312D01*
X179043826Y-72065293D01*
X179049464Y-72080314D01*
X179051250Y-72110344D01*
X179051025Y-72117109D01*
X179051841Y-72157946D01*
X179056476Y-72207902D01*
X179059609Y-72229894D01*
X179064797Y-72268853D01*
X179066407Y-72296949D01*
X179065263Y-72305252D01*
X179063800Y-72323519D01*
X179066687Y-72341225D01*
X179070855Y-72367817D01*
X179075110Y-72409974D01*
X179078095Y-72451695D01*
X179082660Y-72505096D01*
X179089475Y-72556806D01*
X179095160Y-72586895D01*
X179101562Y-72621586D01*
X179102720Y-72645548D01*
X179101754Y-72649361D01*
X179100007Y-72667853D01*
X179102806Y-72700149D01*
X179104097Y-72708675D01*
X179108880Y-72740218D01*
X179110849Y-72758335D01*
X179110738Y-72759760D01*
X179098774Y-72758373D01*
X179069054Y-72752271D01*
X179035302Y-72744497D01*
X178970655Y-72723120D01*
X178897550Y-72687072D01*
X178858128Y-72664020D01*
X178801297Y-72631034D01*
X178754961Y-72608979D01*
X178709121Y-72593788D01*
X178656275Y-72581880D01*
X178583444Y-72563201D01*
X178534452Y-72540147D01*
X178507999Y-72511994D01*
X178502898Y-72496278D01*
X178511221Y-72477176D01*
X178540222Y-72444138D01*
X178590050Y-72397002D01*
X178599866Y-72388228D01*
X178678246Y-72311878D01*
X178741685Y-72236270D01*
X178756446Y-72215379D01*
X178790906Y-72167385D01*
X178821007Y-72134736D01*
X178854082Y-72110223D01*
X178876349Y-72097515D01*
X178920169Y-72070858D01*
X178960781Y-72040927D01*
X178976907Y-72026542D01*
X179006800Y-72004151D01*
X179030335Y-71999427D01*
X179126464Y-71832926D01*
X179119567Y-71800157D01*
X179107728Y-71763306D01*
X179094066Y-71737548D01*
X179077904Y-71720032D01*
X179066673Y-71712260D01*
X179042330Y-71702803D01*
X179026324Y-71713089D01*
X179021501Y-71720651D01*
X179013063Y-71751329D01*
X179015456Y-71771262D01*
X179014872Y-71800548D01*
X179006115Y-71815325D01*
X178947086Y-71874927D01*
X178888633Y-71928036D01*
X178835754Y-71970392D01*
X178793443Y-71997737D01*
X178790068Y-71999442D01*
X178756082Y-72017268D01*
X178732466Y-72031912D01*
X178727202Y-72036469D01*
X178712720Y-72052636D01*
X178711966Y-72053336D01*
X178692422Y-72075664D01*
X178663508Y-72114535D01*
X178629033Y-72164777D01*
X178622050Y-72175361D01*
X178587824Y-72219757D01*
X178545750Y-72264121D01*
X178526311Y-72281398D01*
X178478033Y-72323631D01*
X178428513Y-72371480D01*
X178383253Y-72419199D01*
X178347753Y-72461045D01*
X178330246Y-72486139D01*
X178318417Y-72514675D01*
G37*
X178318417Y-72514675D02*
X178320564Y-72540079D01*
X178339054Y-72565738D01*
X178376251Y-72595034D01*
X178429785Y-72628557D01*
X178503553Y-72668327D01*
X178568016Y-72693823D01*
X178607634Y-72704190D01*
X178655644Y-72717188D01*
X178705017Y-72737090D01*
X178763036Y-72767109D01*
X178805065Y-72791338D01*
X178875271Y-72830720D01*
X178934531Y-72858449D01*
X178991906Y-72878521D01*
X179020734Y-72886430D01*
X179094146Y-72909220D01*
X179147410Y-72935524D01*
X179162544Y-72946189D01*
X179208545Y-72971768D01*
X179247068Y-72974184D01*
X179274985Y-72955299D01*
X179289167Y-72916974D01*
X179288217Y-72871392D01*
X179277006Y-72828355D01*
X179257699Y-72781105D01*
X179250005Y-72766409D01*
X179229335Y-72718946D01*
X179215326Y-72666786D01*
X179213244Y-72652108D01*
X179209297Y-72612762D01*
X179203628Y-72557391D01*
X179197188Y-72495232D01*
X179194033Y-72465046D01*
X179188466Y-72404912D01*
X179184578Y-72348908D01*
X179182889Y-72305356D01*
X179183070Y-72290073D01*
X179182976Y-72255420D01*
X179179669Y-72231591D01*
X179178769Y-72229333D01*
X179174440Y-72211197D01*
X179168970Y-72174838D01*
X179163392Y-72127342D01*
X179162197Y-72115531D01*
X179150898Y-72005789D01*
X179140477Y-71918547D01*
X179130258Y-71850954D01*
X179126464Y-71832926D01*
X179030335Y-71999427D01*
X179042788Y-72011782D01*
X179041340Y-72034528D01*
X179039633Y-72057312D01*
X179043826Y-72065293D01*
X179049464Y-72080314D01*
X179051250Y-72110344D01*
X179051025Y-72117109D01*
X179051841Y-72157946D01*
X179056476Y-72207902D01*
X179059609Y-72229894D01*
X179064797Y-72268853D01*
X179066407Y-72296949D01*
X179065263Y-72305252D01*
X179063800Y-72323519D01*
X179066687Y-72341225D01*
X179070855Y-72367817D01*
X179075110Y-72409974D01*
X179078095Y-72451695D01*
X179082660Y-72505096D01*
X179089475Y-72556806D01*
X179095160Y-72586895D01*
X179101562Y-72621586D01*
X179102720Y-72645548D01*
X179101754Y-72649361D01*
X179100007Y-72667853D01*
X179102806Y-72700149D01*
X179104097Y-72708675D01*
X179108880Y-72740218D01*
X179110849Y-72758335D01*
X179110738Y-72759760D01*
X179098774Y-72758373D01*
X179069054Y-72752271D01*
X179035302Y-72744497D01*
X178970655Y-72723120D01*
X178897550Y-72687072D01*
X178858128Y-72664020D01*
X178801297Y-72631034D01*
X178754961Y-72608979D01*
X178709121Y-72593788D01*
X178656275Y-72581880D01*
X178583444Y-72563201D01*
X178534452Y-72540147D01*
X178507999Y-72511994D01*
X178502898Y-72496278D01*
X178511221Y-72477176D01*
X178540222Y-72444138D01*
X178590050Y-72397002D01*
X178599866Y-72388228D01*
X178678246Y-72311878D01*
X178741685Y-72236270D01*
X178756446Y-72215379D01*
X178790906Y-72167385D01*
X178821007Y-72134736D01*
X178854082Y-72110223D01*
X178876349Y-72097515D01*
X178920169Y-72070858D01*
X178960781Y-72040927D01*
X178976907Y-72026542D01*
X179006800Y-72004151D01*
X179030335Y-71999427D01*
X179126464Y-71832926D01*
X179119567Y-71800157D01*
X179107728Y-71763306D01*
X179094066Y-71737548D01*
X179077904Y-71720032D01*
X179066673Y-71712260D01*
X179042330Y-71702803D01*
X179026324Y-71713089D01*
X179021501Y-71720651D01*
X179013063Y-71751329D01*
X179015456Y-71771262D01*
X179014872Y-71800548D01*
X179006115Y-71815325D01*
X178947086Y-71874927D01*
X178888633Y-71928036D01*
X178835754Y-71970392D01*
X178793443Y-71997737D01*
X178790068Y-71999442D01*
X178756082Y-72017268D01*
X178732466Y-72031912D01*
X178727202Y-72036469D01*
X178712720Y-72052636D01*
X178711966Y-72053336D01*
X178692422Y-72075664D01*
X178663508Y-72114535D01*
X178629033Y-72164777D01*
X178622050Y-72175361D01*
X178587824Y-72219757D01*
X178545750Y-72264121D01*
X178526311Y-72281398D01*
X178478033Y-72323631D01*
X178428513Y-72371480D01*
X178383253Y-72419199D01*
X178347753Y-72461045D01*
X178330246Y-72486139D01*
X178318417Y-72514675D01*
G36*
X179673677Y-72186455D02*
G01*
X179680410Y-72233757D01*
X179691063Y-72274620D01*
X179704367Y-72326103D01*
X179713422Y-72374107D01*
X179716329Y-72408514D01*
X179716296Y-72409366D01*
X179717390Y-72439878D01*
X179722718Y-72457080D01*
X179723520Y-72457714D01*
X179729940Y-72472461D01*
X179735674Y-72503751D01*
X179737636Y-72522295D01*
X179738653Y-72539680D01*
X179737956Y-72556762D01*
X179734474Y-72576061D01*
X179727139Y-72600093D01*
X179714881Y-72631378D01*
X179696627Y-72672435D01*
X179671310Y-72725780D01*
X179637859Y-72793935D01*
X179595205Y-72879416D01*
X179542278Y-72984743D01*
X179535267Y-72998672D01*
X179496377Y-73075940D01*
X179416737Y-73090180D01*
X179364225Y-73103295D01*
X179331087Y-73119774D01*
X179323324Y-73128279D01*
X179316019Y-73158225D01*
X179321499Y-73191810D01*
X179336192Y-73222021D01*
X179356520Y-73241843D01*
X179378908Y-73244264D01*
X179381773Y-73242941D01*
X179400429Y-73239364D01*
X179405579Y-73256312D01*
X179397290Y-73294253D01*
X179391765Y-73311035D01*
X179364400Y-73385468D01*
X179328292Y-73477237D01*
X179285798Y-73580837D01*
X179239279Y-73690758D01*
X179191092Y-73801492D01*
X179143598Y-73907533D01*
X179099153Y-74003371D01*
X179065719Y-74072331D01*
X179044490Y-74117215D01*
X179017279Y-74178069D01*
X178987440Y-74247242D01*
X178958323Y-74317080D01*
X178955505Y-74323990D01*
X178887340Y-74486805D01*
X178822815Y-74631396D01*
X178762860Y-74755772D01*
X178708400Y-74857944D01*
X178699833Y-74872825D01*
X178669571Y-74926918D01*
X178651857Y-74964769D01*
X178644799Y-74991031D01*
X178645464Y-75006413D01*
X178661330Y-75037850D01*
X178693242Y-75053482D01*
X178743213Y-75053965D01*
X178775668Y-75048716D01*
X178818443Y-75042049D01*
X178852202Y-75040255D01*
X178866891Y-75042725D01*
X178887622Y-75044555D01*
X178924813Y-75039678D01*
X178970986Y-75029872D01*
X179018659Y-75016916D01*
X179060352Y-75002590D01*
X179085364Y-74990750D01*
X179168870Y-74941212D01*
X179236041Y-74903786D01*
X179291354Y-74876024D01*
X179312277Y-74866592D01*
X179356378Y-74845945D01*
X179397061Y-74824490D01*
X179411646Y-74815781D01*
X179440929Y-74802226D01*
X179463261Y-74800642D01*
X179464906Y-74801402D01*
X179482841Y-74803718D01*
X179487472Y-74799765D01*
X179502052Y-74794712D01*
X179508261Y-74797103D01*
X179528712Y-74799043D01*
X179562071Y-74793686D01*
X179573364Y-74790696D01*
X179608745Y-74783403D01*
X179634936Y-74783272D01*
X179639403Y-74784830D01*
X179659857Y-74786379D01*
X179693811Y-74780039D01*
X179711088Y-74774891D01*
X179747615Y-74765314D01*
X179775043Y-74762801D01*
X179781868Y-74764429D01*
X179799788Y-74762979D01*
X179805867Y-74756288D01*
X179822116Y-74746198D01*
X179829973Y-74748209D01*
X179852007Y-74750438D01*
X179884107Y-74744443D01*
X179913832Y-74733470D01*
X179927935Y-74722661D01*
X179943569Y-74715390D01*
X179973716Y-74711655D01*
X179978343Y-74711553D01*
X180010727Y-74706895D01*
X180031069Y-74696106D01*
X180032132Y-74694586D01*
X180043916Y-74686861D01*
X180048747Y-74691209D01*
X180059378Y-74692979D01*
X180068511Y-74682377D01*
X180086290Y-74669554D01*
X180123045Y-74653946D01*
X180172743Y-74637207D01*
X180229350Y-74620991D01*
X180286832Y-74606951D01*
X180339157Y-74596742D01*
X180380290Y-74592017D01*
X180396595Y-74592436D01*
X180435124Y-74587169D01*
X180473670Y-74565726D01*
X180506085Y-74534049D01*
X180526225Y-74498082D01*
X180528316Y-74465090D01*
X180508825Y-74436359D01*
X180473838Y-74421361D01*
X180430637Y-74422588D01*
X180416372Y-74426775D01*
X180380602Y-74442407D01*
X180353270Y-74458870D01*
X180350396Y-74461279D01*
X180325566Y-74473139D01*
X180288937Y-74479922D01*
X180281234Y-74480345D01*
X180237582Y-74486365D01*
X180197726Y-74499051D01*
X180194461Y-74500632D01*
X180159621Y-74514964D01*
X180130561Y-74522053D01*
X180104393Y-74529422D01*
X180066549Y-74545474D01*
X180041015Y-74558341D01*
X179978588Y-74585765D01*
X179897794Y-74612097D01*
X179805653Y-74635657D01*
X179709193Y-74654763D01*
X179615435Y-74667735D01*
X179567600Y-74671643D01*
X179431936Y-74690540D01*
X179305074Y-74730404D01*
X179191304Y-74789833D01*
X179177865Y-74798810D01*
X179107650Y-74841440D01*
X179035173Y-74875757D01*
X178966857Y-74899267D01*
X178909125Y-74909471D01*
X178893084Y-74909469D01*
X178832421Y-74905647D01*
X178884824Y-74785519D01*
X178913276Y-74722826D01*
X178944597Y-74657786D01*
X178973589Y-74601068D01*
X178983817Y-74582304D01*
X179012226Y-74526327D01*
X179041322Y-74460535D01*
X179064028Y-74401311D01*
X179083963Y-74349985D01*
X179112423Y-74285343D01*
X179145401Y-74216159D01*
X179174650Y-74159101D01*
X179209440Y-74091325D01*
X179244414Y-74018796D01*
X179275096Y-73951031D01*
X179294026Y-73905399D01*
X179319669Y-73841610D01*
X179348775Y-73772846D01*
X179375709Y-73712364D01*
X179379739Y-73703705D01*
X179405509Y-73643959D01*
X179432236Y-73574261D01*
X179454338Y-73509203D01*
X179455250Y-73506241D01*
X179471562Y-73457045D01*
X179487181Y-73416973D01*
X179499492Y-73392512D01*
X179502633Y-73388758D01*
X179514933Y-73367227D01*
X179515284Y-73358493D01*
X179518707Y-73337611D01*
X179530221Y-73302614D01*
X179542010Y-73273521D01*
X179559484Y-73235619D01*
X179573327Y-73215458D01*
X179589499Y-73207259D01*
X179612401Y-73205288D01*
X179714124Y-73201380D01*
X179793298Y-73196021D01*
X179852755Y-73188706D01*
X179895329Y-73178928D01*
X179923855Y-73166180D01*
X179941164Y-73149956D01*
X179943629Y-73146079D01*
X179948403Y-73116525D01*
X179941521Y-73065169D01*
X179928522Y-73011917D01*
X179914308Y-72951603D01*
X179903708Y-72889922D01*
X179898630Y-72838427D01*
X179898444Y-72830003D01*
X179897308Y-72788794D01*
X179894532Y-72758531D01*
X179891750Y-72747926D01*
X179890859Y-72730540D01*
X179893018Y-72725739D01*
X179894735Y-72705740D01*
X179889227Y-72673045D01*
X179886788Y-72663985D01*
X179881030Y-72639114D01*
X179881033Y-72638539D01*
X179767324Y-72835489D01*
X179775998Y-72855641D01*
X179783299Y-72897037D01*
X179787727Y-72944924D01*
X179794613Y-73047085D01*
X179731118Y-73050975D01*
X179694356Y-73051492D01*
X179670208Y-73048540D01*
X179665095Y-73045426D01*
X179669603Y-73030234D01*
X179683865Y-73000209D01*
X179701372Y-72967963D01*
X179723900Y-72925082D01*
X179741516Y-72885446D01*
X179748550Y-72864446D01*
X179757950Y-72837963D01*
X179767324Y-72835489D01*
X179881033Y-72638539D01*
X179881164Y-72616247D01*
X179888814Y-72588859D01*
X179905606Y-72550430D01*
X179924923Y-72510948D01*
X179955771Y-72446711D01*
X179989365Y-72373236D01*
X180019143Y-72304920D01*
X180022983Y-72295746D01*
X180044364Y-72242409D01*
X180056041Y-72206897D01*
X180059098Y-72184040D01*
X180054618Y-72168667D01*
X180050747Y-72163194D01*
X180030632Y-72143689D01*
X180011403Y-72138958D01*
X179990255Y-72150881D01*
X179964387Y-72181332D01*
X179930994Y-72232190D01*
X179919481Y-72251057D01*
X179889986Y-72298137D01*
X179864113Y-72336220D01*
X179845251Y-72360494D01*
X179838060Y-72366688D01*
X179829105Y-72357652D01*
X179822108Y-72330511D01*
X179820098Y-72312425D01*
X179813571Y-72254537D01*
X179803371Y-72201976D01*
X179791072Y-72160997D01*
X179778245Y-72137856D01*
X179775715Y-72135896D01*
X179744105Y-72129126D01*
X179708351Y-72135981D01*
X179681388Y-72153508D01*
X179678110Y-72158170D01*
X179673677Y-72186455D01*
G37*
X179673677Y-72186455D02*
X179680410Y-72233757D01*
X179691063Y-72274620D01*
X179704367Y-72326103D01*
X179713422Y-72374107D01*
X179716329Y-72408514D01*
X179716296Y-72409366D01*
X179717390Y-72439878D01*
X179722718Y-72457080D01*
X179723520Y-72457714D01*
X179729940Y-72472461D01*
X179735674Y-72503751D01*
X179737636Y-72522295D01*
X179738653Y-72539680D01*
X179737956Y-72556762D01*
X179734474Y-72576061D01*
X179727139Y-72600093D01*
X179714881Y-72631378D01*
X179696627Y-72672435D01*
X179671310Y-72725780D01*
X179637859Y-72793935D01*
X179595205Y-72879416D01*
X179542278Y-72984743D01*
X179535267Y-72998672D01*
X179496377Y-73075940D01*
X179416737Y-73090180D01*
X179364225Y-73103295D01*
X179331087Y-73119774D01*
X179323324Y-73128279D01*
X179316019Y-73158225D01*
X179321499Y-73191810D01*
X179336192Y-73222021D01*
X179356520Y-73241843D01*
X179378908Y-73244264D01*
X179381773Y-73242941D01*
X179400429Y-73239364D01*
X179405579Y-73256312D01*
X179397290Y-73294253D01*
X179391765Y-73311035D01*
X179364400Y-73385468D01*
X179328292Y-73477237D01*
X179285798Y-73580837D01*
X179239279Y-73690758D01*
X179191092Y-73801492D01*
X179143598Y-73907533D01*
X179099153Y-74003371D01*
X179065719Y-74072331D01*
X179044490Y-74117215D01*
X179017279Y-74178069D01*
X178987440Y-74247242D01*
X178958323Y-74317080D01*
X178955505Y-74323990D01*
X178887340Y-74486805D01*
X178822815Y-74631396D01*
X178762860Y-74755772D01*
X178708400Y-74857944D01*
X178699833Y-74872825D01*
X178669571Y-74926918D01*
X178651857Y-74964769D01*
X178644799Y-74991031D01*
X178645464Y-75006413D01*
X178661330Y-75037850D01*
X178693242Y-75053482D01*
X178743213Y-75053965D01*
X178775668Y-75048716D01*
X178818443Y-75042049D01*
X178852202Y-75040255D01*
X178866891Y-75042725D01*
X178887622Y-75044555D01*
X178924813Y-75039678D01*
X178970986Y-75029872D01*
X179018659Y-75016916D01*
X179060352Y-75002590D01*
X179085364Y-74990750D01*
X179168870Y-74941212D01*
X179236041Y-74903786D01*
X179291354Y-74876024D01*
X179312277Y-74866592D01*
X179356378Y-74845945D01*
X179397061Y-74824490D01*
X179411646Y-74815781D01*
X179440929Y-74802226D01*
X179463261Y-74800642D01*
X179464906Y-74801402D01*
X179482841Y-74803718D01*
X179487472Y-74799765D01*
X179502052Y-74794712D01*
X179508261Y-74797103D01*
X179528712Y-74799043D01*
X179562071Y-74793686D01*
X179573364Y-74790696D01*
X179608745Y-74783403D01*
X179634936Y-74783272D01*
X179639403Y-74784830D01*
X179659857Y-74786379D01*
X179693811Y-74780039D01*
X179711088Y-74774891D01*
X179747615Y-74765314D01*
X179775043Y-74762801D01*
X179781868Y-74764429D01*
X179799788Y-74762979D01*
X179805867Y-74756288D01*
X179822116Y-74746198D01*
X179829973Y-74748209D01*
X179852007Y-74750438D01*
X179884107Y-74744443D01*
X179913832Y-74733470D01*
X179927935Y-74722661D01*
X179943569Y-74715390D01*
X179973716Y-74711655D01*
X179978343Y-74711553D01*
X180010727Y-74706895D01*
X180031069Y-74696106D01*
X180032132Y-74694586D01*
X180043916Y-74686861D01*
X180048747Y-74691209D01*
X180059378Y-74692979D01*
X180068511Y-74682377D01*
X180086290Y-74669554D01*
X180123045Y-74653946D01*
X180172743Y-74637207D01*
X180229350Y-74620991D01*
X180286832Y-74606951D01*
X180339157Y-74596742D01*
X180380290Y-74592017D01*
X180396595Y-74592436D01*
X180435124Y-74587169D01*
X180473670Y-74565726D01*
X180506085Y-74534049D01*
X180526225Y-74498082D01*
X180528316Y-74465090D01*
X180508825Y-74436359D01*
X180473838Y-74421361D01*
X180430637Y-74422588D01*
X180416372Y-74426775D01*
X180380602Y-74442407D01*
X180353270Y-74458870D01*
X180350396Y-74461279D01*
X180325566Y-74473139D01*
X180288937Y-74479922D01*
X180281234Y-74480345D01*
X180237582Y-74486365D01*
X180197726Y-74499051D01*
X180194461Y-74500632D01*
X180159621Y-74514964D01*
X180130561Y-74522053D01*
X180104393Y-74529422D01*
X180066549Y-74545474D01*
X180041015Y-74558341D01*
X179978588Y-74585765D01*
X179897794Y-74612097D01*
X179805653Y-74635657D01*
X179709193Y-74654763D01*
X179615435Y-74667735D01*
X179567600Y-74671643D01*
X179431936Y-74690540D01*
X179305074Y-74730404D01*
X179191304Y-74789833D01*
X179177865Y-74798810D01*
X179107650Y-74841440D01*
X179035173Y-74875757D01*
X178966857Y-74899267D01*
X178909125Y-74909471D01*
X178893084Y-74909469D01*
X178832421Y-74905647D01*
X178884824Y-74785519D01*
X178913276Y-74722826D01*
X178944597Y-74657786D01*
X178973589Y-74601068D01*
X178983817Y-74582304D01*
X179012226Y-74526327D01*
X179041322Y-74460535D01*
X179064028Y-74401311D01*
X179083963Y-74349985D01*
X179112423Y-74285343D01*
X179145401Y-74216159D01*
X179174650Y-74159101D01*
X179209440Y-74091325D01*
X179244414Y-74018796D01*
X179275096Y-73951031D01*
X179294026Y-73905399D01*
X179319669Y-73841610D01*
X179348775Y-73772846D01*
X179375709Y-73712364D01*
X179379739Y-73703705D01*
X179405509Y-73643959D01*
X179432236Y-73574261D01*
X179454338Y-73509203D01*
X179455250Y-73506241D01*
X179471562Y-73457045D01*
X179487181Y-73416973D01*
X179499492Y-73392512D01*
X179502633Y-73388758D01*
X179514933Y-73367227D01*
X179515284Y-73358493D01*
X179518707Y-73337611D01*
X179530221Y-73302614D01*
X179542010Y-73273521D01*
X179559484Y-73235619D01*
X179573327Y-73215458D01*
X179589499Y-73207259D01*
X179612401Y-73205288D01*
X179714124Y-73201380D01*
X179793298Y-73196021D01*
X179852755Y-73188706D01*
X179895329Y-73178928D01*
X179923855Y-73166180D01*
X179941164Y-73149956D01*
X179943629Y-73146079D01*
X179948403Y-73116525D01*
X179941521Y-73065169D01*
X179928522Y-73011917D01*
X179914308Y-72951603D01*
X179903708Y-72889922D01*
X179898630Y-72838427D01*
X179898444Y-72830003D01*
X179897308Y-72788794D01*
X179894532Y-72758531D01*
X179891750Y-72747926D01*
X179890859Y-72730540D01*
X179893018Y-72725739D01*
X179894735Y-72705740D01*
X179889227Y-72673045D01*
X179886788Y-72663985D01*
X179881030Y-72639114D01*
X179881033Y-72638539D01*
X179767324Y-72835489D01*
X179775998Y-72855641D01*
X179783299Y-72897037D01*
X179787727Y-72944924D01*
X179794613Y-73047085D01*
X179731118Y-73050975D01*
X179694356Y-73051492D01*
X179670208Y-73048540D01*
X179665095Y-73045426D01*
X179669603Y-73030234D01*
X179683865Y-73000209D01*
X179701372Y-72967963D01*
X179723900Y-72925082D01*
X179741516Y-72885446D01*
X179748550Y-72864446D01*
X179757950Y-72837963D01*
X179767324Y-72835489D01*
X179881033Y-72638539D01*
X179881164Y-72616247D01*
X179888814Y-72588859D01*
X179905606Y-72550430D01*
X179924923Y-72510948D01*
X179955771Y-72446711D01*
X179989365Y-72373236D01*
X180019143Y-72304920D01*
X180022983Y-72295746D01*
X180044364Y-72242409D01*
X180056041Y-72206897D01*
X180059098Y-72184040D01*
X180054618Y-72168667D01*
X180050747Y-72163194D01*
X180030632Y-72143689D01*
X180011403Y-72138958D01*
X179990255Y-72150881D01*
X179964387Y-72181332D01*
X179930994Y-72232190D01*
X179919481Y-72251057D01*
X179889986Y-72298137D01*
X179864113Y-72336220D01*
X179845251Y-72360494D01*
X179838060Y-72366688D01*
X179829105Y-72357652D01*
X179822108Y-72330511D01*
X179820098Y-72312425D01*
X179813571Y-72254537D01*
X179803371Y-72201976D01*
X179791072Y-72160997D01*
X179778245Y-72137856D01*
X179775715Y-72135896D01*
X179744105Y-72129126D01*
X179708351Y-72135981D01*
X179681388Y-72153508D01*
X179678110Y-72158170D01*
X179673677Y-72186455D01*
G36*
X180350195Y-72825844D02*
G01*
X180310917Y-72896441D01*
X180261178Y-72986559D01*
X180252358Y-73002565D01*
X180185387Y-73125507D01*
X180131231Y-73228041D01*
X180089305Y-73311334D01*
X180059019Y-73376555D01*
X180039786Y-73424871D01*
X180039786Y-73424872D01*
X180018199Y-73479093D01*
X179987735Y-73544961D01*
X179953087Y-73612647D01*
X179932249Y-73650032D01*
X179900195Y-73706311D01*
X179879529Y-73745811D01*
X179868314Y-73773382D01*
X179864620Y-73793872D01*
X179866513Y-73812133D01*
X179866919Y-73813953D01*
X179884442Y-73851369D01*
X179913361Y-73867363D01*
X179942610Y-73863701D01*
X179964842Y-73846228D01*
X179994483Y-73808861D01*
X180029373Y-73755237D01*
X180067354Y-73688991D01*
X180106266Y-73613758D01*
X180143952Y-73533175D01*
X180157611Y-73501649D01*
X180184647Y-73440726D01*
X180219926Y-73365488D01*
X180259587Y-73283950D01*
X180299771Y-73204130D01*
X180315628Y-73173517D01*
X180365367Y-73079220D01*
X180405198Y-73006018D01*
X180436464Y-72952238D01*
X180460513Y-72916207D01*
X180478687Y-72896249D01*
X180492333Y-72890691D01*
X180502796Y-72897856D01*
X180511421Y-72916073D01*
X180514594Y-72925864D01*
X180528562Y-72961139D01*
X180549423Y-73002748D01*
X180556507Y-73015127D01*
X180578703Y-73052777D01*
X180607216Y-73101626D01*
X180634687Y-73149045D01*
X180682485Y-73231925D01*
X180627520Y-73342881D01*
X180601969Y-73393983D01*
X180579037Y-73438995D01*
X180562117Y-73471296D01*
X180556785Y-73480931D01*
X180543528Y-73509124D01*
X180525808Y-73554209D01*
X180505454Y-73610616D01*
X180484297Y-73672782D01*
X180464168Y-73735141D01*
X180446896Y-73792126D01*
X180434312Y-73838174D01*
X180428247Y-73867716D01*
X180427974Y-73872629D01*
X180439570Y-73906972D01*
X180467589Y-73925677D01*
X180506501Y-73925887D01*
X180521652Y-73921069D01*
X180551355Y-73904893D01*
X180573880Y-73880309D01*
X180592747Y-73841849D01*
X180611478Y-73784048D01*
X180612699Y-73779757D01*
X180637068Y-73705005D01*
X180673743Y-73609185D01*
X180722362Y-73493238D01*
X180736064Y-73461843D01*
X180749067Y-73432412D01*
X180759642Y-73413646D01*
X180770174Y-73407360D01*
X180783050Y-73415367D01*
X180800654Y-73439486D01*
X180825372Y-73481528D01*
X180859589Y-73543311D01*
X180871451Y-73564854D01*
X180908647Y-73632222D01*
X180935887Y-73680717D01*
X180955482Y-73713706D01*
X180969744Y-73734561D01*
X180980983Y-73746647D01*
X180991511Y-73753335D01*
X181003639Y-73757991D01*
X181004077Y-73758143D01*
X181030671Y-73758152D01*
X181062261Y-73747702D01*
X181085816Y-73731693D01*
X181089612Y-73726006D01*
X181085217Y-73714267D01*
X181072765Y-73686333D01*
X181059401Y-73657682D01*
X181018625Y-73572801D01*
X180985384Y-73506500D01*
X180957180Y-73454024D01*
X180931514Y-73410619D01*
X180920330Y-73393091D01*
X180894402Y-73349473D01*
X180872183Y-73305530D01*
X180864149Y-73286201D01*
X180857158Y-73263625D01*
X180855566Y-73242925D01*
X180860746Y-73218224D01*
X180874068Y-73183649D01*
X180896904Y-73133321D01*
X180902792Y-73120725D01*
X180933401Y-73059060D01*
X180972081Y-72986437D01*
X181013176Y-72913269D01*
X181040922Y-72866364D01*
X181088418Y-72783887D01*
X181130646Y-72702083D01*
X181165580Y-72625530D01*
X181191201Y-72558806D01*
X181205483Y-72506488D01*
X181207662Y-72489059D01*
X181202452Y-72450422D01*
X181188902Y-72420096D01*
X181170911Y-72400611D01*
X181150641Y-72398689D01*
X181131224Y-72405052D01*
X181101067Y-72423144D01*
X181082321Y-72454383D01*
X181079319Y-72462545D01*
X181053649Y-72527499D01*
X181020820Y-72597872D01*
X180985302Y-72664883D01*
X180951569Y-72719750D01*
X180940535Y-72735082D01*
X180910811Y-72778887D01*
X180879949Y-72831932D01*
X180862612Y-72866069D01*
X180822774Y-72948259D01*
X180790391Y-73008885D01*
X180765864Y-73047278D01*
X180749591Y-73062766D01*
X180745707Y-73062539D01*
X180735116Y-73048969D01*
X180716023Y-73017807D01*
X180691418Y-72974112D01*
X180671541Y-72936921D01*
X180627545Y-72853828D01*
X180592444Y-72790787D01*
X180563973Y-72745033D01*
X180539868Y-72713800D01*
X180517863Y-72694324D01*
X180495694Y-72683841D01*
X180471096Y-72679584D01*
X180460298Y-72679013D01*
X180451558Y-72679379D01*
X180443029Y-72682661D01*
X180433188Y-72691231D01*
X180420508Y-72707463D01*
X180403466Y-72733727D01*
X180380536Y-72772397D01*
X180350195Y-72825844D01*
G37*
X180350195Y-72825844D02*
X180310917Y-72896441D01*
X180261178Y-72986559D01*
X180252358Y-73002565D01*
X180185387Y-73125507D01*
X180131231Y-73228041D01*
X180089305Y-73311334D01*
X180059019Y-73376555D01*
X180039786Y-73424871D01*
X180039786Y-73424872D01*
X180018199Y-73479093D01*
X179987735Y-73544961D01*
X179953087Y-73612647D01*
X179932249Y-73650032D01*
X179900195Y-73706311D01*
X179879529Y-73745811D01*
X179868314Y-73773382D01*
X179864620Y-73793872D01*
X179866513Y-73812133D01*
X179866919Y-73813953D01*
X179884442Y-73851369D01*
X179913361Y-73867363D01*
X179942610Y-73863701D01*
X179964842Y-73846228D01*
X179994483Y-73808861D01*
X180029373Y-73755237D01*
X180067354Y-73688991D01*
X180106266Y-73613758D01*
X180143952Y-73533175D01*
X180157611Y-73501649D01*
X180184647Y-73440726D01*
X180219926Y-73365488D01*
X180259587Y-73283950D01*
X180299771Y-73204130D01*
X180315628Y-73173517D01*
X180365367Y-73079220D01*
X180405198Y-73006018D01*
X180436464Y-72952238D01*
X180460513Y-72916207D01*
X180478687Y-72896249D01*
X180492333Y-72890691D01*
X180502796Y-72897856D01*
X180511421Y-72916073D01*
X180514594Y-72925864D01*
X180528562Y-72961139D01*
X180549423Y-73002748D01*
X180556507Y-73015127D01*
X180578703Y-73052777D01*
X180607216Y-73101626D01*
X180634687Y-73149045D01*
X180682485Y-73231925D01*
X180627520Y-73342881D01*
X180601969Y-73393983D01*
X180579037Y-73438995D01*
X180562117Y-73471296D01*
X180556785Y-73480931D01*
X180543528Y-73509124D01*
X180525808Y-73554209D01*
X180505454Y-73610616D01*
X180484297Y-73672782D01*
X180464168Y-73735141D01*
X180446896Y-73792126D01*
X180434312Y-73838174D01*
X180428247Y-73867716D01*
X180427974Y-73872629D01*
X180439570Y-73906972D01*
X180467589Y-73925677D01*
X180506501Y-73925887D01*
X180521652Y-73921069D01*
X180551355Y-73904893D01*
X180573880Y-73880309D01*
X180592747Y-73841849D01*
X180611478Y-73784048D01*
X180612699Y-73779757D01*
X180637068Y-73705005D01*
X180673743Y-73609185D01*
X180722362Y-73493238D01*
X180736064Y-73461843D01*
X180749067Y-73432412D01*
X180759642Y-73413646D01*
X180770174Y-73407360D01*
X180783050Y-73415367D01*
X180800654Y-73439486D01*
X180825372Y-73481528D01*
X180859589Y-73543311D01*
X180871451Y-73564854D01*
X180908647Y-73632222D01*
X180935887Y-73680717D01*
X180955482Y-73713706D01*
X180969744Y-73734561D01*
X180980983Y-73746647D01*
X180991511Y-73753335D01*
X181003639Y-73757991D01*
X181004077Y-73758143D01*
X181030671Y-73758152D01*
X181062261Y-73747702D01*
X181085816Y-73731693D01*
X181089612Y-73726006D01*
X181085217Y-73714267D01*
X181072765Y-73686333D01*
X181059401Y-73657682D01*
X181018625Y-73572801D01*
X180985384Y-73506500D01*
X180957180Y-73454024D01*
X180931514Y-73410619D01*
X180920330Y-73393091D01*
X180894402Y-73349473D01*
X180872183Y-73305530D01*
X180864149Y-73286201D01*
X180857158Y-73263625D01*
X180855566Y-73242925D01*
X180860746Y-73218224D01*
X180874068Y-73183649D01*
X180896904Y-73133321D01*
X180902792Y-73120725D01*
X180933401Y-73059060D01*
X180972081Y-72986437D01*
X181013176Y-72913269D01*
X181040922Y-72866364D01*
X181088418Y-72783887D01*
X181130646Y-72702083D01*
X181165580Y-72625530D01*
X181191201Y-72558806D01*
X181205483Y-72506488D01*
X181207662Y-72489059D01*
X181202452Y-72450422D01*
X181188902Y-72420096D01*
X181170911Y-72400611D01*
X181150641Y-72398689D01*
X181131224Y-72405052D01*
X181101067Y-72423144D01*
X181082321Y-72454383D01*
X181079319Y-72462545D01*
X181053649Y-72527499D01*
X181020820Y-72597872D01*
X180985302Y-72664883D01*
X180951569Y-72719750D01*
X180940535Y-72735082D01*
X180910811Y-72778887D01*
X180879949Y-72831932D01*
X180862612Y-72866069D01*
X180822774Y-72948259D01*
X180790391Y-73008885D01*
X180765864Y-73047278D01*
X180749591Y-73062766D01*
X180745707Y-73062539D01*
X180735116Y-73048969D01*
X180716023Y-73017807D01*
X180691418Y-72974112D01*
X180671541Y-72936921D01*
X180627545Y-72853828D01*
X180592444Y-72790787D01*
X180563973Y-72745033D01*
X180539868Y-72713800D01*
X180517863Y-72694324D01*
X180495694Y-72683841D01*
X180471096Y-72679584D01*
X180460298Y-72679013D01*
X180451558Y-72679379D01*
X180443029Y-72682661D01*
X180433188Y-72691231D01*
X180420508Y-72707463D01*
X180403466Y-72733727D01*
X180380536Y-72772397D01*
X180350195Y-72825844D01*
G36*
X181170217Y-73083510D02*
G01*
X181165362Y-73116601D01*
X181165269Y-73163258D01*
X181169657Y-73226655D01*
X181178243Y-73309967D01*
X181185821Y-73375297D01*
X181193383Y-73435765D01*
X181200976Y-73491099D01*
X181207525Y-73533708D01*
X181210710Y-73550979D01*
X181217660Y-73595068D01*
X181221189Y-73637685D01*
X181225458Y-73675957D01*
X181233736Y-73706829D01*
X181234134Y-73707730D01*
X181239180Y-73730764D01*
X181243491Y-73772389D01*
X181246485Y-73825791D01*
X181247424Y-73862049D01*
X181248826Y-73920496D01*
X181251105Y-73972535D01*
X181253890Y-74010856D01*
X181255643Y-74024194D01*
X181258862Y-74057582D01*
X181259211Y-74101288D01*
X181258579Y-74116014D01*
X181257707Y-74156875D01*
X181259598Y-74189958D01*
X181261012Y-74198074D01*
X181264213Y-74223309D01*
X181266198Y-74263516D01*
X181266545Y-74294453D01*
X181267541Y-74354850D01*
X181272052Y-74394472D01*
X181281327Y-74417841D01*
X181296616Y-74429481D01*
X181304484Y-74431818D01*
X181326421Y-74431622D01*
X181367815Y-74426909D01*
X181423282Y-74418440D01*
X181487434Y-74406976D01*
X181506785Y-74403221D01*
X181578162Y-74390568D01*
X181648068Y-74380711D01*
X181709109Y-74374535D01*
X181753886Y-74372923D01*
X181758792Y-74373132D01*
X181820388Y-74374960D01*
X181862321Y-74370922D01*
X181889918Y-74359684D01*
X181908509Y-74339917D01*
X181911526Y-74334980D01*
X181920594Y-74304787D01*
X181909326Y-74272774D01*
X181906312Y-74267902D01*
X181887259Y-74241107D01*
X181857422Y-74202334D01*
X181822493Y-74158935D01*
X181813897Y-74148541D01*
X181785277Y-74113017D01*
X181756315Y-74074374D01*
X181724457Y-74028864D01*
X181687154Y-73972739D01*
X181641852Y-73902252D01*
X181587118Y-73815438D01*
X181569180Y-73792141D01*
X181541640Y-73761563D01*
X181530565Y-73750224D01*
X181466523Y-73679784D01*
X181397941Y-73798572D01*
X181420944Y-73822764D01*
X181455555Y-73866835D01*
X181501046Y-73929834D01*
X181556691Y-74010809D01*
X181588720Y-74058682D01*
X181711153Y-74243111D01*
X181636310Y-74258142D01*
X181583005Y-74267822D01*
X181528946Y-74276058D01*
X181503004Y-74279233D01*
X181464832Y-74284435D01*
X181436806Y-74290478D01*
X181430524Y-74292837D01*
X181409383Y-74295602D01*
X181399396Y-74276576D01*
X181399725Y-74250361D01*
X181400211Y-74212918D01*
X181395854Y-74168156D01*
X181394289Y-74158724D01*
X181389643Y-74122972D01*
X181389770Y-74097852D01*
X181391096Y-74093392D01*
X181393161Y-74076710D01*
X181393651Y-74040358D01*
X181392587Y-73990016D01*
X181390551Y-73941937D01*
X181387990Y-73884926D01*
X181386557Y-73837817D01*
X181386374Y-73806052D01*
X181387274Y-73795211D01*
X181397941Y-73798572D01*
X181466523Y-73679784D01*
X181446420Y-73657671D01*
X181384038Y-73568363D01*
X181340962Y-73477880D01*
X181314738Y-73381801D01*
X181310073Y-73353232D01*
X181304229Y-73302710D01*
X181301996Y-73261934D01*
X181303614Y-73237251D01*
X181305457Y-73233249D01*
X181321200Y-73235395D01*
X181358185Y-73250548D01*
X181415958Y-73278497D01*
X181494072Y-73319034D01*
X181528203Y-73337269D01*
X181595871Y-73373196D01*
X181656825Y-73404703D01*
X181707183Y-73429849D01*
X181743060Y-73446696D01*
X181760577Y-73453307D01*
X181760645Y-73453315D01*
X181779514Y-73459946D01*
X181815421Y-73476339D01*
X181863157Y-73500003D01*
X181915778Y-73527516D01*
X181970220Y-73555931D01*
X182018108Y-73579554D01*
X182054148Y-73595863D01*
X182072719Y-73602300D01*
X182099895Y-73594641D01*
X182122338Y-73571431D01*
X182132033Y-73542304D01*
X182130897Y-73532367D01*
X182114910Y-73505218D01*
X182079673Y-73473852D01*
X182023916Y-73437437D01*
X181946376Y-73395143D01*
X181850561Y-73348375D01*
X181777385Y-73312820D01*
X181690572Y-73268716D01*
X181598391Y-73220376D01*
X181509110Y-73172112D01*
X181457321Y-73143261D01*
X181382685Y-73101286D01*
X181326784Y-73070575D01*
X181286377Y-73049657D01*
X181258218Y-73037061D01*
X181239067Y-73031318D01*
X181225680Y-73030955D01*
X181216179Y-73033881D01*
X181195343Y-73045324D01*
X181180116Y-73060810D01*
X181170217Y-73083510D01*
G37*
X181170217Y-73083510D02*
X181165362Y-73116601D01*
X181165269Y-73163258D01*
X181169657Y-73226655D01*
X181178243Y-73309967D01*
X181185821Y-73375297D01*
X181193383Y-73435765D01*
X181200976Y-73491099D01*
X181207525Y-73533708D01*
X181210710Y-73550979D01*
X181217660Y-73595068D01*
X181221189Y-73637685D01*
X181225458Y-73675957D01*
X181233736Y-73706829D01*
X181234134Y-73707730D01*
X181239180Y-73730764D01*
X181243491Y-73772389D01*
X181246485Y-73825791D01*
X181247424Y-73862049D01*
X181248826Y-73920496D01*
X181251105Y-73972535D01*
X181253890Y-74010856D01*
X181255643Y-74024194D01*
X181258862Y-74057582D01*
X181259211Y-74101288D01*
X181258579Y-74116014D01*
X181257707Y-74156875D01*
X181259598Y-74189958D01*
X181261012Y-74198074D01*
X181264213Y-74223309D01*
X181266198Y-74263516D01*
X181266545Y-74294453D01*
X181267541Y-74354850D01*
X181272052Y-74394472D01*
X181281327Y-74417841D01*
X181296616Y-74429481D01*
X181304484Y-74431818D01*
X181326421Y-74431622D01*
X181367815Y-74426909D01*
X181423282Y-74418440D01*
X181487434Y-74406976D01*
X181506785Y-74403221D01*
X181578162Y-74390568D01*
X181648068Y-74380711D01*
X181709109Y-74374535D01*
X181753886Y-74372923D01*
X181758792Y-74373132D01*
X181820388Y-74374960D01*
X181862321Y-74370922D01*
X181889918Y-74359684D01*
X181908509Y-74339917D01*
X181911526Y-74334980D01*
X181920594Y-74304787D01*
X181909326Y-74272774D01*
X181906312Y-74267902D01*
X181887259Y-74241107D01*
X181857422Y-74202334D01*
X181822493Y-74158935D01*
X181813897Y-74148541D01*
X181785277Y-74113017D01*
X181756315Y-74074374D01*
X181724457Y-74028864D01*
X181687154Y-73972739D01*
X181641852Y-73902252D01*
X181587118Y-73815438D01*
X181569180Y-73792141D01*
X181541640Y-73761563D01*
X181530565Y-73750224D01*
X181466523Y-73679784D01*
X181397941Y-73798572D01*
X181420944Y-73822764D01*
X181455555Y-73866835D01*
X181501046Y-73929834D01*
X181556691Y-74010809D01*
X181588720Y-74058682D01*
X181711153Y-74243111D01*
X181636310Y-74258142D01*
X181583005Y-74267822D01*
X181528946Y-74276058D01*
X181503004Y-74279233D01*
X181464832Y-74284435D01*
X181436806Y-74290478D01*
X181430524Y-74292837D01*
X181409383Y-74295602D01*
X181399396Y-74276576D01*
X181399725Y-74250361D01*
X181400211Y-74212918D01*
X181395854Y-74168156D01*
X181394289Y-74158724D01*
X181389643Y-74122972D01*
X181389770Y-74097852D01*
X181391096Y-74093392D01*
X181393161Y-74076710D01*
X181393651Y-74040358D01*
X181392587Y-73990016D01*
X181390551Y-73941937D01*
X181387990Y-73884926D01*
X181386557Y-73837817D01*
X181386374Y-73806052D01*
X181387274Y-73795211D01*
X181397941Y-73798572D01*
X181466523Y-73679784D01*
X181446420Y-73657671D01*
X181384038Y-73568363D01*
X181340962Y-73477880D01*
X181314738Y-73381801D01*
X181310073Y-73353232D01*
X181304229Y-73302710D01*
X181301996Y-73261934D01*
X181303614Y-73237251D01*
X181305457Y-73233249D01*
X181321200Y-73235395D01*
X181358185Y-73250548D01*
X181415958Y-73278497D01*
X181494072Y-73319034D01*
X181528203Y-73337269D01*
X181595871Y-73373196D01*
X181656825Y-73404703D01*
X181707183Y-73429849D01*
X181743060Y-73446696D01*
X181760577Y-73453307D01*
X181760645Y-73453315D01*
X181779514Y-73459946D01*
X181815421Y-73476339D01*
X181863157Y-73500003D01*
X181915778Y-73527516D01*
X181970220Y-73555931D01*
X182018108Y-73579554D01*
X182054148Y-73595863D01*
X182072719Y-73602300D01*
X182099895Y-73594641D01*
X182122338Y-73571431D01*
X182132033Y-73542304D01*
X182130897Y-73532367D01*
X182114910Y-73505218D01*
X182079673Y-73473852D01*
X182023916Y-73437437D01*
X181946376Y-73395143D01*
X181850561Y-73348375D01*
X181777385Y-73312820D01*
X181690572Y-73268716D01*
X181598391Y-73220376D01*
X181509110Y-73172112D01*
X181457321Y-73143261D01*
X181382685Y-73101286D01*
X181326784Y-73070575D01*
X181286377Y-73049657D01*
X181258218Y-73037061D01*
X181239067Y-73031318D01*
X181225680Y-73030955D01*
X181216179Y-73033881D01*
X181195343Y-73045324D01*
X181180116Y-73060810D01*
X181170217Y-73083510D01*
G36*
X181152790Y-75918273D02*
G01*
X181153129Y-75950560D01*
X181171875Y-75976052D01*
X181186343Y-75985915D01*
X181211984Y-75997765D01*
X181234524Y-75998421D01*
X181259043Y-75985566D01*
X181290623Y-75956888D01*
X181321207Y-75924464D01*
X181358905Y-75882240D01*
X181407839Y-75825754D01*
X181464231Y-75759529D01*
X181524304Y-75688093D01*
X181584283Y-75615970D01*
X181640390Y-75547686D01*
X181688850Y-75487766D01*
X181725886Y-75440738D01*
X181736359Y-75426948D01*
X181765287Y-75389544D01*
X181789490Y-75360635D01*
X181804113Y-75345990D01*
X181804821Y-75345554D01*
X181816486Y-75332936D01*
X181839121Y-75303436D01*
X181869590Y-75261297D01*
X181904759Y-75210762D01*
X181909091Y-75204418D01*
X182012792Y-75051782D01*
X182102542Y-74918800D01*
X182178147Y-74805760D01*
X182239415Y-74712949D01*
X182275648Y-74657089D01*
X182313113Y-74600595D01*
X182353642Y-74542451D01*
X182390328Y-74492481D01*
X182401535Y-74478044D01*
X182435552Y-74432574D01*
X182467306Y-74385733D01*
X182487612Y-74351764D01*
X182514488Y-74306114D01*
X182544160Y-74263224D01*
X182572784Y-74227828D01*
X182596512Y-74204660D01*
X182611499Y-74198454D01*
X182611974Y-74198687D01*
X182619347Y-74212652D01*
X182632194Y-74247006D01*
X182649146Y-74297679D01*
X182668834Y-74360601D01*
X182686976Y-74421632D01*
X182709341Y-74499100D01*
X182725169Y-74556665D01*
X182735025Y-74598812D01*
X182739475Y-74630025D01*
X182739083Y-74654789D01*
X182734417Y-74677588D01*
X182726040Y-74702906D01*
X182723386Y-74710284D01*
X182700787Y-74761601D01*
X182669396Y-74819045D01*
X182643303Y-74859641D01*
X182611235Y-74908847D01*
X182596183Y-74944067D01*
X182598017Y-74970051D01*
X182616602Y-74991551D01*
X182639203Y-75006301D01*
X182681732Y-75023289D01*
X182716739Y-75018432D01*
X182748083Y-74990403D01*
X182766367Y-74962553D01*
X182793200Y-74918798D01*
X182812512Y-74896884D01*
X182827815Y-74895777D01*
X182842627Y-74914443D01*
X182853721Y-74936833D01*
X182868602Y-74979634D01*
X182881155Y-75033734D01*
X182886816Y-75071810D01*
X182895229Y-75139552D01*
X182904817Y-75185814D01*
X182917191Y-75214512D01*
X182933961Y-75229561D01*
X182953754Y-75234636D01*
X182987474Y-75228103D01*
X183005477Y-75204772D01*
X183003160Y-75170619D01*
X183003135Y-75170553D01*
X182997457Y-75144508D01*
X182992480Y-75102991D01*
X182989785Y-75064190D01*
X182984309Y-74985320D01*
X182975301Y-74922797D01*
X182961348Y-74867662D01*
X182956416Y-74852486D01*
X182935439Y-74789242D01*
X182922396Y-74744073D01*
X182916649Y-74711144D01*
X182917555Y-74684622D01*
X182924473Y-74658670D01*
X182932774Y-74637172D01*
X182949732Y-74600664D01*
X182965616Y-74574737D01*
X182972642Y-74567719D01*
X182983065Y-74554982D01*
X183004415Y-74523471D01*
X183034719Y-74476291D01*
X183072004Y-74416549D01*
X183114297Y-74347353D01*
X183145028Y-74296288D01*
X183198631Y-74207503D01*
X183257002Y-74112248D01*
X183315961Y-74017246D01*
X183371328Y-73929227D01*
X183418925Y-73854915D01*
X183427864Y-73841186D01*
X183475160Y-73767694D01*
X183523741Y-73690243D01*
X183569288Y-73615851D01*
X183607480Y-73551533D01*
X183624336Y-73522011D01*
X183660747Y-73457685D01*
X183700384Y-73389072D01*
X183737273Y-73326463D01*
X183755098Y-73296880D01*
X183783284Y-73251445D01*
X183801235Y-73225257D01*
X183811487Y-73215608D01*
X183816578Y-73219790D01*
X183818404Y-73229293D01*
X183818001Y-73258925D01*
X183812810Y-73301180D01*
X183808240Y-73326078D01*
X183802163Y-73363076D01*
X183795024Y-73418496D01*
X183787532Y-73485419D01*
X183780397Y-73556925D01*
X183774326Y-73626099D01*
X183770027Y-73686022D01*
X183768692Y-73712124D01*
X183766182Y-73737618D01*
X183760654Y-73778724D01*
X183754172Y-73821059D01*
X183741883Y-73904507D01*
X183728868Y-74006252D01*
X183715970Y-74119234D01*
X183704033Y-74236400D01*
X183702163Y-74256185D01*
X183695794Y-74321593D01*
X183687771Y-74399984D01*
X183679361Y-74479111D01*
X183674961Y-74519109D01*
X183668376Y-74587526D01*
X183663518Y-74656543D01*
X183660982Y-74716534D01*
X183660885Y-74747152D01*
X183659504Y-74800654D01*
X183653952Y-74866312D01*
X183645358Y-74931434D01*
X183643521Y-74942433D01*
X183634920Y-75000539D01*
X183626181Y-75074234D01*
X183618371Y-75153733D01*
X183612903Y-75223847D01*
X183608204Y-75290564D01*
X183602351Y-75366553D01*
X183595711Y-75447790D01*
X183588647Y-75530245D01*
X183581525Y-75609893D01*
X183574709Y-75682705D01*
X183568564Y-75744658D01*
X183563455Y-75791722D01*
X183559746Y-75819870D01*
X183558361Y-75825979D01*
X183556205Y-75840603D01*
X183553299Y-75875148D01*
X183550052Y-75924160D01*
X183547389Y-75971982D01*
X183543500Y-76030522D01*
X183538536Y-76080733D01*
X183533194Y-76116504D01*
X183529165Y-76130547D01*
X183523990Y-76142592D01*
X183519382Y-76161775D01*
X183514847Y-76191877D01*
X183509891Y-76236680D01*
X183504021Y-76299969D01*
X183498247Y-76367488D01*
X183492956Y-76427685D01*
X183488259Y-76470983D01*
X183482962Y-76505821D01*
X183475878Y-76540636D01*
X183470489Y-76564100D01*
X183465342Y-76594962D01*
X183459272Y-76645045D01*
X183452812Y-76708209D01*
X183446495Y-76778318D01*
X183440854Y-76849230D01*
X183436424Y-76914809D01*
X183433737Y-76968915D01*
X183433183Y-76993501D01*
X183432937Y-77037916D01*
X183432695Y-77073875D01*
X183431362Y-77109040D01*
X183428247Y-77156874D01*
X183425468Y-77190686D01*
X183416442Y-77291724D01*
X183409849Y-77370432D01*
X183405725Y-77429766D01*
X183404105Y-77472683D01*
X183405027Y-77502139D01*
X183408525Y-77521092D01*
X183414636Y-77532496D01*
X183423395Y-77539309D01*
X183429737Y-77542337D01*
X183453779Y-77548397D01*
X183472342Y-77538004D01*
X183486891Y-77519379D01*
X183502752Y-77489246D01*
X183507425Y-77464640D01*
X183507066Y-77462825D01*
X183507280Y-77440768D01*
X183513101Y-77402856D01*
X183522227Y-77361655D01*
X183542965Y-77262195D01*
X183556210Y-77161867D01*
X183560380Y-77073432D01*
X183561328Y-77036824D01*
X183564388Y-77011322D01*
X183565977Y-77006587D01*
X183569772Y-76989259D01*
X183573743Y-76954214D01*
X183576965Y-76910098D01*
X183580657Y-76864738D01*
X183587817Y-76796529D01*
X183598167Y-76707745D01*
X183611424Y-76600659D01*
X183627309Y-76477546D01*
X183645539Y-76340677D01*
X183662940Y-76213274D01*
X183672037Y-76142632D01*
X183681370Y-76062491D01*
X183689110Y-75988663D01*
X183689975Y-75979583D01*
X183695290Y-75922882D01*
X183702175Y-75849314D01*
X183709842Y-75767300D01*
X183717505Y-75685262D01*
X183719626Y-75662531D01*
X183726124Y-75594389D01*
X183731982Y-75535701D01*
X183736741Y-75490874D01*
X183739938Y-75464316D01*
X183740910Y-75458994D01*
X183742695Y-75445329D01*
X183745778Y-75410883D01*
X183749789Y-75360215D01*
X183754359Y-75297890D01*
X183756522Y-75266914D01*
X183761780Y-75199354D01*
X183767551Y-75140000D01*
X183773258Y-75093872D01*
X183778326Y-75065991D01*
X183780113Y-75060953D01*
X183786368Y-75038836D01*
X183784799Y-75031142D01*
X183783351Y-75013057D01*
X183786309Y-74979262D01*
X183789790Y-74956168D01*
X183794471Y-74921528D01*
X183800202Y-74867545D01*
X183806414Y-74800222D01*
X183812541Y-74725563D01*
X183815840Y-74681102D01*
X183822031Y-74596638D01*
X183828489Y-74514279D01*
X183835638Y-74429225D01*
X183843903Y-74336680D01*
X183853709Y-74231845D01*
X183865481Y-74109921D01*
X183875158Y-74011444D01*
X183882491Y-73943589D01*
X183891235Y-73872040D01*
X183899841Y-73809240D01*
X183902391Y-73792531D01*
X183911029Y-73728885D01*
X183918698Y-73656734D01*
X183923220Y-73599251D01*
X183928606Y-73528793D01*
X183937517Y-73439631D01*
X183950144Y-73330097D01*
X183966675Y-73198523D01*
X183982823Y-73076405D01*
X184001132Y-72940328D01*
X184171678Y-72641648D01*
X184216737Y-72562081D01*
X184257292Y-72489211D01*
X184291704Y-72426083D01*
X184318336Y-72375745D01*
X184335548Y-72341241D01*
X184341702Y-72325620D01*
X184341702Y-72325534D01*
X184330308Y-72302897D01*
X184301861Y-72292913D01*
X184262417Y-72297700D01*
X184262214Y-72297761D01*
X184239097Y-72308317D01*
X184214309Y-72328341D01*
X184183804Y-72361751D01*
X184143536Y-72412464D01*
X184142862Y-72413344D01*
X184109087Y-72456688D01*
X184080822Y-72491549D01*
X184061680Y-72513553D01*
X184055636Y-72518965D01*
X184054225Y-72508113D01*
X184056326Y-72477001D01*
X184061490Y-72430458D01*
X184068994Y-72375182D01*
X184078533Y-72304899D01*
X184087160Y-72232292D01*
X184093709Y-72167643D01*
X184096340Y-72134112D01*
X184100972Y-72084576D01*
X184107562Y-72042952D01*
X184114759Y-72017577D01*
X184115432Y-72016302D01*
X184127555Y-71972896D01*
X184120590Y-71926921D01*
X184097728Y-71886624D01*
X184062159Y-71860257D01*
X184053997Y-71857437D01*
X184017312Y-71858654D01*
X183983553Y-71878281D01*
X183959782Y-71909663D01*
X183953064Y-71946148D01*
X183953964Y-71951647D01*
X183954474Y-71972672D01*
X183952285Y-72014192D01*
X183947760Y-72071489D01*
X183941263Y-72139842D01*
X183934982Y-72198474D01*
X183925492Y-72287778D01*
X183916105Y-72384641D01*
X183907697Y-72479459D01*
X183901144Y-72562625D01*
X183899188Y-72591241D01*
X183892646Y-72684734D01*
X183885760Y-72757286D01*
X183877375Y-72813342D01*
X183866329Y-72857348D01*
X183851469Y-72893749D01*
X183831634Y-72926990D01*
X183805668Y-72961519D01*
X183801383Y-72966824D01*
X183774995Y-73002193D01*
X183739254Y-73054173D01*
X183697659Y-73117466D01*
X183653706Y-73186774D01*
X183620350Y-73241080D01*
X183573813Y-73317566D01*
X183524265Y-73398201D01*
X183476160Y-73475793D01*
X183433947Y-73543150D01*
X183413072Y-73576014D01*
X183385369Y-73619728D01*
X183346721Y-73681338D01*
X183299465Y-73757086D01*
X183245936Y-73843217D01*
X183188471Y-73935975D01*
X183129406Y-74031603D01*
X183094784Y-74087798D01*
X183040426Y-74175909D01*
X182990262Y-74256821D01*
X182945843Y-74328067D01*
X182908716Y-74387182D01*
X182880428Y-74431697D01*
X182862530Y-74459145D01*
X182856626Y-74467221D01*
X182851207Y-74456378D01*
X182840541Y-74425753D01*
X182826171Y-74380045D01*
X182809637Y-74323949D01*
X182809585Y-74323770D01*
X182790596Y-74258007D01*
X182771588Y-74193134D01*
X182755063Y-74137644D01*
X182745574Y-74106548D01*
X182731229Y-74054355D01*
X182719434Y-74000819D01*
X182715208Y-73975365D01*
X182704391Y-73930608D01*
X182684719Y-73904091D01*
X182677211Y-73899064D01*
X182646614Y-73886977D01*
X182618971Y-73890429D01*
X182591108Y-73911601D01*
X182559852Y-73952671D01*
X182531588Y-73999026D01*
X182500492Y-74051192D01*
X182468671Y-74101728D01*
X182441917Y-74141502D01*
X182436634Y-74148781D01*
X182406483Y-74189293D01*
X182376588Y-74229440D01*
X182367911Y-74241086D01*
X182342850Y-74275723D01*
X182312201Y-74320076D01*
X182273993Y-74377082D01*
X182226259Y-74449681D01*
X182167028Y-74540810D01*
X182165972Y-74542441D01*
X182049622Y-74721016D01*
X181943456Y-74881583D01*
X181848068Y-75023263D01*
X181764053Y-75145180D01*
X181692002Y-75246457D01*
X181663008Y-75285916D01*
X181607967Y-75358259D01*
X181545998Y-75437002D01*
X181480876Y-75517582D01*
X181416374Y-75595435D01*
X181356268Y-75665998D01*
X181304330Y-75724709D01*
X181268984Y-75762331D01*
X181210042Y-75825989D01*
X181171536Y-75877360D01*
X181152790Y-75918273D01*
G37*
X181152790Y-75918273D02*
X181153129Y-75950560D01*
X181171875Y-75976052D01*
X181186343Y-75985915D01*
X181211984Y-75997765D01*
X181234524Y-75998421D01*
X181259043Y-75985566D01*
X181290623Y-75956888D01*
X181321207Y-75924464D01*
X181358905Y-75882240D01*
X181407839Y-75825754D01*
X181464231Y-75759529D01*
X181524304Y-75688093D01*
X181584283Y-75615970D01*
X181640390Y-75547686D01*
X181688850Y-75487766D01*
X181725886Y-75440738D01*
X181736359Y-75426948D01*
X181765287Y-75389544D01*
X181789490Y-75360635D01*
X181804113Y-75345990D01*
X181804821Y-75345554D01*
X181816486Y-75332936D01*
X181839121Y-75303436D01*
X181869590Y-75261297D01*
X181904759Y-75210762D01*
X181909091Y-75204418D01*
X182012792Y-75051782D01*
X182102542Y-74918800D01*
X182178147Y-74805760D01*
X182239415Y-74712949D01*
X182275648Y-74657089D01*
X182313113Y-74600595D01*
X182353642Y-74542451D01*
X182390328Y-74492481D01*
X182401535Y-74478044D01*
X182435552Y-74432574D01*
X182467306Y-74385733D01*
X182487612Y-74351764D01*
X182514488Y-74306114D01*
X182544160Y-74263224D01*
X182572784Y-74227828D01*
X182596512Y-74204660D01*
X182611499Y-74198454D01*
X182611974Y-74198687D01*
X182619347Y-74212652D01*
X182632194Y-74247006D01*
X182649146Y-74297679D01*
X182668834Y-74360601D01*
X182686976Y-74421632D01*
X182709341Y-74499100D01*
X182725169Y-74556665D01*
X182735025Y-74598812D01*
X182739475Y-74630025D01*
X182739083Y-74654789D01*
X182734417Y-74677588D01*
X182726040Y-74702906D01*
X182723386Y-74710284D01*
X182700787Y-74761601D01*
X182669396Y-74819045D01*
X182643303Y-74859641D01*
X182611235Y-74908847D01*
X182596183Y-74944067D01*
X182598017Y-74970051D01*
X182616602Y-74991551D01*
X182639203Y-75006301D01*
X182681732Y-75023289D01*
X182716739Y-75018432D01*
X182748083Y-74990403D01*
X182766367Y-74962553D01*
X182793200Y-74918798D01*
X182812512Y-74896884D01*
X182827815Y-74895777D01*
X182842627Y-74914443D01*
X182853721Y-74936833D01*
X182868602Y-74979634D01*
X182881155Y-75033734D01*
X182886816Y-75071810D01*
X182895229Y-75139552D01*
X182904817Y-75185814D01*
X182917191Y-75214512D01*
X182933961Y-75229561D01*
X182953754Y-75234636D01*
X182987474Y-75228103D01*
X183005477Y-75204772D01*
X183003160Y-75170619D01*
X183003135Y-75170553D01*
X182997457Y-75144508D01*
X182992480Y-75102991D01*
X182989785Y-75064190D01*
X182984309Y-74985320D01*
X182975301Y-74922797D01*
X182961348Y-74867662D01*
X182956416Y-74852486D01*
X182935439Y-74789242D01*
X182922396Y-74744073D01*
X182916649Y-74711144D01*
X182917555Y-74684622D01*
X182924473Y-74658670D01*
X182932774Y-74637172D01*
X182949732Y-74600664D01*
X182965616Y-74574737D01*
X182972642Y-74567719D01*
X182983065Y-74554982D01*
X183004415Y-74523471D01*
X183034719Y-74476291D01*
X183072004Y-74416549D01*
X183114297Y-74347353D01*
X183145028Y-74296288D01*
X183198631Y-74207503D01*
X183257002Y-74112248D01*
X183315961Y-74017246D01*
X183371328Y-73929227D01*
X183418925Y-73854915D01*
X183427864Y-73841186D01*
X183475160Y-73767694D01*
X183523741Y-73690243D01*
X183569288Y-73615851D01*
X183607480Y-73551533D01*
X183624336Y-73522011D01*
X183660747Y-73457685D01*
X183700384Y-73389072D01*
X183737273Y-73326463D01*
X183755098Y-73296880D01*
X183783284Y-73251445D01*
X183801235Y-73225257D01*
X183811487Y-73215608D01*
X183816578Y-73219790D01*
X183818404Y-73229293D01*
X183818001Y-73258925D01*
X183812810Y-73301180D01*
X183808240Y-73326078D01*
X183802163Y-73363076D01*
X183795024Y-73418496D01*
X183787532Y-73485419D01*
X183780397Y-73556925D01*
X183774326Y-73626099D01*
X183770027Y-73686022D01*
X183768692Y-73712124D01*
X183766182Y-73737618D01*
X183760654Y-73778724D01*
X183754172Y-73821059D01*
X183741883Y-73904507D01*
X183728868Y-74006252D01*
X183715970Y-74119234D01*
X183704033Y-74236400D01*
X183702163Y-74256185D01*
X183695794Y-74321593D01*
X183687771Y-74399984D01*
X183679361Y-74479111D01*
X183674961Y-74519109D01*
X183668376Y-74587526D01*
X183663518Y-74656543D01*
X183660982Y-74716534D01*
X183660885Y-74747152D01*
X183659504Y-74800654D01*
X183653952Y-74866312D01*
X183645358Y-74931434D01*
X183643521Y-74942433D01*
X183634920Y-75000539D01*
X183626181Y-75074234D01*
X183618371Y-75153733D01*
X183612903Y-75223847D01*
X183608204Y-75290564D01*
X183602351Y-75366553D01*
X183595711Y-75447790D01*
X183588647Y-75530245D01*
X183581525Y-75609893D01*
X183574709Y-75682705D01*
X183568564Y-75744658D01*
X183563455Y-75791722D01*
X183559746Y-75819870D01*
X183558361Y-75825979D01*
X183556205Y-75840603D01*
X183553299Y-75875148D01*
X183550052Y-75924160D01*
X183547389Y-75971982D01*
X183543500Y-76030522D01*
X183538536Y-76080733D01*
X183533194Y-76116504D01*
X183529165Y-76130547D01*
X183523990Y-76142592D01*
X183519382Y-76161775D01*
X183514847Y-76191877D01*
X183509891Y-76236680D01*
X183504021Y-76299969D01*
X183498247Y-76367488D01*
X183492956Y-76427685D01*
X183488259Y-76470983D01*
X183482962Y-76505821D01*
X183475878Y-76540636D01*
X183470489Y-76564100D01*
X183465342Y-76594962D01*
X183459272Y-76645045D01*
X183452812Y-76708209D01*
X183446495Y-76778318D01*
X183440854Y-76849230D01*
X183436424Y-76914809D01*
X183433737Y-76968915D01*
X183433183Y-76993501D01*
X183432937Y-77037916D01*
X183432695Y-77073875D01*
X183431362Y-77109040D01*
X183428247Y-77156874D01*
X183425468Y-77190686D01*
X183416442Y-77291724D01*
X183409849Y-77370432D01*
X183405725Y-77429766D01*
X183404105Y-77472683D01*
X183405027Y-77502139D01*
X183408525Y-77521092D01*
X183414636Y-77532496D01*
X183423395Y-77539309D01*
X183429737Y-77542337D01*
X183453779Y-77548397D01*
X183472342Y-77538004D01*
X183486891Y-77519379D01*
X183502752Y-77489246D01*
X183507425Y-77464640D01*
X183507066Y-77462825D01*
X183507280Y-77440768D01*
X183513101Y-77402856D01*
X183522227Y-77361655D01*
X183542965Y-77262195D01*
X183556210Y-77161867D01*
X183560380Y-77073432D01*
X183561328Y-77036824D01*
X183564388Y-77011322D01*
X183565977Y-77006587D01*
X183569772Y-76989259D01*
X183573743Y-76954214D01*
X183576965Y-76910098D01*
X183580657Y-76864738D01*
X183587817Y-76796529D01*
X183598167Y-76707745D01*
X183611424Y-76600659D01*
X183627309Y-76477546D01*
X183645539Y-76340677D01*
X183662940Y-76213274D01*
X183672037Y-76142632D01*
X183681370Y-76062491D01*
X183689110Y-75988663D01*
X183689975Y-75979583D01*
X183695290Y-75922882D01*
X183702175Y-75849314D01*
X183709842Y-75767300D01*
X183717505Y-75685262D01*
X183719626Y-75662531D01*
X183726124Y-75594389D01*
X183731982Y-75535701D01*
X183736741Y-75490874D01*
X183739938Y-75464316D01*
X183740910Y-75458994D01*
X183742695Y-75445329D01*
X183745778Y-75410883D01*
X183749789Y-75360215D01*
X183754359Y-75297890D01*
X183756522Y-75266914D01*
X183761780Y-75199354D01*
X183767551Y-75140000D01*
X183773258Y-75093872D01*
X183778326Y-75065991D01*
X183780113Y-75060953D01*
X183786368Y-75038836D01*
X183784799Y-75031142D01*
X183783351Y-75013057D01*
X183786309Y-74979262D01*
X183789790Y-74956168D01*
X183794471Y-74921528D01*
X183800202Y-74867545D01*
X183806414Y-74800222D01*
X183812541Y-74725563D01*
X183815840Y-74681102D01*
X183822031Y-74596638D01*
X183828489Y-74514279D01*
X183835638Y-74429225D01*
X183843903Y-74336680D01*
X183853709Y-74231845D01*
X183865481Y-74109921D01*
X183875158Y-74011444D01*
X183882491Y-73943589D01*
X183891235Y-73872040D01*
X183899841Y-73809240D01*
X183902391Y-73792531D01*
X183911029Y-73728885D01*
X183918698Y-73656734D01*
X183923220Y-73599251D01*
X183928606Y-73528793D01*
X183937517Y-73439631D01*
X183950144Y-73330097D01*
X183966675Y-73198523D01*
X183982823Y-73076405D01*
X184001132Y-72940328D01*
X184171678Y-72641648D01*
X184216737Y-72562081D01*
X184257292Y-72489211D01*
X184291704Y-72426083D01*
X184318336Y-72375745D01*
X184335548Y-72341241D01*
X184341702Y-72325620D01*
X184341702Y-72325534D01*
X184330308Y-72302897D01*
X184301861Y-72292913D01*
X184262417Y-72297700D01*
X184262214Y-72297761D01*
X184239097Y-72308317D01*
X184214309Y-72328341D01*
X184183804Y-72361751D01*
X184143536Y-72412464D01*
X184142862Y-72413344D01*
X184109087Y-72456688D01*
X184080822Y-72491549D01*
X184061680Y-72513553D01*
X184055636Y-72518965D01*
X184054225Y-72508113D01*
X184056326Y-72477001D01*
X184061490Y-72430458D01*
X184068994Y-72375182D01*
X184078533Y-72304899D01*
X184087160Y-72232292D01*
X184093709Y-72167643D01*
X184096340Y-72134112D01*
X184100972Y-72084576D01*
X184107562Y-72042952D01*
X184114759Y-72017577D01*
X184115432Y-72016302D01*
X184127555Y-71972896D01*
X184120590Y-71926921D01*
X184097728Y-71886624D01*
X184062159Y-71860257D01*
X184053997Y-71857437D01*
X184017312Y-71858654D01*
X183983553Y-71878281D01*
X183959782Y-71909663D01*
X183953064Y-71946148D01*
X183953964Y-71951647D01*
X183954474Y-71972672D01*
X183952285Y-72014192D01*
X183947760Y-72071489D01*
X183941263Y-72139842D01*
X183934982Y-72198474D01*
X183925492Y-72287778D01*
X183916105Y-72384641D01*
X183907697Y-72479459D01*
X183901144Y-72562625D01*
X183899188Y-72591241D01*
X183892646Y-72684734D01*
X183885760Y-72757286D01*
X183877375Y-72813342D01*
X183866329Y-72857348D01*
X183851469Y-72893749D01*
X183831634Y-72926990D01*
X183805668Y-72961519D01*
X183801383Y-72966824D01*
X183774995Y-73002193D01*
X183739254Y-73054173D01*
X183697659Y-73117466D01*
X183653706Y-73186774D01*
X183620350Y-73241080D01*
X183573813Y-73317566D01*
X183524265Y-73398201D01*
X183476160Y-73475793D01*
X183433947Y-73543150D01*
X183413072Y-73576014D01*
X183385369Y-73619728D01*
X183346721Y-73681338D01*
X183299465Y-73757086D01*
X183245936Y-73843217D01*
X183188471Y-73935975D01*
X183129406Y-74031603D01*
X183094784Y-74087798D01*
X183040426Y-74175909D01*
X182990262Y-74256821D01*
X182945843Y-74328067D01*
X182908716Y-74387182D01*
X182880428Y-74431697D01*
X182862530Y-74459145D01*
X182856626Y-74467221D01*
X182851207Y-74456378D01*
X182840541Y-74425753D01*
X182826171Y-74380045D01*
X182809637Y-74323949D01*
X182809585Y-74323770D01*
X182790596Y-74258007D01*
X182771588Y-74193134D01*
X182755063Y-74137644D01*
X182745574Y-74106548D01*
X182731229Y-74054355D01*
X182719434Y-74000819D01*
X182715208Y-73975365D01*
X182704391Y-73930608D01*
X182684719Y-73904091D01*
X182677211Y-73899064D01*
X182646614Y-73886977D01*
X182618971Y-73890429D01*
X182591108Y-73911601D01*
X182559852Y-73952671D01*
X182531588Y-73999026D01*
X182500492Y-74051192D01*
X182468671Y-74101728D01*
X182441917Y-74141502D01*
X182436634Y-74148781D01*
X182406483Y-74189293D01*
X182376588Y-74229440D01*
X182367911Y-74241086D01*
X182342850Y-74275723D01*
X182312201Y-74320076D01*
X182273993Y-74377082D01*
X182226259Y-74449681D01*
X182167028Y-74540810D01*
X182165972Y-74542441D01*
X182049622Y-74721016D01*
X181943456Y-74881583D01*
X181848068Y-75023263D01*
X181764053Y-75145180D01*
X181692002Y-75246457D01*
X181663008Y-75285916D01*
X181607967Y-75358259D01*
X181545998Y-75437002D01*
X181480876Y-75517582D01*
X181416374Y-75595435D01*
X181356268Y-75665998D01*
X181304330Y-75724709D01*
X181268984Y-75762331D01*
X181210042Y-75825989D01*
X181171536Y-75877360D01*
X181152790Y-75918273D01*
G36*
X185086637Y-74851984D02*
G01*
X185095120Y-74907259D01*
X185105526Y-74961114D01*
X185115382Y-75027531D01*
X185122830Y-75093706D01*
X185123821Y-75105197D01*
X185129053Y-75168780D01*
X185134564Y-75234057D01*
X185139319Y-75288814D01*
X185140133Y-75297923D01*
X185148912Y-75397205D01*
X185155292Y-75474084D01*
X185159428Y-75531424D01*
X185161476Y-75572095D01*
X185161591Y-75598962D01*
X185159931Y-75614894D01*
X185157690Y-75621259D01*
X185142500Y-75632109D01*
X185108948Y-75648614D01*
X185062682Y-75668146D01*
X185030089Y-75680625D01*
X184968125Y-75704716D01*
X184905013Y-75731323D01*
X184851327Y-75755924D01*
X184835584Y-75763813D01*
X184795095Y-75783947D01*
X184762831Y-75798315D01*
X184746185Y-75803715D01*
X184728061Y-75812367D01*
X184708692Y-75828945D01*
X184692075Y-75856973D01*
X184693948Y-75893409D01*
X184694078Y-75893970D01*
X184713211Y-75933911D01*
X184746376Y-75953339D01*
X184792566Y-75952212D01*
X184850774Y-75930485D01*
X184898394Y-75902823D01*
X184934089Y-75881114D01*
X184962505Y-75866650D01*
X184973871Y-75863084D01*
X184992265Y-75857616D01*
X185026209Y-75843672D01*
X185068569Y-75824194D01*
X185071206Y-75822922D01*
X185112824Y-75804196D01*
X185145597Y-75792053D01*
X185162942Y-75788902D01*
X185163512Y-75789136D01*
X185168372Y-75803268D01*
X185174611Y-75837944D01*
X185181522Y-75888389D01*
X185188394Y-75949835D01*
X185190332Y-75969598D01*
X185198281Y-76045562D01*
X185207709Y-76123754D01*
X185217444Y-76195026D01*
X185226313Y-76250232D01*
X185226402Y-76250722D01*
X185237044Y-76317801D01*
X185246359Y-76392087D01*
X185252364Y-76457732D01*
X185252443Y-76458950D01*
X185256183Y-76511185D01*
X185260114Y-76556743D01*
X185263483Y-76587059D01*
X185263975Y-76590258D01*
X185272782Y-76651482D01*
X185280785Y-76723002D01*
X185287347Y-76797085D01*
X185291835Y-76866001D01*
X185293613Y-76922018D01*
X185293151Y-76945605D01*
X185292779Y-76998078D01*
X185296294Y-77050208D01*
X185299670Y-77073377D01*
X185310272Y-77148461D01*
X185316895Y-77240752D01*
X185318925Y-77323472D01*
X185320936Y-77373340D01*
X185325764Y-77431577D01*
X185329507Y-77463726D01*
X185343019Y-77569076D01*
X185354724Y-77668899D01*
X185364122Y-77758395D01*
X185370712Y-77832771D01*
X185373993Y-77887231D01*
X185374100Y-77890680D01*
X185376716Y-77931459D01*
X185381351Y-77960668D01*
X185385684Y-77970465D01*
X185390762Y-77984749D01*
X185396384Y-78018001D01*
X185401988Y-78063812D01*
X185407004Y-78115772D01*
X185410871Y-78167476D01*
X185413018Y-78212512D01*
X185412884Y-78244473D01*
X185410899Y-78256089D01*
X185409195Y-78278016D01*
X185416362Y-78311390D01*
X185428968Y-78345433D01*
X185443584Y-78369367D01*
X185448160Y-78373153D01*
X185478384Y-78377836D01*
X185510348Y-78364754D01*
X185536955Y-78339957D01*
X185551112Y-78309492D01*
X185549393Y-78286832D01*
X185546039Y-78262007D01*
X185546655Y-78223981D01*
X185548104Y-78207303D01*
X185549269Y-78166221D01*
X185546516Y-78110885D01*
X185540436Y-78052040D01*
X185538964Y-78041412D01*
X185532300Y-77992105D01*
X185527965Y-77953172D01*
X185526614Y-77930819D01*
X185527007Y-77927983D01*
X185527152Y-77913199D01*
X185524098Y-77880337D01*
X185518501Y-77836418D01*
X185518313Y-77835092D01*
X185505488Y-77741852D01*
X185496655Y-77670354D01*
X185491485Y-77617307D01*
X185489650Y-77579423D01*
X185490473Y-77556633D01*
X185490104Y-77528484D01*
X185484461Y-77514229D01*
X185480719Y-77500363D01*
X185476249Y-77465308D01*
X185471444Y-77413246D01*
X185466698Y-77348363D01*
X185462964Y-77285514D01*
X185458699Y-77212646D01*
X185454256Y-77148705D01*
X185449988Y-77097959D01*
X185446248Y-77064679D01*
X185443745Y-77053308D01*
X185440365Y-77036807D01*
X185438745Y-77002653D01*
X185439133Y-76962658D01*
X185438865Y-76909318D01*
X185435691Y-76843850D01*
X185430271Y-76779274D01*
X185429388Y-76771195D01*
X185417269Y-76660911D01*
X185408402Y-76572733D01*
X185402516Y-76503612D01*
X185399338Y-76450500D01*
X185398655Y-76427638D01*
X185395212Y-76383679D01*
X185387272Y-76328804D01*
X185379107Y-76286907D01*
X185370216Y-76238518D01*
X185361041Y-76174390D01*
X185352863Y-76104138D01*
X185348481Y-76057240D01*
X185342205Y-75987973D01*
X185334868Y-75917818D01*
X185327539Y-75856556D01*
X185323101Y-75824937D01*
X185318265Y-75777629D01*
X185318624Y-75737671D01*
X185323787Y-75714571D01*
X185343287Y-75695404D01*
X185377054Y-75674061D01*
X185397284Y-75664188D01*
X185426019Y-75649246D01*
X185471577Y-75622728D01*
X185529707Y-75587241D01*
X185596156Y-75545387D01*
X185666674Y-75499772D01*
X185680088Y-75490955D01*
X185749909Y-75445674D01*
X185815575Y-75404433D01*
X185873085Y-75369641D01*
X185918436Y-75343707D01*
X185947628Y-75329039D01*
X185951523Y-75327551D01*
X186003488Y-75304726D01*
X186036748Y-75278965D01*
X186049647Y-75252796D01*
X186040537Y-75228749D01*
X186024048Y-75216515D01*
X185971411Y-75202039D01*
X185906078Y-75207622D01*
X185838328Y-75229760D01*
X185806985Y-75243759D01*
X185776218Y-75259465D01*
X185741365Y-75279659D01*
X185697761Y-75307124D01*
X185640747Y-75344644D01*
X185598404Y-75372977D01*
X185556636Y-75399975D01*
X185507301Y-75430274D01*
X185455122Y-75461176D01*
X185404821Y-75489985D01*
X185361123Y-75514006D01*
X185328748Y-75530541D01*
X185312418Y-75536894D01*
X185311556Y-75536753D01*
X185307313Y-75522852D01*
X185302037Y-75489709D01*
X185296627Y-75443409D01*
X185294598Y-75422228D01*
X185280543Y-75273260D01*
X185267189Y-75147872D01*
X185254194Y-75044263D01*
X185241218Y-74960633D01*
X185227919Y-74895181D01*
X185213957Y-74846109D01*
X185198989Y-74811617D01*
X185182677Y-74789904D01*
X185173465Y-74783018D01*
X185134767Y-74769325D01*
X185106654Y-74777432D01*
X185090239Y-74805574D01*
X185086637Y-74851984D01*
G37*
X185086637Y-74851984D02*
X185095120Y-74907259D01*
X185105526Y-74961114D01*
X185115382Y-75027531D01*
X185122830Y-75093706D01*
X185123821Y-75105197D01*
X185129053Y-75168780D01*
X185134564Y-75234057D01*
X185139319Y-75288814D01*
X185140133Y-75297923D01*
X185148912Y-75397205D01*
X185155292Y-75474084D01*
X185159428Y-75531424D01*
X185161476Y-75572095D01*
X185161591Y-75598962D01*
X185159931Y-75614894D01*
X185157690Y-75621259D01*
X185142500Y-75632109D01*
X185108948Y-75648614D01*
X185062682Y-75668146D01*
X185030089Y-75680625D01*
X184968125Y-75704716D01*
X184905013Y-75731323D01*
X184851327Y-75755924D01*
X184835584Y-75763813D01*
X184795095Y-75783947D01*
X184762831Y-75798315D01*
X184746185Y-75803715D01*
X184728061Y-75812367D01*
X184708692Y-75828945D01*
X184692075Y-75856973D01*
X184693948Y-75893409D01*
X184694078Y-75893970D01*
X184713211Y-75933911D01*
X184746376Y-75953339D01*
X184792566Y-75952212D01*
X184850774Y-75930485D01*
X184898394Y-75902823D01*
X184934089Y-75881114D01*
X184962505Y-75866650D01*
X184973871Y-75863084D01*
X184992265Y-75857616D01*
X185026209Y-75843672D01*
X185068569Y-75824194D01*
X185071206Y-75822922D01*
X185112824Y-75804196D01*
X185145597Y-75792053D01*
X185162942Y-75788902D01*
X185163512Y-75789136D01*
X185168372Y-75803268D01*
X185174611Y-75837944D01*
X185181522Y-75888389D01*
X185188394Y-75949835D01*
X185190332Y-75969598D01*
X185198281Y-76045562D01*
X185207709Y-76123754D01*
X185217444Y-76195026D01*
X185226313Y-76250232D01*
X185226402Y-76250722D01*
X185237044Y-76317801D01*
X185246359Y-76392087D01*
X185252364Y-76457732D01*
X185252443Y-76458950D01*
X185256183Y-76511185D01*
X185260114Y-76556743D01*
X185263483Y-76587059D01*
X185263975Y-76590258D01*
X185272782Y-76651482D01*
X185280785Y-76723002D01*
X185287347Y-76797085D01*
X185291835Y-76866001D01*
X185293613Y-76922018D01*
X185293151Y-76945605D01*
X185292779Y-76998078D01*
X185296294Y-77050208D01*
X185299670Y-77073377D01*
X185310272Y-77148461D01*
X185316895Y-77240752D01*
X185318925Y-77323472D01*
X185320936Y-77373340D01*
X185325764Y-77431577D01*
X185329507Y-77463726D01*
X185343019Y-77569076D01*
X185354724Y-77668899D01*
X185364122Y-77758395D01*
X185370712Y-77832771D01*
X185373993Y-77887231D01*
X185374100Y-77890680D01*
X185376716Y-77931459D01*
X185381351Y-77960668D01*
X185385684Y-77970465D01*
X185390762Y-77984749D01*
X185396384Y-78018001D01*
X185401988Y-78063812D01*
X185407004Y-78115772D01*
X185410871Y-78167476D01*
X185413018Y-78212512D01*
X185412884Y-78244473D01*
X185410899Y-78256089D01*
X185409195Y-78278016D01*
X185416362Y-78311390D01*
X185428968Y-78345433D01*
X185443584Y-78369367D01*
X185448160Y-78373153D01*
X185478384Y-78377836D01*
X185510348Y-78364754D01*
X185536955Y-78339957D01*
X185551112Y-78309492D01*
X185549393Y-78286832D01*
X185546039Y-78262007D01*
X185546655Y-78223981D01*
X185548104Y-78207303D01*
X185549269Y-78166221D01*
X185546516Y-78110885D01*
X185540436Y-78052040D01*
X185538964Y-78041412D01*
X185532300Y-77992105D01*
X185527965Y-77953172D01*
X185526614Y-77930819D01*
X185527007Y-77927983D01*
X185527152Y-77913199D01*
X185524098Y-77880337D01*
X185518501Y-77836418D01*
X185518313Y-77835092D01*
X185505488Y-77741852D01*
X185496655Y-77670354D01*
X185491485Y-77617307D01*
X185489650Y-77579423D01*
X185490473Y-77556633D01*
X185490104Y-77528484D01*
X185484461Y-77514229D01*
X185480719Y-77500363D01*
X185476249Y-77465308D01*
X185471444Y-77413246D01*
X185466698Y-77348363D01*
X185462964Y-77285514D01*
X185458699Y-77212646D01*
X185454256Y-77148705D01*
X185449988Y-77097959D01*
X185446248Y-77064679D01*
X185443745Y-77053308D01*
X185440365Y-77036807D01*
X185438745Y-77002653D01*
X185439133Y-76962658D01*
X185438865Y-76909318D01*
X185435691Y-76843850D01*
X185430271Y-76779274D01*
X185429388Y-76771195D01*
X185417269Y-76660911D01*
X185408402Y-76572733D01*
X185402516Y-76503612D01*
X185399338Y-76450500D01*
X185398655Y-76427638D01*
X185395212Y-76383679D01*
X185387272Y-76328804D01*
X185379107Y-76286907D01*
X185370216Y-76238518D01*
X185361041Y-76174390D01*
X185352863Y-76104138D01*
X185348481Y-76057240D01*
X185342205Y-75987973D01*
X185334868Y-75917818D01*
X185327539Y-75856556D01*
X185323101Y-75824937D01*
X185318265Y-75777629D01*
X185318624Y-75737671D01*
X185323787Y-75714571D01*
X185343287Y-75695404D01*
X185377054Y-75674061D01*
X185397284Y-75664188D01*
X185426019Y-75649246D01*
X185471577Y-75622728D01*
X185529707Y-75587241D01*
X185596156Y-75545387D01*
X185666674Y-75499772D01*
X185680088Y-75490955D01*
X185749909Y-75445674D01*
X185815575Y-75404433D01*
X185873085Y-75369641D01*
X185918436Y-75343707D01*
X185947628Y-75329039D01*
X185951523Y-75327551D01*
X186003488Y-75304726D01*
X186036748Y-75278965D01*
X186049647Y-75252796D01*
X186040537Y-75228749D01*
X186024048Y-75216515D01*
X185971411Y-75202039D01*
X185906078Y-75207622D01*
X185838328Y-75229760D01*
X185806985Y-75243759D01*
X185776218Y-75259465D01*
X185741365Y-75279659D01*
X185697761Y-75307124D01*
X185640747Y-75344644D01*
X185598404Y-75372977D01*
X185556636Y-75399975D01*
X185507301Y-75430274D01*
X185455122Y-75461176D01*
X185404821Y-75489985D01*
X185361123Y-75514006D01*
X185328748Y-75530541D01*
X185312418Y-75536894D01*
X185311556Y-75536753D01*
X185307313Y-75522852D01*
X185302037Y-75489709D01*
X185296627Y-75443409D01*
X185294598Y-75422228D01*
X185280543Y-75273260D01*
X185267189Y-75147872D01*
X185254194Y-75044263D01*
X185241218Y-74960633D01*
X185227919Y-74895181D01*
X185213957Y-74846109D01*
X185198989Y-74811617D01*
X185182677Y-74789904D01*
X185173465Y-74783018D01*
X185134767Y-74769325D01*
X185106654Y-74777432D01*
X185090239Y-74805574D01*
X185086637Y-74851984D01*
G36*
X186171044Y-75467085D02*
G01*
X186159867Y-75507647D01*
X186173201Y-75543884D01*
X186210385Y-75574873D01*
X186264679Y-75597824D01*
X186279722Y-75603690D01*
X186292771Y-75612877D01*
X186305242Y-75628401D01*
X186318554Y-75653280D01*
X186334123Y-75690528D01*
X186353366Y-75743162D01*
X186377702Y-75814199D01*
X186405555Y-75897645D01*
X186429273Y-75967319D01*
X186453975Y-76036930D01*
X186476766Y-76098489D01*
X186494752Y-76144001D01*
X186495025Y-76144650D01*
X186514350Y-76194070D01*
X186537175Y-76257737D01*
X186559928Y-76325502D01*
X186571114Y-76360837D01*
X186589638Y-76420628D01*
X186607056Y-76476333D01*
X186621006Y-76520426D01*
X186627336Y-76540026D01*
X186634462Y-76564511D01*
X186635121Y-76584084D01*
X186627114Y-76605666D01*
X186608247Y-76636179D01*
X186587016Y-76667115D01*
X186559081Y-76708311D01*
X186522027Y-76764216D01*
X186480302Y-76828062D01*
X186438349Y-76893085D01*
X186430399Y-76905514D01*
X186391008Y-76967706D01*
X186363687Y-77012609D01*
X186346522Y-77044135D01*
X186337599Y-77066202D01*
X186335003Y-77082720D01*
X186336697Y-77097048D01*
X186355372Y-77133319D01*
X186388385Y-77150728D01*
X186425064Y-77147735D01*
X186443610Y-77139365D01*
X186460604Y-77124491D01*
X186479410Y-77098710D01*
X186503391Y-77057623D01*
X186525962Y-77015688D01*
X186549777Y-76973420D01*
X186579396Y-76924786D01*
X186611816Y-76874233D01*
X186644034Y-76826205D01*
X186673042Y-76785151D01*
X186695837Y-76755517D01*
X186709413Y-76741749D01*
X186711302Y-76741412D01*
X186720016Y-76755962D01*
X186731175Y-76786495D01*
X186736256Y-76803828D01*
X186764367Y-76893836D01*
X186796325Y-76973474D01*
X186830177Y-77038865D01*
X186863964Y-77086128D01*
X186889891Y-77108429D01*
X186917261Y-77119873D01*
X186937746Y-77112800D01*
X186950522Y-77100355D01*
X186972229Y-77065202D01*
X186973730Y-77026412D01*
X186954639Y-76979866D01*
X186936471Y-76951269D01*
X186908635Y-76904395D01*
X186881530Y-76848171D01*
X186867299Y-76812161D01*
X186848655Y-76761752D01*
X186828912Y-76713172D01*
X186816353Y-76685371D01*
X186800346Y-76648797D01*
X186789976Y-76617966D01*
X186788804Y-76612437D01*
X186793663Y-76584055D01*
X186812759Y-76541327D01*
X186843373Y-76488816D01*
X186882785Y-76431085D01*
X186928275Y-76372696D01*
X186939763Y-76359130D01*
X186972752Y-76319156D01*
X186998942Y-76284289D01*
X187013917Y-76260519D01*
X187015569Y-76256419D01*
X187025781Y-76238207D01*
X187048831Y-76205651D01*
X187081060Y-76163723D01*
X187110824Y-76126977D01*
X187150742Y-76077508D01*
X187187327Y-76029901D01*
X187215683Y-75990647D01*
X187227882Y-75971838D01*
X187250300Y-75938932D01*
X187272136Y-75914966D01*
X187277332Y-75911064D01*
X187309488Y-75903026D01*
X187364164Y-75904961D01*
X187441534Y-75916900D01*
X187541770Y-75938872D01*
X187665045Y-75970909D01*
X187736539Y-75991044D01*
X187830106Y-76017557D01*
X187902549Y-76036769D01*
X187956976Y-76048994D01*
X187996496Y-76054544D01*
X188024216Y-76053730D01*
X188043245Y-76046862D01*
X188056693Y-76034255D01*
X188063504Y-76023842D01*
X188066356Y-75999186D01*
X188057574Y-75969962D01*
X188047433Y-75952773D01*
X188033788Y-75939725D01*
X188011056Y-75927627D01*
X187973648Y-75913283D01*
X187935348Y-75900061D01*
X187879543Y-75882762D01*
X187808566Y-75863154D01*
X187732165Y-75843830D01*
X187670168Y-75829547D01*
X187607905Y-75815436D01*
X187553456Y-75802042D01*
X187512307Y-75790788D01*
X187489947Y-75783096D01*
X187488877Y-75782534D01*
X187463080Y-75773935D01*
X187451726Y-75774101D01*
X187426498Y-75774447D01*
X187409834Y-75771731D01*
X187400235Y-75768481D01*
X187396104Y-75762039D01*
X187398912Y-75748972D01*
X187410129Y-75725847D01*
X187431228Y-75689230D01*
X187463679Y-75635689D01*
X187478546Y-75611411D01*
X187515817Y-75550380D01*
X187551177Y-75492083D01*
X187581073Y-75442405D01*
X187601952Y-75407229D01*
X187604864Y-75402226D01*
X187626183Y-75370336D01*
X187645174Y-75350156D01*
X187652573Y-75346565D01*
X187665491Y-75336961D01*
X187665632Y-75324775D01*
X187670691Y-75300642D01*
X187686840Y-75270167D01*
X187688792Y-75267373D01*
X187708947Y-75238948D01*
X187733793Y-75203313D01*
X187765348Y-75157536D01*
X187805624Y-75098683D01*
X187856635Y-75023825D01*
X187901316Y-74958116D01*
X187941049Y-74900716D01*
X187977827Y-74849541D01*
X188008414Y-74808950D01*
X188029577Y-74783305D01*
X188034944Y-74777983D01*
X188061706Y-74749873D01*
X188076508Y-74728657D01*
X188094766Y-74701891D01*
X188121567Y-74668359D01*
X188131039Y-74657488D01*
X188199631Y-74578847D01*
X188250720Y-74515366D01*
X188285455Y-74464964D01*
X188304985Y-74425557D01*
X188310458Y-74395066D01*
X188303026Y-74371408D01*
X188294585Y-74361255D01*
X188267440Y-74343416D01*
X188246176Y-74338262D01*
X188220078Y-74348954D01*
X188186364Y-74376153D01*
X188150494Y-74414590D01*
X188117927Y-74458992D01*
X188113189Y-74466628D01*
X188089125Y-74501274D01*
X188055684Y-74543165D01*
X188029873Y-74572505D01*
X187969166Y-74642879D01*
X187898816Y-74732713D01*
X187820922Y-74838949D01*
X187737580Y-74958523D01*
X187650890Y-75088374D01*
X187562950Y-75225440D01*
X187475857Y-75366659D01*
X187411949Y-75474155D01*
X187357727Y-75564669D01*
X187312428Y-75634113D01*
X187273845Y-75684246D01*
X187239770Y-75716831D01*
X187207997Y-75733629D01*
X187188318Y-75735350D01*
X187119636Y-75854312D01*
X187131335Y-75862989D01*
X187128778Y-75880515D01*
X187113301Y-75905722D01*
X187112157Y-75907132D01*
X187097279Y-75925947D01*
X187069535Y-75961740D01*
X187031424Y-76011263D01*
X186985443Y-76071265D01*
X186934087Y-76138496D01*
X186900221Y-76182939D01*
X186848132Y-76251029D01*
X186801017Y-76311989D01*
X186761073Y-76363023D01*
X186730502Y-76401336D01*
X186711503Y-76424133D01*
X186706268Y-76429361D01*
X186699750Y-76419947D01*
X186695199Y-76394288D01*
X186695168Y-76393923D01*
X186684223Y-76322862D01*
X186663324Y-76239004D01*
X186635050Y-76151638D01*
X186610539Y-76089352D01*
X186591459Y-76042661D01*
X186569226Y-75984673D01*
X186545466Y-75920069D01*
X186521803Y-75853529D01*
X186499861Y-75789733D01*
X186481265Y-75733363D01*
X186467639Y-75689100D01*
X186460607Y-75661625D01*
X186460058Y-75655729D01*
X186461461Y-75650400D01*
X186466295Y-75647973D01*
X186478483Y-75649335D01*
X186501953Y-75655369D01*
X186540631Y-75666963D01*
X186598445Y-75684997D01*
X186620098Y-75691794D01*
X186677707Y-75709001D01*
X186730998Y-75723376D01*
X186772300Y-75732918D01*
X186787749Y-75735453D01*
X186824022Y-75744659D01*
X186868549Y-75762979D01*
X186892980Y-75775781D01*
X186931798Y-75795960D01*
X186965141Y-75809482D01*
X186979407Y-75812747D01*
X187011213Y-75817762D01*
X187050861Y-75828237D01*
X187089840Y-75841360D01*
X187119636Y-75854312D01*
X187188318Y-75735350D01*
X187176320Y-75736401D01*
X187142530Y-75726907D01*
X187113578Y-75712285D01*
X187090919Y-75702499D01*
X187047606Y-75686627D01*
X186987329Y-75665846D01*
X186913774Y-75641338D01*
X186830627Y-75614282D01*
X186741577Y-75585855D01*
X186650308Y-75557238D01*
X186560509Y-75529610D01*
X186475865Y-75504149D01*
X186400065Y-75482035D01*
X186348855Y-75467705D01*
X186282827Y-75450793D01*
X186236448Y-75442175D01*
X186205369Y-75441836D01*
X186185236Y-75449760D01*
X186171698Y-75465932D01*
X186171044Y-75467085D01*
G37*
X186171044Y-75467085D02*
X186159867Y-75507647D01*
X186173201Y-75543884D01*
X186210385Y-75574873D01*
X186264679Y-75597824D01*
X186279722Y-75603690D01*
X186292771Y-75612877D01*
X186305242Y-75628401D01*
X186318554Y-75653280D01*
X186334123Y-75690528D01*
X186353366Y-75743162D01*
X186377702Y-75814199D01*
X186405555Y-75897645D01*
X186429273Y-75967319D01*
X186453975Y-76036930D01*
X186476766Y-76098489D01*
X186494752Y-76144001D01*
X186495025Y-76144650D01*
X186514350Y-76194070D01*
X186537175Y-76257737D01*
X186559928Y-76325502D01*
X186571114Y-76360837D01*
X186589638Y-76420628D01*
X186607056Y-76476333D01*
X186621006Y-76520426D01*
X186627336Y-76540026D01*
X186634462Y-76564511D01*
X186635121Y-76584084D01*
X186627114Y-76605666D01*
X186608247Y-76636179D01*
X186587016Y-76667115D01*
X186559081Y-76708311D01*
X186522027Y-76764216D01*
X186480302Y-76828062D01*
X186438349Y-76893085D01*
X186430399Y-76905514D01*
X186391008Y-76967706D01*
X186363687Y-77012609D01*
X186346522Y-77044135D01*
X186337599Y-77066202D01*
X186335003Y-77082720D01*
X186336697Y-77097048D01*
X186355372Y-77133319D01*
X186388385Y-77150728D01*
X186425064Y-77147735D01*
X186443610Y-77139365D01*
X186460604Y-77124491D01*
X186479410Y-77098710D01*
X186503391Y-77057623D01*
X186525962Y-77015688D01*
X186549777Y-76973420D01*
X186579396Y-76924786D01*
X186611816Y-76874233D01*
X186644034Y-76826205D01*
X186673042Y-76785151D01*
X186695837Y-76755517D01*
X186709413Y-76741749D01*
X186711302Y-76741412D01*
X186720016Y-76755962D01*
X186731175Y-76786495D01*
X186736256Y-76803828D01*
X186764367Y-76893836D01*
X186796325Y-76973474D01*
X186830177Y-77038865D01*
X186863964Y-77086128D01*
X186889891Y-77108429D01*
X186917261Y-77119873D01*
X186937746Y-77112800D01*
X186950522Y-77100355D01*
X186972229Y-77065202D01*
X186973730Y-77026412D01*
X186954639Y-76979866D01*
X186936471Y-76951269D01*
X186908635Y-76904395D01*
X186881530Y-76848171D01*
X186867299Y-76812161D01*
X186848655Y-76761752D01*
X186828912Y-76713172D01*
X186816353Y-76685371D01*
X186800346Y-76648797D01*
X186789976Y-76617966D01*
X186788804Y-76612437D01*
X186793663Y-76584055D01*
X186812759Y-76541327D01*
X186843373Y-76488816D01*
X186882785Y-76431085D01*
X186928275Y-76372696D01*
X186939763Y-76359130D01*
X186972752Y-76319156D01*
X186998942Y-76284289D01*
X187013917Y-76260519D01*
X187015569Y-76256419D01*
X187025781Y-76238207D01*
X187048831Y-76205651D01*
X187081060Y-76163723D01*
X187110824Y-76126977D01*
X187150742Y-76077508D01*
X187187327Y-76029901D01*
X187215683Y-75990647D01*
X187227882Y-75971838D01*
X187250300Y-75938932D01*
X187272136Y-75914966D01*
X187277332Y-75911064D01*
X187309488Y-75903026D01*
X187364164Y-75904961D01*
X187441534Y-75916900D01*
X187541770Y-75938872D01*
X187665045Y-75970909D01*
X187736539Y-75991044D01*
X187830106Y-76017557D01*
X187902549Y-76036769D01*
X187956976Y-76048994D01*
X187996496Y-76054544D01*
X188024216Y-76053730D01*
X188043245Y-76046862D01*
X188056693Y-76034255D01*
X188063504Y-76023842D01*
X188066356Y-75999186D01*
X188057574Y-75969962D01*
X188047433Y-75952773D01*
X188033788Y-75939725D01*
X188011056Y-75927627D01*
X187973648Y-75913283D01*
X187935348Y-75900061D01*
X187879543Y-75882762D01*
X187808566Y-75863154D01*
X187732165Y-75843830D01*
X187670168Y-75829547D01*
X187607905Y-75815436D01*
X187553456Y-75802042D01*
X187512307Y-75790788D01*
X187489947Y-75783096D01*
X187488877Y-75782534D01*
X187463080Y-75773935D01*
X187451726Y-75774101D01*
X187426498Y-75774447D01*
X187409834Y-75771731D01*
X187400235Y-75768481D01*
X187396104Y-75762039D01*
X187398912Y-75748972D01*
X187410129Y-75725847D01*
X187431228Y-75689230D01*
X187463679Y-75635689D01*
X187478546Y-75611411D01*
X187515817Y-75550380D01*
X187551177Y-75492083D01*
X187581073Y-75442405D01*
X187601952Y-75407229D01*
X187604864Y-75402226D01*
X187626183Y-75370336D01*
X187645174Y-75350156D01*
X187652573Y-75346565D01*
X187665491Y-75336961D01*
X187665632Y-75324775D01*
X187670691Y-75300642D01*
X187686840Y-75270167D01*
X187688792Y-75267373D01*
X187708947Y-75238948D01*
X187733793Y-75203313D01*
X187765348Y-75157536D01*
X187805624Y-75098683D01*
X187856635Y-75023825D01*
X187901316Y-74958116D01*
X187941049Y-74900716D01*
X187977827Y-74849541D01*
X188008414Y-74808950D01*
X188029577Y-74783305D01*
X188034944Y-74777983D01*
X188061706Y-74749873D01*
X188076508Y-74728657D01*
X188094766Y-74701891D01*
X188121567Y-74668359D01*
X188131039Y-74657488D01*
X188199631Y-74578847D01*
X188250720Y-74515366D01*
X188285455Y-74464964D01*
X188304985Y-74425557D01*
X188310458Y-74395066D01*
X188303026Y-74371408D01*
X188294585Y-74361255D01*
X188267440Y-74343416D01*
X188246176Y-74338262D01*
X188220078Y-74348954D01*
X188186364Y-74376153D01*
X188150494Y-74414590D01*
X188117927Y-74458992D01*
X188113189Y-74466628D01*
X188089125Y-74501274D01*
X188055684Y-74543165D01*
X188029873Y-74572505D01*
X187969166Y-74642879D01*
X187898816Y-74732713D01*
X187820922Y-74838949D01*
X187737580Y-74958523D01*
X187650890Y-75088374D01*
X187562950Y-75225440D01*
X187475857Y-75366659D01*
X187411949Y-75474155D01*
X187357727Y-75564669D01*
X187312428Y-75634113D01*
X187273845Y-75684246D01*
X187239770Y-75716831D01*
X187207997Y-75733629D01*
X187188318Y-75735350D01*
X187119636Y-75854312D01*
X187131335Y-75862989D01*
X187128778Y-75880515D01*
X187113301Y-75905722D01*
X187112157Y-75907132D01*
X187097279Y-75925947D01*
X187069535Y-75961740D01*
X187031424Y-76011263D01*
X186985443Y-76071265D01*
X186934087Y-76138496D01*
X186900221Y-76182939D01*
X186848132Y-76251029D01*
X186801017Y-76311989D01*
X186761073Y-76363023D01*
X186730502Y-76401336D01*
X186711503Y-76424133D01*
X186706268Y-76429361D01*
X186699750Y-76419947D01*
X186695199Y-76394288D01*
X186695168Y-76393923D01*
X186684223Y-76322862D01*
X186663324Y-76239004D01*
X186635050Y-76151638D01*
X186610539Y-76089352D01*
X186591459Y-76042661D01*
X186569226Y-75984673D01*
X186545466Y-75920069D01*
X186521803Y-75853529D01*
X186499861Y-75789733D01*
X186481265Y-75733363D01*
X186467639Y-75689100D01*
X186460607Y-75661625D01*
X186460058Y-75655729D01*
X186461461Y-75650400D01*
X186466295Y-75647973D01*
X186478483Y-75649335D01*
X186501953Y-75655369D01*
X186540631Y-75666963D01*
X186598445Y-75684997D01*
X186620098Y-75691794D01*
X186677707Y-75709001D01*
X186730998Y-75723376D01*
X186772300Y-75732918D01*
X186787749Y-75735453D01*
X186824022Y-75744659D01*
X186868549Y-75762979D01*
X186892980Y-75775781D01*
X186931798Y-75795960D01*
X186965141Y-75809482D01*
X186979407Y-75812747D01*
X187011213Y-75817762D01*
X187050861Y-75828237D01*
X187089840Y-75841360D01*
X187119636Y-75854312D01*
X187188318Y-75735350D01*
X187176320Y-75736401D01*
X187142530Y-75726907D01*
X187113578Y-75712285D01*
X187090919Y-75702499D01*
X187047606Y-75686627D01*
X186987329Y-75665846D01*
X186913774Y-75641338D01*
X186830627Y-75614282D01*
X186741577Y-75585855D01*
X186650308Y-75557238D01*
X186560509Y-75529610D01*
X186475865Y-75504149D01*
X186400065Y-75482035D01*
X186348855Y-75467705D01*
X186282827Y-75450793D01*
X186236448Y-75442175D01*
X186205369Y-75441836D01*
X186185236Y-75449760D01*
X186171698Y-75465932D01*
X186171044Y-75467085D01*
%TD*%
M02*
