%TF.GenerationSoftware,KiCad,Pcbnew,5.1.9*%
%TF.CreationDate,2021-04-16T22:17:29+02:00*%
%TF.ProjectId,handbrush,68616e64-6272-4757-9368-2e6b69636164,rev?*%
%TF.SameCoordinates,Original*%
%TF.FileFunction,Soldermask,Top*%
%TF.FilePolarity,Negative*%
%FSLAX46Y46*%
G04 Gerber Fmt 4.6, Leading zero omitted, Abs format (unit mm)*
G04 Created by KiCad (PCBNEW 5.1.9) date 2021-04-16 22:17:29*
%MOMM*%
%LPD*%
G01*
G04 APERTURE LIST*
%ADD10C,2.000000*%
%ADD11C,1.700000*%
%ADD12C,3.400000*%
%ADD13C,1.143000*%
%ADD14O,1.016000X2.032000*%
%ADD15O,2.748280X1.998980*%
%ADD16O,2.000000X1.600000*%
%ADD17C,0.800000*%
%ADD18C,0.100000*%
%ADD19R,1.000000X1.000000*%
G04 APERTURE END LIST*
D10*
%TO.C,MX4*%
X167390000Y-79850000D03*
X162390000Y-77750000D03*
D11*
X161890000Y-73950000D03*
X172890000Y-73950000D03*
D12*
X167390000Y-73950000D03*
%TD*%
D13*
%TO.C,U1*%
X95838803Y-102135813D03*
X93298803Y-102135813D03*
X95838803Y-99595813D03*
X93298803Y-99595813D03*
D14*
X95850000Y-116600000D03*
X93300000Y-116600000D03*
D15*
X86433120Y-100282180D03*
X86433120Y-102822180D03*
X86433120Y-105362180D03*
X86433120Y-107902180D03*
X86433120Y-110442180D03*
X86433120Y-112982180D03*
X86433120Y-115522180D03*
X102597680Y-115522180D03*
X102597680Y-112982180D03*
X102597680Y-110442180D03*
X102597680Y-107902180D03*
X102597680Y-105362180D03*
X102597680Y-102822180D03*
X102597680Y-100282180D03*
%TD*%
%TO.C,R2*%
G36*
G01*
X87907500Y-128325000D02*
X87432500Y-128325000D01*
G75*
G02*
X87195000Y-128087500I0J237500D01*
G01*
X87195000Y-127587500D01*
G75*
G02*
X87432500Y-127350000I237500J0D01*
G01*
X87907500Y-127350000D01*
G75*
G02*
X88145000Y-127587500I0J-237500D01*
G01*
X88145000Y-128087500D01*
G75*
G02*
X87907500Y-128325000I-237500J0D01*
G01*
G37*
G36*
G01*
X87907500Y-130150000D02*
X87432500Y-130150000D01*
G75*
G02*
X87195000Y-129912500I0J237500D01*
G01*
X87195000Y-129412500D01*
G75*
G02*
X87432500Y-129175000I237500J0D01*
G01*
X87907500Y-129175000D01*
G75*
G02*
X88145000Y-129412500I0J-237500D01*
G01*
X88145000Y-129912500D01*
G75*
G02*
X87907500Y-130150000I-237500J0D01*
G01*
G37*
%TD*%
%TO.C,R1*%
G36*
G01*
X91027500Y-128325000D02*
X90552500Y-128325000D01*
G75*
G02*
X90315000Y-128087500I0J237500D01*
G01*
X90315000Y-127587500D01*
G75*
G02*
X90552500Y-127350000I237500J0D01*
G01*
X91027500Y-127350000D01*
G75*
G02*
X91265000Y-127587500I0J-237500D01*
G01*
X91265000Y-128087500D01*
G75*
G02*
X91027500Y-128325000I-237500J0D01*
G01*
G37*
G36*
G01*
X91027500Y-130150000D02*
X90552500Y-130150000D01*
G75*
G02*
X90315000Y-129912500I0J237500D01*
G01*
X90315000Y-129412500D01*
G75*
G02*
X90552500Y-129175000I237500J0D01*
G01*
X91027500Y-129175000D01*
G75*
G02*
X91265000Y-129412500I0J-237500D01*
G01*
X91265000Y-129912500D01*
G75*
G02*
X91027500Y-130150000I-237500J0D01*
G01*
G37*
%TD*%
D10*
%TO.C,MX17*%
X105740000Y-140459550D03*
X100359873Y-141140897D03*
D11*
X98026860Y-138100000D03*
X107553140Y-132600000D03*
D12*
X102790000Y-135350000D03*
%TD*%
D10*
%TO.C,MX16*%
X113390000Y-115450000D03*
X108390000Y-113350000D03*
D11*
X107890000Y-109550000D03*
X118890000Y-109550000D03*
D12*
X113390000Y-109550000D03*
%TD*%
D10*
%TO.C,MX15*%
X113390000Y-98450000D03*
X108390000Y-96350000D03*
D11*
X107890000Y-92550000D03*
X118890000Y-92550000D03*
D12*
X113390000Y-92550000D03*
%TD*%
D10*
%TO.C,MX14*%
X113390000Y-81450000D03*
X108390000Y-79350000D03*
D11*
X107890000Y-75550000D03*
X118890000Y-75550000D03*
D12*
X113390000Y-75550000D03*
%TD*%
D10*
%TO.C,MX13*%
X122917032Y-133248962D03*
X117543883Y-132514613D03*
D11*
X116077408Y-128973505D03*
X126702592Y-126126495D03*
D12*
X121390000Y-127550000D03*
%TD*%
D10*
%TO.C,MX12*%
X131390000Y-112850000D03*
X126390000Y-110750000D03*
D11*
X125890000Y-106950000D03*
X136890000Y-106950000D03*
D12*
X131390000Y-106950000D03*
%TD*%
D10*
%TO.C,MX11*%
X131390000Y-95850000D03*
X126390000Y-93750000D03*
D11*
X125890000Y-89950000D03*
X136890000Y-89950000D03*
D12*
X131390000Y-89950000D03*
%TD*%
D10*
%TO.C,MX10*%
X131390000Y-78850000D03*
X126390000Y-76750000D03*
D11*
X125890000Y-72950000D03*
X136890000Y-72950000D03*
D12*
X131390000Y-72950000D03*
%TD*%
D10*
%TO.C,MX9*%
X149390000Y-107050000D03*
X144390000Y-104950000D03*
D11*
X143890000Y-101150000D03*
X154890000Y-101150000D03*
D12*
X149390000Y-101150000D03*
%TD*%
D10*
%TO.C,MX8*%
X149390000Y-90050000D03*
X144390000Y-87950000D03*
D11*
X143890000Y-84150000D03*
X154890000Y-84150000D03*
D12*
X149390000Y-84150000D03*
%TD*%
D10*
%TO.C,MX7*%
X149390000Y-73050000D03*
X144390000Y-70950000D03*
D11*
X143890000Y-67150000D03*
X154890000Y-67150000D03*
D12*
X149390000Y-67150000D03*
%TD*%
D10*
%TO.C,MX6*%
X167390000Y-113850000D03*
X162390000Y-111750000D03*
D11*
X161890000Y-107950000D03*
X172890000Y-107950000D03*
D12*
X167390000Y-107950000D03*
%TD*%
D10*
%TO.C,MX5*%
X167390000Y-96850000D03*
X162390000Y-94750000D03*
D11*
X161890000Y-90950000D03*
X172890000Y-90950000D03*
D12*
X167390000Y-90950000D03*
%TD*%
D10*
%TO.C,MX3*%
X185390000Y-126050000D03*
X180390000Y-123950000D03*
D11*
X179890000Y-120150000D03*
X190890000Y-120150000D03*
D12*
X185390000Y-120150000D03*
%TD*%
D10*
%TO.C,MX2*%
X185390000Y-109050000D03*
X180390000Y-106950000D03*
D11*
X179890000Y-103150000D03*
X190890000Y-103150000D03*
D12*
X185390000Y-103150000D03*
%TD*%
D10*
%TO.C,MX1*%
X185390000Y-92050000D03*
X180390000Y-89950000D03*
D11*
X179890000Y-86150000D03*
X190890000Y-86150000D03*
D12*
X185390000Y-86150000D03*
%TD*%
D16*
%TO.C,J1*%
X93390000Y-120450000D03*
D17*
X88790000Y-122750000D03*
X95790000Y-122750000D03*
D16*
X90390000Y-120450000D03*
X97390000Y-120450000D03*
X98490000Y-125050000D03*
%TD*%
D18*
%TO.C,D17*%
G36*
X99490481Y-131091987D02*
G01*
X99990481Y-131958013D01*
X99124455Y-132458013D01*
X98624455Y-131591987D01*
X99490481Y-131091987D01*
G37*
G36*
X101655545Y-129841987D02*
G01*
X102155545Y-130708013D01*
X101289519Y-131208013D01*
X100789519Y-130341987D01*
X101655545Y-129841987D01*
G37*
%TD*%
D19*
%TO.C,D16*%
X112140000Y-104750000D03*
X114640000Y-104750000D03*
%TD*%
%TO.C,D15*%
X112140000Y-87950000D03*
X114640000Y-87950000D03*
%TD*%
%TO.C,D14*%
X112140000Y-70750000D03*
X114640000Y-70750000D03*
%TD*%
D18*
%TO.C,D13*%
G36*
X119336146Y-122861152D02*
G01*
X119594965Y-123827077D01*
X118629040Y-124085896D01*
X118370221Y-123119971D01*
X119336146Y-122861152D01*
G37*
G36*
X121750960Y-122214104D02*
G01*
X122009779Y-123180029D01*
X121043854Y-123438848D01*
X120785035Y-122472923D01*
X121750960Y-122214104D01*
G37*
%TD*%
D19*
%TO.C,D12*%
X130140000Y-102150000D03*
X132640000Y-102150000D03*
%TD*%
%TO.C,D11*%
X130140000Y-85150000D03*
X132640000Y-85150000D03*
%TD*%
%TO.C,D10*%
X130090000Y-68150000D03*
X132590000Y-68150000D03*
%TD*%
%TO.C,D9*%
X148140000Y-96550000D03*
X150640000Y-96550000D03*
%TD*%
%TO.C,D8*%
X148140000Y-79550000D03*
X150640000Y-79550000D03*
%TD*%
%TO.C,D7*%
X148090000Y-62550000D03*
X150590000Y-62550000D03*
%TD*%
%TO.C,D6*%
X166140000Y-103150000D03*
X168640000Y-103150000D03*
%TD*%
%TO.C,D5*%
X166140000Y-86350000D03*
X168640000Y-86350000D03*
%TD*%
%TO.C,D4*%
X166140000Y-69350000D03*
X168640000Y-69350000D03*
%TD*%
%TO.C,D3*%
X184140000Y-115550000D03*
X186640000Y-115550000D03*
%TD*%
%TO.C,D2*%
X184140000Y-98550000D03*
X186640000Y-98550000D03*
%TD*%
%TO.C,D1*%
X184140000Y-81350000D03*
X186640000Y-81350000D03*
%TD*%
M02*
