%TF.GenerationSoftware,KiCad,Pcbnew,5.1.9*%
%TF.CreationDate,2021-04-16T22:18:37+02:00*%
%TF.ProjectId,handbrush,68616e64-6272-4757-9368-2e6b69636164,rev?*%
%TF.SameCoordinates,Original*%
%TF.FileFunction,Soldermask,Bot*%
%TF.FilePolarity,Negative*%
%FSLAX46Y46*%
G04 Gerber Fmt 4.6, Leading zero omitted, Abs format (unit mm)*
G04 Created by KiCad (PCBNEW 5.1.9) date 2021-04-16 22:18:37*
%MOMM*%
%LPD*%
G01*
G04 APERTURE LIST*
%ADD10C,0.010000*%
%ADD11C,2.000000*%
%ADD12C,1.700000*%
%ADD13C,3.400000*%
%ADD14O,2.000000X1.600000*%
%ADD15C,0.800000*%
G04 APERTURE END LIST*
D10*
%TO.C,G\u002A\u002A\u002A*%
G36*
X189909477Y-96391804D02*
G01*
X189903650Y-96382924D01*
X189883833Y-96381542D01*
X189862985Y-96386314D01*
X189872029Y-96393347D01*
X189902565Y-96395676D01*
X189909477Y-96391804D01*
G37*
X189909477Y-96391804D02*
X189903650Y-96382924D01*
X189883833Y-96381542D01*
X189862985Y-96386314D01*
X189872029Y-96393347D01*
X189902565Y-96395676D01*
X189909477Y-96391804D01*
G36*
X189973384Y-96370230D02*
G01*
X189963615Y-96360461D01*
X189953846Y-96370230D01*
X189963615Y-96380000D01*
X189973384Y-96370230D01*
G37*
X189973384Y-96370230D02*
X189963615Y-96360461D01*
X189953846Y-96370230D01*
X189963615Y-96380000D01*
X189973384Y-96370230D01*
G36*
X190034964Y-96346826D02*
G01*
X190051538Y-96331153D01*
X190068230Y-96306098D01*
X190056852Y-96306376D01*
X190021080Y-96330532D01*
X190000288Y-96351918D01*
X190005184Y-96359840D01*
X190034964Y-96346826D01*
G37*
X190034964Y-96346826D02*
X190051538Y-96331153D01*
X190068230Y-96306098D01*
X190056852Y-96306376D01*
X190021080Y-96330532D01*
X190000288Y-96351918D01*
X190005184Y-96359840D01*
X190034964Y-96346826D01*
G36*
X190286000Y-95940384D02*
G01*
X190276231Y-95930615D01*
X190266461Y-95940384D01*
X190276231Y-95950153D01*
X190286000Y-95940384D01*
G37*
X190286000Y-95940384D02*
X190276231Y-95930615D01*
X190266461Y-95940384D01*
X190276231Y-95950153D01*
X190286000Y-95940384D01*
G36*
X189593963Y-96458114D02*
G01*
X189738923Y-96431802D01*
X189797954Y-96416762D01*
X189822940Y-96407178D01*
X189817910Y-96399702D01*
X189787769Y-96391203D01*
X189655939Y-96339672D01*
X189544924Y-96255618D01*
X189456368Y-96140569D01*
X189406539Y-96037088D01*
X189372934Y-95910871D01*
X189359419Y-95767694D01*
X189366052Y-95622880D01*
X189392892Y-95491750D01*
X189404329Y-95458818D01*
X189454416Y-95359361D01*
X189521994Y-95265665D01*
X189597926Y-95188715D01*
X189668093Y-95141777D01*
X189773476Y-95112263D01*
X189885056Y-95116283D01*
X189993118Y-95151682D01*
X190087944Y-95216306D01*
X190111479Y-95240095D01*
X190177833Y-95323178D01*
X190225024Y-95408361D01*
X190256566Y-95505516D01*
X190275971Y-95624513D01*
X190284176Y-95725461D01*
X190295769Y-95920846D01*
X190358640Y-95764538D01*
X190444246Y-95518971D01*
X190495997Y-95291060D01*
X190513959Y-95079063D01*
X190498200Y-94881240D01*
X190448787Y-94695851D01*
X190404189Y-94592230D01*
X190305134Y-94433916D01*
X190172494Y-94288148D01*
X190010674Y-94158314D01*
X189824079Y-94047801D01*
X189617112Y-93959996D01*
X189556134Y-93939949D01*
X189490818Y-93919825D01*
X189444406Y-93907791D01*
X189404949Y-93903452D01*
X189360501Y-93906410D01*
X189299112Y-93916268D01*
X189228600Y-93929069D01*
X189007338Y-93984012D01*
X188815851Y-94063830D01*
X188653036Y-94169446D01*
X188517791Y-94301784D01*
X188409014Y-94461769D01*
X188325603Y-94650324D01*
X188309310Y-94699692D01*
X188292091Y-94759217D01*
X188279824Y-94814990D01*
X188271713Y-94875475D01*
X188266965Y-94949134D01*
X188264785Y-95044432D01*
X188264380Y-95169831D01*
X188264395Y-95178384D01*
X188264928Y-95301207D01*
X188266685Y-95393467D01*
X188270703Y-95463677D01*
X188278018Y-95520351D01*
X188289665Y-95572003D01*
X188306681Y-95627146D01*
X188325643Y-95681719D01*
X188415553Y-95891967D01*
X188524927Y-96068710D01*
X188654724Y-96212860D01*
X188805902Y-96325332D01*
X188979421Y-96407037D01*
X189133231Y-96450494D01*
X189272255Y-96468725D01*
X189431069Y-96471103D01*
X189593963Y-96458114D01*
G37*
X189593963Y-96458114D02*
X189738923Y-96431802D01*
X189797954Y-96416762D01*
X189822940Y-96407178D01*
X189817910Y-96399702D01*
X189787769Y-96391203D01*
X189655939Y-96339672D01*
X189544924Y-96255618D01*
X189456368Y-96140569D01*
X189406539Y-96037088D01*
X189372934Y-95910871D01*
X189359419Y-95767694D01*
X189366052Y-95622880D01*
X189392892Y-95491750D01*
X189404329Y-95458818D01*
X189454416Y-95359361D01*
X189521994Y-95265665D01*
X189597926Y-95188715D01*
X189668093Y-95141777D01*
X189773476Y-95112263D01*
X189885056Y-95116283D01*
X189993118Y-95151682D01*
X190087944Y-95216306D01*
X190111479Y-95240095D01*
X190177833Y-95323178D01*
X190225024Y-95408361D01*
X190256566Y-95505516D01*
X190275971Y-95624513D01*
X190284176Y-95725461D01*
X190295769Y-95920846D01*
X190358640Y-95764538D01*
X190444246Y-95518971D01*
X190495997Y-95291060D01*
X190513959Y-95079063D01*
X190498200Y-94881240D01*
X190448787Y-94695851D01*
X190404189Y-94592230D01*
X190305134Y-94433916D01*
X190172494Y-94288148D01*
X190010674Y-94158314D01*
X189824079Y-94047801D01*
X189617112Y-93959996D01*
X189556134Y-93939949D01*
X189490818Y-93919825D01*
X189444406Y-93907791D01*
X189404949Y-93903452D01*
X189360501Y-93906410D01*
X189299112Y-93916268D01*
X189228600Y-93929069D01*
X189007338Y-93984012D01*
X188815851Y-94063830D01*
X188653036Y-94169446D01*
X188517791Y-94301784D01*
X188409014Y-94461769D01*
X188325603Y-94650324D01*
X188309310Y-94699692D01*
X188292091Y-94759217D01*
X188279824Y-94814990D01*
X188271713Y-94875475D01*
X188266965Y-94949134D01*
X188264785Y-95044432D01*
X188264380Y-95169831D01*
X188264395Y-95178384D01*
X188264928Y-95301207D01*
X188266685Y-95393467D01*
X188270703Y-95463677D01*
X188278018Y-95520351D01*
X188289665Y-95572003D01*
X188306681Y-95627146D01*
X188325643Y-95681719D01*
X188415553Y-95891967D01*
X188524927Y-96068710D01*
X188654724Y-96212860D01*
X188805902Y-96325332D01*
X188979421Y-96407037D01*
X189133231Y-96450494D01*
X189272255Y-96468725D01*
X189431069Y-96471103D01*
X189593963Y-96458114D01*
G36*
X184853353Y-96392971D02*
G01*
X184928650Y-96378281D01*
X184994731Y-96359207D01*
X185137615Y-96314322D01*
X185036400Y-96300614D01*
X184926500Y-96271042D01*
X184833524Y-96212544D01*
X184753649Y-96121843D01*
X184684580Y-95998942D01*
X184658551Y-95938761D01*
X184642298Y-95885244D01*
X184633596Y-95825688D01*
X184630220Y-95747391D01*
X184629824Y-95686384D01*
X184631087Y-95590747D01*
X184636357Y-95521430D01*
X184647858Y-95465719D01*
X184667811Y-95410896D01*
X184684472Y-95373769D01*
X184746586Y-95265055D01*
X184820510Y-95175164D01*
X184899306Y-95111600D01*
X184948190Y-95088494D01*
X185063748Y-95067897D01*
X185171321Y-95081784D01*
X185268793Y-95126008D01*
X185354049Y-95196420D01*
X185424971Y-95288870D01*
X185479446Y-95399211D01*
X185515358Y-95523294D01*
X185530591Y-95656970D01*
X185523028Y-95796091D01*
X185490556Y-95936507D01*
X185441113Y-96055101D01*
X185382231Y-96169818D01*
X185465077Y-96102461D01*
X185517170Y-96046781D01*
X185576211Y-95961984D01*
X185637872Y-95856369D01*
X185697826Y-95738234D01*
X185751744Y-95615876D01*
X185795298Y-95497596D01*
X185814564Y-95432384D01*
X185853092Y-95217261D01*
X185857997Y-95000980D01*
X185830016Y-94790327D01*
X185769886Y-94592091D01*
X185709554Y-94465230D01*
X185648918Y-94370430D01*
X185569852Y-94266083D01*
X185482683Y-94164542D01*
X185397738Y-94078159D01*
X185354676Y-94040760D01*
X185237291Y-93969002D01*
X185096390Y-93918127D01*
X184942901Y-93890562D01*
X184787752Y-93888734D01*
X184712915Y-93898240D01*
X184568226Y-93934815D01*
X184408228Y-93993140D01*
X184245499Y-94067593D01*
X184092621Y-94152552D01*
X183989872Y-94221344D01*
X183874803Y-94329773D01*
X183783713Y-94465854D01*
X183717816Y-94625477D01*
X183678326Y-94804533D01*
X183666456Y-94998912D01*
X183683419Y-95204506D01*
X183689148Y-95239651D01*
X183738144Y-95461574D01*
X183805803Y-95682227D01*
X183885861Y-95881769D01*
X183971130Y-96022004D01*
X184089903Y-96148873D01*
X184237681Y-96258100D01*
X184342090Y-96315180D01*
X184422671Y-96351902D01*
X184488830Y-96374715D01*
X184556900Y-96387617D01*
X184643212Y-96394606D01*
X184672346Y-96396024D01*
X184773628Y-96398233D01*
X184853353Y-96392971D01*
G37*
X184853353Y-96392971D02*
X184928650Y-96378281D01*
X184994731Y-96359207D01*
X185137615Y-96314322D01*
X185036400Y-96300614D01*
X184926500Y-96271042D01*
X184833524Y-96212544D01*
X184753649Y-96121843D01*
X184684580Y-95998942D01*
X184658551Y-95938761D01*
X184642298Y-95885244D01*
X184633596Y-95825688D01*
X184630220Y-95747391D01*
X184629824Y-95686384D01*
X184631087Y-95590747D01*
X184636357Y-95521430D01*
X184647858Y-95465719D01*
X184667811Y-95410896D01*
X184684472Y-95373769D01*
X184746586Y-95265055D01*
X184820510Y-95175164D01*
X184899306Y-95111600D01*
X184948190Y-95088494D01*
X185063748Y-95067897D01*
X185171321Y-95081784D01*
X185268793Y-95126008D01*
X185354049Y-95196420D01*
X185424971Y-95288870D01*
X185479446Y-95399211D01*
X185515358Y-95523294D01*
X185530591Y-95656970D01*
X185523028Y-95796091D01*
X185490556Y-95936507D01*
X185441113Y-96055101D01*
X185382231Y-96169818D01*
X185465077Y-96102461D01*
X185517170Y-96046781D01*
X185576211Y-95961984D01*
X185637872Y-95856369D01*
X185697826Y-95738234D01*
X185751744Y-95615876D01*
X185795298Y-95497596D01*
X185814564Y-95432384D01*
X185853092Y-95217261D01*
X185857997Y-95000980D01*
X185830016Y-94790327D01*
X185769886Y-94592091D01*
X185709554Y-94465230D01*
X185648918Y-94370430D01*
X185569852Y-94266083D01*
X185482683Y-94164542D01*
X185397738Y-94078159D01*
X185354676Y-94040760D01*
X185237291Y-93969002D01*
X185096390Y-93918127D01*
X184942901Y-93890562D01*
X184787752Y-93888734D01*
X184712915Y-93898240D01*
X184568226Y-93934815D01*
X184408228Y-93993140D01*
X184245499Y-94067593D01*
X184092621Y-94152552D01*
X183989872Y-94221344D01*
X183874803Y-94329773D01*
X183783713Y-94465854D01*
X183717816Y-94625477D01*
X183678326Y-94804533D01*
X183666456Y-94998912D01*
X183683419Y-95204506D01*
X183689148Y-95239651D01*
X183738144Y-95461574D01*
X183805803Y-95682227D01*
X183885861Y-95881769D01*
X183971130Y-96022004D01*
X184089903Y-96148873D01*
X184237681Y-96258100D01*
X184342090Y-96315180D01*
X184422671Y-96351902D01*
X184488830Y-96374715D01*
X184556900Y-96387617D01*
X184643212Y-96394606D01*
X184672346Y-96396024D01*
X184773628Y-96398233D01*
X184853353Y-96392971D01*
%TD*%
D11*
%TO.C,MX17*%
X175050000Y-121909550D03*
X171769873Y-117590897D03*
D12*
X173236860Y-114050000D03*
X182763140Y-119550000D03*
D13*
X178000000Y-116800000D03*
%TD*%
D11*
%TO.C,MX16*%
X167400000Y-96900000D03*
X162400000Y-94800000D03*
D12*
X161900000Y-91000000D03*
X172900000Y-91000000D03*
D13*
X167400000Y-91000000D03*
%TD*%
D11*
%TO.C,MX15*%
X167400000Y-79900000D03*
X162400000Y-77800000D03*
D12*
X161900000Y-74000000D03*
X172900000Y-74000000D03*
D13*
X167400000Y-74000000D03*
%TD*%
D11*
%TO.C,MX14*%
X167400000Y-62900000D03*
X162400000Y-60800000D03*
D12*
X161900000Y-57000000D03*
X172900000Y-57000000D03*
D13*
X167400000Y-57000000D03*
%TD*%
D11*
%TO.C,MX13*%
X157872968Y-114698962D03*
X153586858Y-111376423D03*
D12*
X154087408Y-107576495D03*
X164712592Y-110423505D03*
D13*
X159400000Y-109000000D03*
%TD*%
D11*
%TO.C,MX12*%
X149400000Y-94300000D03*
X144400000Y-92200000D03*
D12*
X143900000Y-88400000D03*
X154900000Y-88400000D03*
D13*
X149400000Y-88400000D03*
%TD*%
D11*
%TO.C,MX11*%
X149400000Y-77300000D03*
X144400000Y-75200000D03*
D12*
X143900000Y-71400000D03*
X154900000Y-71400000D03*
D13*
X149400000Y-71400000D03*
%TD*%
D11*
%TO.C,MX10*%
X149400000Y-60300000D03*
X144400000Y-58200000D03*
D12*
X143900000Y-54400000D03*
X154900000Y-54400000D03*
D13*
X149400000Y-54400000D03*
%TD*%
D11*
%TO.C,MX9*%
X131400000Y-88500000D03*
X126400000Y-86400000D03*
D12*
X125900000Y-82600000D03*
X136900000Y-82600000D03*
D13*
X131400000Y-82600000D03*
%TD*%
D11*
%TO.C,MX8*%
X131400000Y-71500000D03*
X126400000Y-69400000D03*
D12*
X125900000Y-65600000D03*
X136900000Y-65600000D03*
D13*
X131400000Y-65600000D03*
%TD*%
D11*
%TO.C,MX7*%
X131400000Y-54500000D03*
X126400000Y-52400000D03*
D12*
X125900000Y-48600000D03*
X136900000Y-48600000D03*
D13*
X131400000Y-48600000D03*
%TD*%
D11*
%TO.C,MX6*%
X113400000Y-95300000D03*
X108400000Y-93200000D03*
D12*
X107900000Y-89400000D03*
X118900000Y-89400000D03*
D13*
X113400000Y-89400000D03*
%TD*%
D11*
%TO.C,MX5*%
X113400000Y-78300000D03*
X108400000Y-76200000D03*
D12*
X107900000Y-72400000D03*
X118900000Y-72400000D03*
D13*
X113400000Y-72400000D03*
%TD*%
D11*
%TO.C,MX4*%
X113400000Y-61300000D03*
X108400000Y-59200000D03*
D12*
X107900000Y-55400000D03*
X118900000Y-55400000D03*
D13*
X113400000Y-55400000D03*
%TD*%
D11*
%TO.C,MX3*%
X95400000Y-107500000D03*
X90400000Y-105400000D03*
D12*
X89900000Y-101600000D03*
X100900000Y-101600000D03*
D13*
X95400000Y-101600000D03*
%TD*%
D11*
%TO.C,MX2*%
X95400000Y-90500000D03*
X90400000Y-88400000D03*
D12*
X89900000Y-84600000D03*
X100900000Y-84600000D03*
D13*
X95400000Y-84600000D03*
%TD*%
D11*
%TO.C,MX1*%
X95400000Y-73500000D03*
X90400000Y-71400000D03*
D12*
X89900000Y-67600000D03*
X100900000Y-67600000D03*
D13*
X95400000Y-67600000D03*
%TD*%
D14*
%TO.C,J1*%
X187400000Y-106500000D03*
D15*
X192000000Y-104200000D03*
X185000000Y-104200000D03*
D14*
X190400000Y-106500000D03*
X183400000Y-106500000D03*
X182300000Y-101900000D03*
%TD*%
M02*
