%TF.GenerationSoftware,KiCad,Pcbnew,5.1.9*%
%TF.CreationDate,2021-04-16T22:18:37+02:00*%
%TF.ProjectId,handbrush,68616e64-6272-4757-9368-2e6b69636164,rev?*%
%TF.SameCoordinates,Original*%
%TF.FileFunction,Legend,Top*%
%TF.FilePolarity,Positive*%
%FSLAX46Y46*%
G04 Gerber Fmt 4.6, Leading zero omitted, Abs format (unit mm)*
G04 Created by KiCad (PCBNEW 5.1.9) date 2021-04-16 22:18:37*
%MOMM*%
%LPD*%
G01*
G04 APERTURE LIST*
%ADD10C,0.010000*%
%ADD11C,0.066040*%
%ADD12C,0.127000*%
%ADD13C,0.100000*%
%ADD14C,0.120000*%
%ADD15C,0.150000*%
%ADD16C,0.101600*%
%ADD17C,0.076200*%
G04 APERTURE END LIST*
D10*
%TO.C,G\u002A\u002A\u002A*%
G36*
X147512884Y-98128713D02*
G01*
X147497075Y-98153523D01*
X147458887Y-98172789D01*
X147422766Y-98185365D01*
X147373864Y-98205966D01*
X147325386Y-98237465D01*
X147269965Y-98285792D01*
X147200234Y-98356878D01*
X147172032Y-98387205D01*
X147103642Y-98463677D01*
X147039925Y-98538969D01*
X146988813Y-98603479D01*
X146961938Y-98641491D01*
X146917109Y-98704008D01*
X146859614Y-98773225D01*
X146824742Y-98810721D01*
X146774410Y-98866730D01*
X146713119Y-98942117D01*
X146651463Y-99023664D01*
X146630236Y-99053384D01*
X146580554Y-99122357D01*
X146536936Y-99179420D01*
X146505556Y-99216668D01*
X146495396Y-99226076D01*
X146468602Y-99250855D01*
X146431617Y-99293758D01*
X146418733Y-99310307D01*
X146382212Y-99355227D01*
X146324295Y-99422464D01*
X146250428Y-99505941D01*
X146166062Y-99599579D01*
X146076644Y-99697299D01*
X145987623Y-99793025D01*
X145954594Y-99828076D01*
X145893825Y-99895143D01*
X145832663Y-99967136D01*
X145795718Y-100013692D01*
X145754904Y-100064956D01*
X145720564Y-100103323D01*
X145705788Y-100116427D01*
X145684357Y-100138245D01*
X145647204Y-100183860D01*
X145600938Y-100245004D01*
X145580804Y-100272734D01*
X145515970Y-100357229D01*
X145438059Y-100450274D01*
X145362438Y-100533620D01*
X145352301Y-100544097D01*
X145225284Y-100673964D01*
X145197849Y-100846943D01*
X145186284Y-100932250D01*
X145174043Y-101043347D01*
X145162448Y-101166998D01*
X145152821Y-101289967D01*
X145151269Y-101313000D01*
X145142960Y-101429085D01*
X145131644Y-101571456D01*
X145118387Y-101727535D01*
X145104254Y-101884743D01*
X145091706Y-102016384D01*
X145078996Y-102149095D01*
X145067311Y-102277995D01*
X145057369Y-102394610D01*
X145049890Y-102490464D01*
X145045592Y-102557082D01*
X145045291Y-102563461D01*
X145039207Y-102653783D01*
X145028979Y-102759919D01*
X145016806Y-102859123D01*
X145016612Y-102860497D01*
X145005778Y-102954205D01*
X144998565Y-103050345D01*
X144996421Y-103129208D01*
X144996508Y-103134036D01*
X144997742Y-103247383D01*
X144996829Y-103371638D01*
X144994066Y-103499900D01*
X144989748Y-103625268D01*
X144984169Y-103740845D01*
X144977626Y-103839729D01*
X144970412Y-103915021D01*
X144962824Y-103959821D01*
X144960947Y-103965346D01*
X144936621Y-104003350D01*
X144898364Y-104017758D01*
X144869710Y-104019076D01*
X144825801Y-104015157D01*
X144795836Y-103999730D01*
X144778184Y-103967289D01*
X144771215Y-103912329D01*
X144773295Y-103829345D01*
X144781876Y-103722697D01*
X144791306Y-103616061D01*
X144800208Y-103507171D01*
X144807342Y-103411603D01*
X144810412Y-103364538D01*
X144815082Y-103292172D01*
X144822015Y-103193308D01*
X144830315Y-103080399D01*
X144839083Y-102965896D01*
X144839999Y-102954230D01*
X144847959Y-102842782D01*
X144854303Y-102733994D01*
X144858447Y-102639403D01*
X144859809Y-102570545D01*
X144859742Y-102563461D01*
X144861251Y-102516504D01*
X144866347Y-102436075D01*
X144874583Y-102327572D01*
X144885514Y-102196390D01*
X144898693Y-102047927D01*
X144913673Y-101887579D01*
X144926747Y-101753439D01*
X144942756Y-101590596D01*
X144957445Y-101438064D01*
X144970369Y-101300708D01*
X144981083Y-101183395D01*
X144989141Y-101090992D01*
X144994097Y-101028363D01*
X144995539Y-101001875D01*
X144995539Y-100943104D01*
X144886088Y-101049898D01*
X144819421Y-101118355D01*
X144752023Y-101193030D01*
X144701183Y-101254384D01*
X144648615Y-101321001D01*
X144584929Y-101399681D01*
X144527317Y-101469307D01*
X144471229Y-101538454D01*
X144417859Y-101608155D01*
X144378543Y-101663593D01*
X144377822Y-101664692D01*
X144332394Y-101727775D01*
X144277355Y-101795790D01*
X144255077Y-101821000D01*
X144195471Y-101888721D01*
X144140235Y-101956256D01*
X144095111Y-102016062D01*
X144065840Y-102060595D01*
X144057693Y-102080321D01*
X144040776Y-102104640D01*
X144000069Y-102126626D01*
X143950634Y-102139773D01*
X143918955Y-102140241D01*
X143883693Y-102125763D01*
X143868140Y-102088092D01*
X143866092Y-102071949D01*
X143868250Y-102026543D01*
X143890838Y-101990242D01*
X143927531Y-101958856D01*
X143975921Y-101913394D01*
X144011813Y-101864791D01*
X144017100Y-101853968D01*
X144043743Y-101810092D01*
X144087986Y-101755669D01*
X144119525Y-101722830D01*
X144174438Y-101665025D01*
X144224696Y-101604494D01*
X144244597Y-101576769D01*
X144282109Y-101523273D01*
X144331879Y-101457022D01*
X144368418Y-101410692D01*
X144425735Y-101339029D01*
X144489585Y-101258016D01*
X144528878Y-101207508D01*
X144573836Y-101154016D01*
X144639138Y-101082415D01*
X144716653Y-101001358D01*
X144798251Y-100919499D01*
X144813449Y-100904662D01*
X144900091Y-100818785D01*
X144964301Y-100748025D01*
X145010174Y-100683489D01*
X145041807Y-100616289D01*
X145063298Y-100537532D01*
X145078742Y-100438329D01*
X145092235Y-100309789D01*
X145093445Y-100297000D01*
X145102423Y-100203035D01*
X145110779Y-100117934D01*
X145117425Y-100052649D01*
X145120612Y-100023461D01*
X145124409Y-99985879D01*
X145130806Y-99916604D01*
X145139160Y-99822887D01*
X145148822Y-99711976D01*
X145159147Y-99591121D01*
X145159211Y-99590371D01*
X145169704Y-99471833D01*
X145179999Y-99365453D01*
X145189384Y-99277853D01*
X145197147Y-99215653D01*
X145202578Y-99185474D01*
X145202767Y-99184948D01*
X145206958Y-99140225D01*
X145203130Y-99123997D01*
X145191840Y-99112406D01*
X145167384Y-99114666D01*
X145123353Y-99132827D01*
X145053337Y-99168939D01*
X145039847Y-99176221D01*
X144948031Y-99227626D01*
X144848487Y-99285930D01*
X144761559Y-99339196D01*
X144755399Y-99343113D01*
X144670935Y-99394711D01*
X144578726Y-99447534D01*
X144501399Y-99488764D01*
X144445780Y-99517473D01*
X144390322Y-99548028D01*
X144329416Y-99583896D01*
X144257449Y-99628541D01*
X144168812Y-99685428D01*
X144057892Y-99758022D01*
X143950231Y-99829147D01*
X143824342Y-99909490D01*
X143724989Y-99965773D01*
X143649078Y-99999418D01*
X143593519Y-100011845D01*
X143561924Y-100007571D01*
X143535473Y-99979957D01*
X143533124Y-99935816D01*
X143553711Y-99888428D01*
X143574387Y-99865792D01*
X143625386Y-99828852D01*
X143676964Y-99798801D01*
X143722101Y-99771418D01*
X143750493Y-99745736D01*
X143750933Y-99745070D01*
X143780354Y-99722694D01*
X143791866Y-99720615D01*
X143822972Y-99707255D01*
X143852539Y-99681538D01*
X143886962Y-99652239D01*
X143911154Y-99642461D01*
X143940112Y-99629067D01*
X143971626Y-99600687D01*
X144017285Y-99561688D01*
X144067462Y-99531817D01*
X144118058Y-99506228D01*
X144183718Y-99470241D01*
X144223770Y-99447171D01*
X144300510Y-99404213D01*
X144386871Y-99359064D01*
X144428924Y-99338356D01*
X144508260Y-99296408D01*
X144590653Y-99246655D01*
X144628397Y-99221149D01*
X144702107Y-99172216D01*
X144785426Y-99122392D01*
X144823782Y-99101481D01*
X144894242Y-99063055D01*
X144961842Y-99023301D01*
X144993335Y-99003216D01*
X145058422Y-98967515D01*
X145128282Y-98940239D01*
X145134221Y-98938561D01*
X145186544Y-98918574D01*
X145214856Y-98886164D01*
X145229124Y-98845722D01*
X145240059Y-98786150D01*
X145247449Y-98707299D01*
X145249457Y-98646000D01*
X145253242Y-98563106D01*
X145263099Y-98462243D01*
X145276998Y-98363668D01*
X145278847Y-98352923D01*
X145293524Y-98247473D01*
X145304144Y-98129109D01*
X145308459Y-98023033D01*
X145308466Y-98020769D01*
X145310960Y-97917293D01*
X145317194Y-97798905D01*
X145325882Y-97689444D01*
X145326945Y-97678846D01*
X145335442Y-97589164D01*
X145341770Y-97502601D01*
X145345989Y-97413201D01*
X145348163Y-97315012D01*
X145348352Y-97202080D01*
X145346618Y-97068452D01*
X145343023Y-96908173D01*
X145337629Y-96715291D01*
X145337117Y-96698105D01*
X145332643Y-96541620D01*
X145329807Y-96419365D01*
X145328759Y-96326521D01*
X145329647Y-96258269D01*
X145332620Y-96209791D01*
X145337829Y-96176266D01*
X145345421Y-96152878D01*
X145354505Y-96136374D01*
X145395188Y-96095575D01*
X145435936Y-96088635D01*
X145468442Y-96115300D01*
X145478744Y-96140192D01*
X145481797Y-96170419D01*
X145484548Y-96235526D01*
X145486941Y-96331316D01*
X145488917Y-96453593D01*
X145490419Y-96598160D01*
X145491390Y-96760820D01*
X145491773Y-96937378D01*
X145491624Y-97082923D01*
X145490844Y-97308017D01*
X145489563Y-97499276D01*
X145487604Y-97661942D01*
X145484790Y-97801255D01*
X145480945Y-97922456D01*
X145475893Y-98030786D01*
X145469455Y-98131486D01*
X145461457Y-98229796D01*
X145451720Y-98330959D01*
X145448511Y-98361912D01*
X145436513Y-98480985D01*
X145426868Y-98586356D01*
X145420045Y-98672030D01*
X145416512Y-98732011D01*
X145416739Y-98760305D01*
X145417254Y-98761612D01*
X145438458Y-98758980D01*
X145476789Y-98739424D01*
X145479906Y-98737457D01*
X145525935Y-98711237D01*
X145601621Y-98671895D01*
X145700990Y-98622356D01*
X145818068Y-98565545D01*
X145946881Y-98504385D01*
X146081456Y-98441802D01*
X146119259Y-98424466D01*
X146251027Y-98367141D01*
X146400249Y-98307056D01*
X146558039Y-98247379D01*
X146715509Y-98191279D01*
X146863772Y-98141926D01*
X146993943Y-98102489D01*
X147003223Y-98100110D01*
X147003223Y-98283017D01*
X146981979Y-98285878D01*
X146931187Y-98301444D01*
X146857305Y-98327237D01*
X146766792Y-98360779D01*
X146666107Y-98399591D01*
X146561707Y-98441196D01*
X146460053Y-98483115D01*
X146367602Y-98522870D01*
X146309156Y-98549324D01*
X146227819Y-98585797D01*
X146130504Y-98627368D01*
X146037764Y-98665264D01*
X146034555Y-98666534D01*
X145956379Y-98699951D01*
X145856950Y-98746110D01*
X145749209Y-98798840D01*
X145649014Y-98850418D01*
X145415616Y-98974180D01*
X145403320Y-99088513D01*
X145378018Y-99322869D01*
X145356302Y-99521882D01*
X145337768Y-99689080D01*
X145322011Y-99827991D01*
X145308626Y-99942145D01*
X145297206Y-100035070D01*
X145287349Y-100110295D01*
X145280295Y-100160230D01*
X145265708Y-100261280D01*
X145256751Y-100329915D01*
X145253080Y-100372335D01*
X145254349Y-100394743D01*
X145260215Y-100403340D01*
X145266710Y-100404461D01*
X145285043Y-100389757D01*
X145320330Y-100350221D01*
X145366671Y-100292717D01*
X145396884Y-100253038D01*
X145456124Y-100175916D01*
X145516705Y-100100766D01*
X145568457Y-100040085D01*
X145583656Y-100023461D01*
X145673198Y-99928205D01*
X145741092Y-99854802D01*
X145792828Y-99796989D01*
X145833896Y-99748502D01*
X145869785Y-99703079D01*
X145900466Y-99662000D01*
X145955592Y-99590888D01*
X146022841Y-99509804D01*
X146084349Y-99439975D01*
X146149670Y-99365624D01*
X146217583Y-99283390D01*
X146270220Y-99215283D01*
X146312729Y-99159457D01*
X146347502Y-99117622D01*
X146367221Y-99098567D01*
X146367540Y-99098424D01*
X146385085Y-99080184D01*
X146418287Y-99036928D01*
X146461394Y-98976331D01*
X146484737Y-98942116D01*
X146544802Y-98857926D01*
X146612558Y-98770641D01*
X146675106Y-98696748D01*
X146685810Y-98685076D01*
X146742886Y-98621279D01*
X146795494Y-98557873D01*
X146831788Y-98509230D01*
X146874297Y-98451896D01*
X146926994Y-98389033D01*
X146946296Y-98367935D01*
X146983086Y-98324684D01*
X147002679Y-98292840D01*
X147003223Y-98283017D01*
X147003223Y-98100110D01*
X147094345Y-98076743D01*
X147173420Y-98058634D01*
X147238231Y-98042364D01*
X147279053Y-98030439D01*
X147287149Y-98027071D01*
X147317425Y-98015386D01*
X147367361Y-98001751D01*
X147375375Y-97999897D01*
X147448434Y-97993849D01*
X147494447Y-98015510D01*
X147514729Y-98065707D01*
X147516000Y-98088271D01*
X147512884Y-98128713D01*
G37*
X147512884Y-98128713D02*
X147497075Y-98153523D01*
X147458887Y-98172789D01*
X147422766Y-98185365D01*
X147373864Y-98205966D01*
X147325386Y-98237465D01*
X147269965Y-98285792D01*
X147200234Y-98356878D01*
X147172032Y-98387205D01*
X147103642Y-98463677D01*
X147039925Y-98538969D01*
X146988813Y-98603479D01*
X146961938Y-98641491D01*
X146917109Y-98704008D01*
X146859614Y-98773225D01*
X146824742Y-98810721D01*
X146774410Y-98866730D01*
X146713119Y-98942117D01*
X146651463Y-99023664D01*
X146630236Y-99053384D01*
X146580554Y-99122357D01*
X146536936Y-99179420D01*
X146505556Y-99216668D01*
X146495396Y-99226076D01*
X146468602Y-99250855D01*
X146431617Y-99293758D01*
X146418733Y-99310307D01*
X146382212Y-99355227D01*
X146324295Y-99422464D01*
X146250428Y-99505941D01*
X146166062Y-99599579D01*
X146076644Y-99697299D01*
X145987623Y-99793025D01*
X145954594Y-99828076D01*
X145893825Y-99895143D01*
X145832663Y-99967136D01*
X145795718Y-100013692D01*
X145754904Y-100064956D01*
X145720564Y-100103323D01*
X145705788Y-100116427D01*
X145684357Y-100138245D01*
X145647204Y-100183860D01*
X145600938Y-100245004D01*
X145580804Y-100272734D01*
X145515970Y-100357229D01*
X145438059Y-100450274D01*
X145362438Y-100533620D01*
X145352301Y-100544097D01*
X145225284Y-100673964D01*
X145197849Y-100846943D01*
X145186284Y-100932250D01*
X145174043Y-101043347D01*
X145162448Y-101166998D01*
X145152821Y-101289967D01*
X145151269Y-101313000D01*
X145142960Y-101429085D01*
X145131644Y-101571456D01*
X145118387Y-101727535D01*
X145104254Y-101884743D01*
X145091706Y-102016384D01*
X145078996Y-102149095D01*
X145067311Y-102277995D01*
X145057369Y-102394610D01*
X145049890Y-102490464D01*
X145045592Y-102557082D01*
X145045291Y-102563461D01*
X145039207Y-102653783D01*
X145028979Y-102759919D01*
X145016806Y-102859123D01*
X145016612Y-102860497D01*
X145005778Y-102954205D01*
X144998565Y-103050345D01*
X144996421Y-103129208D01*
X144996508Y-103134036D01*
X144997742Y-103247383D01*
X144996829Y-103371638D01*
X144994066Y-103499900D01*
X144989748Y-103625268D01*
X144984169Y-103740845D01*
X144977626Y-103839729D01*
X144970412Y-103915021D01*
X144962824Y-103959821D01*
X144960947Y-103965346D01*
X144936621Y-104003350D01*
X144898364Y-104017758D01*
X144869710Y-104019076D01*
X144825801Y-104015157D01*
X144795836Y-103999730D01*
X144778184Y-103967289D01*
X144771215Y-103912329D01*
X144773295Y-103829345D01*
X144781876Y-103722697D01*
X144791306Y-103616061D01*
X144800208Y-103507171D01*
X144807342Y-103411603D01*
X144810412Y-103364538D01*
X144815082Y-103292172D01*
X144822015Y-103193308D01*
X144830315Y-103080399D01*
X144839083Y-102965896D01*
X144839999Y-102954230D01*
X144847959Y-102842782D01*
X144854303Y-102733994D01*
X144858447Y-102639403D01*
X144859809Y-102570545D01*
X144859742Y-102563461D01*
X144861251Y-102516504D01*
X144866347Y-102436075D01*
X144874583Y-102327572D01*
X144885514Y-102196390D01*
X144898693Y-102047927D01*
X144913673Y-101887579D01*
X144926747Y-101753439D01*
X144942756Y-101590596D01*
X144957445Y-101438064D01*
X144970369Y-101300708D01*
X144981083Y-101183395D01*
X144989141Y-101090992D01*
X144994097Y-101028363D01*
X144995539Y-101001875D01*
X144995539Y-100943104D01*
X144886088Y-101049898D01*
X144819421Y-101118355D01*
X144752023Y-101193030D01*
X144701183Y-101254384D01*
X144648615Y-101321001D01*
X144584929Y-101399681D01*
X144527317Y-101469307D01*
X144471229Y-101538454D01*
X144417859Y-101608155D01*
X144378543Y-101663593D01*
X144377822Y-101664692D01*
X144332394Y-101727775D01*
X144277355Y-101795790D01*
X144255077Y-101821000D01*
X144195471Y-101888721D01*
X144140235Y-101956256D01*
X144095111Y-102016062D01*
X144065840Y-102060595D01*
X144057693Y-102080321D01*
X144040776Y-102104640D01*
X144000069Y-102126626D01*
X143950634Y-102139773D01*
X143918955Y-102140241D01*
X143883693Y-102125763D01*
X143868140Y-102088092D01*
X143866092Y-102071949D01*
X143868250Y-102026543D01*
X143890838Y-101990242D01*
X143927531Y-101958856D01*
X143975921Y-101913394D01*
X144011813Y-101864791D01*
X144017100Y-101853968D01*
X144043743Y-101810092D01*
X144087986Y-101755669D01*
X144119525Y-101722830D01*
X144174438Y-101665025D01*
X144224696Y-101604494D01*
X144244597Y-101576769D01*
X144282109Y-101523273D01*
X144331879Y-101457022D01*
X144368418Y-101410692D01*
X144425735Y-101339029D01*
X144489585Y-101258016D01*
X144528878Y-101207508D01*
X144573836Y-101154016D01*
X144639138Y-101082415D01*
X144716653Y-101001358D01*
X144798251Y-100919499D01*
X144813449Y-100904662D01*
X144900091Y-100818785D01*
X144964301Y-100748025D01*
X145010174Y-100683489D01*
X145041807Y-100616289D01*
X145063298Y-100537532D01*
X145078742Y-100438329D01*
X145092235Y-100309789D01*
X145093445Y-100297000D01*
X145102423Y-100203035D01*
X145110779Y-100117934D01*
X145117425Y-100052649D01*
X145120612Y-100023461D01*
X145124409Y-99985879D01*
X145130806Y-99916604D01*
X145139160Y-99822887D01*
X145148822Y-99711976D01*
X145159147Y-99591121D01*
X145159211Y-99590371D01*
X145169704Y-99471833D01*
X145179999Y-99365453D01*
X145189384Y-99277853D01*
X145197147Y-99215653D01*
X145202578Y-99185474D01*
X145202767Y-99184948D01*
X145206958Y-99140225D01*
X145203130Y-99123997D01*
X145191840Y-99112406D01*
X145167384Y-99114666D01*
X145123353Y-99132827D01*
X145053337Y-99168939D01*
X145039847Y-99176221D01*
X144948031Y-99227626D01*
X144848487Y-99285930D01*
X144761559Y-99339196D01*
X144755399Y-99343113D01*
X144670935Y-99394711D01*
X144578726Y-99447534D01*
X144501399Y-99488764D01*
X144445780Y-99517473D01*
X144390322Y-99548028D01*
X144329416Y-99583896D01*
X144257449Y-99628541D01*
X144168812Y-99685428D01*
X144057892Y-99758022D01*
X143950231Y-99829147D01*
X143824342Y-99909490D01*
X143724989Y-99965773D01*
X143649078Y-99999418D01*
X143593519Y-100011845D01*
X143561924Y-100007571D01*
X143535473Y-99979957D01*
X143533124Y-99935816D01*
X143553711Y-99888428D01*
X143574387Y-99865792D01*
X143625386Y-99828852D01*
X143676964Y-99798801D01*
X143722101Y-99771418D01*
X143750493Y-99745736D01*
X143750933Y-99745070D01*
X143780354Y-99722694D01*
X143791866Y-99720615D01*
X143822972Y-99707255D01*
X143852539Y-99681538D01*
X143886962Y-99652239D01*
X143911154Y-99642461D01*
X143940112Y-99629067D01*
X143971626Y-99600687D01*
X144017285Y-99561688D01*
X144067462Y-99531817D01*
X144118058Y-99506228D01*
X144183718Y-99470241D01*
X144223770Y-99447171D01*
X144300510Y-99404213D01*
X144386871Y-99359064D01*
X144428924Y-99338356D01*
X144508260Y-99296408D01*
X144590653Y-99246655D01*
X144628397Y-99221149D01*
X144702107Y-99172216D01*
X144785426Y-99122392D01*
X144823782Y-99101481D01*
X144894242Y-99063055D01*
X144961842Y-99023301D01*
X144993335Y-99003216D01*
X145058422Y-98967515D01*
X145128282Y-98940239D01*
X145134221Y-98938561D01*
X145186544Y-98918574D01*
X145214856Y-98886164D01*
X145229124Y-98845722D01*
X145240059Y-98786150D01*
X145247449Y-98707299D01*
X145249457Y-98646000D01*
X145253242Y-98563106D01*
X145263099Y-98462243D01*
X145276998Y-98363668D01*
X145278847Y-98352923D01*
X145293524Y-98247473D01*
X145304144Y-98129109D01*
X145308459Y-98023033D01*
X145308466Y-98020769D01*
X145310960Y-97917293D01*
X145317194Y-97798905D01*
X145325882Y-97689444D01*
X145326945Y-97678846D01*
X145335442Y-97589164D01*
X145341770Y-97502601D01*
X145345989Y-97413201D01*
X145348163Y-97315012D01*
X145348352Y-97202080D01*
X145346618Y-97068452D01*
X145343023Y-96908173D01*
X145337629Y-96715291D01*
X145337117Y-96698105D01*
X145332643Y-96541620D01*
X145329807Y-96419365D01*
X145328759Y-96326521D01*
X145329647Y-96258269D01*
X145332620Y-96209791D01*
X145337829Y-96176266D01*
X145345421Y-96152878D01*
X145354505Y-96136374D01*
X145395188Y-96095575D01*
X145435936Y-96088635D01*
X145468442Y-96115300D01*
X145478744Y-96140192D01*
X145481797Y-96170419D01*
X145484548Y-96235526D01*
X145486941Y-96331316D01*
X145488917Y-96453593D01*
X145490419Y-96598160D01*
X145491390Y-96760820D01*
X145491773Y-96937378D01*
X145491624Y-97082923D01*
X145490844Y-97308017D01*
X145489563Y-97499276D01*
X145487604Y-97661942D01*
X145484790Y-97801255D01*
X145480945Y-97922456D01*
X145475893Y-98030786D01*
X145469455Y-98131486D01*
X145461457Y-98229796D01*
X145451720Y-98330959D01*
X145448511Y-98361912D01*
X145436513Y-98480985D01*
X145426868Y-98586356D01*
X145420045Y-98672030D01*
X145416512Y-98732011D01*
X145416739Y-98760305D01*
X145417254Y-98761612D01*
X145438458Y-98758980D01*
X145476789Y-98739424D01*
X145479906Y-98737457D01*
X145525935Y-98711237D01*
X145601621Y-98671895D01*
X145700990Y-98622356D01*
X145818068Y-98565545D01*
X145946881Y-98504385D01*
X146081456Y-98441802D01*
X146119259Y-98424466D01*
X146251027Y-98367141D01*
X146400249Y-98307056D01*
X146558039Y-98247379D01*
X146715509Y-98191279D01*
X146863772Y-98141926D01*
X146993943Y-98102489D01*
X147003223Y-98100110D01*
X147003223Y-98283017D01*
X146981979Y-98285878D01*
X146931187Y-98301444D01*
X146857305Y-98327237D01*
X146766792Y-98360779D01*
X146666107Y-98399591D01*
X146561707Y-98441196D01*
X146460053Y-98483115D01*
X146367602Y-98522870D01*
X146309156Y-98549324D01*
X146227819Y-98585797D01*
X146130504Y-98627368D01*
X146037764Y-98665264D01*
X146034555Y-98666534D01*
X145956379Y-98699951D01*
X145856950Y-98746110D01*
X145749209Y-98798840D01*
X145649014Y-98850418D01*
X145415616Y-98974180D01*
X145403320Y-99088513D01*
X145378018Y-99322869D01*
X145356302Y-99521882D01*
X145337768Y-99689080D01*
X145322011Y-99827991D01*
X145308626Y-99942145D01*
X145297206Y-100035070D01*
X145287349Y-100110295D01*
X145280295Y-100160230D01*
X145265708Y-100261280D01*
X145256751Y-100329915D01*
X145253080Y-100372335D01*
X145254349Y-100394743D01*
X145260215Y-100403340D01*
X145266710Y-100404461D01*
X145285043Y-100389757D01*
X145320330Y-100350221D01*
X145366671Y-100292717D01*
X145396884Y-100253038D01*
X145456124Y-100175916D01*
X145516705Y-100100766D01*
X145568457Y-100040085D01*
X145583656Y-100023461D01*
X145673198Y-99928205D01*
X145741092Y-99854802D01*
X145792828Y-99796989D01*
X145833896Y-99748502D01*
X145869785Y-99703079D01*
X145900466Y-99662000D01*
X145955592Y-99590888D01*
X146022841Y-99509804D01*
X146084349Y-99439975D01*
X146149670Y-99365624D01*
X146217583Y-99283390D01*
X146270220Y-99215283D01*
X146312729Y-99159457D01*
X146347502Y-99117622D01*
X146367221Y-99098567D01*
X146367540Y-99098424D01*
X146385085Y-99080184D01*
X146418287Y-99036928D01*
X146461394Y-98976331D01*
X146484737Y-98942116D01*
X146544802Y-98857926D01*
X146612558Y-98770641D01*
X146675106Y-98696748D01*
X146685810Y-98685076D01*
X146742886Y-98621279D01*
X146795494Y-98557873D01*
X146831788Y-98509230D01*
X146874297Y-98451896D01*
X146926994Y-98389033D01*
X146946296Y-98367935D01*
X146983086Y-98324684D01*
X147002679Y-98292840D01*
X147003223Y-98283017D01*
X147003223Y-98100110D01*
X147094345Y-98076743D01*
X147173420Y-98058634D01*
X147238231Y-98042364D01*
X147279053Y-98030439D01*
X147287149Y-98027071D01*
X147317425Y-98015386D01*
X147367361Y-98001751D01*
X147375375Y-97999897D01*
X147448434Y-97993849D01*
X147494447Y-98015510D01*
X147514729Y-98065707D01*
X147516000Y-98088271D01*
X147512884Y-98128713D01*
G36*
X146562847Y-100254362D02*
G01*
X146531395Y-100291382D01*
X146474113Y-100336651D01*
X146441385Y-100359353D01*
X146376024Y-100404239D01*
X146320030Y-100443774D01*
X146284143Y-100470356D01*
X146281109Y-100472797D01*
X146240031Y-100501251D01*
X146188301Y-100530988D01*
X146148256Y-100555575D01*
X146129058Y-100574987D01*
X146128770Y-100576596D01*
X146113643Y-100595564D01*
X146076729Y-100622106D01*
X146071779Y-100625085D01*
X146033151Y-100651920D01*
X145974375Y-100697472D01*
X145904548Y-100754545D01*
X145855071Y-100796542D01*
X145744888Y-100886917D01*
X145657409Y-100947995D01*
X145590770Y-100980869D01*
X145543106Y-100986630D01*
X145534623Y-100984231D01*
X145511146Y-100967462D01*
X145508321Y-100940459D01*
X145528105Y-100900013D01*
X145572458Y-100842916D01*
X145643337Y-100765960D01*
X145707873Y-100700464D01*
X145784218Y-100625986D01*
X145855121Y-100559888D01*
X145914067Y-100508025D01*
X145954543Y-100476254D01*
X145963132Y-100470969D01*
X146007409Y-100443222D01*
X146065694Y-100400689D01*
X146106421Y-100368171D01*
X146169235Y-100319730D01*
X146232623Y-100276838D01*
X146265539Y-100257878D01*
X146328197Y-100221002D01*
X146386575Y-100179149D01*
X146389153Y-100177020D01*
X146450304Y-100140412D01*
X146506783Y-100130941D01*
X146550629Y-100146812D01*
X146573884Y-100186231D01*
X146574834Y-100218893D01*
X146562847Y-100254362D01*
G37*
X146562847Y-100254362D02*
X146531395Y-100291382D01*
X146474113Y-100336651D01*
X146441385Y-100359353D01*
X146376024Y-100404239D01*
X146320030Y-100443774D01*
X146284143Y-100470356D01*
X146281109Y-100472797D01*
X146240031Y-100501251D01*
X146188301Y-100530988D01*
X146148256Y-100555575D01*
X146129058Y-100574987D01*
X146128770Y-100576596D01*
X146113643Y-100595564D01*
X146076729Y-100622106D01*
X146071779Y-100625085D01*
X146033151Y-100651920D01*
X145974375Y-100697472D01*
X145904548Y-100754545D01*
X145855071Y-100796542D01*
X145744888Y-100886917D01*
X145657409Y-100947995D01*
X145590770Y-100980869D01*
X145543106Y-100986630D01*
X145534623Y-100984231D01*
X145511146Y-100967462D01*
X145508321Y-100940459D01*
X145528105Y-100900013D01*
X145572458Y-100842916D01*
X145643337Y-100765960D01*
X145707873Y-100700464D01*
X145784218Y-100625986D01*
X145855121Y-100559888D01*
X145914067Y-100508025D01*
X145954543Y-100476254D01*
X145963132Y-100470969D01*
X146007409Y-100443222D01*
X146065694Y-100400689D01*
X146106421Y-100368171D01*
X146169235Y-100319730D01*
X146232623Y-100276838D01*
X146265539Y-100257878D01*
X146328197Y-100221002D01*
X146386575Y-100179149D01*
X146389153Y-100177020D01*
X146450304Y-100140412D01*
X146506783Y-100130941D01*
X146550629Y-100146812D01*
X146573884Y-100186231D01*
X146574834Y-100218893D01*
X146562847Y-100254362D01*
G36*
X146398723Y-102780482D02*
G01*
X146383840Y-102796954D01*
X146330099Y-102826594D01*
X146280879Y-102818553D01*
X146241957Y-102774208D01*
X146236198Y-102761779D01*
X146214682Y-102694114D01*
X146192470Y-102596196D01*
X146170877Y-102476799D01*
X146151218Y-102344695D01*
X146134807Y-102208658D01*
X146122958Y-102077460D01*
X146117185Y-101967460D01*
X146111306Y-101843683D01*
X146100991Y-101705673D01*
X146087892Y-101573434D01*
X146078455Y-101498537D01*
X146058030Y-101349523D01*
X146044082Y-101234437D01*
X146036413Y-101148701D01*
X146034824Y-101087741D01*
X146039119Y-101046980D01*
X146049099Y-101021843D01*
X146057429Y-101012606D01*
X146098828Y-100989644D01*
X146131210Y-100999379D01*
X146156537Y-101043824D01*
X146176770Y-101124989D01*
X146178927Y-101137170D01*
X146195995Y-101220438D01*
X146217036Y-101300835D01*
X146234927Y-101354069D01*
X146253754Y-101406642D01*
X146262685Y-101444243D01*
X146262547Y-101451761D01*
X146262678Y-101481304D01*
X146269483Y-101530488D01*
X146270829Y-101537692D01*
X146276555Y-101578637D01*
X146284469Y-101651016D01*
X146293838Y-101747293D01*
X146303928Y-101859933D01*
X146313677Y-101977307D01*
X146330615Y-102178399D01*
X146346606Y-102344331D01*
X146362114Y-102478993D01*
X146377603Y-102586276D01*
X146393539Y-102670071D01*
X146399260Y-102694377D01*
X146408040Y-102747421D01*
X146398723Y-102780482D01*
G37*
X146398723Y-102780482D02*
X146383840Y-102796954D01*
X146330099Y-102826594D01*
X146280879Y-102818553D01*
X146241957Y-102774208D01*
X146236198Y-102761779D01*
X146214682Y-102694114D01*
X146192470Y-102596196D01*
X146170877Y-102476799D01*
X146151218Y-102344695D01*
X146134807Y-102208658D01*
X146122958Y-102077460D01*
X146117185Y-101967460D01*
X146111306Y-101843683D01*
X146100991Y-101705673D01*
X146087892Y-101573434D01*
X146078455Y-101498537D01*
X146058030Y-101349523D01*
X146044082Y-101234437D01*
X146036413Y-101148701D01*
X146034824Y-101087741D01*
X146039119Y-101046980D01*
X146049099Y-101021843D01*
X146057429Y-101012606D01*
X146098828Y-100989644D01*
X146131210Y-100999379D01*
X146156537Y-101043824D01*
X146176770Y-101124989D01*
X146178927Y-101137170D01*
X146195995Y-101220438D01*
X146217036Y-101300835D01*
X146234927Y-101354069D01*
X146253754Y-101406642D01*
X146262685Y-101444243D01*
X146262547Y-101451761D01*
X146262678Y-101481304D01*
X146269483Y-101530488D01*
X146270829Y-101537692D01*
X146276555Y-101578637D01*
X146284469Y-101651016D01*
X146293838Y-101747293D01*
X146303928Y-101859933D01*
X146313677Y-101977307D01*
X146330615Y-102178399D01*
X146346606Y-102344331D01*
X146362114Y-102478993D01*
X146377603Y-102586276D01*
X146393539Y-102670071D01*
X146399260Y-102694377D01*
X146408040Y-102747421D01*
X146398723Y-102780482D01*
G36*
X148272836Y-102293448D02*
G01*
X148259140Y-102329431D01*
X148235239Y-102357546D01*
X148179828Y-102392485D01*
X148129636Y-102388814D01*
X148097181Y-102363192D01*
X148080148Y-102325784D01*
X148062444Y-102252991D01*
X148044570Y-102148488D01*
X148027025Y-102015950D01*
X148010309Y-101859051D01*
X147994922Y-101681467D01*
X147984365Y-101534016D01*
X147975591Y-101409188D01*
X147965609Y-101281907D01*
X147955443Y-101164370D01*
X147946117Y-101068776D01*
X147942857Y-101039461D01*
X147932760Y-100947144D01*
X147924166Y-100857272D01*
X147918563Y-100785723D01*
X147917715Y-100770768D01*
X147912944Y-100713912D01*
X147905967Y-100675205D01*
X147902299Y-100667016D01*
X147885023Y-100673965D01*
X147843169Y-100705591D01*
X147776088Y-100762460D01*
X147683133Y-100845134D01*
X147563658Y-100954178D01*
X147423803Y-101083826D01*
X147351764Y-101150714D01*
X147279891Y-101216999D01*
X147219939Y-101271856D01*
X147201451Y-101288604D01*
X147120142Y-101361902D01*
X147161051Y-101689143D01*
X147188568Y-101876115D01*
X147224840Y-102074081D01*
X147265845Y-102261791D01*
X147280826Y-102322125D01*
X147307766Y-102429595D01*
X147330748Y-102527058D01*
X147348060Y-102606788D01*
X147357990Y-102661058D01*
X147359693Y-102678015D01*
X147343733Y-102727387D01*
X147303074Y-102758149D01*
X147248547Y-102767957D01*
X147190982Y-102754469D01*
X147148466Y-102723703D01*
X147122290Y-102686243D01*
X147110578Y-102638012D01*
X147109359Y-102572280D01*
X147105341Y-102493831D01*
X147091748Y-102402068D01*
X147077240Y-102338769D01*
X147058513Y-102267566D01*
X147044348Y-102206962D01*
X147038191Y-102172692D01*
X147027791Y-102125602D01*
X147011629Y-102079206D01*
X146996526Y-102036201D01*
X146992559Y-102010822D01*
X146989708Y-101983285D01*
X146980845Y-101951617D01*
X146972163Y-101911366D01*
X146962776Y-101844736D01*
X146954392Y-101764352D01*
X146952551Y-101742310D01*
X146939616Y-101578231D01*
X146840145Y-101699615D01*
X146783985Y-101770703D01*
X146730274Y-101842966D01*
X146690151Y-101901392D01*
X146688477Y-101904038D01*
X146639399Y-101964641D01*
X146592848Y-101986369D01*
X146548942Y-101969174D01*
X146542985Y-101963630D01*
X146526695Y-101938539D01*
X146523527Y-101901355D01*
X146532549Y-101839726D01*
X146533328Y-101835653D01*
X146546783Y-101801343D01*
X146559975Y-101791692D01*
X146576110Y-101775846D01*
X146578154Y-101762384D01*
X146588494Y-101736380D01*
X146597296Y-101733076D01*
X146617042Y-101717204D01*
X146644210Y-101677251D01*
X146655389Y-101656725D01*
X146682399Y-101608627D01*
X146704190Y-101578098D01*
X146709517Y-101573686D01*
X146728780Y-101556237D01*
X146764855Y-101516818D01*
X146810019Y-101463878D01*
X146811105Y-101462567D01*
X146897516Y-101358134D01*
X146874764Y-101169490D01*
X146861097Y-101078001D01*
X146839983Y-100962598D01*
X146814139Y-100837099D01*
X146786284Y-100715322D01*
X146781981Y-100697750D01*
X146750230Y-100560516D01*
X146731646Y-100456158D01*
X146726221Y-100380766D01*
X146733949Y-100330426D01*
X146754820Y-100301226D01*
X146781192Y-100290417D01*
X146823647Y-100295086D01*
X146851069Y-100331209D01*
X146864095Y-100383372D01*
X146878771Y-100438442D01*
X146904685Y-100506506D01*
X146918830Y-100537410D01*
X146946391Y-100606585D01*
X146977082Y-100705105D01*
X147008398Y-100823650D01*
X147037833Y-100952896D01*
X147057729Y-101054331D01*
X147073018Y-101108015D01*
X147092776Y-101140106D01*
X147111780Y-101144474D01*
X147121406Y-101129090D01*
X147138534Y-101101396D01*
X147172994Y-101057242D01*
X147214979Y-101008285D01*
X147254683Y-100966181D01*
X147271770Y-100950360D01*
X147293737Y-100931297D01*
X147338118Y-100892429D01*
X147398023Y-100839799D01*
X147453139Y-100791279D01*
X147528724Y-100725722D01*
X147602692Y-100663356D01*
X147664722Y-100612796D01*
X147694114Y-100590076D01*
X147751577Y-100544987D01*
X147820892Y-100487074D01*
X147876094Y-100438653D01*
X147950375Y-100379003D01*
X148007871Y-100351227D01*
X148052927Y-100354332D01*
X148089890Y-100387322D01*
X148091363Y-100389393D01*
X148109100Y-100428134D01*
X148114376Y-100482554D01*
X148110039Y-100550585D01*
X148107761Y-100643725D01*
X148115780Y-100758876D01*
X148128544Y-100853846D01*
X148139118Y-100930158D01*
X148151188Y-101036408D01*
X148163861Y-101163528D01*
X148176248Y-101302452D01*
X148187457Y-101444112D01*
X148189984Y-101479076D01*
X148200553Y-101616857D01*
X148212350Y-101751239D01*
X148224539Y-101873953D01*
X148236280Y-101976729D01*
X148246738Y-102051297D01*
X148249547Y-102067180D01*
X148267658Y-102170079D01*
X148275548Y-102242916D01*
X148272836Y-102293448D01*
G37*
X148272836Y-102293448D02*
X148259140Y-102329431D01*
X148235239Y-102357546D01*
X148179828Y-102392485D01*
X148129636Y-102388814D01*
X148097181Y-102363192D01*
X148080148Y-102325784D01*
X148062444Y-102252991D01*
X148044570Y-102148488D01*
X148027025Y-102015950D01*
X148010309Y-101859051D01*
X147994922Y-101681467D01*
X147984365Y-101534016D01*
X147975591Y-101409188D01*
X147965609Y-101281907D01*
X147955443Y-101164370D01*
X147946117Y-101068776D01*
X147942857Y-101039461D01*
X147932760Y-100947144D01*
X147924166Y-100857272D01*
X147918563Y-100785723D01*
X147917715Y-100770768D01*
X147912944Y-100713912D01*
X147905967Y-100675205D01*
X147902299Y-100667016D01*
X147885023Y-100673965D01*
X147843169Y-100705591D01*
X147776088Y-100762460D01*
X147683133Y-100845134D01*
X147563658Y-100954178D01*
X147423803Y-101083826D01*
X147351764Y-101150714D01*
X147279891Y-101216999D01*
X147219939Y-101271856D01*
X147201451Y-101288604D01*
X147120142Y-101361902D01*
X147161051Y-101689143D01*
X147188568Y-101876115D01*
X147224840Y-102074081D01*
X147265845Y-102261791D01*
X147280826Y-102322125D01*
X147307766Y-102429595D01*
X147330748Y-102527058D01*
X147348060Y-102606788D01*
X147357990Y-102661058D01*
X147359693Y-102678015D01*
X147343733Y-102727387D01*
X147303074Y-102758149D01*
X147248547Y-102767957D01*
X147190982Y-102754469D01*
X147148466Y-102723703D01*
X147122290Y-102686243D01*
X147110578Y-102638012D01*
X147109359Y-102572280D01*
X147105341Y-102493831D01*
X147091748Y-102402068D01*
X147077240Y-102338769D01*
X147058513Y-102267566D01*
X147044348Y-102206962D01*
X147038191Y-102172692D01*
X147027791Y-102125602D01*
X147011629Y-102079206D01*
X146996526Y-102036201D01*
X146992559Y-102010822D01*
X146989708Y-101983285D01*
X146980845Y-101951617D01*
X146972163Y-101911366D01*
X146962776Y-101844736D01*
X146954392Y-101764352D01*
X146952551Y-101742310D01*
X146939616Y-101578231D01*
X146840145Y-101699615D01*
X146783985Y-101770703D01*
X146730274Y-101842966D01*
X146690151Y-101901392D01*
X146688477Y-101904038D01*
X146639399Y-101964641D01*
X146592848Y-101986369D01*
X146548942Y-101969174D01*
X146542985Y-101963630D01*
X146526695Y-101938539D01*
X146523527Y-101901355D01*
X146532549Y-101839726D01*
X146533328Y-101835653D01*
X146546783Y-101801343D01*
X146559975Y-101791692D01*
X146576110Y-101775846D01*
X146578154Y-101762384D01*
X146588494Y-101736380D01*
X146597296Y-101733076D01*
X146617042Y-101717204D01*
X146644210Y-101677251D01*
X146655389Y-101656725D01*
X146682399Y-101608627D01*
X146704190Y-101578098D01*
X146709517Y-101573686D01*
X146728780Y-101556237D01*
X146764855Y-101516818D01*
X146810019Y-101463878D01*
X146811105Y-101462567D01*
X146897516Y-101358134D01*
X146874764Y-101169490D01*
X146861097Y-101078001D01*
X146839983Y-100962598D01*
X146814139Y-100837099D01*
X146786284Y-100715322D01*
X146781981Y-100697750D01*
X146750230Y-100560516D01*
X146731646Y-100456158D01*
X146726221Y-100380766D01*
X146733949Y-100330426D01*
X146754820Y-100301226D01*
X146781192Y-100290417D01*
X146823647Y-100295086D01*
X146851069Y-100331209D01*
X146864095Y-100383372D01*
X146878771Y-100438442D01*
X146904685Y-100506506D01*
X146918830Y-100537410D01*
X146946391Y-100606585D01*
X146977082Y-100705105D01*
X147008398Y-100823650D01*
X147037833Y-100952896D01*
X147057729Y-101054331D01*
X147073018Y-101108015D01*
X147092776Y-101140106D01*
X147111780Y-101144474D01*
X147121406Y-101129090D01*
X147138534Y-101101396D01*
X147172994Y-101057242D01*
X147214979Y-101008285D01*
X147254683Y-100966181D01*
X147271770Y-100950360D01*
X147293737Y-100931297D01*
X147338118Y-100892429D01*
X147398023Y-100839799D01*
X147453139Y-100791279D01*
X147528724Y-100725722D01*
X147602692Y-100663356D01*
X147664722Y-100612796D01*
X147694114Y-100590076D01*
X147751577Y-100544987D01*
X147820892Y-100487074D01*
X147876094Y-100438653D01*
X147950375Y-100379003D01*
X148007871Y-100351227D01*
X148052927Y-100354332D01*
X148089890Y-100387322D01*
X148091363Y-100389393D01*
X148109100Y-100428134D01*
X148114376Y-100482554D01*
X148110039Y-100550585D01*
X148107761Y-100643725D01*
X148115780Y-100758876D01*
X148128544Y-100853846D01*
X148139118Y-100930158D01*
X148151188Y-101036408D01*
X148163861Y-101163528D01*
X148176248Y-101302452D01*
X148187457Y-101444112D01*
X148189984Y-101479076D01*
X148200553Y-101616857D01*
X148212350Y-101751239D01*
X148224539Y-101873953D01*
X148236280Y-101976729D01*
X148246738Y-102051297D01*
X148249547Y-102067180D01*
X148267658Y-102170079D01*
X148275548Y-102242916D01*
X148272836Y-102293448D01*
G36*
X147700169Y-104011438D02*
G01*
X147670682Y-104043287D01*
X147633081Y-104075516D01*
X147578833Y-104124671D01*
X147519311Y-104180436D01*
X147516000Y-104183595D01*
X147454657Y-104239519D01*
X147395582Y-104288932D01*
X147351198Y-104321462D01*
X147349924Y-104322253D01*
X147299072Y-104356012D01*
X147270574Y-104386835D01*
X147261807Y-104424979D01*
X147270151Y-104480698D01*
X147290373Y-104555219D01*
X147315579Y-104631428D01*
X147343033Y-104697120D01*
X147367251Y-104739360D01*
X147369673Y-104742232D01*
X147394203Y-104780071D01*
X147388159Y-104812968D01*
X147386085Y-104816412D01*
X147347594Y-104852641D01*
X147304707Y-104855108D01*
X147263526Y-104827690D01*
X147230155Y-104774266D01*
X147211609Y-104705557D01*
X147196760Y-104630709D01*
X147176311Y-104563038D01*
X147153957Y-104512401D01*
X147133394Y-104488657D01*
X147130061Y-104488000D01*
X147107774Y-104500938D01*
X147069860Y-104533846D01*
X147047077Y-104556384D01*
X147003282Y-104596530D01*
X146967035Y-104621127D01*
X146955322Y-104624769D01*
X146931400Y-104612735D01*
X146935248Y-104579554D01*
X146965046Y-104529601D01*
X147018975Y-104467254D01*
X147022109Y-104464055D01*
X147114372Y-104370384D01*
X147078900Y-104304517D01*
X147038450Y-104247173D01*
X146989061Y-104198490D01*
X146986638Y-104196663D01*
X146940945Y-104151964D01*
X146933107Y-104112176D01*
X146957847Y-104078777D01*
X146996096Y-104070074D01*
X147044462Y-104094591D01*
X147098581Y-104149254D01*
X147139249Y-104206487D01*
X147172697Y-104255120D01*
X147199398Y-104286337D01*
X147209104Y-104292580D01*
X147236695Y-104280261D01*
X147285117Y-104247314D01*
X147346703Y-104199851D01*
X147413791Y-104143984D01*
X147478715Y-104085825D01*
X147525035Y-104040636D01*
X147596669Y-103975426D01*
X147651107Y-103944984D01*
X147688720Y-103949170D01*
X147705487Y-103973274D01*
X147700169Y-104011438D01*
G37*
X147700169Y-104011438D02*
X147670682Y-104043287D01*
X147633081Y-104075516D01*
X147578833Y-104124671D01*
X147519311Y-104180436D01*
X147516000Y-104183595D01*
X147454657Y-104239519D01*
X147395582Y-104288932D01*
X147351198Y-104321462D01*
X147349924Y-104322253D01*
X147299072Y-104356012D01*
X147270574Y-104386835D01*
X147261807Y-104424979D01*
X147270151Y-104480698D01*
X147290373Y-104555219D01*
X147315579Y-104631428D01*
X147343033Y-104697120D01*
X147367251Y-104739360D01*
X147369673Y-104742232D01*
X147394203Y-104780071D01*
X147388159Y-104812968D01*
X147386085Y-104816412D01*
X147347594Y-104852641D01*
X147304707Y-104855108D01*
X147263526Y-104827690D01*
X147230155Y-104774266D01*
X147211609Y-104705557D01*
X147196760Y-104630709D01*
X147176311Y-104563038D01*
X147153957Y-104512401D01*
X147133394Y-104488657D01*
X147130061Y-104488000D01*
X147107774Y-104500938D01*
X147069860Y-104533846D01*
X147047077Y-104556384D01*
X147003282Y-104596530D01*
X146967035Y-104621127D01*
X146955322Y-104624769D01*
X146931400Y-104612735D01*
X146935248Y-104579554D01*
X146965046Y-104529601D01*
X147018975Y-104467254D01*
X147022109Y-104464055D01*
X147114372Y-104370384D01*
X147078900Y-104304517D01*
X147038450Y-104247173D01*
X146989061Y-104198490D01*
X146986638Y-104196663D01*
X146940945Y-104151964D01*
X146933107Y-104112176D01*
X146957847Y-104078777D01*
X146996096Y-104070074D01*
X147044462Y-104094591D01*
X147098581Y-104149254D01*
X147139249Y-104206487D01*
X147172697Y-104255120D01*
X147199398Y-104286337D01*
X147209104Y-104292580D01*
X147236695Y-104280261D01*
X147285117Y-104247314D01*
X147346703Y-104199851D01*
X147413791Y-104143984D01*
X147478715Y-104085825D01*
X147525035Y-104040636D01*
X147596669Y-103975426D01*
X147651107Y-103944984D01*
X147688720Y-103949170D01*
X147705487Y-103973274D01*
X147700169Y-104011438D01*
G36*
X148301470Y-104702071D02*
G01*
X148287483Y-104702923D01*
X148235556Y-104684373D01*
X148204444Y-104647702D01*
X148163528Y-104587660D01*
X148118790Y-104531965D01*
X148078088Y-104489490D01*
X148049285Y-104469106D01*
X148045638Y-104468461D01*
X148028128Y-104484339D01*
X147996516Y-104527239D01*
X147955745Y-104590062D01*
X147922658Y-104645078D01*
X147872201Y-104728426D01*
X147834929Y-104781516D01*
X147806851Y-104809191D01*
X147783973Y-104816292D01*
X147781698Y-104816040D01*
X147748332Y-104802708D01*
X147739431Y-104790846D01*
X147747499Y-104767541D01*
X147772660Y-104718406D01*
X147811030Y-104650580D01*
X147858727Y-104571202D01*
X147860016Y-104569115D01*
X147908355Y-104489020D01*
X147947990Y-104419836D01*
X147974863Y-104368891D01*
X147984921Y-104343512D01*
X147984924Y-104343371D01*
X147971850Y-104316890D01*
X147938633Y-104276222D01*
X147916539Y-104253538D01*
X147865056Y-104189950D01*
X147850454Y-104136550D01*
X147871504Y-104094881D01*
X147926978Y-104066482D01*
X148015649Y-104052897D01*
X148042007Y-104052624D01*
X148042007Y-104170123D01*
X148014139Y-104181279D01*
X148020586Y-104199318D01*
X148032118Y-104211413D01*
X148062893Y-104230607D01*
X148084682Y-104220211D01*
X148098164Y-104190326D01*
X148080890Y-104170448D01*
X148042007Y-104170123D01*
X148042007Y-104052624D01*
X148076888Y-104052262D01*
X148146821Y-104057526D01*
X148203144Y-104067737D01*
X148230594Y-104078887D01*
X148250585Y-104108720D01*
X148258374Y-104145013D01*
X148251915Y-104171225D01*
X148242521Y-104175384D01*
X148222211Y-104191627D01*
X148195231Y-104231894D01*
X148168288Y-104283496D01*
X148148094Y-104333742D01*
X148141231Y-104366970D01*
X148153865Y-104400272D01*
X148187142Y-104450849D01*
X148234125Y-104508290D01*
X148238924Y-104513587D01*
X148300733Y-104589239D01*
X148332007Y-104646832D01*
X148332376Y-104684924D01*
X148301470Y-104702071D01*
G37*
X148301470Y-104702071D02*
X148287483Y-104702923D01*
X148235556Y-104684373D01*
X148204444Y-104647702D01*
X148163528Y-104587660D01*
X148118790Y-104531965D01*
X148078088Y-104489490D01*
X148049285Y-104469106D01*
X148045638Y-104468461D01*
X148028128Y-104484339D01*
X147996516Y-104527239D01*
X147955745Y-104590062D01*
X147922658Y-104645078D01*
X147872201Y-104728426D01*
X147834929Y-104781516D01*
X147806851Y-104809191D01*
X147783973Y-104816292D01*
X147781698Y-104816040D01*
X147748332Y-104802708D01*
X147739431Y-104790846D01*
X147747499Y-104767541D01*
X147772660Y-104718406D01*
X147811030Y-104650580D01*
X147858727Y-104571202D01*
X147860016Y-104569115D01*
X147908355Y-104489020D01*
X147947990Y-104419836D01*
X147974863Y-104368891D01*
X147984921Y-104343512D01*
X147984924Y-104343371D01*
X147971850Y-104316890D01*
X147938633Y-104276222D01*
X147916539Y-104253538D01*
X147865056Y-104189950D01*
X147850454Y-104136550D01*
X147871504Y-104094881D01*
X147926978Y-104066482D01*
X148015649Y-104052897D01*
X148042007Y-104052624D01*
X148042007Y-104170123D01*
X148014139Y-104181279D01*
X148020586Y-104199318D01*
X148032118Y-104211413D01*
X148062893Y-104230607D01*
X148084682Y-104220211D01*
X148098164Y-104190326D01*
X148080890Y-104170448D01*
X148042007Y-104170123D01*
X148042007Y-104052624D01*
X148076888Y-104052262D01*
X148146821Y-104057526D01*
X148203144Y-104067737D01*
X148230594Y-104078887D01*
X148250585Y-104108720D01*
X148258374Y-104145013D01*
X148251915Y-104171225D01*
X148242521Y-104175384D01*
X148222211Y-104191627D01*
X148195231Y-104231894D01*
X148168288Y-104283496D01*
X148148094Y-104333742D01*
X148141231Y-104366970D01*
X148153865Y-104400272D01*
X148187142Y-104450849D01*
X148234125Y-104508290D01*
X148238924Y-104513587D01*
X148300733Y-104589239D01*
X148332007Y-104646832D01*
X148332376Y-104684924D01*
X148301470Y-104702071D01*
G36*
X149812441Y-101170532D02*
G01*
X149785727Y-101240937D01*
X149742272Y-101341874D01*
X149682947Y-101471396D01*
X149608625Y-101627556D01*
X149520179Y-101808406D01*
X149504287Y-101840488D01*
X149452547Y-101945967D01*
X149402760Y-102049620D01*
X149359562Y-102141651D01*
X149327585Y-102212266D01*
X149319419Y-102231257D01*
X149289153Y-102302183D01*
X149249399Y-102393603D01*
X149206752Y-102490398D01*
X149187270Y-102534153D01*
X149141058Y-102638042D01*
X149090192Y-102753224D01*
X149043499Y-102859686D01*
X149029973Y-102890730D01*
X148994990Y-102969893D01*
X148969767Y-103019844D01*
X148948710Y-103047307D01*
X148926222Y-103059003D01*
X148896706Y-103061655D01*
X148887641Y-103061692D01*
X148819169Y-103048842D01*
X148780189Y-103010999D01*
X148771063Y-102949220D01*
X148792157Y-102864562D01*
X148807299Y-102828514D01*
X148834729Y-102767787D01*
X148857353Y-102716327D01*
X148864154Y-102700230D01*
X148881601Y-102659083D01*
X148907113Y-102600418D01*
X148919092Y-102573230D01*
X148943876Y-102516309D01*
X148978145Y-102436393D01*
X149016315Y-102346542D01*
X149036300Y-102299159D01*
X149070479Y-102221258D01*
X149117878Y-102117907D01*
X149174070Y-101998521D01*
X149234626Y-101872512D01*
X149292218Y-101755135D01*
X149345988Y-101645522D01*
X149393218Y-101546789D01*
X149431286Y-101464626D01*
X149457565Y-101404722D01*
X149469431Y-101372769D01*
X149469847Y-101370068D01*
X149462922Y-101356482D01*
X149437050Y-101358468D01*
X149384588Y-101376828D01*
X149377039Y-101379813D01*
X149284804Y-101418764D01*
X149187281Y-101463615D01*
X149096266Y-101508630D01*
X149023558Y-101548078D01*
X148996499Y-101564754D01*
X148937520Y-101597513D01*
X148855540Y-101635026D01*
X148764081Y-101671922D01*
X148676661Y-101702833D01*
X148606800Y-101722390D01*
X148593100Y-101724964D01*
X148534348Y-101726673D01*
X148490510Y-101705441D01*
X148478270Y-101694743D01*
X148446247Y-101654726D01*
X148437926Y-101609806D01*
X148452002Y-101547676D01*
X148460218Y-101524326D01*
X148485219Y-101473106D01*
X148524390Y-101409370D01*
X148551539Y-101370847D01*
X148598584Y-101307555D01*
X148643642Y-101246134D01*
X148663875Y-101218135D01*
X148721119Y-101141059D01*
X148803304Y-101034977D01*
X148909926Y-100900538D01*
X148915068Y-100894110D01*
X148965207Y-100824958D01*
X149012822Y-100748999D01*
X149030215Y-100717108D01*
X149069225Y-100649375D01*
X149119771Y-100573339D01*
X149151668Y-100530305D01*
X149198774Y-100468098D01*
X149257058Y-100388087D01*
X149315904Y-100304906D01*
X149331514Y-100282346D01*
X149383774Y-100209017D01*
X149422070Y-100163312D01*
X149452518Y-100139332D01*
X149481236Y-100131180D01*
X149488524Y-100130923D01*
X149543216Y-100146131D01*
X149573478Y-100187826D01*
X149576756Y-100250114D01*
X149562305Y-100301131D01*
X149534769Y-100357378D01*
X149490904Y-100433663D01*
X149437827Y-100518763D01*
X149382653Y-100601454D01*
X149332500Y-100670512D01*
X149312099Y-100695755D01*
X149281391Y-100738947D01*
X149243673Y-100801832D01*
X149216129Y-100853287D01*
X149177455Y-100919291D01*
X149122272Y-101000300D01*
X149060297Y-101082346D01*
X149036683Y-101111254D01*
X148931876Y-101243168D01*
X148858055Y-101351957D01*
X148828804Y-101405820D01*
X148834906Y-101413920D01*
X148864477Y-101404438D01*
X148908379Y-101381328D01*
X148952077Y-101352515D01*
X148999914Y-101323501D01*
X149074874Y-101284762D01*
X149168959Y-101239785D01*
X149274171Y-101192056D01*
X149382513Y-101145063D01*
X149485987Y-101102291D01*
X149576597Y-101067230D01*
X149646343Y-101043364D01*
X149680757Y-101034817D01*
X149745096Y-101039794D01*
X149795149Y-101070115D01*
X149820357Y-101118444D01*
X149821539Y-101132608D01*
X149812441Y-101170532D01*
G37*
X149812441Y-101170532D02*
X149785727Y-101240937D01*
X149742272Y-101341874D01*
X149682947Y-101471396D01*
X149608625Y-101627556D01*
X149520179Y-101808406D01*
X149504287Y-101840488D01*
X149452547Y-101945967D01*
X149402760Y-102049620D01*
X149359562Y-102141651D01*
X149327585Y-102212266D01*
X149319419Y-102231257D01*
X149289153Y-102302183D01*
X149249399Y-102393603D01*
X149206752Y-102490398D01*
X149187270Y-102534153D01*
X149141058Y-102638042D01*
X149090192Y-102753224D01*
X149043499Y-102859686D01*
X149029973Y-102890730D01*
X148994990Y-102969893D01*
X148969767Y-103019844D01*
X148948710Y-103047307D01*
X148926222Y-103059003D01*
X148896706Y-103061655D01*
X148887641Y-103061692D01*
X148819169Y-103048842D01*
X148780189Y-103010999D01*
X148771063Y-102949220D01*
X148792157Y-102864562D01*
X148807299Y-102828514D01*
X148834729Y-102767787D01*
X148857353Y-102716327D01*
X148864154Y-102700230D01*
X148881601Y-102659083D01*
X148907113Y-102600418D01*
X148919092Y-102573230D01*
X148943876Y-102516309D01*
X148978145Y-102436393D01*
X149016315Y-102346542D01*
X149036300Y-102299159D01*
X149070479Y-102221258D01*
X149117878Y-102117907D01*
X149174070Y-101998521D01*
X149234626Y-101872512D01*
X149292218Y-101755135D01*
X149345988Y-101645522D01*
X149393218Y-101546789D01*
X149431286Y-101464626D01*
X149457565Y-101404722D01*
X149469431Y-101372769D01*
X149469847Y-101370068D01*
X149462922Y-101356482D01*
X149437050Y-101358468D01*
X149384588Y-101376828D01*
X149377039Y-101379813D01*
X149284804Y-101418764D01*
X149187281Y-101463615D01*
X149096266Y-101508630D01*
X149023558Y-101548078D01*
X148996499Y-101564754D01*
X148937520Y-101597513D01*
X148855540Y-101635026D01*
X148764081Y-101671922D01*
X148676661Y-101702833D01*
X148606800Y-101722390D01*
X148593100Y-101724964D01*
X148534348Y-101726673D01*
X148490510Y-101705441D01*
X148478270Y-101694743D01*
X148446247Y-101654726D01*
X148437926Y-101609806D01*
X148452002Y-101547676D01*
X148460218Y-101524326D01*
X148485219Y-101473106D01*
X148524390Y-101409370D01*
X148551539Y-101370847D01*
X148598584Y-101307555D01*
X148643642Y-101246134D01*
X148663875Y-101218135D01*
X148721119Y-101141059D01*
X148803304Y-101034977D01*
X148909926Y-100900538D01*
X148915068Y-100894110D01*
X148965207Y-100824958D01*
X149012822Y-100748999D01*
X149030215Y-100717108D01*
X149069225Y-100649375D01*
X149119771Y-100573339D01*
X149151668Y-100530305D01*
X149198774Y-100468098D01*
X149257058Y-100388087D01*
X149315904Y-100304906D01*
X149331514Y-100282346D01*
X149383774Y-100209017D01*
X149422070Y-100163312D01*
X149452518Y-100139332D01*
X149481236Y-100131180D01*
X149488524Y-100130923D01*
X149543216Y-100146131D01*
X149573478Y-100187826D01*
X149576756Y-100250114D01*
X149562305Y-100301131D01*
X149534769Y-100357378D01*
X149490904Y-100433663D01*
X149437827Y-100518763D01*
X149382653Y-100601454D01*
X149332500Y-100670512D01*
X149312099Y-100695755D01*
X149281391Y-100738947D01*
X149243673Y-100801832D01*
X149216129Y-100853287D01*
X149177455Y-100919291D01*
X149122272Y-101000300D01*
X149060297Y-101082346D01*
X149036683Y-101111254D01*
X148931876Y-101243168D01*
X148858055Y-101351957D01*
X148828804Y-101405820D01*
X148834906Y-101413920D01*
X148864477Y-101404438D01*
X148908379Y-101381328D01*
X148952077Y-101352515D01*
X148999914Y-101323501D01*
X149074874Y-101284762D01*
X149168959Y-101239785D01*
X149274171Y-101192056D01*
X149382513Y-101145063D01*
X149485987Y-101102291D01*
X149576597Y-101067230D01*
X149646343Y-101043364D01*
X149680757Y-101034817D01*
X149745096Y-101039794D01*
X149795149Y-101070115D01*
X149820357Y-101118444D01*
X149821539Y-101132608D01*
X149812441Y-101170532D01*
G36*
X149173958Y-104051808D02*
G01*
X149126195Y-104114800D01*
X149095991Y-104149824D01*
X149051384Y-104202676D01*
X149013870Y-104254244D01*
X148979239Y-104312235D01*
X148943279Y-104384355D01*
X148901779Y-104478308D01*
X148855118Y-104590576D01*
X148817640Y-104670138D01*
X148782954Y-104713197D01*
X148746791Y-104721681D01*
X148704887Y-104697523D01*
X148677693Y-104670856D01*
X148614975Y-104582158D01*
X148556306Y-104456471D01*
X148502538Y-104295751D01*
X148483847Y-104226976D01*
X148459365Y-104131173D01*
X148444190Y-104066938D01*
X148438017Y-104027965D01*
X148440542Y-104007946D01*
X148451461Y-104000572D01*
X148470471Y-103999536D01*
X148472883Y-103999538D01*
X148497939Y-104005958D01*
X148521419Y-104028460D01*
X148545787Y-104071909D01*
X148573505Y-104141169D01*
X148607036Y-104241105D01*
X148626223Y-104302384D01*
X148654105Y-104387988D01*
X148681051Y-104462459D01*
X148703336Y-104515905D01*
X148713791Y-104535005D01*
X148728691Y-104550944D01*
X148742142Y-104548595D01*
X148758481Y-104522583D01*
X148782045Y-104467531D01*
X148795345Y-104433934D01*
X148833272Y-104350507D01*
X148879211Y-104268021D01*
X148920381Y-104208129D01*
X148971983Y-104143792D01*
X149023724Y-104078449D01*
X149045718Y-104050315D01*
X149101268Y-103995832D01*
X149148295Y-103980000D01*
X149184183Y-103987086D01*
X149193012Y-104010129D01*
X149173958Y-104051808D01*
G37*
X149173958Y-104051808D02*
X149126195Y-104114800D01*
X149095991Y-104149824D01*
X149051384Y-104202676D01*
X149013870Y-104254244D01*
X148979239Y-104312235D01*
X148943279Y-104384355D01*
X148901779Y-104478308D01*
X148855118Y-104590576D01*
X148817640Y-104670138D01*
X148782954Y-104713197D01*
X148746791Y-104721681D01*
X148704887Y-104697523D01*
X148677693Y-104670856D01*
X148614975Y-104582158D01*
X148556306Y-104456471D01*
X148502538Y-104295751D01*
X148483847Y-104226976D01*
X148459365Y-104131173D01*
X148444190Y-104066938D01*
X148438017Y-104027965D01*
X148440542Y-104007946D01*
X148451461Y-104000572D01*
X148470471Y-103999536D01*
X148472883Y-103999538D01*
X148497939Y-104005958D01*
X148521419Y-104028460D01*
X148545787Y-104071909D01*
X148573505Y-104141169D01*
X148607036Y-104241105D01*
X148626223Y-104302384D01*
X148654105Y-104387988D01*
X148681051Y-104462459D01*
X148703336Y-104515905D01*
X148713791Y-104535005D01*
X148728691Y-104550944D01*
X148742142Y-104548595D01*
X148758481Y-104522583D01*
X148782045Y-104467531D01*
X148795345Y-104433934D01*
X148833272Y-104350507D01*
X148879211Y-104268021D01*
X148920381Y-104208129D01*
X148971983Y-104143792D01*
X149023724Y-104078449D01*
X149045718Y-104050315D01*
X149101268Y-103995832D01*
X149148295Y-103980000D01*
X149184183Y-103987086D01*
X149193012Y-104010129D01*
X149173958Y-104051808D01*
G36*
X149362574Y-104778618D02*
G01*
X149317451Y-104812186D01*
X149274699Y-104820153D01*
X149224806Y-104804521D01*
X149189552Y-104765855D01*
X149174225Y-104716497D01*
X149184113Y-104668792D01*
X149201193Y-104648556D01*
X149258452Y-104621676D01*
X149316783Y-104625934D01*
X149363198Y-104659490D01*
X149371680Y-104672729D01*
X149382994Y-104728568D01*
X149362574Y-104778618D01*
G37*
X149362574Y-104778618D02*
X149317451Y-104812186D01*
X149274699Y-104820153D01*
X149224806Y-104804521D01*
X149189552Y-104765855D01*
X149174225Y-104716497D01*
X149184113Y-104668792D01*
X149201193Y-104648556D01*
X149258452Y-104621676D01*
X149316783Y-104625934D01*
X149363198Y-104659490D01*
X149371680Y-104672729D01*
X149382994Y-104728568D01*
X149362574Y-104778618D01*
G36*
X150428580Y-104599933D02*
G01*
X150377997Y-104635467D01*
X150301006Y-104672840D01*
X150203587Y-104709284D01*
X150091725Y-104742030D01*
X150051870Y-104751736D01*
X149975127Y-104768660D01*
X149925651Y-104776106D01*
X149892827Y-104774196D01*
X149866042Y-104763053D01*
X149851600Y-104754059D01*
X149816116Y-104721879D01*
X149802000Y-104692090D01*
X149817294Y-104660239D01*
X149852138Y-104648972D01*
X149888465Y-104662635D01*
X149918110Y-104674548D01*
X149962272Y-104665362D01*
X149983523Y-104657046D01*
X150031621Y-104632854D01*
X150062427Y-104609908D01*
X150064862Y-104606699D01*
X150064863Y-104579546D01*
X150053462Y-104525248D01*
X150032868Y-104453290D01*
X150020004Y-104414205D01*
X149975790Y-104254356D01*
X149940593Y-104059654D01*
X149929422Y-103974682D01*
X149902863Y-103780159D01*
X149874068Y-103623699D01*
X149842835Y-103504343D01*
X149815544Y-103434070D01*
X149796638Y-103403877D01*
X149769940Y-103390549D01*
X149722348Y-103389276D01*
X149697757Y-103390829D01*
X149626392Y-103390106D01*
X149579435Y-103373575D01*
X149566257Y-103363378D01*
X149533682Y-103325919D01*
X149534710Y-103298686D01*
X149552885Y-103282883D01*
X149585729Y-103273141D01*
X149641717Y-103265920D01*
X149675000Y-103263969D01*
X149740941Y-103260824D01*
X149829447Y-103255430D01*
X149924146Y-103248807D01*
X149949215Y-103246896D01*
X150035349Y-103241172D01*
X150091230Y-103240745D01*
X150125422Y-103246430D01*
X150146491Y-103259041D01*
X150153236Y-103266295D01*
X150173028Y-103307742D01*
X150156360Y-103338600D01*
X150104664Y-103357818D01*
X150019406Y-103364347D01*
X149956845Y-103366895D01*
X149913521Y-103373722D01*
X149899693Y-103382000D01*
X149907512Y-103408097D01*
X149927771Y-103457397D01*
X149949517Y-103505163D01*
X149975402Y-103571824D01*
X149997995Y-103657827D01*
X150018845Y-103770078D01*
X150036468Y-103892121D01*
X150051505Y-104000660D01*
X150066934Y-104102537D01*
X150081182Y-104187956D01*
X150092673Y-104247120D01*
X150095174Y-104257611D01*
X150125178Y-104365811D01*
X150155045Y-104458554D01*
X150182527Y-104529879D01*
X150205375Y-104573825D01*
X150218786Y-104585263D01*
X150249619Y-104577401D01*
X150299667Y-104558194D01*
X150319770Y-104549387D01*
X150387561Y-104525117D01*
X150428683Y-104527005D01*
X150445871Y-104555474D01*
X150446770Y-104569007D01*
X150428580Y-104599933D01*
G37*
X150428580Y-104599933D02*
X150377997Y-104635467D01*
X150301006Y-104672840D01*
X150203587Y-104709284D01*
X150091725Y-104742030D01*
X150051870Y-104751736D01*
X149975127Y-104768660D01*
X149925651Y-104776106D01*
X149892827Y-104774196D01*
X149866042Y-104763053D01*
X149851600Y-104754059D01*
X149816116Y-104721879D01*
X149802000Y-104692090D01*
X149817294Y-104660239D01*
X149852138Y-104648972D01*
X149888465Y-104662635D01*
X149918110Y-104674548D01*
X149962272Y-104665362D01*
X149983523Y-104657046D01*
X150031621Y-104632854D01*
X150062427Y-104609908D01*
X150064862Y-104606699D01*
X150064863Y-104579546D01*
X150053462Y-104525248D01*
X150032868Y-104453290D01*
X150020004Y-104414205D01*
X149975790Y-104254356D01*
X149940593Y-104059654D01*
X149929422Y-103974682D01*
X149902863Y-103780159D01*
X149874068Y-103623699D01*
X149842835Y-103504343D01*
X149815544Y-103434070D01*
X149796638Y-103403877D01*
X149769940Y-103390549D01*
X149722348Y-103389276D01*
X149697757Y-103390829D01*
X149626392Y-103390106D01*
X149579435Y-103373575D01*
X149566257Y-103363378D01*
X149533682Y-103325919D01*
X149534710Y-103298686D01*
X149552885Y-103282883D01*
X149585729Y-103273141D01*
X149641717Y-103265920D01*
X149675000Y-103263969D01*
X149740941Y-103260824D01*
X149829447Y-103255430D01*
X149924146Y-103248807D01*
X149949215Y-103246896D01*
X150035349Y-103241172D01*
X150091230Y-103240745D01*
X150125422Y-103246430D01*
X150146491Y-103259041D01*
X150153236Y-103266295D01*
X150173028Y-103307742D01*
X150156360Y-103338600D01*
X150104664Y-103357818D01*
X150019406Y-103364347D01*
X149956845Y-103366895D01*
X149913521Y-103373722D01*
X149899693Y-103382000D01*
X149907512Y-103408097D01*
X149927771Y-103457397D01*
X149949517Y-103505163D01*
X149975402Y-103571824D01*
X149997995Y-103657827D01*
X150018845Y-103770078D01*
X150036468Y-103892121D01*
X150051505Y-104000660D01*
X150066934Y-104102537D01*
X150081182Y-104187956D01*
X150092673Y-104247120D01*
X150095174Y-104257611D01*
X150125178Y-104365811D01*
X150155045Y-104458554D01*
X150182527Y-104529879D01*
X150205375Y-104573825D01*
X150218786Y-104585263D01*
X150249619Y-104577401D01*
X150299667Y-104558194D01*
X150319770Y-104549387D01*
X150387561Y-104525117D01*
X150428683Y-104527005D01*
X150445871Y-104555474D01*
X150446770Y-104569007D01*
X150428580Y-104599933D01*
G36*
X151397924Y-100821270D02*
G01*
X151365952Y-100859186D01*
X151335605Y-100889724D01*
X151297755Y-100939321D01*
X151281053Y-100964549D01*
X151247022Y-101014815D01*
X151218502Y-101050343D01*
X151209128Y-101058778D01*
X151187748Y-101080103D01*
X151151390Y-101123870D01*
X151107806Y-101180737D01*
X151106476Y-101182536D01*
X151050264Y-101255389D01*
X150988835Y-101330079D01*
X150946840Y-101377881D01*
X150903732Y-101426689D01*
X150883449Y-101459562D01*
X150881563Y-101488574D01*
X150893114Y-101524420D01*
X150935323Y-101639077D01*
X150977794Y-101764286D01*
X151018814Y-101893893D01*
X151056671Y-102021744D01*
X151089652Y-102141684D01*
X151116045Y-102247558D01*
X151134137Y-102333212D01*
X151142216Y-102392490D01*
X151140960Y-102415112D01*
X151143932Y-102446786D01*
X151160814Y-102498706D01*
X151186511Y-102559909D01*
X151215930Y-102619433D01*
X151243975Y-102666316D01*
X151265554Y-102689596D01*
X151268910Y-102690461D01*
X151283434Y-102706750D01*
X151286483Y-102746759D01*
X151279135Y-102797205D01*
X151262469Y-102844803D01*
X151255369Y-102857225D01*
X151211378Y-102899170D01*
X151161272Y-102904640D01*
X151108652Y-102875008D01*
X151057118Y-102811652D01*
X151035669Y-102773353D01*
X150998925Y-102700544D01*
X150960602Y-102624631D01*
X150952874Y-102609328D01*
X150927056Y-102543321D01*
X150904661Y-102460751D01*
X150894851Y-102407794D01*
X150878831Y-102317432D01*
X150855374Y-102214488D01*
X150826601Y-102105563D01*
X150794633Y-101997258D01*
X150761593Y-101896175D01*
X150729601Y-101808915D01*
X150700779Y-101742079D01*
X150677247Y-101702267D01*
X150665464Y-101694000D01*
X150644946Y-101707360D01*
X150606520Y-101742047D01*
X150558000Y-101789971D01*
X150507199Y-101843044D01*
X150461933Y-101893175D01*
X150430016Y-101932275D01*
X150420105Y-101948000D01*
X150403184Y-101975186D01*
X150367723Y-102024802D01*
X150319606Y-102088775D01*
X150284816Y-102133615D01*
X150225412Y-102207023D01*
X150182106Y-102253792D01*
X150148684Y-102279365D01*
X150118932Y-102289186D01*
X150106396Y-102289923D01*
X150054580Y-102276470D01*
X150030763Y-102241138D01*
X150037220Y-102191468D01*
X150063762Y-102148790D01*
X150101543Y-102091242D01*
X150131253Y-102026035D01*
X150132323Y-102022832D01*
X150155279Y-101969161D01*
X150181398Y-101930227D01*
X150185428Y-101926446D01*
X150212782Y-101893936D01*
X150244779Y-101842897D01*
X150254034Y-101825577D01*
X150286462Y-101775193D01*
X150337422Y-101710232D01*
X150397100Y-101643018D01*
X150410686Y-101628886D01*
X150482827Y-101554933D01*
X150531122Y-101500869D01*
X150558118Y-101457762D01*
X150566361Y-101416684D01*
X150558397Y-101368706D01*
X150536774Y-101304896D01*
X150517694Y-101253654D01*
X150447405Y-101055178D01*
X150386347Y-100865222D01*
X150351426Y-100744228D01*
X150324653Y-100677420D01*
X150284336Y-100608289D01*
X150270625Y-100589701D01*
X150230839Y-100526100D01*
X150225014Y-100471547D01*
X150253031Y-100415971D01*
X150268350Y-100397211D01*
X150288662Y-100379276D01*
X150316633Y-100369694D01*
X150361704Y-100367279D01*
X150433317Y-100370843D01*
X150461490Y-100372908D01*
X150547964Y-100382212D01*
X150602861Y-100391278D01*
X150602861Y-100622126D01*
X150588200Y-100625117D01*
X150588692Y-100639783D01*
X150592732Y-100650436D01*
X150604331Y-100684110D01*
X150623299Y-100745849D01*
X150646740Y-100826012D01*
X150665494Y-100892366D01*
X150705130Y-101022172D01*
X150742457Y-101119590D01*
X150776621Y-101182946D01*
X150806762Y-101210568D01*
X150826512Y-101206582D01*
X150848311Y-101179263D01*
X150879773Y-101129297D01*
X150905287Y-101083759D01*
X150949421Y-101011247D01*
X151001285Y-100940329D01*
X151028426Y-100908955D01*
X151073406Y-100851793D01*
X151083151Y-100810247D01*
X151057228Y-100782163D01*
X150999758Y-100766082D01*
X150944324Y-100752209D01*
X150869474Y-100726977D01*
X150791105Y-100695762D01*
X150788693Y-100694714D01*
X150698014Y-100655774D01*
X150637768Y-100631962D01*
X150602861Y-100622126D01*
X150602861Y-100391278D01*
X150628993Y-100395594D01*
X150689070Y-100410413D01*
X150695952Y-100412835D01*
X150966901Y-100510163D01*
X151214475Y-100589450D01*
X151299450Y-100616398D01*
X151354073Y-100638670D01*
X151386072Y-100660345D01*
X151403178Y-100685503D01*
X151405007Y-100690012D01*
X151414943Y-100757859D01*
X151397924Y-100821270D01*
G37*
X151397924Y-100821270D02*
X151365952Y-100859186D01*
X151335605Y-100889724D01*
X151297755Y-100939321D01*
X151281053Y-100964549D01*
X151247022Y-101014815D01*
X151218502Y-101050343D01*
X151209128Y-101058778D01*
X151187748Y-101080103D01*
X151151390Y-101123870D01*
X151107806Y-101180737D01*
X151106476Y-101182536D01*
X151050264Y-101255389D01*
X150988835Y-101330079D01*
X150946840Y-101377881D01*
X150903732Y-101426689D01*
X150883449Y-101459562D01*
X150881563Y-101488574D01*
X150893114Y-101524420D01*
X150935323Y-101639077D01*
X150977794Y-101764286D01*
X151018814Y-101893893D01*
X151056671Y-102021744D01*
X151089652Y-102141684D01*
X151116045Y-102247558D01*
X151134137Y-102333212D01*
X151142216Y-102392490D01*
X151140960Y-102415112D01*
X151143932Y-102446786D01*
X151160814Y-102498706D01*
X151186511Y-102559909D01*
X151215930Y-102619433D01*
X151243975Y-102666316D01*
X151265554Y-102689596D01*
X151268910Y-102690461D01*
X151283434Y-102706750D01*
X151286483Y-102746759D01*
X151279135Y-102797205D01*
X151262469Y-102844803D01*
X151255369Y-102857225D01*
X151211378Y-102899170D01*
X151161272Y-102904640D01*
X151108652Y-102875008D01*
X151057118Y-102811652D01*
X151035669Y-102773353D01*
X150998925Y-102700544D01*
X150960602Y-102624631D01*
X150952874Y-102609328D01*
X150927056Y-102543321D01*
X150904661Y-102460751D01*
X150894851Y-102407794D01*
X150878831Y-102317432D01*
X150855374Y-102214488D01*
X150826601Y-102105563D01*
X150794633Y-101997258D01*
X150761593Y-101896175D01*
X150729601Y-101808915D01*
X150700779Y-101742079D01*
X150677247Y-101702267D01*
X150665464Y-101694000D01*
X150644946Y-101707360D01*
X150606520Y-101742047D01*
X150558000Y-101789971D01*
X150507199Y-101843044D01*
X150461933Y-101893175D01*
X150430016Y-101932275D01*
X150420105Y-101948000D01*
X150403184Y-101975186D01*
X150367723Y-102024802D01*
X150319606Y-102088775D01*
X150284816Y-102133615D01*
X150225412Y-102207023D01*
X150182106Y-102253792D01*
X150148684Y-102279365D01*
X150118932Y-102289186D01*
X150106396Y-102289923D01*
X150054580Y-102276470D01*
X150030763Y-102241138D01*
X150037220Y-102191468D01*
X150063762Y-102148790D01*
X150101543Y-102091242D01*
X150131253Y-102026035D01*
X150132323Y-102022832D01*
X150155279Y-101969161D01*
X150181398Y-101930227D01*
X150185428Y-101926446D01*
X150212782Y-101893936D01*
X150244779Y-101842897D01*
X150254034Y-101825577D01*
X150286462Y-101775193D01*
X150337422Y-101710232D01*
X150397100Y-101643018D01*
X150410686Y-101628886D01*
X150482827Y-101554933D01*
X150531122Y-101500869D01*
X150558118Y-101457762D01*
X150566361Y-101416684D01*
X150558397Y-101368706D01*
X150536774Y-101304896D01*
X150517694Y-101253654D01*
X150447405Y-101055178D01*
X150386347Y-100865222D01*
X150351426Y-100744228D01*
X150324653Y-100677420D01*
X150284336Y-100608289D01*
X150270625Y-100589701D01*
X150230839Y-100526100D01*
X150225014Y-100471547D01*
X150253031Y-100415971D01*
X150268350Y-100397211D01*
X150288662Y-100379276D01*
X150316633Y-100369694D01*
X150361704Y-100367279D01*
X150433317Y-100370843D01*
X150461490Y-100372908D01*
X150547964Y-100382212D01*
X150602861Y-100391278D01*
X150602861Y-100622126D01*
X150588200Y-100625117D01*
X150588692Y-100639783D01*
X150592732Y-100650436D01*
X150604331Y-100684110D01*
X150623299Y-100745849D01*
X150646740Y-100826012D01*
X150665494Y-100892366D01*
X150705130Y-101022172D01*
X150742457Y-101119590D01*
X150776621Y-101182946D01*
X150806762Y-101210568D01*
X150826512Y-101206582D01*
X150848311Y-101179263D01*
X150879773Y-101129297D01*
X150905287Y-101083759D01*
X150949421Y-101011247D01*
X151001285Y-100940329D01*
X151028426Y-100908955D01*
X151073406Y-100851793D01*
X151083151Y-100810247D01*
X151057228Y-100782163D01*
X150999758Y-100766082D01*
X150944324Y-100752209D01*
X150869474Y-100726977D01*
X150791105Y-100695762D01*
X150788693Y-100694714D01*
X150698014Y-100655774D01*
X150637768Y-100631962D01*
X150602861Y-100622126D01*
X150602861Y-100391278D01*
X150628993Y-100395594D01*
X150689070Y-100410413D01*
X150695952Y-100412835D01*
X150966901Y-100510163D01*
X151214475Y-100589450D01*
X151299450Y-100616398D01*
X151354073Y-100638670D01*
X151386072Y-100660345D01*
X151403178Y-100685503D01*
X151405007Y-100690012D01*
X151414943Y-100757859D01*
X151397924Y-100821270D01*
G36*
X152297389Y-102483705D02*
G01*
X152284997Y-102571561D01*
X152265354Y-102634955D01*
X152238111Y-102676732D01*
X152202920Y-102699738D01*
X152174259Y-102706113D01*
X152134702Y-102706782D01*
X152105363Y-102696680D01*
X152084577Y-102670875D01*
X152070678Y-102624441D01*
X152062000Y-102552446D01*
X152056878Y-102449963D01*
X152054393Y-102351416D01*
X152052299Y-102234135D01*
X152050688Y-102117966D01*
X152049692Y-102014466D01*
X152049440Y-101935192D01*
X152049522Y-101918692D01*
X152048545Y-101859462D01*
X152045213Y-101768866D01*
X152039893Y-101654520D01*
X152032954Y-101524041D01*
X152024763Y-101385045D01*
X152020288Y-101314319D01*
X152012380Y-101178038D01*
X152005617Y-101033441D01*
X152000086Y-100885908D01*
X151995879Y-100740817D01*
X151993084Y-100603550D01*
X151991790Y-100479484D01*
X151992088Y-100374000D01*
X151994066Y-100292477D01*
X151997814Y-100240295D01*
X152002153Y-100223283D01*
X152005278Y-100201991D01*
X152008750Y-100148203D01*
X152012267Y-100068492D01*
X152015529Y-99969432D01*
X152017662Y-99884794D01*
X152023875Y-99605265D01*
X152029425Y-99362185D01*
X152034420Y-99152935D01*
X152038967Y-98974895D01*
X152043172Y-98825445D01*
X152047143Y-98701965D01*
X152050987Y-98601835D01*
X152054811Y-98522435D01*
X152058721Y-98461146D01*
X152062825Y-98415347D01*
X152067231Y-98382420D01*
X152072044Y-98359743D01*
X152077372Y-98344697D01*
X152080844Y-98338269D01*
X152119359Y-98304851D01*
X152168315Y-98294759D01*
X152211270Y-98310313D01*
X152219338Y-98318730D01*
X152236515Y-98361838D01*
X152250701Y-98441013D01*
X152261826Y-98553357D01*
X152269820Y-98695967D01*
X152274612Y-98865946D01*
X152276130Y-99060392D01*
X152274305Y-99276406D01*
X152269065Y-99511087D01*
X152260339Y-99761536D01*
X152256662Y-99847615D01*
X152250757Y-99995079D01*
X152245770Y-100149824D01*
X152241744Y-100306904D01*
X152238723Y-100461370D01*
X152236751Y-100608277D01*
X152235872Y-100742677D01*
X152236129Y-100859623D01*
X152237566Y-100954169D01*
X152240227Y-101021367D01*
X152244157Y-101056270D01*
X152245923Y-101059997D01*
X152262209Y-101087167D01*
X152263847Y-101100383D01*
X152253324Y-101119279D01*
X152239424Y-101115017D01*
X152228454Y-101113368D01*
X152242503Y-101134231D01*
X152259269Y-101167362D01*
X152247388Y-101190735D01*
X152228938Y-101217406D01*
X152225819Y-101237512D01*
X152240098Y-101237448D01*
X152247473Y-101250906D01*
X152253777Y-101295002D01*
X152257962Y-101361298D01*
X152258723Y-101387718D01*
X152261391Y-101468630D01*
X152266323Y-101575432D01*
X152272848Y-101695048D01*
X152280299Y-101814401D01*
X152281406Y-101830769D01*
X152294538Y-102044920D01*
X152301811Y-102223230D01*
X152302878Y-102368543D01*
X152297389Y-102483705D01*
G37*
X152297389Y-102483705D02*
X152284997Y-102571561D01*
X152265354Y-102634955D01*
X152238111Y-102676732D01*
X152202920Y-102699738D01*
X152174259Y-102706113D01*
X152134702Y-102706782D01*
X152105363Y-102696680D01*
X152084577Y-102670875D01*
X152070678Y-102624441D01*
X152062000Y-102552446D01*
X152056878Y-102449963D01*
X152054393Y-102351416D01*
X152052299Y-102234135D01*
X152050688Y-102117966D01*
X152049692Y-102014466D01*
X152049440Y-101935192D01*
X152049522Y-101918692D01*
X152048545Y-101859462D01*
X152045213Y-101768866D01*
X152039893Y-101654520D01*
X152032954Y-101524041D01*
X152024763Y-101385045D01*
X152020288Y-101314319D01*
X152012380Y-101178038D01*
X152005617Y-101033441D01*
X152000086Y-100885908D01*
X151995879Y-100740817D01*
X151993084Y-100603550D01*
X151991790Y-100479484D01*
X151992088Y-100374000D01*
X151994066Y-100292477D01*
X151997814Y-100240295D01*
X152002153Y-100223283D01*
X152005278Y-100201991D01*
X152008750Y-100148203D01*
X152012267Y-100068492D01*
X152015529Y-99969432D01*
X152017662Y-99884794D01*
X152023875Y-99605265D01*
X152029425Y-99362185D01*
X152034420Y-99152935D01*
X152038967Y-98974895D01*
X152043172Y-98825445D01*
X152047143Y-98701965D01*
X152050987Y-98601835D01*
X152054811Y-98522435D01*
X152058721Y-98461146D01*
X152062825Y-98415347D01*
X152067231Y-98382420D01*
X152072044Y-98359743D01*
X152077372Y-98344697D01*
X152080844Y-98338269D01*
X152119359Y-98304851D01*
X152168315Y-98294759D01*
X152211270Y-98310313D01*
X152219338Y-98318730D01*
X152236515Y-98361838D01*
X152250701Y-98441013D01*
X152261826Y-98553357D01*
X152269820Y-98695967D01*
X152274612Y-98865946D01*
X152276130Y-99060392D01*
X152274305Y-99276406D01*
X152269065Y-99511087D01*
X152260339Y-99761536D01*
X152256662Y-99847615D01*
X152250757Y-99995079D01*
X152245770Y-100149824D01*
X152241744Y-100306904D01*
X152238723Y-100461370D01*
X152236751Y-100608277D01*
X152235872Y-100742677D01*
X152236129Y-100859623D01*
X152237566Y-100954169D01*
X152240227Y-101021367D01*
X152244157Y-101056270D01*
X152245923Y-101059997D01*
X152262209Y-101087167D01*
X152263847Y-101100383D01*
X152253324Y-101119279D01*
X152239424Y-101115017D01*
X152228454Y-101113368D01*
X152242503Y-101134231D01*
X152259269Y-101167362D01*
X152247388Y-101190735D01*
X152228938Y-101217406D01*
X152225819Y-101237512D01*
X152240098Y-101237448D01*
X152247473Y-101250906D01*
X152253777Y-101295002D01*
X152257962Y-101361298D01*
X152258723Y-101387718D01*
X152261391Y-101468630D01*
X152266323Y-101575432D01*
X152272848Y-101695048D01*
X152280299Y-101814401D01*
X152281406Y-101830769D01*
X152294538Y-102044920D01*
X152301811Y-102223230D01*
X152302878Y-102368543D01*
X152297389Y-102483705D01*
D11*
%TO.C,U1*%
X183750000Y-81820000D02*
X188830000Y-81820000D01*
X188830000Y-81820000D02*
X188830000Y-79280000D01*
X183750000Y-79280000D02*
X188830000Y-79280000D01*
X183750000Y-81820000D02*
X183750000Y-79280000D01*
X183750000Y-98965000D02*
X189465000Y-98965000D01*
X189465000Y-98965000D02*
X189465000Y-96425000D01*
X183750000Y-96425000D02*
X189465000Y-96425000D01*
X183750000Y-98965000D02*
X183750000Y-96425000D01*
X181083000Y-81185000D02*
X182861000Y-81185000D01*
X182861000Y-81185000D02*
X182861000Y-78518000D01*
X181083000Y-78518000D02*
X182861000Y-78518000D01*
X181083000Y-81185000D02*
X181083000Y-78518000D01*
X181083000Y-85251540D02*
X182861000Y-85251540D01*
X182861000Y-85251540D02*
X182861000Y-82582000D01*
X181083000Y-82582000D02*
X182861000Y-82582000D01*
X181083000Y-85251540D02*
X181083000Y-82582000D01*
X189719000Y-85251540D02*
X191497000Y-85251540D01*
X191497000Y-85251540D02*
X191497000Y-82582000D01*
X189719000Y-82582000D02*
X191497000Y-82582000D01*
X189719000Y-85251540D02*
X189719000Y-82582000D01*
X189719000Y-81185000D02*
X191497000Y-81185000D01*
X191497000Y-81185000D02*
X191497000Y-78518000D01*
X189719000Y-78518000D02*
X191497000Y-78518000D01*
X189719000Y-81185000D02*
X189719000Y-78518000D01*
D12*
X177400000Y-99600000D02*
X195197780Y-99600000D01*
X195197780Y-99600000D02*
X195197780Y-78601820D01*
X195197780Y-78601820D02*
X178070560Y-78601820D01*
X178070560Y-78601820D02*
X177400000Y-79272380D01*
X177400000Y-79272380D02*
X177400000Y-99600000D01*
X181799280Y-77176880D02*
X190793420Y-77176880D01*
X190793420Y-77176880D02*
X190793420Y-84530180D01*
X190793420Y-84530180D02*
X181794200Y-84530180D01*
X181794200Y-84530180D02*
X181794200Y-77176880D01*
D13*
X176765000Y-81439000D02*
G75*
G03*
X176765000Y-81439000I-254000J0D01*
G01*
D14*
%TO.C,R2*%
X192597500Y-109945276D02*
X192597500Y-110454724D01*
X193642500Y-109945276D02*
X193642500Y-110454724D01*
%TO.C,R1*%
X189477500Y-109945276D02*
X189477500Y-110454724D01*
X190522500Y-109945276D02*
X190522500Y-110454724D01*
D15*
%TO.C,J1*%
X195600000Y-107000000D02*
X195600000Y-101400000D01*
X193600000Y-101400000D02*
X195600000Y-101400000D01*
X193600000Y-107000000D02*
X195600000Y-107000000D01*
X193600000Y-101150000D02*
X181500000Y-101150000D01*
X193600000Y-107250000D02*
X181500000Y-107250000D01*
X181500000Y-107250000D02*
X181500000Y-101150000D01*
X193600000Y-107250000D02*
X193600000Y-101150000D01*
D14*
%TO.C,D17*%
X181620448Y-114286122D02*
X178892468Y-112711122D01*
X182470448Y-112813878D02*
X179742468Y-111238878D01*
X181620448Y-114286122D02*
X182470448Y-112813878D01*
%TO.C,D16*%
X169300000Y-87050000D02*
X166150000Y-87050000D01*
X169300000Y-85350000D02*
X166150000Y-85350000D01*
X169300000Y-87050000D02*
X169300000Y-85350000D01*
%TO.C,D15*%
X169300000Y-70250000D02*
X166150000Y-70250000D01*
X169300000Y-68550000D02*
X166150000Y-68550000D01*
X169300000Y-70250000D02*
X169300000Y-68550000D01*
%TO.C,D14*%
X169300000Y-53050000D02*
X166150000Y-53050000D01*
X169300000Y-51350000D02*
X166150000Y-51350000D01*
X169300000Y-53050000D02*
X169300000Y-51350000D01*
%TO.C,D13*%
X162215263Y-105912793D02*
X159172597Y-105097513D01*
X162655255Y-104270719D02*
X159612589Y-103455439D01*
X162215263Y-105912793D02*
X162655255Y-104270719D01*
%TO.C,D12*%
X151300000Y-84450000D02*
X148150000Y-84450000D01*
X151300000Y-82750000D02*
X148150000Y-82750000D01*
X151300000Y-84450000D02*
X151300000Y-82750000D01*
%TO.C,D11*%
X151300000Y-67450000D02*
X148150000Y-67450000D01*
X151300000Y-65750000D02*
X148150000Y-65750000D01*
X151300000Y-67450000D02*
X151300000Y-65750000D01*
%TO.C,D10*%
X151350000Y-50450000D02*
X148200000Y-50450000D01*
X151350000Y-48750000D02*
X148200000Y-48750000D01*
X151350000Y-50450000D02*
X151350000Y-48750000D01*
%TO.C,D9*%
X133300000Y-78850000D02*
X130150000Y-78850000D01*
X133300000Y-77150000D02*
X130150000Y-77150000D01*
X133300000Y-78850000D02*
X133300000Y-77150000D01*
%TO.C,D8*%
X133300000Y-61850000D02*
X130150000Y-61850000D01*
X133300000Y-60150000D02*
X130150000Y-60150000D01*
X133300000Y-61850000D02*
X133300000Y-60150000D01*
%TO.C,D7*%
X133350000Y-44850000D02*
X130200000Y-44850000D01*
X133350000Y-43150000D02*
X130200000Y-43150000D01*
X133350000Y-44850000D02*
X133350000Y-43150000D01*
%TO.C,D6*%
X115300000Y-85450000D02*
X112150000Y-85450000D01*
X115300000Y-83750000D02*
X112150000Y-83750000D01*
X115300000Y-85450000D02*
X115300000Y-83750000D01*
%TO.C,D5*%
X115300000Y-68650000D02*
X112150000Y-68650000D01*
X115300000Y-66950000D02*
X112150000Y-66950000D01*
X115300000Y-68650000D02*
X115300000Y-66950000D01*
%TO.C,D4*%
X115300000Y-51650000D02*
X112150000Y-51650000D01*
X115300000Y-49950000D02*
X112150000Y-49950000D01*
X115300000Y-51650000D02*
X115300000Y-49950000D01*
%TO.C,D3*%
X97300000Y-97850000D02*
X94150000Y-97850000D01*
X97300000Y-96150000D02*
X94150000Y-96150000D01*
X97300000Y-97850000D02*
X97300000Y-96150000D01*
%TO.C,D2*%
X97300000Y-80850000D02*
X94150000Y-80850000D01*
X97300000Y-79150000D02*
X94150000Y-79150000D01*
X97300000Y-80850000D02*
X97300000Y-79150000D01*
%TO.C,D1*%
X97300000Y-63650000D02*
X94150000Y-63650000D01*
X97300000Y-61950000D02*
X94150000Y-61950000D01*
X97300000Y-63650000D02*
X97300000Y-61950000D01*
%TO.C,U1*%
D16*
X186057166Y-77332666D02*
X186057166Y-78052333D01*
X186099500Y-78137000D01*
X186141833Y-78179333D01*
X186226500Y-78221666D01*
X186395833Y-78221666D01*
X186480500Y-78179333D01*
X186522833Y-78137000D01*
X186565166Y-78052333D01*
X186565166Y-77332666D01*
X187454166Y-78221666D02*
X186946166Y-78221666D01*
X187200166Y-78221666D02*
X187200166Y-77332666D01*
X187115500Y-77459666D01*
X187030833Y-77544333D01*
X186946166Y-77586666D01*
D17*
X183067828Y-89051742D02*
X183154914Y-89080771D01*
X183300057Y-89080771D01*
X183358114Y-89051742D01*
X183387142Y-89022714D01*
X183416171Y-88964657D01*
X183416171Y-88906600D01*
X183387142Y-88848542D01*
X183358114Y-88819514D01*
X183300057Y-88790485D01*
X183183942Y-88761457D01*
X183125885Y-88732428D01*
X183096857Y-88703400D01*
X183067828Y-88645342D01*
X183067828Y-88587285D01*
X183096857Y-88529228D01*
X183125885Y-88500200D01*
X183183942Y-88471171D01*
X183329085Y-88471171D01*
X183416171Y-88500200D01*
X183909657Y-89051742D02*
X183851600Y-89080771D01*
X183735485Y-89080771D01*
X183677428Y-89051742D01*
X183648400Y-88993685D01*
X183648400Y-88761457D01*
X183677428Y-88703400D01*
X183735485Y-88674371D01*
X183851600Y-88674371D01*
X183909657Y-88703400D01*
X183938685Y-88761457D01*
X183938685Y-88819514D01*
X183648400Y-88877571D01*
X184432171Y-89051742D02*
X184374114Y-89080771D01*
X184258000Y-89080771D01*
X184199942Y-89051742D01*
X184170914Y-88993685D01*
X184170914Y-88761457D01*
X184199942Y-88703400D01*
X184258000Y-88674371D01*
X184374114Y-88674371D01*
X184432171Y-88703400D01*
X184461200Y-88761457D01*
X184461200Y-88819514D01*
X184170914Y-88877571D01*
X184954685Y-89051742D02*
X184896628Y-89080771D01*
X184780514Y-89080771D01*
X184722457Y-89051742D01*
X184693428Y-88993685D01*
X184693428Y-88761457D01*
X184722457Y-88703400D01*
X184780514Y-88674371D01*
X184896628Y-88674371D01*
X184954685Y-88703400D01*
X184983714Y-88761457D01*
X184983714Y-88819514D01*
X184693428Y-88877571D01*
X185506228Y-89080771D02*
X185506228Y-88471171D01*
X185506228Y-89051742D02*
X185448171Y-89080771D01*
X185332057Y-89080771D01*
X185274000Y-89051742D01*
X185244971Y-89022714D01*
X185215942Y-88964657D01*
X185215942Y-88790485D01*
X185244971Y-88732428D01*
X185274000Y-88703400D01*
X185332057Y-88674371D01*
X185448171Y-88674371D01*
X185506228Y-88703400D01*
X186057771Y-88674371D02*
X186057771Y-89080771D01*
X185796514Y-88674371D02*
X185796514Y-88993685D01*
X185825542Y-89051742D01*
X185883600Y-89080771D01*
X185970685Y-89080771D01*
X186028742Y-89051742D01*
X186057771Y-89022714D01*
X186348057Y-89080771D02*
X186348057Y-88674371D01*
X186348057Y-88471171D02*
X186319028Y-88500200D01*
X186348057Y-88529228D01*
X186377085Y-88500200D01*
X186348057Y-88471171D01*
X186348057Y-88529228D01*
X186638342Y-88674371D02*
X186638342Y-89080771D01*
X186638342Y-88732428D02*
X186667371Y-88703400D01*
X186725428Y-88674371D01*
X186812514Y-88674371D01*
X186870571Y-88703400D01*
X186899600Y-88761457D01*
X186899600Y-89080771D01*
X187276971Y-89080771D02*
X187218914Y-89051742D01*
X187189885Y-89022714D01*
X187160857Y-88964657D01*
X187160857Y-88790485D01*
X187189885Y-88732428D01*
X187218914Y-88703400D01*
X187276971Y-88674371D01*
X187364057Y-88674371D01*
X187422114Y-88703400D01*
X187451142Y-88732428D01*
X187480171Y-88790485D01*
X187480171Y-88964657D01*
X187451142Y-89022714D01*
X187422114Y-89051742D01*
X187364057Y-89080771D01*
X187276971Y-89080771D01*
X187683371Y-88471171D02*
X188089771Y-89080771D01*
X188089771Y-88471171D02*
X187683371Y-89080771D01*
X188322000Y-89080771D02*
X188322000Y-88471171D01*
X188583257Y-88906600D02*
X188873542Y-88906600D01*
X188525200Y-89080771D02*
X188728400Y-88471171D01*
X188931600Y-89080771D01*
X189250914Y-88471171D02*
X189367028Y-88471171D01*
X189425085Y-88500200D01*
X189483142Y-88558257D01*
X189512171Y-88674371D01*
X189512171Y-88877571D01*
X189483142Y-88993685D01*
X189425085Y-89051742D01*
X189367028Y-89080771D01*
X189250914Y-89080771D01*
X189192857Y-89051742D01*
X189134800Y-88993685D01*
X189105771Y-88877571D01*
X189105771Y-88674371D01*
X189134800Y-88558257D01*
X189192857Y-88500200D01*
X189250914Y-88471171D01*
%TO.C,R2*%
D15*
X195002380Y-110366666D02*
X194526190Y-110700000D01*
X195002380Y-110938095D02*
X194002380Y-110938095D01*
X194002380Y-110557142D01*
X194050000Y-110461904D01*
X194097619Y-110414285D01*
X194192857Y-110366666D01*
X194335714Y-110366666D01*
X194430952Y-110414285D01*
X194478571Y-110461904D01*
X194526190Y-110557142D01*
X194526190Y-110938095D01*
X194097619Y-109985714D02*
X194050000Y-109938095D01*
X194002380Y-109842857D01*
X194002380Y-109604761D01*
X194050000Y-109509523D01*
X194097619Y-109461904D01*
X194192857Y-109414285D01*
X194288095Y-109414285D01*
X194430952Y-109461904D01*
X195002380Y-110033333D01*
X195002380Y-109414285D01*
%TO.C,R1*%
X191882380Y-110366666D02*
X191406190Y-110700000D01*
X191882380Y-110938095D02*
X190882380Y-110938095D01*
X190882380Y-110557142D01*
X190930000Y-110461904D01*
X190977619Y-110414285D01*
X191072857Y-110366666D01*
X191215714Y-110366666D01*
X191310952Y-110414285D01*
X191358571Y-110461904D01*
X191406190Y-110557142D01*
X191406190Y-110938095D01*
X191882380Y-109414285D02*
X191882380Y-109985714D01*
X191882380Y-109700000D02*
X190882380Y-109700000D01*
X191025238Y-109795238D01*
X191120476Y-109890476D01*
X191168095Y-109985714D01*
%TO.C,D17*%
X178197207Y-113986777D02*
X178697207Y-113120752D01*
X178903403Y-113239799D01*
X179003312Y-113352467D01*
X179038171Y-113482565D01*
X179031791Y-113588853D01*
X178977793Y-113777620D01*
X178906364Y-113901338D01*
X178769887Y-114042485D01*
X178681028Y-114101154D01*
X178550931Y-114136014D01*
X178403403Y-114105825D01*
X178197207Y-113986777D01*
X179516865Y-114748682D02*
X179021993Y-114462968D01*
X179269429Y-114605825D02*
X179769429Y-113739799D01*
X179615521Y-113815898D01*
X179485424Y-113850758D01*
X179379136Y-113844378D01*
X180305540Y-114049323D02*
X180882890Y-114382656D01*
X180011736Y-115034396D01*
%TO.C,D16*%
X166185714Y-88502380D02*
X166185714Y-87502380D01*
X166423809Y-87502380D01*
X166566666Y-87550000D01*
X166661904Y-87645238D01*
X166709523Y-87740476D01*
X166757142Y-87930952D01*
X166757142Y-88073809D01*
X166709523Y-88264285D01*
X166661904Y-88359523D01*
X166566666Y-88454761D01*
X166423809Y-88502380D01*
X166185714Y-88502380D01*
X167709523Y-88502380D02*
X167138095Y-88502380D01*
X167423809Y-88502380D02*
X167423809Y-87502380D01*
X167328571Y-87645238D01*
X167233333Y-87740476D01*
X167138095Y-87788095D01*
X168566666Y-87502380D02*
X168376190Y-87502380D01*
X168280952Y-87550000D01*
X168233333Y-87597619D01*
X168138095Y-87740476D01*
X168090476Y-87930952D01*
X168090476Y-88311904D01*
X168138095Y-88407142D01*
X168185714Y-88454761D01*
X168280952Y-88502380D01*
X168471428Y-88502380D01*
X168566666Y-88454761D01*
X168614285Y-88407142D01*
X168661904Y-88311904D01*
X168661904Y-88073809D01*
X168614285Y-87978571D01*
X168566666Y-87930952D01*
X168471428Y-87883333D01*
X168280952Y-87883333D01*
X168185714Y-87930952D01*
X168138095Y-87978571D01*
X168090476Y-88073809D01*
%TO.C,D15*%
X166185714Y-71702380D02*
X166185714Y-70702380D01*
X166423809Y-70702380D01*
X166566666Y-70750000D01*
X166661904Y-70845238D01*
X166709523Y-70940476D01*
X166757142Y-71130952D01*
X166757142Y-71273809D01*
X166709523Y-71464285D01*
X166661904Y-71559523D01*
X166566666Y-71654761D01*
X166423809Y-71702380D01*
X166185714Y-71702380D01*
X167709523Y-71702380D02*
X167138095Y-71702380D01*
X167423809Y-71702380D02*
X167423809Y-70702380D01*
X167328571Y-70845238D01*
X167233333Y-70940476D01*
X167138095Y-70988095D01*
X168614285Y-70702380D02*
X168138095Y-70702380D01*
X168090476Y-71178571D01*
X168138095Y-71130952D01*
X168233333Y-71083333D01*
X168471428Y-71083333D01*
X168566666Y-71130952D01*
X168614285Y-71178571D01*
X168661904Y-71273809D01*
X168661904Y-71511904D01*
X168614285Y-71607142D01*
X168566666Y-71654761D01*
X168471428Y-71702380D01*
X168233333Y-71702380D01*
X168138095Y-71654761D01*
X168090476Y-71607142D01*
%TO.C,D14*%
X166185714Y-54502380D02*
X166185714Y-53502380D01*
X166423809Y-53502380D01*
X166566666Y-53550000D01*
X166661904Y-53645238D01*
X166709523Y-53740476D01*
X166757142Y-53930952D01*
X166757142Y-54073809D01*
X166709523Y-54264285D01*
X166661904Y-54359523D01*
X166566666Y-54454761D01*
X166423809Y-54502380D01*
X166185714Y-54502380D01*
X167709523Y-54502380D02*
X167138095Y-54502380D01*
X167423809Y-54502380D02*
X167423809Y-53502380D01*
X167328571Y-53645238D01*
X167233333Y-53740476D01*
X167138095Y-53788095D01*
X168566666Y-53835714D02*
X168566666Y-54502380D01*
X168328571Y-53454761D02*
X168090476Y-54169047D01*
X168709523Y-54169047D01*
%TO.C,D13*%
X158831190Y-106509649D02*
X159090009Y-105543723D01*
X159319991Y-105605346D01*
X159445656Y-105688317D01*
X159512999Y-105804959D01*
X159534346Y-105909277D01*
X159531044Y-106105588D01*
X159494070Y-106243577D01*
X159398774Y-106415238D01*
X159328129Y-106494906D01*
X159211486Y-106562250D01*
X159061172Y-106571272D01*
X158831190Y-106509649D01*
X160303077Y-106904040D02*
X159751119Y-106756143D01*
X160027098Y-106830091D02*
X160285917Y-105864165D01*
X160156950Y-105977505D01*
X160040308Y-106044849D01*
X159935990Y-106066196D01*
X160883871Y-106024387D02*
X161481825Y-106184608D01*
X161061252Y-106466307D01*
X161199242Y-106503281D01*
X161278910Y-106573927D01*
X161312582Y-106632248D01*
X161333929Y-106736566D01*
X161272305Y-106966548D01*
X161201659Y-107046216D01*
X161143338Y-107079888D01*
X161039020Y-107101235D01*
X160763041Y-107027287D01*
X160683373Y-106956641D01*
X160649701Y-106898320D01*
%TO.C,D12*%
X148185714Y-85902380D02*
X148185714Y-84902380D01*
X148423809Y-84902380D01*
X148566666Y-84950000D01*
X148661904Y-85045238D01*
X148709523Y-85140476D01*
X148757142Y-85330952D01*
X148757142Y-85473809D01*
X148709523Y-85664285D01*
X148661904Y-85759523D01*
X148566666Y-85854761D01*
X148423809Y-85902380D01*
X148185714Y-85902380D01*
X149709523Y-85902380D02*
X149138095Y-85902380D01*
X149423809Y-85902380D02*
X149423809Y-84902380D01*
X149328571Y-85045238D01*
X149233333Y-85140476D01*
X149138095Y-85188095D01*
X150090476Y-84997619D02*
X150138095Y-84950000D01*
X150233333Y-84902380D01*
X150471428Y-84902380D01*
X150566666Y-84950000D01*
X150614285Y-84997619D01*
X150661904Y-85092857D01*
X150661904Y-85188095D01*
X150614285Y-85330952D01*
X150042857Y-85902380D01*
X150661904Y-85902380D01*
%TO.C,D11*%
X148185714Y-68902380D02*
X148185714Y-67902380D01*
X148423809Y-67902380D01*
X148566666Y-67950000D01*
X148661904Y-68045238D01*
X148709523Y-68140476D01*
X148757142Y-68330952D01*
X148757142Y-68473809D01*
X148709523Y-68664285D01*
X148661904Y-68759523D01*
X148566666Y-68854761D01*
X148423809Y-68902380D01*
X148185714Y-68902380D01*
X149709523Y-68902380D02*
X149138095Y-68902380D01*
X149423809Y-68902380D02*
X149423809Y-67902380D01*
X149328571Y-68045238D01*
X149233333Y-68140476D01*
X149138095Y-68188095D01*
X150661904Y-68902380D02*
X150090476Y-68902380D01*
X150376190Y-68902380D02*
X150376190Y-67902380D01*
X150280952Y-68045238D01*
X150185714Y-68140476D01*
X150090476Y-68188095D01*
%TO.C,D10*%
X148235714Y-51902380D02*
X148235714Y-50902380D01*
X148473809Y-50902380D01*
X148616666Y-50950000D01*
X148711904Y-51045238D01*
X148759523Y-51140476D01*
X148807142Y-51330952D01*
X148807142Y-51473809D01*
X148759523Y-51664285D01*
X148711904Y-51759523D01*
X148616666Y-51854761D01*
X148473809Y-51902380D01*
X148235714Y-51902380D01*
X149759523Y-51902380D02*
X149188095Y-51902380D01*
X149473809Y-51902380D02*
X149473809Y-50902380D01*
X149378571Y-51045238D01*
X149283333Y-51140476D01*
X149188095Y-51188095D01*
X150378571Y-50902380D02*
X150473809Y-50902380D01*
X150569047Y-50950000D01*
X150616666Y-50997619D01*
X150664285Y-51092857D01*
X150711904Y-51283333D01*
X150711904Y-51521428D01*
X150664285Y-51711904D01*
X150616666Y-51807142D01*
X150569047Y-51854761D01*
X150473809Y-51902380D01*
X150378571Y-51902380D01*
X150283333Y-51854761D01*
X150235714Y-51807142D01*
X150188095Y-51711904D01*
X150140476Y-51521428D01*
X150140476Y-51283333D01*
X150188095Y-51092857D01*
X150235714Y-50997619D01*
X150283333Y-50950000D01*
X150378571Y-50902380D01*
%TO.C,D9*%
X130661904Y-80302380D02*
X130661904Y-79302380D01*
X130900000Y-79302380D01*
X131042857Y-79350000D01*
X131138095Y-79445238D01*
X131185714Y-79540476D01*
X131233333Y-79730952D01*
X131233333Y-79873809D01*
X131185714Y-80064285D01*
X131138095Y-80159523D01*
X131042857Y-80254761D01*
X130900000Y-80302380D01*
X130661904Y-80302380D01*
X131709523Y-80302380D02*
X131900000Y-80302380D01*
X131995238Y-80254761D01*
X132042857Y-80207142D01*
X132138095Y-80064285D01*
X132185714Y-79873809D01*
X132185714Y-79492857D01*
X132138095Y-79397619D01*
X132090476Y-79350000D01*
X131995238Y-79302380D01*
X131804761Y-79302380D01*
X131709523Y-79350000D01*
X131661904Y-79397619D01*
X131614285Y-79492857D01*
X131614285Y-79730952D01*
X131661904Y-79826190D01*
X131709523Y-79873809D01*
X131804761Y-79921428D01*
X131995238Y-79921428D01*
X132090476Y-79873809D01*
X132138095Y-79826190D01*
X132185714Y-79730952D01*
%TO.C,D8*%
X130661904Y-63302380D02*
X130661904Y-62302380D01*
X130900000Y-62302380D01*
X131042857Y-62350000D01*
X131138095Y-62445238D01*
X131185714Y-62540476D01*
X131233333Y-62730952D01*
X131233333Y-62873809D01*
X131185714Y-63064285D01*
X131138095Y-63159523D01*
X131042857Y-63254761D01*
X130900000Y-63302380D01*
X130661904Y-63302380D01*
X131804761Y-62730952D02*
X131709523Y-62683333D01*
X131661904Y-62635714D01*
X131614285Y-62540476D01*
X131614285Y-62492857D01*
X131661904Y-62397619D01*
X131709523Y-62350000D01*
X131804761Y-62302380D01*
X131995238Y-62302380D01*
X132090476Y-62350000D01*
X132138095Y-62397619D01*
X132185714Y-62492857D01*
X132185714Y-62540476D01*
X132138095Y-62635714D01*
X132090476Y-62683333D01*
X131995238Y-62730952D01*
X131804761Y-62730952D01*
X131709523Y-62778571D01*
X131661904Y-62826190D01*
X131614285Y-62921428D01*
X131614285Y-63111904D01*
X131661904Y-63207142D01*
X131709523Y-63254761D01*
X131804761Y-63302380D01*
X131995238Y-63302380D01*
X132090476Y-63254761D01*
X132138095Y-63207142D01*
X132185714Y-63111904D01*
X132185714Y-62921428D01*
X132138095Y-62826190D01*
X132090476Y-62778571D01*
X131995238Y-62730952D01*
%TO.C,D7*%
X130711904Y-46302380D02*
X130711904Y-45302380D01*
X130950000Y-45302380D01*
X131092857Y-45350000D01*
X131188095Y-45445238D01*
X131235714Y-45540476D01*
X131283333Y-45730952D01*
X131283333Y-45873809D01*
X131235714Y-46064285D01*
X131188095Y-46159523D01*
X131092857Y-46254761D01*
X130950000Y-46302380D01*
X130711904Y-46302380D01*
X131616666Y-45302380D02*
X132283333Y-45302380D01*
X131854761Y-46302380D01*
%TO.C,D6*%
X112661904Y-86902380D02*
X112661904Y-85902380D01*
X112900000Y-85902380D01*
X113042857Y-85950000D01*
X113138095Y-86045238D01*
X113185714Y-86140476D01*
X113233333Y-86330952D01*
X113233333Y-86473809D01*
X113185714Y-86664285D01*
X113138095Y-86759523D01*
X113042857Y-86854761D01*
X112900000Y-86902380D01*
X112661904Y-86902380D01*
X114090476Y-85902380D02*
X113900000Y-85902380D01*
X113804761Y-85950000D01*
X113757142Y-85997619D01*
X113661904Y-86140476D01*
X113614285Y-86330952D01*
X113614285Y-86711904D01*
X113661904Y-86807142D01*
X113709523Y-86854761D01*
X113804761Y-86902380D01*
X113995238Y-86902380D01*
X114090476Y-86854761D01*
X114138095Y-86807142D01*
X114185714Y-86711904D01*
X114185714Y-86473809D01*
X114138095Y-86378571D01*
X114090476Y-86330952D01*
X113995238Y-86283333D01*
X113804761Y-86283333D01*
X113709523Y-86330952D01*
X113661904Y-86378571D01*
X113614285Y-86473809D01*
%TO.C,D5*%
X112661904Y-70102380D02*
X112661904Y-69102380D01*
X112900000Y-69102380D01*
X113042857Y-69150000D01*
X113138095Y-69245238D01*
X113185714Y-69340476D01*
X113233333Y-69530952D01*
X113233333Y-69673809D01*
X113185714Y-69864285D01*
X113138095Y-69959523D01*
X113042857Y-70054761D01*
X112900000Y-70102380D01*
X112661904Y-70102380D01*
X114138095Y-69102380D02*
X113661904Y-69102380D01*
X113614285Y-69578571D01*
X113661904Y-69530952D01*
X113757142Y-69483333D01*
X113995238Y-69483333D01*
X114090476Y-69530952D01*
X114138095Y-69578571D01*
X114185714Y-69673809D01*
X114185714Y-69911904D01*
X114138095Y-70007142D01*
X114090476Y-70054761D01*
X113995238Y-70102380D01*
X113757142Y-70102380D01*
X113661904Y-70054761D01*
X113614285Y-70007142D01*
%TO.C,D4*%
X112661904Y-53102380D02*
X112661904Y-52102380D01*
X112900000Y-52102380D01*
X113042857Y-52150000D01*
X113138095Y-52245238D01*
X113185714Y-52340476D01*
X113233333Y-52530952D01*
X113233333Y-52673809D01*
X113185714Y-52864285D01*
X113138095Y-52959523D01*
X113042857Y-53054761D01*
X112900000Y-53102380D01*
X112661904Y-53102380D01*
X114090476Y-52435714D02*
X114090476Y-53102380D01*
X113852380Y-52054761D02*
X113614285Y-52769047D01*
X114233333Y-52769047D01*
%TO.C,D3*%
X94661904Y-99302380D02*
X94661904Y-98302380D01*
X94900000Y-98302380D01*
X95042857Y-98350000D01*
X95138095Y-98445238D01*
X95185714Y-98540476D01*
X95233333Y-98730952D01*
X95233333Y-98873809D01*
X95185714Y-99064285D01*
X95138095Y-99159523D01*
X95042857Y-99254761D01*
X94900000Y-99302380D01*
X94661904Y-99302380D01*
X95566666Y-98302380D02*
X96185714Y-98302380D01*
X95852380Y-98683333D01*
X95995238Y-98683333D01*
X96090476Y-98730952D01*
X96138095Y-98778571D01*
X96185714Y-98873809D01*
X96185714Y-99111904D01*
X96138095Y-99207142D01*
X96090476Y-99254761D01*
X95995238Y-99302380D01*
X95709523Y-99302380D01*
X95614285Y-99254761D01*
X95566666Y-99207142D01*
%TO.C,D2*%
X94661904Y-82302380D02*
X94661904Y-81302380D01*
X94900000Y-81302380D01*
X95042857Y-81350000D01*
X95138095Y-81445238D01*
X95185714Y-81540476D01*
X95233333Y-81730952D01*
X95233333Y-81873809D01*
X95185714Y-82064285D01*
X95138095Y-82159523D01*
X95042857Y-82254761D01*
X94900000Y-82302380D01*
X94661904Y-82302380D01*
X95614285Y-81397619D02*
X95661904Y-81350000D01*
X95757142Y-81302380D01*
X95995238Y-81302380D01*
X96090476Y-81350000D01*
X96138095Y-81397619D01*
X96185714Y-81492857D01*
X96185714Y-81588095D01*
X96138095Y-81730952D01*
X95566666Y-82302380D01*
X96185714Y-82302380D01*
%TO.C,D1*%
X94661904Y-65102380D02*
X94661904Y-64102380D01*
X94900000Y-64102380D01*
X95042857Y-64150000D01*
X95138095Y-64245238D01*
X95185714Y-64340476D01*
X95233333Y-64530952D01*
X95233333Y-64673809D01*
X95185714Y-64864285D01*
X95138095Y-64959523D01*
X95042857Y-65054761D01*
X94900000Y-65102380D01*
X94661904Y-65102380D01*
X96185714Y-65102380D02*
X95614285Y-65102380D01*
X95900000Y-65102380D02*
X95900000Y-64102380D01*
X95804761Y-64245238D01*
X95709523Y-64340476D01*
X95614285Y-64388095D01*
%TD*%
M02*
