%TF.GenerationSoftware,KiCad,Pcbnew,5.1.9*%
%TF.CreationDate,2021-04-16T22:18:37+02:00*%
%TF.ProjectId,handbrush,68616e64-6272-4757-9368-2e6b69636164,rev?*%
%TF.SameCoordinates,Original*%
%TF.FileFunction,Soldermask,Top*%
%TF.FilePolarity,Negative*%
%FSLAX46Y46*%
G04 Gerber Fmt 4.6, Leading zero omitted, Abs format (unit mm)*
G04 Created by KiCad (PCBNEW 5.1.9) date 2021-04-16 22:18:37*
%MOMM*%
%LPD*%
G01*
G04 APERTURE LIST*
%ADD10C,1.143000*%
%ADD11O,1.016000X2.032000*%
%ADD12O,2.748280X1.998980*%
%ADD13C,2.000000*%
%ADD14C,1.700000*%
%ADD15C,3.400000*%
%ADD16O,2.000000X1.600000*%
%ADD17C,0.800000*%
%ADD18C,0.100000*%
%ADD19R,1.000000X1.000000*%
G04 APERTURE END LIST*
D10*
%TO.C,U1*%
X187638803Y-83335813D03*
X185098803Y-83335813D03*
X187638803Y-80795813D03*
X185098803Y-80795813D03*
D11*
X187650000Y-97800000D03*
X185100000Y-97800000D03*
D12*
X178233120Y-81482180D03*
X178233120Y-84022180D03*
X178233120Y-86562180D03*
X178233120Y-89102180D03*
X178233120Y-91642180D03*
X178233120Y-94182180D03*
X178233120Y-96722180D03*
X194397680Y-96722180D03*
X194397680Y-94182180D03*
X194397680Y-91642180D03*
X194397680Y-89102180D03*
X194397680Y-86562180D03*
X194397680Y-84022180D03*
X194397680Y-81482180D03*
%TD*%
%TO.C,R2*%
G36*
G01*
X192882500Y-110625000D02*
X193357500Y-110625000D01*
G75*
G02*
X193595000Y-110862500I0J-237500D01*
G01*
X193595000Y-111362500D01*
G75*
G02*
X193357500Y-111600000I-237500J0D01*
G01*
X192882500Y-111600000D01*
G75*
G02*
X192645000Y-111362500I0J237500D01*
G01*
X192645000Y-110862500D01*
G75*
G02*
X192882500Y-110625000I237500J0D01*
G01*
G37*
G36*
G01*
X192882500Y-108800000D02*
X193357500Y-108800000D01*
G75*
G02*
X193595000Y-109037500I0J-237500D01*
G01*
X193595000Y-109537500D01*
G75*
G02*
X193357500Y-109775000I-237500J0D01*
G01*
X192882500Y-109775000D01*
G75*
G02*
X192645000Y-109537500I0J237500D01*
G01*
X192645000Y-109037500D01*
G75*
G02*
X192882500Y-108800000I237500J0D01*
G01*
G37*
%TD*%
%TO.C,R1*%
G36*
G01*
X189762500Y-110625000D02*
X190237500Y-110625000D01*
G75*
G02*
X190475000Y-110862500I0J-237500D01*
G01*
X190475000Y-111362500D01*
G75*
G02*
X190237500Y-111600000I-237500J0D01*
G01*
X189762500Y-111600000D01*
G75*
G02*
X189525000Y-111362500I0J237500D01*
G01*
X189525000Y-110862500D01*
G75*
G02*
X189762500Y-110625000I237500J0D01*
G01*
G37*
G36*
G01*
X189762500Y-108800000D02*
X190237500Y-108800000D01*
G75*
G02*
X190475000Y-109037500I0J-237500D01*
G01*
X190475000Y-109537500D01*
G75*
G02*
X190237500Y-109775000I-237500J0D01*
G01*
X189762500Y-109775000D01*
G75*
G02*
X189525000Y-109537500I0J237500D01*
G01*
X189525000Y-109037500D01*
G75*
G02*
X189762500Y-108800000I237500J0D01*
G01*
G37*
%TD*%
D13*
%TO.C,MX17*%
X175050000Y-121909550D03*
X171769873Y-117590897D03*
D14*
X173236860Y-114050000D03*
X182763140Y-119550000D03*
D15*
X178000000Y-116800000D03*
%TD*%
D13*
%TO.C,MX16*%
X167400000Y-96900000D03*
X162400000Y-94800000D03*
D14*
X161900000Y-91000000D03*
X172900000Y-91000000D03*
D15*
X167400000Y-91000000D03*
%TD*%
D13*
%TO.C,MX15*%
X167400000Y-79900000D03*
X162400000Y-77800000D03*
D14*
X161900000Y-74000000D03*
X172900000Y-74000000D03*
D15*
X167400000Y-74000000D03*
%TD*%
D13*
%TO.C,MX14*%
X167400000Y-62900000D03*
X162400000Y-60800000D03*
D14*
X161900000Y-57000000D03*
X172900000Y-57000000D03*
D15*
X167400000Y-57000000D03*
%TD*%
D13*
%TO.C,MX13*%
X157872968Y-114698962D03*
X153586858Y-111376423D03*
D14*
X154087408Y-107576495D03*
X164712592Y-110423505D03*
D15*
X159400000Y-109000000D03*
%TD*%
D13*
%TO.C,MX12*%
X149400000Y-94300000D03*
X144400000Y-92200000D03*
D14*
X143900000Y-88400000D03*
X154900000Y-88400000D03*
D15*
X149400000Y-88400000D03*
%TD*%
D13*
%TO.C,MX11*%
X149400000Y-77300000D03*
X144400000Y-75200000D03*
D14*
X143900000Y-71400000D03*
X154900000Y-71400000D03*
D15*
X149400000Y-71400000D03*
%TD*%
D13*
%TO.C,MX10*%
X149400000Y-60300000D03*
X144400000Y-58200000D03*
D14*
X143900000Y-54400000D03*
X154900000Y-54400000D03*
D15*
X149400000Y-54400000D03*
%TD*%
D13*
%TO.C,MX9*%
X131400000Y-88500000D03*
X126400000Y-86400000D03*
D14*
X125900000Y-82600000D03*
X136900000Y-82600000D03*
D15*
X131400000Y-82600000D03*
%TD*%
D13*
%TO.C,MX8*%
X131400000Y-71500000D03*
X126400000Y-69400000D03*
D14*
X125900000Y-65600000D03*
X136900000Y-65600000D03*
D15*
X131400000Y-65600000D03*
%TD*%
D13*
%TO.C,MX7*%
X131400000Y-54500000D03*
X126400000Y-52400000D03*
D14*
X125900000Y-48600000D03*
X136900000Y-48600000D03*
D15*
X131400000Y-48600000D03*
%TD*%
D13*
%TO.C,MX6*%
X113400000Y-95300000D03*
X108400000Y-93200000D03*
D14*
X107900000Y-89400000D03*
X118900000Y-89400000D03*
D15*
X113400000Y-89400000D03*
%TD*%
D13*
%TO.C,MX5*%
X113400000Y-78300000D03*
X108400000Y-76200000D03*
D14*
X107900000Y-72400000D03*
X118900000Y-72400000D03*
D15*
X113400000Y-72400000D03*
%TD*%
D13*
%TO.C,MX4*%
X113400000Y-61300000D03*
X108400000Y-59200000D03*
D14*
X107900000Y-55400000D03*
X118900000Y-55400000D03*
D15*
X113400000Y-55400000D03*
%TD*%
D13*
%TO.C,MX3*%
X95400000Y-107500000D03*
X90400000Y-105400000D03*
D14*
X89900000Y-101600000D03*
X100900000Y-101600000D03*
D15*
X95400000Y-101600000D03*
%TD*%
D13*
%TO.C,MX2*%
X95400000Y-90500000D03*
X90400000Y-88400000D03*
D14*
X89900000Y-84600000D03*
X100900000Y-84600000D03*
D15*
X95400000Y-84600000D03*
%TD*%
D13*
%TO.C,MX1*%
X95400000Y-73500000D03*
X90400000Y-71400000D03*
D14*
X89900000Y-67600000D03*
X100900000Y-67600000D03*
D15*
X95400000Y-67600000D03*
%TD*%
D16*
%TO.C,J1*%
X187400000Y-106500000D03*
D17*
X192000000Y-104200000D03*
X185000000Y-104200000D03*
D16*
X190400000Y-106500000D03*
X183400000Y-106500000D03*
X182300000Y-101900000D03*
%TD*%
D18*
%TO.C,D17*%
G36*
X180000481Y-111791987D02*
G01*
X179500481Y-112658013D01*
X178634455Y-112158013D01*
X179134455Y-111291987D01*
X180000481Y-111791987D01*
G37*
G36*
X182165545Y-113041987D02*
G01*
X181665545Y-113908013D01*
X180799519Y-113408013D01*
X181299519Y-112541987D01*
X182165545Y-113041987D01*
G37*
%TD*%
D19*
%TO.C,D16*%
X166150000Y-86200000D03*
X168650000Y-86200000D03*
%TD*%
%TO.C,D15*%
X166150000Y-69400000D03*
X168650000Y-69400000D03*
%TD*%
%TO.C,D14*%
X166150000Y-52200000D03*
X168650000Y-52200000D03*
%TD*%
D18*
%TO.C,D13*%
G36*
X160004965Y-103922923D02*
G01*
X159746146Y-104888848D01*
X158780221Y-104630029D01*
X159039040Y-103664104D01*
X160004965Y-103922923D01*
G37*
G36*
X162419779Y-104569971D02*
G01*
X162160960Y-105535896D01*
X161195035Y-105277077D01*
X161453854Y-104311152D01*
X162419779Y-104569971D01*
G37*
%TD*%
D19*
%TO.C,D12*%
X148150000Y-83600000D03*
X150650000Y-83600000D03*
%TD*%
%TO.C,D11*%
X148150000Y-66600000D03*
X150650000Y-66600000D03*
%TD*%
%TO.C,D10*%
X148200000Y-49600000D03*
X150700000Y-49600000D03*
%TD*%
%TO.C,D9*%
X130150000Y-78000000D03*
X132650000Y-78000000D03*
%TD*%
%TO.C,D8*%
X130150000Y-61000000D03*
X132650000Y-61000000D03*
%TD*%
%TO.C,D7*%
X130200000Y-44000000D03*
X132700000Y-44000000D03*
%TD*%
%TO.C,D6*%
X112150000Y-84600000D03*
X114650000Y-84600000D03*
%TD*%
%TO.C,D5*%
X112150000Y-67800000D03*
X114650000Y-67800000D03*
%TD*%
%TO.C,D4*%
X112150000Y-50800000D03*
X114650000Y-50800000D03*
%TD*%
%TO.C,D3*%
X94150000Y-97000000D03*
X96650000Y-97000000D03*
%TD*%
%TO.C,D2*%
X94150000Y-80000000D03*
X96650000Y-80000000D03*
%TD*%
%TO.C,D1*%
X94150000Y-62800000D03*
X96650000Y-62800000D03*
%TD*%
M02*
