M48
; DRILL file {KiCad 5.1.9} date Fri Apr 16 22:18:35 2021
; FORMAT={-:-/ absolute / inch / decimal}
; #@! TF.CreationDate,2021-04-16T22:18:35+02:00
; #@! TF.GenerationSoftware,Kicad,Pcbnew,5.1.9
; #@! TF.FileFunction,NonPlated,1,2,NPTH
FMAT,2
INCH
T1C0.0315
T2C0.0669
T3C0.1339
%
G90
G05
T1
X7.2835Y-4.1024
X7.5591Y-4.1024
T2
X3.5394Y-2.6614
X3.5394Y-3.3307
X3.5394Y-4.0
X3.9724Y-2.6614
X3.9724Y-3.3307
X3.9724Y-4.0
X4.248Y-2.1811
X4.248Y-2.8504
X4.248Y-3.5197
X4.6811Y-2.1811
X4.6811Y-2.8504
X4.6811Y-3.5197
X4.9567Y-1.9134
X4.9567Y-2.5827
X4.9567Y-3.252
X5.3898Y-1.9134
X5.3898Y-2.5827
X5.3898Y-3.252
X5.6654Y-2.1417
X5.6654Y-2.811
X5.6654Y-3.4803
X6.0664Y-4.2353
X6.0984Y-2.1417
X6.0984Y-2.811
X6.0984Y-3.4803
X6.374Y-2.2441
X6.374Y-2.9134
X6.374Y-3.5827
X6.4847Y-4.3474
X6.8071Y-2.2441
X6.8071Y-2.9134
X6.8071Y-3.5827
X6.8203Y-4.4902
X7.1954Y-4.7067
T3
X3.7559Y-2.6614
X3.7559Y-3.3307
X3.7559Y-4.0
X4.4646Y-2.1811
X4.4646Y-2.8504
X4.4646Y-3.5197
X5.1732Y-1.9134
X5.1732Y-2.5827
X5.1732Y-3.252
X5.8819Y-2.1417
X5.8819Y-2.811
X5.8819Y-3.4803
X6.2756Y-4.2913
X6.5906Y-2.2441
X6.5906Y-2.9134
X6.5906Y-3.5827
X7.0079Y-4.5984
T0
M30
