M48
; DRILL file {KiCad 5.1.9} date Fri Apr 16 22:18:35 2021
; FORMAT={-:-/ absolute / inch / decimal}
; #@! TF.CreationDate,2021-04-16T22:18:35+02:00
; #@! TF.GenerationSoftware,Kicad,Pcbnew,5.1.9
; #@! TF.FileFunction,Plated,1,2,PTH
FMAT,2
INCH
T1C0.0157
T2C0.0354
T3C0.0472
%
G90
G05
T1
X5.6535Y-1.8425
X6.2992Y-3.4331
X6.3858Y-2.0236
X6.7323Y-4.2677
X6.7795Y-3.1575
X6.8504Y-4.0
X6.8898Y-3.2677
X6.9011Y-3.3194
X7.1496Y-4.9055
X7.2677Y-3.6378
X7.3465Y-4.5118
X7.5039Y-3.6772
X7.5317Y-3.4664
X7.5669Y-3.4409
T3
X3.5591Y-2.811
X3.5591Y-3.4803
X3.5591Y-4.1496
X3.7559Y-2.8937
X3.7559Y-3.563
X3.7559Y-4.2323
X4.2677Y-2.3307
X4.2677Y-3.0
X4.2677Y-3.6693
X4.4646Y-2.4134
X4.4646Y-3.0827
X4.4646Y-3.752
X4.9764Y-2.063
X4.9764Y-2.7323
X4.9764Y-3.4016
X5.1732Y-2.1457
X5.1732Y-2.815
X5.1732Y-3.4843
X5.685Y-2.2913
X5.685Y-2.9606
X5.685Y-3.6299
X5.8819Y-2.374
X5.8819Y-3.0433
X5.8819Y-3.7126
X6.0467Y-4.3849
X6.2155Y-4.5157
X6.3937Y-2.3937
X6.3937Y-3.063
X6.3937Y-3.7323
X6.5906Y-2.4764
X6.5906Y-3.1457
X6.5906Y-3.815
X6.7626Y-4.6296
X6.8917Y-4.7996
T2
G00X7.185Y-4.0118
M15
G01X7.1693Y-4.0118
M16
G05
G00X7.2283Y-4.1929
M15
G01X7.2126Y-4.1929
M16
G05
G00X7.3858Y-4.1929
M15
G01X7.3701Y-4.1929
M16
G05
G00X7.5039Y-4.1929
M15
G01X7.4882Y-4.1929
M16
G05
T0
M30
